G04 #@! TF.GenerationSoftware,KiCad,Pcbnew,(5.0.2)-1*
G04 #@! TF.CreationDate,2019-03-08T18:58:42+09:00*
G04 #@! TF.ProjectId,spindleMD_v2,7370696e-646c-4654-9d44-5f76322e6b69,rev?*
G04 #@! TF.SameCoordinates,Original*
G04 #@! TF.FileFunction,Copper,L2,Bot*
G04 #@! TF.FilePolarity,Positive*
%FSLAX46Y46*%
G04 Gerber Fmt 4.6, Leading zero omitted, Abs format (unit mm)*
G04 Created by KiCad (PCBNEW (5.0.2)-1) date 2019/03/08 18:58:42*
%MOMM*%
%LPD*%
G01*
G04 APERTURE LIST*
G04 #@! TA.AperFunction,ComponentPad*
%ADD10C,5.600000*%
G04 #@! TD*
G04 #@! TA.AperFunction,ComponentPad*
%ADD11C,2.000000*%
G04 #@! TD*
G04 #@! TA.AperFunction,ComponentPad*
%ADD12R,2.000000X2.000000*%
G04 #@! TD*
G04 #@! TA.AperFunction,SMDPad,CuDef*
%ADD13R,2.500000X2.300000*%
G04 #@! TD*
G04 #@! TA.AperFunction,ComponentPad*
%ADD14R,1.750000X1.750000*%
G04 #@! TD*
G04 #@! TA.AperFunction,ComponentPad*
%ADD15C,1.750000*%
G04 #@! TD*
G04 #@! TA.AperFunction,ComponentPad*
%ADD16O,3.000000X2.350000*%
G04 #@! TD*
G04 #@! TA.AperFunction,ComponentPad*
%ADD17R,3.000000X2.350000*%
G04 #@! TD*
G04 #@! TA.AperFunction,ComponentPad*
%ADD18R,1.800000X1.800000*%
G04 #@! TD*
G04 #@! TA.AperFunction,ComponentPad*
%ADD19O,1.800000X1.800000*%
G04 #@! TD*
G04 #@! TA.AperFunction,ComponentPad*
%ADD20C,1.600000*%
G04 #@! TD*
G04 #@! TA.AperFunction,ComponentPad*
%ADD21O,1.700000X1.200000*%
G04 #@! TD*
G04 #@! TA.AperFunction,ComponentPad*
%ADD22R,1.700000X1.200000*%
G04 #@! TD*
G04 #@! TA.AperFunction,ViaPad*
%ADD23C,0.800000*%
G04 #@! TD*
G04 #@! TA.AperFunction,Conductor*
%ADD24C,0.500000*%
G04 #@! TD*
G04 #@! TA.AperFunction,Conductor*
%ADD25C,0.250000*%
G04 #@! TD*
G04 #@! TA.AperFunction,Conductor*
%ADD26C,2.000000*%
G04 #@! TD*
G04 #@! TA.AperFunction,Conductor*
%ADD27C,0.800000*%
G04 #@! TD*
G04 APERTURE END LIST*
D10*
G04 #@! TO.P,REF\002A\002A,1*
G04 #@! TO.N,N/C*
X133000000Y-144500000D03*
G04 #@! TD*
G04 #@! TO.P,REF\002A\002A,1*
G04 #@! TO.N,N/C*
X133000000Y-55500000D03*
G04 #@! TD*
D11*
G04 #@! TO.P,C10,2*
G04 #@! TO.N,GNDPWR*
X67060000Y-65710000D03*
D12*
G04 #@! TO.P,C10,1*
G04 #@! TO.N,VDD*
X72060000Y-65710000D03*
G04 #@! TD*
D13*
G04 #@! TO.P,D8,2*
G04 #@! TO.N,/H-Bridge/AOUT*
X113725000Y-68250000D03*
G04 #@! TO.P,D8,1*
G04 #@! TO.N,VDD*
X118025000Y-68250000D03*
G04 #@! TD*
G04 #@! TO.P,D9,1*
G04 #@! TO.N,/H-Bridge/AOUT*
X106595000Y-68250000D03*
G04 #@! TO.P,D9,2*
G04 #@! TO.N,GNDPWR*
X102295000Y-68250000D03*
G04 #@! TD*
G04 #@! TO.P,D10,1*
G04 #@! TO.N,VDD*
X93895000Y-68250000D03*
G04 #@! TO.P,D10,2*
G04 #@! TO.N,/H-Bridge/BOUT*
X89595000Y-68250000D03*
G04 #@! TD*
G04 #@! TO.P,D11,2*
G04 #@! TO.N,GNDPWR*
X78165000Y-68250000D03*
G04 #@! TO.P,D11,1*
G04 #@! TO.N,/H-Bridge/BOUT*
X82465000Y-68250000D03*
G04 #@! TD*
D14*
G04 #@! TO.P,J1,1*
G04 #@! TO.N,GND*
X82220000Y-144450000D03*
D15*
G04 #@! TO.P,J1,2*
G04 #@! TO.N,Net-(C3-Pad1)*
X79720000Y-144450000D03*
G04 #@! TD*
G04 #@! TO.P,J3,4*
G04 #@! TO.N,/MCU/UART_RX*
X97580000Y-144450000D03*
G04 #@! TO.P,J3,3*
G04 #@! TO.N,/MCU/UART_TX*
X100080000Y-144450000D03*
G04 #@! TO.P,J3,2*
G04 #@! TO.N,+3V3*
X102580000Y-144450000D03*
D14*
G04 #@! TO.P,J3,1*
G04 #@! TO.N,GND*
X105080000Y-144450000D03*
G04 #@! TD*
G04 #@! TO.P,J4,1*
G04 #@! TO.N,GND*
X125400000Y-144450000D03*
D15*
G04 #@! TO.P,J4,2*
G04 #@! TO.N,N/C*
X122900000Y-144450000D03*
G04 #@! TO.P,J4,3*
G04 #@! TO.N,/MCU/I2C_SDA*
X120400000Y-144450000D03*
G04 #@! TO.P,J4,4*
G04 #@! TO.N,/MCU/I2C_SCL*
X117900000Y-144450000D03*
G04 #@! TO.P,J4,5*
G04 #@! TO.N,/MCU/SHUTDOWN*
X115400000Y-144450000D03*
G04 #@! TO.P,J4,6*
G04 #@! TO.N,/MCU/SD_Monitor*
X112900000Y-144450000D03*
G04 #@! TD*
D14*
G04 #@! TO.P,J5,1*
G04 #@! TO.N,GND*
X125400000Y-134290000D03*
D15*
G04 #@! TO.P,J5,2*
G04 #@! TO.N,+5V*
X122900000Y-134290000D03*
G04 #@! TO.P,J5,3*
G04 #@! TO.N,/MCU/RE_A*
X120400000Y-134290000D03*
G04 #@! TO.P,J5,4*
G04 #@! TO.N,/MCU/RE_B*
X117900000Y-134290000D03*
G04 #@! TD*
D14*
G04 #@! TO.P,J6,1*
G04 #@! TO.N,GND*
X110160000Y-134290000D03*
D15*
G04 #@! TO.P,J6,2*
G04 #@! TO.N,+3V3*
X107660000Y-134290000D03*
G04 #@! TO.P,J6,3*
G04 #@! TO.N,/MCU/GPIO_1*
X105160000Y-134290000D03*
G04 #@! TO.P,J6,4*
G04 #@! TO.N,/MCU/GPIO_2*
X102660000Y-134290000D03*
G04 #@! TO.P,J6,5*
G04 #@! TO.N,/MCU/GPIO_3*
X100160000Y-134290000D03*
G04 #@! TO.P,J6,6*
G04 #@! TO.N,/MCU/GPIO_4*
X97660000Y-134290000D03*
G04 #@! TD*
D16*
G04 #@! TO.P,J7,2*
G04 #@! TO.N,GNDPWR*
X68250000Y-74250000D03*
D17*
G04 #@! TO.P,J7,1*
G04 #@! TO.N,VDD*
X68250000Y-78210000D03*
G04 #@! TD*
D15*
G04 #@! TO.P,J8,2*
G04 #@! TO.N,+12V*
X66980000Y-84800000D03*
D14*
G04 #@! TO.P,J8,1*
G04 #@! TO.N,GNDPWR*
X66980000Y-87300000D03*
G04 #@! TD*
D16*
G04 #@! TO.P,J9,2*
G04 #@! TO.N,/CurrentSensing/IP+*
X131750000Y-77925000D03*
D17*
G04 #@! TO.P,J9,1*
G04 #@! TO.N,/H-Bridge/AOUT*
X131750000Y-73965000D03*
G04 #@! TD*
D18*
G04 #@! TO.P,Q1,1*
G04 #@! TO.N,Net-(Q1-Pad1)*
X120320000Y-72060000D03*
D19*
G04 #@! TO.P,Q1,2*
G04 #@! TO.N,VDD*
X117780000Y-72060000D03*
G04 #@! TO.P,Q1,3*
G04 #@! TO.N,/H-Bridge/AOUT*
X115240000Y-72060000D03*
G04 #@! TD*
G04 #@! TO.P,Q2,3*
G04 #@! TO.N,GNDPWR*
X103810000Y-72060000D03*
G04 #@! TO.P,Q2,2*
G04 #@! TO.N,/H-Bridge/AOUT*
X106350000Y-72060000D03*
D18*
G04 #@! TO.P,Q2,1*
G04 #@! TO.N,Net-(Q2-Pad1)*
X108890000Y-72060000D03*
G04 #@! TD*
D19*
G04 #@! TO.P,Q3,3*
G04 #@! TO.N,/H-Bridge/BOUT*
X91110000Y-72060000D03*
G04 #@! TO.P,Q3,2*
G04 #@! TO.N,VDD*
X93650000Y-72060000D03*
D18*
G04 #@! TO.P,Q3,1*
G04 #@! TO.N,Net-(Q3-Pad1)*
X96190000Y-72060000D03*
G04 #@! TD*
G04 #@! TO.P,Q4,1*
G04 #@! TO.N,Net-(Q4-Pad1)*
X84760000Y-72060000D03*
D19*
G04 #@! TO.P,Q4,2*
G04 #@! TO.N,/H-Bridge/BOUT*
X82220000Y-72060000D03*
G04 #@! TO.P,Q4,3*
G04 #@! TO.N,GNDPWR*
X79680000Y-72060000D03*
G04 #@! TD*
D20*
G04 #@! TO.P,U3,4*
G04 #@! TO.N,+5VA*
X112700000Y-82855000D03*
G04 #@! TO.P,U3,3*
G04 #@! TO.N,GNDPWR*
X112700000Y-85395000D03*
G04 #@! TO.P,U3,2*
G04 #@! TO.N,+5V*
X112700000Y-87935000D03*
G04 #@! TO.P,U3,1*
G04 #@! TO.N,GND*
X112700000Y-90475000D03*
G04 #@! TD*
D10*
G04 #@! TO.P,REF\002A\002A,1*
G04 #@! TO.N,N/C*
X67000000Y-55500000D03*
G04 #@! TD*
G04 #@! TO.P,REF\002A\002A,1*
G04 #@! TO.N,N/C*
X67000000Y-144500000D03*
G04 #@! TD*
D21*
G04 #@! TO.P,J2,6*
G04 #@! TO.N,/MCU/SWO*
X66980000Y-100160000D03*
G04 #@! TO.P,J2,5*
G04 #@! TO.N,/MCU/NRST*
X66980000Y-102160000D03*
G04 #@! TO.P,J2,4*
G04 #@! TO.N,/MCU/SWDIO*
X66980000Y-104160000D03*
G04 #@! TO.P,J2,3*
G04 #@! TO.N,GND*
X66980000Y-106160000D03*
G04 #@! TO.P,J2,2*
G04 #@! TO.N,/MCU/SWCLK*
X66980000Y-108160000D03*
D22*
G04 #@! TO.P,J2,1*
G04 #@! TO.N,+3V3*
X66980000Y-110160000D03*
G04 #@! TD*
D23*
G04 #@! TO.N,GND*
X77775000Y-129210000D03*
X72695000Y-129210000D03*
X82855000Y-89840000D03*
X90475000Y-89840000D03*
X98095000Y-89840000D03*
X105715000Y-89840000D03*
X96190000Y-108255000D03*
X82220000Y-138735000D03*
X123875972Y-88062000D03*
X120057272Y-88051092D03*
X127940000Y-88062000D03*
X118288000Y-94411990D03*
X77775000Y-90475000D03*
X127940000Y-93015000D03*
X125400000Y-124892000D03*
X131750000Y-94666000D03*
X74346000Y-140640000D03*
X103810011Y-116763989D03*
X91872000Y-107620000D03*
X71806000Y-107620000D03*
X74600000Y-143180000D03*
X77140000Y-145720000D03*
X72060000Y-145720000D03*
X72060000Y-140640000D03*
X66980000Y-140640000D03*
X69520000Y-138100000D03*
X72060000Y-135560000D03*
X66980000Y-130480000D03*
X69520000Y-127940000D03*
X72060000Y-130480000D03*
X66980000Y-125400000D03*
X66980000Y-120320000D03*
X72060000Y-120320000D03*
X77140000Y-120320000D03*
X77140000Y-115240000D03*
X66980000Y-115240000D03*
X72060000Y-115240000D03*
X77140000Y-125400000D03*
X74600000Y-122860000D03*
X74600000Y-127940000D03*
X79680000Y-127940000D03*
X79680000Y-122860000D03*
X79680000Y-117780000D03*
X82220000Y-115240000D03*
X82220000Y-120320000D03*
X82220000Y-125400000D03*
X84760000Y-127940000D03*
X84760000Y-122860000D03*
X84760000Y-117780000D03*
X87300000Y-120320000D03*
X87300000Y-125400000D03*
X92380000Y-125400000D03*
X92380000Y-120320000D03*
X94920000Y-127940000D03*
X77140000Y-105080000D03*
X72060000Y-105080000D03*
X82220000Y-105080000D03*
X87300000Y-105080000D03*
X74600000Y-102540000D03*
X79680000Y-102540000D03*
X79680000Y-102540000D03*
X84760000Y-102540000D03*
X89840000Y-102540000D03*
X94920000Y-102540000D03*
X92380000Y-100000000D03*
X87300000Y-100000000D03*
X82220000Y-100000000D03*
X77140000Y-100000000D03*
X72060000Y-100000000D03*
X72060000Y-94920000D03*
X66980000Y-94920000D03*
X69520000Y-97460000D03*
X69520000Y-92380000D03*
X74600000Y-92380000D03*
X77140000Y-94920000D03*
X74600000Y-97460000D03*
X79680000Y-97460000D03*
X84760000Y-97460000D03*
X84760000Y-92380000D03*
X92380000Y-94920000D03*
X102540000Y-100000000D03*
X100000000Y-92380000D03*
X107620000Y-100000000D03*
X107620000Y-94920000D03*
X110160000Y-92380000D03*
X110160000Y-97460000D03*
X112700000Y-100000000D03*
X112700000Y-94920000D03*
X115240000Y-97460000D03*
X120320000Y-97460000D03*
X117780000Y-100000000D03*
X125400000Y-97460000D03*
X125400000Y-92380000D03*
X130480000Y-97460000D03*
X133020000Y-94920000D03*
X133020000Y-100000000D03*
X133020000Y-89840000D03*
X127940000Y-100000000D03*
X120320000Y-102540000D03*
X122860000Y-105080000D03*
X122860000Y-110160000D03*
X127940000Y-110160000D03*
X133020000Y-110160000D03*
X130480000Y-112700000D03*
X125400000Y-112700000D03*
X122860000Y-115240000D03*
X120320000Y-112700000D03*
X117780000Y-115240000D03*
X112700000Y-115240000D03*
X112700000Y-110160000D03*
X120320000Y-117780000D03*
X117780000Y-120320000D03*
X120320000Y-122860000D03*
X122860000Y-120320000D03*
X127940000Y-120320000D03*
X133020000Y-120320000D03*
X133020000Y-125400000D03*
X130480000Y-127940000D03*
X127940000Y-125400000D03*
X130480000Y-133020000D03*
X133020000Y-135560000D03*
X130480000Y-138100000D03*
X133020000Y-140640000D03*
X127940000Y-140640000D03*
X127940000Y-145720000D03*
X127940000Y-135560000D03*
X127940000Y-130480000D03*
X122860000Y-140640000D03*
X120320000Y-138100000D03*
X117780000Y-140640000D03*
X110160000Y-143180000D03*
X110160000Y-138100000D03*
X107620000Y-145720000D03*
X107620000Y-140640000D03*
X100000000Y-138100000D03*
X97460000Y-140640000D03*
X102540000Y-140640000D03*
X105080000Y-138100000D03*
X92380000Y-140640000D03*
X94920000Y-143180000D03*
X92380000Y-145720000D03*
X87300000Y-145720000D03*
X84760000Y-143180000D03*
X89840000Y-143180000D03*
X87300000Y-140640000D03*
X89840000Y-138100000D03*
X94920000Y-138100000D03*
X92380000Y-135560000D03*
X100000000Y-127940000D03*
X97460000Y-125400000D03*
X105080000Y-127940000D03*
X102540000Y-125400000D03*
X107620000Y-125400000D03*
X110160000Y-122860000D03*
X110160000Y-127940000D03*
X74600000Y-107620000D03*
X79680000Y-107620000D03*
X84760000Y-107620000D03*
X97460000Y-112700000D03*
X100000000Y-115240000D03*
X97460000Y-115240000D03*
X102540000Y-112700000D03*
X102540000Y-110160000D03*
X100000000Y-110160000D03*
G04 #@! TO.N,/MCU/NRST*
X108128018Y-107620000D03*
X96952004Y-102286000D03*
G04 #@! TO.N,+5V*
X84760000Y-129210000D03*
X116510000Y-126924012D03*
G04 #@! TO.N,+3V3*
X90475000Y-133020000D03*
X117780000Y-125400000D03*
X71806000Y-110160000D03*
X88062000Y-110160000D03*
X91872000Y-109652000D03*
X111938010Y-125400000D03*
G04 #@! TO.N,GNDPWR*
X77140000Y-74600000D03*
X119050000Y-77140000D03*
X120057270Y-85278893D03*
X123876064Y-85268000D03*
X81204000Y-80696000D03*
X96444000Y-80696000D03*
X66980000Y-61900000D03*
X69520000Y-59360000D03*
X72060000Y-61900000D03*
X72060000Y-56820000D03*
X74600000Y-54280000D03*
X74600000Y-59360000D03*
X77140000Y-61900000D03*
X77140000Y-56820000D03*
X79680000Y-54280000D03*
X79680000Y-59360000D03*
X82220000Y-61900000D03*
X84760000Y-59360000D03*
X84760000Y-54280000D03*
X87300000Y-56820000D03*
X87300000Y-61900000D03*
X89840000Y-59360000D03*
X89840000Y-54280000D03*
X92380000Y-61900000D03*
X94920000Y-59360000D03*
X97460000Y-61900000D03*
X97460000Y-56820000D03*
X100000000Y-54280000D03*
X100000000Y-59360000D03*
X102540000Y-61900000D03*
X102540000Y-56820000D03*
X105080000Y-59360000D03*
X107620000Y-61900000D03*
X110160000Y-59360000D03*
X110160000Y-54280000D03*
X112700000Y-56820000D03*
X112700000Y-61900000D03*
X115240000Y-59360000D03*
X115240000Y-54280000D03*
X117780000Y-61900000D03*
X120320000Y-64440000D03*
X120320000Y-59360000D03*
X120320000Y-54280000D03*
X122860000Y-56820000D03*
X122860000Y-61900000D03*
X122860000Y-66980000D03*
X125400000Y-64440000D03*
X125400000Y-59360000D03*
X125400000Y-54280000D03*
X127940000Y-56820000D03*
X127940000Y-61900000D03*
X130480000Y-59360000D03*
X133020000Y-61900000D03*
X125400000Y-79680000D03*
X125400000Y-84760000D03*
X115240000Y-77140000D03*
X110160000Y-77140000D03*
X112700000Y-79680000D03*
X107620000Y-79680000D03*
X107620000Y-84760000D03*
X110160000Y-82220000D03*
X100000000Y-77140000D03*
X94920000Y-77140000D03*
X92380000Y-79680000D03*
X89840000Y-77140000D03*
X84760000Y-77140000D03*
X79680000Y-77140000D03*
X74600000Y-82220000D03*
X72060000Y-79680000D03*
X69520000Y-82220000D03*
X100000000Y-72060000D03*
X133020000Y-82220000D03*
X127940000Y-66980000D03*
X130480000Y-64440000D03*
X133020000Y-66980000D03*
X130480000Y-69520000D03*
G04 #@! TO.N,VDD*
X79680000Y-64440000D03*
X78410000Y-64440000D03*
X77140000Y-64440000D03*
X75870000Y-64440000D03*
X74600000Y-64440000D03*
X73330000Y-64440000D03*
X124130000Y-72060000D03*
G04 #@! TO.N,+12V*
X73330000Y-84760000D03*
X73965000Y-84760000D03*
X83490000Y-85522000D03*
X78156000Y-84760000D03*
X93396000Y-84760000D03*
X98984000Y-85268000D03*
G04 #@! TO.N,/H-Bridge/BOUT*
X84125000Y-69520000D03*
X85395000Y-69520000D03*
X86665000Y-69520000D03*
X82220000Y-70099998D03*
X89840000Y-70790000D03*
X87935000Y-69520000D03*
G04 #@! TO.N,/MCU/LED3*
X99525008Y-121336000D03*
X112700000Y-108381994D03*
X119304000Y-108382000D03*
X105080000Y-121336000D03*
G04 #@! TO.N,/MCU/LED2*
X98984000Y-122352000D03*
X112700000Y-107112000D03*
X119304000Y-107112000D03*
X104572000Y-122352000D03*
G04 #@! TO.N,/MCU/LED1*
X115494000Y-106096000D03*
X117525990Y-106096000D03*
X100508000Y-105080000D03*
X97968000Y-105080000D03*
G04 #@! TO.N,/MCU/SWO*
X69266000Y-100254014D03*
X91872000Y-116509994D03*
X89332000Y-116510000D03*
G04 #@! TO.N,/MCU/SWDIO*
X93903994Y-114700000D03*
X71044000Y-104064000D03*
X89332000Y-114478000D03*
G04 #@! TO.N,/MCU/SWCLK*
X94442940Y-115542359D03*
X89332004Y-115494000D03*
X70028000Y-108128000D03*
G04 #@! TO.N,/MCU/SD_Monitor*
X97206000Y-120319992D03*
X107873980Y-120353070D03*
G04 #@! TO.N,/MCU/SHUTDOWN*
X96397294Y-119487940D03*
X107065294Y-119594982D03*
G04 #@! TO.N,/MCU/I2C_SCL*
X97206024Y-118796000D03*
X107827289Y-118832990D03*
G04 #@! TO.N,/MCU/I2C_SDA*
X101233010Y-118034000D03*
X108635990Y-118034000D03*
G04 #@! TO.N,/MCU/GPIO_1*
X105587994Y-109652000D03*
X110922000Y-109652000D03*
G04 #@! TO.N,/MCU/GPIO_2*
X105588000Y-108382004D03*
X110414012Y-108382000D03*
G04 #@! TO.N,/MCU/USER_BUTTON*
X115494000Y-109652004D03*
X117526000Y-109652000D03*
G04 #@! TO.N,/H-Bridge/GATE_AP*
X97968000Y-104064000D03*
X100508000Y-104064000D03*
G04 #@! TO.N,/H-Bridge/GATE_BN*
X96444000Y-97460000D03*
X98800000Y-97460004D03*
G04 #@! TO.N,/VoltageSensing/VOUT*
X112700000Y-103302000D03*
X117525994Y-103302000D03*
G04 #@! TO.N,/MCU/I_SENSE*
X112700000Y-104826000D03*
X117526000Y-104826000D03*
G04 #@! TD*
D24*
G04 #@! TO.N,GND*
X77775000Y-129210000D02*
X72695000Y-129210000D01*
X125400000Y-135665000D02*
X125400000Y-144450000D01*
X125400000Y-134290000D02*
X125400000Y-135665000D01*
X82855000Y-89840000D02*
X90475000Y-89840000D01*
X90475000Y-89840000D02*
X98095000Y-89840000D01*
X98095000Y-89840000D02*
X105715000Y-89840000D01*
X112065000Y-89840000D02*
X112700000Y-90475000D01*
X105715000Y-89840000D02*
X112065000Y-89840000D01*
X77775000Y-129210000D02*
X77775000Y-134290000D01*
X77775000Y-134290000D02*
X82220000Y-138735000D01*
D25*
X120068180Y-88062000D02*
X120057272Y-88051092D01*
X123875972Y-88062000D02*
X120068180Y-88062000D01*
X123875972Y-88062000D02*
X127940000Y-88062000D01*
D24*
X117722315Y-94411990D02*
X118288000Y-94411990D01*
X113715990Y-94411990D02*
X117722315Y-94411990D01*
X112700000Y-90475000D02*
X112700000Y-93396000D01*
X112700000Y-93396000D02*
X113715990Y-94411990D01*
X114097000Y-90475000D02*
X112700000Y-90475000D01*
X120057272Y-88051092D02*
X116520908Y-88051092D01*
X116520908Y-88051092D02*
X114097000Y-90475000D01*
X82855000Y-89840000D02*
X78410000Y-89840000D01*
X78410000Y-89840000D02*
X77775000Y-90475000D01*
X124130000Y-146355000D02*
X105080000Y-146355000D01*
X125400000Y-144450000D02*
X125400000Y-145085000D01*
X125400000Y-145085000D02*
X124130000Y-146355000D01*
X105080000Y-146355000D02*
X105080000Y-144450000D01*
X82855000Y-146355000D02*
X105080000Y-146355000D01*
X82220000Y-144450000D02*
X82220000Y-145720000D01*
X82220000Y-145720000D02*
X82855000Y-146355000D01*
X127940000Y-93015000D02*
X127940000Y-88062000D01*
D25*
X125400000Y-124892000D02*
X125400000Y-134290000D01*
X127940000Y-94158000D02*
X127940000Y-93015000D01*
X131750000Y-94666000D02*
X128448000Y-94666000D01*
X128448000Y-94666000D02*
X127940000Y-94158000D01*
D24*
X74346000Y-140640000D02*
X82220000Y-140640000D01*
X82220000Y-138735000D02*
X82220000Y-140640000D01*
X82220000Y-140640000D02*
X82220000Y-144450000D01*
X96190000Y-108255000D02*
X96190000Y-109143978D01*
X103410012Y-116363990D02*
X103810011Y-116763989D01*
X66980000Y-106160000D02*
X70346000Y-106160000D01*
X70346000Y-106160000D02*
X71406001Y-107220001D01*
X71406001Y-107220001D02*
X71806000Y-107620000D01*
D25*
X74346000Y-140640000D02*
X74346000Y-142926000D01*
X74346000Y-142926000D02*
X74600000Y-143180000D01*
X74600000Y-143180000D02*
X77140000Y-145720000D01*
X77140000Y-145720000D02*
X72060000Y-145720000D01*
X72060000Y-145720000D02*
X72060000Y-140640000D01*
X72060000Y-140640000D02*
X66980000Y-140640000D01*
X66980000Y-140640000D02*
X69520000Y-138100000D01*
X69520000Y-138100000D02*
X72060000Y-135560000D01*
X72060000Y-135560000D02*
X66980000Y-130480000D01*
X66980000Y-130480000D02*
X69520000Y-127940000D01*
X69520000Y-127940000D02*
X72060000Y-130480000D01*
X69520000Y-127940000D02*
X66980000Y-125400000D01*
X66980000Y-125400000D02*
X66980000Y-120320000D01*
X66980000Y-120320000D02*
X72060000Y-120320000D01*
X72060000Y-120320000D02*
X77140000Y-120320000D01*
X77140000Y-120320000D02*
X77140000Y-115240000D01*
X66980000Y-120320000D02*
X66980000Y-115240000D01*
X66980000Y-115240000D02*
X72060000Y-115240000D01*
X77140000Y-120320000D02*
X77140000Y-125400000D01*
X77140000Y-125400000D02*
X74600000Y-122860000D01*
X77140000Y-125400000D02*
X74600000Y-127940000D01*
X77140000Y-125400000D02*
X79680000Y-127940000D01*
X79680000Y-127940000D02*
X79680000Y-122860000D01*
X79680000Y-122860000D02*
X79680000Y-117780000D01*
X79680000Y-117780000D02*
X82220000Y-115240000D01*
X82220000Y-115240000D02*
X82220000Y-120320000D01*
X82220000Y-120320000D02*
X82220000Y-125400000D01*
X82220000Y-125400000D02*
X84760000Y-127940000D01*
X84760000Y-127940000D02*
X84760000Y-122860000D01*
X84760000Y-122860000D02*
X84760000Y-117780000D01*
X84760000Y-117780000D02*
X87300000Y-120320000D01*
X87300000Y-120320000D02*
X87300000Y-125400000D01*
X87300000Y-125400000D02*
X92380000Y-125400000D01*
X92380000Y-125400000D02*
X92380000Y-120320000D01*
X92380000Y-125400000D02*
X94920000Y-127940000D01*
X77140000Y-107620000D02*
X77140000Y-105080000D01*
D24*
X77140000Y-107620000D02*
X71806000Y-107620000D01*
D25*
X77140000Y-105080000D02*
X72060000Y-105080000D01*
X77140000Y-105080000D02*
X82220000Y-105080000D01*
X82220000Y-105080000D02*
X87300000Y-105080000D01*
X72060000Y-105080000D02*
X74600000Y-102540000D01*
X74600000Y-102540000D02*
X79680000Y-102540000D01*
X79680000Y-102540000D02*
X84760000Y-102540000D01*
X84760000Y-102540000D02*
X89840000Y-102540000D01*
X89840000Y-102540000D02*
X94920000Y-102540000D01*
X94920000Y-102540000D02*
X92380000Y-100000000D01*
X92380000Y-100000000D02*
X87300000Y-100000000D01*
X87300000Y-100000000D02*
X82220000Y-100000000D01*
X82220000Y-100000000D02*
X77140000Y-100000000D01*
X77140000Y-100000000D02*
X72060000Y-100000000D01*
X72060000Y-100000000D02*
X72060000Y-94920000D01*
X72060000Y-94920000D02*
X66980000Y-94920000D01*
X66980000Y-94920000D02*
X69520000Y-97460000D01*
X66980000Y-94920000D02*
X69520000Y-92380000D01*
X69520000Y-92380000D02*
X74600000Y-92380000D01*
X72060000Y-94920000D02*
X77140000Y-94920000D01*
X77140000Y-94920000D02*
X74600000Y-97460000D01*
X74600000Y-97460000D02*
X79680000Y-97460000D01*
X79680000Y-97460000D02*
X84760000Y-97460000D01*
X84760000Y-97460000D02*
X84760000Y-92380000D01*
X92380000Y-100000000D02*
X92380000Y-94920000D01*
X92380000Y-100000000D02*
X102540000Y-100000000D01*
X102540000Y-100000000D02*
X102540000Y-94920000D01*
X102540000Y-94920000D02*
X100000000Y-92380000D01*
X102540000Y-100000000D02*
X107620000Y-100000000D01*
X107620000Y-100000000D02*
X107620000Y-94920000D01*
X107620000Y-94920000D02*
X110160000Y-92380000D01*
X110160000Y-92380000D02*
X110160000Y-97460000D01*
X110160000Y-97460000D02*
X112700000Y-100000000D01*
X112700000Y-100000000D02*
X112700000Y-94920000D01*
X112700000Y-94920000D02*
X115240000Y-97460000D01*
X115240000Y-97460000D02*
X120320000Y-97460000D01*
X120320000Y-97460000D02*
X117780000Y-100000000D01*
X120320000Y-97460000D02*
X125400000Y-97460000D01*
X125400000Y-97460000D02*
X125400000Y-92380000D01*
X125400000Y-97460000D02*
X130480000Y-97460000D01*
X130480000Y-97460000D02*
X133020000Y-94920000D01*
X133020000Y-94920000D02*
X133020000Y-100000000D01*
X133020000Y-94920000D02*
X133020000Y-89840000D01*
X130480000Y-97460000D02*
X127940000Y-100000000D01*
X125400000Y-97460000D02*
X122860000Y-100000000D01*
X122860000Y-100000000D02*
X120320000Y-102540000D01*
X120320000Y-102540000D02*
X122860000Y-105080000D01*
X122860000Y-105080000D02*
X122860000Y-110160000D01*
X122860000Y-110160000D02*
X127940000Y-110160000D01*
X127940000Y-110160000D02*
X133020000Y-110160000D01*
X133020000Y-110160000D02*
X130480000Y-112700000D01*
X130480000Y-112700000D02*
X125400000Y-112700000D01*
X125400000Y-112700000D02*
X122860000Y-115240000D01*
X125400000Y-112700000D02*
X120320000Y-112700000D01*
X120320000Y-112700000D02*
X117780000Y-115240000D01*
X120320000Y-112700000D02*
X115240000Y-112700000D01*
X115240000Y-112700000D02*
X112700000Y-115240000D01*
X112700000Y-115240000D02*
X112700000Y-110160000D01*
X117780000Y-115240000D02*
X120320000Y-117780000D01*
X120320000Y-117780000D02*
X117780000Y-120320000D01*
X117780000Y-120320000D02*
X120320000Y-122860000D01*
X120320000Y-122860000D02*
X122860000Y-120320000D01*
X122860000Y-120320000D02*
X127940000Y-120320000D01*
X127940000Y-120320000D02*
X133020000Y-120320000D01*
X133020000Y-120320000D02*
X133020000Y-125400000D01*
X133020000Y-125400000D02*
X130480000Y-127940000D01*
X133020000Y-125400000D02*
X127940000Y-125400000D01*
X130480000Y-127940000D02*
X130480000Y-133020000D01*
X130480000Y-133020000D02*
X133020000Y-135560000D01*
X133020000Y-135560000D02*
X130480000Y-138100000D01*
X130480000Y-138100000D02*
X133020000Y-140640000D01*
X130480000Y-138100000D02*
X127940000Y-140640000D01*
X127940000Y-140640000D02*
X127940000Y-145720000D01*
X127940000Y-140640000D02*
X127940000Y-135560000D01*
X127940000Y-135560000D02*
X127940000Y-130480000D01*
X127940000Y-140640000D02*
X122860000Y-140640000D01*
X122860000Y-140640000D02*
X120320000Y-138100000D01*
X120320000Y-138100000D02*
X117780000Y-140640000D01*
X117780000Y-140640000D02*
X112700000Y-140640000D01*
X112700000Y-140640000D02*
X110160000Y-143180000D01*
X110160000Y-143180000D02*
X110160000Y-138100000D01*
X110160000Y-143180000D02*
X107620000Y-145720000D01*
X110160000Y-143180000D02*
X107620000Y-140640000D01*
X107620000Y-140640000D02*
X102540000Y-140640000D01*
X102540000Y-140640000D02*
X100000000Y-138100000D01*
X100000000Y-138100000D02*
X97460000Y-140640000D01*
X100000000Y-138100000D02*
X105080000Y-138100000D01*
X97460000Y-140640000D02*
X92380000Y-140640000D01*
X92380000Y-140640000D02*
X94920000Y-143180000D01*
X94920000Y-143180000D02*
X92380000Y-145720000D01*
X92380000Y-145720000D02*
X87300000Y-145720000D01*
X87300000Y-145720000D02*
X84760000Y-143180000D01*
X84760000Y-143180000D02*
X89840000Y-143180000D01*
X89840000Y-143180000D02*
X87300000Y-140640000D01*
X87300000Y-140640000D02*
X89840000Y-138100000D01*
X89840000Y-138100000D02*
X94920000Y-138100000D01*
X94920000Y-138100000D02*
X92380000Y-135560000D01*
X94920000Y-127940000D02*
X100000000Y-127940000D01*
X100000000Y-127940000D02*
X97460000Y-125400000D01*
X100000000Y-127940000D02*
X105080000Y-127940000D01*
X105080000Y-127940000D02*
X102540000Y-125400000D01*
X105080000Y-127940000D02*
X107620000Y-125400000D01*
X107620000Y-125400000D02*
X110160000Y-122860000D01*
X110160000Y-122860000D02*
X110160000Y-127940000D01*
X72060000Y-105080000D02*
X74600000Y-107620000D01*
X82220000Y-105080000D02*
X79680000Y-107620000D01*
D24*
X79680000Y-107620000D02*
X77140000Y-107620000D01*
D25*
X87300000Y-105080000D02*
X84760000Y-107620000D01*
D24*
X91872000Y-107620000D02*
X84760000Y-107620000D01*
X84760000Y-107620000D02*
X79680000Y-107620000D01*
D25*
X97206022Y-112446022D02*
X97460000Y-112700000D01*
X97206022Y-110160000D02*
X97206022Y-112446022D01*
D24*
X96190000Y-109143978D02*
X97206022Y-110160000D01*
X97206022Y-110160000D02*
X103410012Y-116363990D01*
D25*
X97460000Y-112700000D02*
X100000000Y-115240000D01*
X97460000Y-112700000D02*
X97460000Y-115240000D01*
X100000000Y-115240000D02*
X102540000Y-112700000D01*
X102540000Y-112700000D02*
X102540000Y-110160000D01*
X102540000Y-110160000D02*
X100000000Y-110160000D01*
G04 #@! TO.N,/MCU/NRST*
X97517689Y-102286000D02*
X96952004Y-102286000D01*
X102794018Y-102286000D02*
X97517689Y-102286000D01*
X108128018Y-107620000D02*
X102794018Y-102286000D01*
D24*
G04 #@! TO.N,+5V*
X116510000Y-128448000D02*
X116510000Y-126924012D01*
X86284000Y-130734000D02*
X84760000Y-129210000D01*
X115494000Y-130734000D02*
X86284000Y-130734000D01*
X116510000Y-128448000D02*
X116510000Y-129718000D01*
X116510000Y-129718000D02*
X115494000Y-130734000D01*
X121590000Y-130734000D02*
X115494000Y-130734000D01*
X122900000Y-134290000D02*
X122900000Y-132044000D01*
X122900000Y-132044000D02*
X121590000Y-130734000D01*
G04 #@! TO.N,+3V3*
X71806000Y-110160000D02*
X66980000Y-110160000D01*
X91872000Y-109652000D02*
X88570000Y-109652000D01*
X88570000Y-109652000D02*
X88062000Y-110160000D01*
X117780000Y-125400000D02*
X111938010Y-125400000D01*
X91237000Y-132258000D02*
X90475000Y-133020000D01*
X107112000Y-132258000D02*
X91237000Y-132258000D01*
X107660000Y-134290000D02*
X107660000Y-132806000D01*
X107660000Y-132806000D02*
X107112000Y-132258000D01*
D26*
G04 #@! TO.N,GNDPWR*
X67060000Y-73060000D02*
X68250000Y-74250000D01*
X67060000Y-65710000D02*
X67060000Y-73060000D01*
X78165000Y-70545000D02*
X79680000Y-72060000D01*
X78165000Y-68250000D02*
X78165000Y-70545000D01*
X102295000Y-70545000D02*
X103810000Y-72060000D01*
X102295000Y-68250000D02*
X102295000Y-70545000D01*
X79680000Y-74600000D02*
X79680000Y-72060000D01*
X103810000Y-74600000D02*
X103810000Y-72060000D01*
X77140000Y-74600000D02*
X79680000Y-74600000D01*
X68600000Y-74600000D02*
X77140000Y-74600000D01*
X68250000Y-74250000D02*
X68600000Y-74600000D01*
D27*
X68575000Y-74250000D02*
X68250000Y-74250000D01*
X70790000Y-76465000D02*
X68575000Y-74250000D01*
X70790000Y-85165000D02*
X70790000Y-76465000D01*
X66980000Y-87300000D02*
X68655000Y-87300000D01*
X68655000Y-87300000D02*
X70790000Y-85165000D01*
D25*
X107620000Y-74600000D02*
X103810000Y-74600000D01*
X109525000Y-76505000D02*
X107620000Y-74600000D01*
X109525000Y-83490000D02*
X109525000Y-76505000D01*
X112700000Y-85395000D02*
X111430000Y-85395000D01*
X111430000Y-85395000D02*
X109525000Y-83490000D01*
X110160000Y-77140000D02*
X109525000Y-76505000D01*
X119050000Y-77140000D02*
X117018000Y-77140000D01*
X117018000Y-77140000D02*
X110160000Y-77140000D01*
X120057270Y-85278893D02*
X123865171Y-85278893D01*
X123865171Y-85278893D02*
X123876064Y-85268000D01*
X112816107Y-85278893D02*
X112700000Y-85395000D01*
X120057270Y-85278893D02*
X112816107Y-85278893D01*
X81204000Y-80130315D02*
X81204000Y-74600000D01*
X81204000Y-80696000D02*
X81204000Y-80130315D01*
D26*
X79680000Y-74600000D02*
X81204000Y-74600000D01*
D25*
X96444000Y-80696000D02*
X96444000Y-74600000D01*
D26*
X81204000Y-74600000D02*
X96444000Y-74600000D01*
X96444000Y-74600000D02*
X103810000Y-74600000D01*
D25*
X67060000Y-65710000D02*
X67060000Y-61980000D01*
X67060000Y-61980000D02*
X66980000Y-61900000D01*
X66980000Y-61900000D02*
X69520000Y-59360000D01*
X69520000Y-59360000D02*
X72060000Y-61900000D01*
X72060000Y-61900000D02*
X72060000Y-56820000D01*
X72060000Y-56820000D02*
X74600000Y-54280000D01*
X74600000Y-54280000D02*
X74600000Y-59360000D01*
X74600000Y-59360000D02*
X77140000Y-61900000D01*
X77140000Y-61900000D02*
X77140000Y-56820000D01*
X77140000Y-56820000D02*
X79680000Y-54280000D01*
X79680000Y-54280000D02*
X79680000Y-59360000D01*
X79680000Y-59360000D02*
X82220000Y-61900000D01*
X82220000Y-61900000D02*
X84760000Y-59360000D01*
X84760000Y-59360000D02*
X84760000Y-54280000D01*
X84760000Y-54280000D02*
X87300000Y-56820000D01*
X87300000Y-56820000D02*
X87300000Y-61900000D01*
X87300000Y-61900000D02*
X89840000Y-59360000D01*
X89840000Y-59360000D02*
X89840000Y-54280000D01*
X89840000Y-59360000D02*
X92380000Y-61900000D01*
X92380000Y-61900000D02*
X94920000Y-59360000D01*
X94920000Y-59360000D02*
X97460000Y-61900000D01*
X97460000Y-61900000D02*
X97460000Y-56820000D01*
X97460000Y-56820000D02*
X100000000Y-54280000D01*
X100000000Y-54280000D02*
X100000000Y-59360000D01*
X100000000Y-59360000D02*
X102540000Y-61900000D01*
X102540000Y-61900000D02*
X102540000Y-56820000D01*
X102540000Y-56820000D02*
X105080000Y-59360000D01*
X105080000Y-59360000D02*
X107620000Y-61900000D01*
X107620000Y-61900000D02*
X110160000Y-59360000D01*
X110160000Y-59360000D02*
X110160000Y-54280000D01*
X110160000Y-54280000D02*
X112700000Y-56820000D01*
X112700000Y-56820000D02*
X112700000Y-61900000D01*
X112700000Y-61900000D02*
X115240000Y-59360000D01*
X115240000Y-59360000D02*
X115240000Y-54280000D01*
X115240000Y-59360000D02*
X117780000Y-61900000D01*
X117780000Y-61900000D02*
X120320000Y-64440000D01*
X120320000Y-64440000D02*
X120320000Y-59360000D01*
X120320000Y-59360000D02*
X120320000Y-54280000D01*
X120320000Y-54280000D02*
X122860000Y-56820000D01*
X122860000Y-56820000D02*
X122860000Y-61900000D01*
X122860000Y-61900000D02*
X122860000Y-66980000D01*
X122860000Y-66980000D02*
X125400000Y-64440000D01*
X125400000Y-64440000D02*
X125400000Y-59360000D01*
X125400000Y-59360000D02*
X125400000Y-54280000D01*
X125400000Y-54280000D02*
X127940000Y-56820000D01*
X127940000Y-56820000D02*
X127940000Y-61900000D01*
X127940000Y-61900000D02*
X130480000Y-59360000D01*
X130480000Y-59360000D02*
X133020000Y-61900000D01*
X125400000Y-79680000D02*
X125400000Y-84760000D01*
X119050000Y-77140000D02*
X115240000Y-77140000D01*
X115240000Y-77140000D02*
X110160000Y-77140000D01*
X115240000Y-77140000D02*
X112700000Y-79680000D01*
X112700000Y-79680000D02*
X107620000Y-79680000D01*
X107620000Y-79680000D02*
X107620000Y-84760000D01*
X107620000Y-84760000D02*
X110160000Y-82220000D01*
X110160000Y-77140000D02*
X100000000Y-77140000D01*
X100000000Y-77140000D02*
X94920000Y-77140000D01*
X94920000Y-77140000D02*
X92380000Y-79680000D01*
X94920000Y-77140000D02*
X89840000Y-77140000D01*
X89840000Y-77140000D02*
X84760000Y-77140000D01*
X84760000Y-77140000D02*
X79680000Y-77140000D01*
X79680000Y-77140000D02*
X74600000Y-82220000D01*
X74600000Y-82220000D02*
X72060000Y-79680000D01*
X74600000Y-82220000D02*
X69520000Y-82220000D01*
X100000000Y-77140000D02*
X100000000Y-72060000D01*
X130480000Y-79680000D02*
X133020000Y-82220000D01*
X125400000Y-79680000D02*
X130480000Y-79680000D01*
X127940000Y-61900000D02*
X127940000Y-66980000D01*
X127940000Y-66980000D02*
X130480000Y-64440000D01*
X130480000Y-64440000D02*
X133020000Y-66980000D01*
X133020000Y-66980000D02*
X130480000Y-69520000D01*
X134290000Y-63170000D02*
X133020000Y-61900000D01*
X133020000Y-82220000D02*
X134290000Y-80950000D01*
X134290000Y-80950000D02*
X134290000Y-63170000D01*
D26*
G04 #@! TO.N,VDD*
X93650000Y-68495000D02*
X93650000Y-72060000D01*
X93895000Y-68250000D02*
X93650000Y-68495000D01*
X117780000Y-68495000D02*
X117780000Y-72060000D01*
X118025000Y-68250000D02*
X117780000Y-68495000D01*
X93895000Y-65955000D02*
X93895000Y-68250000D01*
X92380000Y-64440000D02*
X93895000Y-65955000D01*
X118025000Y-65955000D02*
X118025000Y-68250000D01*
X92380000Y-64440000D02*
X116510000Y-64440000D01*
X116510000Y-64440000D02*
X118025000Y-65955000D01*
X79680000Y-64440000D02*
X92380000Y-64440000D01*
X79680000Y-64440000D02*
X78410000Y-64440000D01*
X78410000Y-64440000D02*
X77140000Y-64440000D01*
X77140000Y-64440000D02*
X75870000Y-64440000D01*
X75870000Y-64440000D02*
X74600000Y-64440000D01*
X74600000Y-64440000D02*
X73330000Y-64440000D01*
X72695000Y-64440000D02*
X73330000Y-64440000D01*
X72060000Y-65075000D02*
X72695000Y-64440000D01*
X72060000Y-65710000D02*
X72060000Y-65075000D01*
D25*
X124130000Y-72060000D02*
X124130000Y-69520000D01*
X122860000Y-68250000D02*
X118025000Y-68250000D01*
X124130000Y-69520000D02*
X122860000Y-68250000D01*
D27*
G04 #@! TO.N,+12V*
X73330000Y-84760000D02*
X73965000Y-84760000D01*
X73965000Y-84760000D02*
X74600000Y-84760000D01*
X82728000Y-84760000D02*
X83490000Y-85522000D01*
X74600000Y-84760000D02*
X78156000Y-84760000D01*
X78156000Y-84760000D02*
X82728000Y-84760000D01*
X93396000Y-84760000D02*
X98476000Y-84760000D01*
X98476000Y-84760000D02*
X98984000Y-85268000D01*
X82728000Y-84760000D02*
X93396000Y-84760000D01*
D26*
G04 #@! TO.N,/H-Bridge/AOUT*
X106350000Y-68495000D02*
X106350000Y-72060000D01*
X106595000Y-68250000D02*
X106350000Y-68495000D01*
X113725000Y-68250000D02*
X113725000Y-70545000D01*
X114340001Y-71160001D02*
X115240000Y-72060000D01*
X112839999Y-69659999D02*
X114340001Y-71160001D01*
X106789999Y-69659999D02*
X112839999Y-69659999D01*
X106350000Y-70099998D02*
X106789999Y-69659999D01*
X106350000Y-72060000D02*
X106350000Y-70099998D01*
X131115000Y-74600000D02*
X131750000Y-73965000D01*
X115875000Y-74600000D02*
X131115000Y-74600000D01*
X115240000Y-72060000D02*
X115240000Y-73965000D01*
X115240000Y-73965000D02*
X115875000Y-74600000D01*
G04 #@! TO.N,/H-Bridge/BOUT*
X82220000Y-68495000D02*
X82220000Y-72060000D01*
X82465000Y-68250000D02*
X82220000Y-68495000D01*
X89595000Y-70545000D02*
X91110000Y-72060000D01*
X89595000Y-68250000D02*
X89595000Y-70545000D01*
X88570000Y-69520000D02*
X89840000Y-70790000D01*
X87935000Y-69520000D02*
X88570000Y-69520000D01*
D25*
G04 #@! TO.N,/MCU/LED3*
X112700000Y-108381994D02*
X119303994Y-108381994D01*
X119303994Y-108381994D02*
X119304000Y-108382000D01*
X99525008Y-121336000D02*
X105080000Y-121336000D01*
G04 #@! TO.N,/MCU/LED2*
X113265685Y-107112000D02*
X119304000Y-107112000D01*
X112700000Y-107112000D02*
X113265685Y-107112000D01*
X98984000Y-122352000D02*
X104572000Y-122352000D01*
G04 #@! TO.N,/MCU/LED1*
X115494000Y-106096000D02*
X117525990Y-106096000D01*
X100508000Y-105080000D02*
X97968000Y-105080000D01*
G04 #@! TO.N,/MCU/SWO*
X66980000Y-100160000D02*
X69171986Y-100160000D01*
X69171986Y-100160000D02*
X69266000Y-100254014D01*
X89332006Y-116509994D02*
X89332000Y-116510000D01*
X91872000Y-116509994D02*
X89332006Y-116509994D01*
G04 #@! TO.N,/MCU/SWDIO*
X66980000Y-104160000D02*
X71044000Y-104064000D01*
X89554000Y-114700000D02*
X89332000Y-114478000D01*
X93903994Y-114700000D02*
X89554000Y-114700000D01*
G04 #@! TO.N,/MCU/SWCLK*
X66980000Y-108160000D02*
X70028000Y-108128000D01*
X93828896Y-115494000D02*
X89332004Y-115494000D01*
X94442940Y-115542359D02*
X93877255Y-115542359D01*
X93877255Y-115542359D02*
X93828896Y-115494000D01*
G04 #@! TO.N,/MCU/SD_Monitor*
X107840902Y-120319992D02*
X107873980Y-120353070D01*
X97206000Y-120319992D02*
X107840902Y-120319992D01*
G04 #@! TO.N,/MCU/SHUTDOWN*
X106499609Y-119594982D02*
X107065294Y-119594982D01*
X96397294Y-119487940D02*
X96504336Y-119594982D01*
X96504336Y-119594982D02*
X106499609Y-119594982D01*
G04 #@! TO.N,/MCU/I2C_SCL*
X107790299Y-118796000D02*
X107827289Y-118832990D01*
X97206024Y-118796000D02*
X107790299Y-118796000D01*
G04 #@! TO.N,/MCU/I2C_SDA*
X101233010Y-118034000D02*
X108635990Y-118034000D01*
G04 #@! TO.N,/MCU/GPIO_1*
X105587994Y-109652000D02*
X110922000Y-109652000D01*
G04 #@! TO.N,/MCU/GPIO_2*
X105588000Y-108382004D02*
X110414008Y-108382004D01*
X110414008Y-108382004D02*
X110414012Y-108382000D01*
G04 #@! TO.N,/MCU/USER_BUTTON*
X115494000Y-109652004D02*
X117525996Y-109652004D01*
X117525996Y-109652004D02*
X117526000Y-109652000D01*
G04 #@! TO.N,/H-Bridge/GATE_AP*
X97968000Y-104064000D02*
X100508000Y-104064000D01*
G04 #@! TO.N,/H-Bridge/GATE_BN*
X98799996Y-97460000D02*
X98800000Y-97460004D01*
X96444000Y-97460000D02*
X98799996Y-97460000D01*
G04 #@! TO.N,/VoltageSensing/VOUT*
X112700000Y-103302000D02*
X117525994Y-103302000D01*
G04 #@! TO.N,/MCU/I_SENSE*
X112700000Y-104826000D02*
X117526000Y-104826000D01*
G04 #@! TD*
D24*
G04 #@! TO.N,GNDPWR*
G36*
X80411833Y-53591833D02*
X79857516Y-54421427D01*
X79662866Y-55400000D01*
X79857516Y-56378573D01*
X80411833Y-57208167D01*
X81241427Y-57762484D01*
X81972986Y-57908000D01*
X82467014Y-57908000D01*
X83198573Y-57762484D01*
X84028167Y-57208167D01*
X84582484Y-56378573D01*
X84777134Y-55400000D01*
X84582484Y-54421427D01*
X84028167Y-53591833D01*
X83640796Y-53333000D01*
X92229204Y-53333000D01*
X91841833Y-53591833D01*
X91287516Y-54421427D01*
X91092866Y-55400000D01*
X91287516Y-56378573D01*
X91841833Y-57208167D01*
X92671427Y-57762484D01*
X93402986Y-57908000D01*
X93897014Y-57908000D01*
X94628573Y-57762484D01*
X95458167Y-57208167D01*
X96012484Y-56378573D01*
X96207134Y-55400000D01*
X96012484Y-54421427D01*
X95458167Y-53591833D01*
X95070796Y-53333000D01*
X104929204Y-53333000D01*
X104541833Y-53591833D01*
X103987516Y-54421427D01*
X103792866Y-55400000D01*
X103987516Y-56378573D01*
X104541833Y-57208167D01*
X105371427Y-57762484D01*
X106102986Y-57908000D01*
X106597014Y-57908000D01*
X107328573Y-57762484D01*
X108158167Y-57208167D01*
X108712484Y-56378573D01*
X108907134Y-55400000D01*
X108712484Y-54421427D01*
X108158167Y-53591833D01*
X107770796Y-53333000D01*
X116359204Y-53333000D01*
X115971833Y-53591833D01*
X115417516Y-54421427D01*
X115222866Y-55400000D01*
X115417516Y-56378573D01*
X115971833Y-57208167D01*
X116801427Y-57762484D01*
X117532986Y-57908000D01*
X118027014Y-57908000D01*
X118758573Y-57762484D01*
X119588167Y-57208167D01*
X120142484Y-56378573D01*
X120337134Y-55400000D01*
X120142484Y-54421427D01*
X119588167Y-53591833D01*
X119200796Y-53333000D01*
X128450743Y-53333000D01*
X128712260Y-53507740D01*
X128891990Y-53776725D01*
X128960000Y-54118635D01*
X128960000Y-56198680D01*
X128964804Y-56247453D01*
X129078985Y-56821478D01*
X129116314Y-56911598D01*
X129441473Y-57398233D01*
X129472563Y-57436117D01*
X131133883Y-59097437D01*
X131171767Y-59128527D01*
X131658402Y-59453686D01*
X131748522Y-59491015D01*
X132322547Y-59605196D01*
X132371320Y-59610000D01*
X134451365Y-59610000D01*
X134793275Y-59678010D01*
X135062260Y-59857740D01*
X135167001Y-60014496D01*
X135167001Y-85375504D01*
X135062260Y-85532260D01*
X134793275Y-85711990D01*
X134451365Y-85780000D01*
X114237291Y-85780000D01*
X114245561Y-85761942D01*
X114268335Y-85142550D01*
X114052344Y-84561591D01*
X113987489Y-84464529D01*
X113692083Y-84408574D01*
X112705657Y-85395000D01*
X112719799Y-85409142D01*
X112714142Y-85414799D01*
X112700000Y-85400657D01*
X112685858Y-85414799D01*
X112680201Y-85409142D01*
X112694343Y-85395000D01*
X111707917Y-84408574D01*
X111412511Y-84464529D01*
X111154439Y-85028058D01*
X111131665Y-85647450D01*
X111180945Y-85780000D01*
X100034605Y-85780000D01*
X100074811Y-85719828D01*
X100097496Y-85605784D01*
X100142000Y-85498341D01*
X100142000Y-85382045D01*
X100164685Y-85267999D01*
X100142000Y-85153953D01*
X100142000Y-85037659D01*
X100097496Y-84930218D01*
X100074811Y-84816170D01*
X100010209Y-84719486D01*
X99965705Y-84612045D01*
X99639955Y-84286295D01*
X99639952Y-84286294D01*
X99375478Y-84021820D01*
X99310871Y-83925129D01*
X98927829Y-83669188D01*
X98590051Y-83602000D01*
X98590046Y-83602000D01*
X98476000Y-83579315D01*
X98361954Y-83602000D01*
X82842046Y-83602000D01*
X82728000Y-83579315D01*
X82613954Y-83602000D01*
X73099659Y-83602000D01*
X72992222Y-83646502D01*
X72878171Y-83669188D01*
X72781484Y-83733792D01*
X72674045Y-83778295D01*
X72591814Y-83860526D01*
X72495129Y-83925129D01*
X72430526Y-84021814D01*
X72348295Y-84104045D01*
X72303792Y-84211484D01*
X72239188Y-84308171D01*
X72216502Y-84422222D01*
X72172000Y-84529659D01*
X72172000Y-84645949D01*
X72149314Y-84760000D01*
X72172000Y-84874051D01*
X72172000Y-84990341D01*
X72216502Y-85097778D01*
X72239188Y-85211829D01*
X72303792Y-85308516D01*
X72348295Y-85415955D01*
X72430526Y-85498186D01*
X72495129Y-85594871D01*
X72591814Y-85659474D01*
X72674045Y-85741705D01*
X72781484Y-85786208D01*
X72878171Y-85850812D01*
X72992222Y-85873498D01*
X73099659Y-85918000D01*
X76898446Y-85918000D01*
X74244972Y-88571474D01*
X73820160Y-88855324D01*
X73319058Y-88955000D01*
X65548635Y-88955000D01*
X65206725Y-88886990D01*
X64937740Y-88707260D01*
X64833000Y-88550505D01*
X64833000Y-87493500D01*
X65347000Y-87493500D01*
X65347000Y-88325776D01*
X65462399Y-88604373D01*
X65675628Y-88817602D01*
X65954225Y-88933000D01*
X66786500Y-88933000D01*
X66976000Y-88743500D01*
X66976000Y-87304000D01*
X66984000Y-87304000D01*
X66984000Y-88743500D01*
X67173500Y-88933000D01*
X68005775Y-88933000D01*
X68284372Y-88817602D01*
X68497601Y-88604373D01*
X68613000Y-88325776D01*
X68613000Y-87493500D01*
X68423500Y-87304000D01*
X66984000Y-87304000D01*
X66976000Y-87304000D01*
X65536500Y-87304000D01*
X65347000Y-87493500D01*
X64833000Y-87493500D01*
X64833000Y-84475176D01*
X65347000Y-84475176D01*
X65347000Y-85124824D01*
X65595610Y-85725020D01*
X65664308Y-85793718D01*
X65462399Y-85995627D01*
X65347000Y-86274224D01*
X65347000Y-87106500D01*
X65536500Y-87296000D01*
X66976000Y-87296000D01*
X66976000Y-87276000D01*
X66984000Y-87276000D01*
X66984000Y-87296000D01*
X68423500Y-87296000D01*
X68613000Y-87106500D01*
X68613000Y-86274224D01*
X68497601Y-85995627D01*
X68295692Y-85793718D01*
X68364390Y-85725020D01*
X68613000Y-85124824D01*
X68613000Y-84475176D01*
X68364390Y-83874980D01*
X67905020Y-83415610D01*
X67304824Y-83167000D01*
X66655176Y-83167000D01*
X66054980Y-83415610D01*
X65595610Y-83874980D01*
X65347000Y-84475176D01*
X64833000Y-84475176D01*
X64833000Y-82545095D01*
X111142000Y-82545095D01*
X111142000Y-83164905D01*
X111379191Y-83737536D01*
X111766286Y-84124631D01*
X111713574Y-84402917D01*
X112700000Y-85389343D01*
X113686426Y-84402917D01*
X113633714Y-84124631D01*
X114020809Y-83737536D01*
X114258000Y-83164905D01*
X114258000Y-82545095D01*
X114020809Y-81972464D01*
X113582536Y-81534191D01*
X113009905Y-81297000D01*
X112390095Y-81297000D01*
X111817464Y-81534191D01*
X111379191Y-81972464D01*
X111142000Y-82545095D01*
X64833000Y-82545095D01*
X64833000Y-77035000D01*
X65977150Y-77035000D01*
X65977150Y-79385000D01*
X66035980Y-79680757D01*
X66203513Y-79931487D01*
X66454243Y-80099020D01*
X66750000Y-80157850D01*
X69750000Y-80157850D01*
X70045757Y-80099020D01*
X70296487Y-79931487D01*
X70464020Y-79680757D01*
X70522850Y-79385000D01*
X70522850Y-77035000D01*
X70464020Y-76739243D01*
X70296487Y-76488513D01*
X70045757Y-76320980D01*
X69750000Y-76262150D01*
X66750000Y-76262150D01*
X66454243Y-76320980D01*
X66203513Y-76488513D01*
X66035980Y-76739243D01*
X65977150Y-77035000D01*
X64833000Y-77035000D01*
X64833000Y-74556338D01*
X66016428Y-74556338D01*
X66137610Y-74986031D01*
X66555334Y-75614008D01*
X67181577Y-76034328D01*
X67921000Y-76183000D01*
X68246000Y-76183000D01*
X68246000Y-74254000D01*
X68254000Y-74254000D01*
X68254000Y-76183000D01*
X68579000Y-76183000D01*
X69318423Y-76034328D01*
X69944666Y-75614008D01*
X70362390Y-74986031D01*
X70483572Y-74556338D01*
X70318495Y-74254000D01*
X68254000Y-74254000D01*
X68246000Y-74254000D01*
X66181505Y-74254000D01*
X66016428Y-74556338D01*
X64833000Y-74556338D01*
X64833000Y-73943662D01*
X66016428Y-73943662D01*
X66181505Y-74246000D01*
X68246000Y-74246000D01*
X68246000Y-72317000D01*
X68254000Y-72317000D01*
X68254000Y-74246000D01*
X70318495Y-74246000D01*
X70483572Y-73943662D01*
X70362390Y-73513969D01*
X69944666Y-72885992D01*
X69318423Y-72465672D01*
X68610423Y-72323318D01*
X78043043Y-72323318D01*
X78066882Y-72443163D01*
X78336303Y-73031310D01*
X78810290Y-73471584D01*
X79416682Y-73696957D01*
X79676000Y-73528495D01*
X79676000Y-72064000D01*
X78211505Y-72064000D01*
X78043043Y-72323318D01*
X68610423Y-72323318D01*
X68579000Y-72317000D01*
X68254000Y-72317000D01*
X68246000Y-72317000D01*
X67921000Y-72317000D01*
X67181577Y-72465672D01*
X66555334Y-72885992D01*
X66137610Y-73513969D01*
X66016428Y-73943662D01*
X64833000Y-73943662D01*
X64833000Y-71796682D01*
X78043043Y-71796682D01*
X78211505Y-72056000D01*
X79676000Y-72056000D01*
X79676000Y-70591505D01*
X79416682Y-70423043D01*
X78810290Y-70648416D01*
X78336303Y-71088690D01*
X78066882Y-71676837D01*
X78043043Y-71796682D01*
X64833000Y-71796682D01*
X64833000Y-68443500D01*
X76157000Y-68443500D01*
X76157000Y-69550775D01*
X76272398Y-69829372D01*
X76485627Y-70042601D01*
X76764224Y-70158000D01*
X77971500Y-70158000D01*
X78161000Y-69968500D01*
X78161000Y-68254000D01*
X78169000Y-68254000D01*
X78169000Y-69968500D01*
X78358500Y-70158000D01*
X79565776Y-70158000D01*
X79844373Y-70042601D01*
X80057602Y-69829372D01*
X80173000Y-69550775D01*
X80173000Y-68443500D01*
X79983500Y-68254000D01*
X78169000Y-68254000D01*
X78161000Y-68254000D01*
X76346500Y-68254000D01*
X76157000Y-68443500D01*
X64833000Y-68443500D01*
X64833000Y-66846275D01*
X65929382Y-66846275D01*
X66009669Y-67162463D01*
X66645454Y-67453845D01*
X67344350Y-67479743D01*
X67999956Y-67236213D01*
X68110331Y-67162463D01*
X68190618Y-66846275D01*
X67060000Y-65715657D01*
X65929382Y-66846275D01*
X64833000Y-66846275D01*
X64833000Y-65994350D01*
X65290257Y-65994350D01*
X65533787Y-66649956D01*
X65607537Y-66760331D01*
X65923725Y-66840618D01*
X67054343Y-65710000D01*
X67065657Y-65710000D01*
X68196275Y-66840618D01*
X68512463Y-66760331D01*
X68803845Y-66124546D01*
X68829743Y-65425650D01*
X68699492Y-65075000D01*
X70267560Y-65075000D01*
X70287150Y-65173486D01*
X70287150Y-66710000D01*
X70345980Y-67005757D01*
X70513513Y-67256487D01*
X70764243Y-67424020D01*
X71060000Y-67482850D01*
X71961509Y-67482850D01*
X72060000Y-67502441D01*
X72158491Y-67482850D01*
X73060000Y-67482850D01*
X73355757Y-67424020D01*
X73606487Y-67256487D01*
X73774020Y-67005757D01*
X73785264Y-66949225D01*
X76157000Y-66949225D01*
X76157000Y-68056500D01*
X76346500Y-68246000D01*
X78161000Y-68246000D01*
X78161000Y-66531500D01*
X78169000Y-66531500D01*
X78169000Y-68246000D01*
X79983500Y-68246000D01*
X80173000Y-68056500D01*
X80173000Y-66949225D01*
X80057602Y-66670628D01*
X79844373Y-66457399D01*
X79565776Y-66342000D01*
X78358500Y-66342000D01*
X78169000Y-66531500D01*
X78161000Y-66531500D01*
X77971500Y-66342000D01*
X76764224Y-66342000D01*
X76485627Y-66457399D01*
X76272398Y-66670628D01*
X76157000Y-66949225D01*
X73785264Y-66949225D01*
X73832850Y-66710000D01*
X73832850Y-66198000D01*
X91651813Y-66198000D01*
X92061989Y-66608176D01*
X91930980Y-66804243D01*
X91872150Y-67100000D01*
X91872150Y-68421651D01*
X91857560Y-68495000D01*
X91872150Y-68568349D01*
X91872150Y-69400000D01*
X91892000Y-69499794D01*
X91892001Y-70355814D01*
X91428011Y-69891824D01*
X91559020Y-69695757D01*
X91617850Y-69400000D01*
X91617850Y-67100000D01*
X91559020Y-66804243D01*
X91391487Y-66553513D01*
X91140757Y-66385980D01*
X90845000Y-66327150D01*
X88345000Y-66327150D01*
X88049243Y-66385980D01*
X87798513Y-66553513D01*
X87630980Y-66804243D01*
X87572150Y-67100000D01*
X87572150Y-67799734D01*
X87249063Y-67864000D01*
X86667553Y-68252553D01*
X86594423Y-68362000D01*
X86434659Y-68362000D01*
X86030000Y-68529615D01*
X85625341Y-68362000D01*
X85164659Y-68362000D01*
X84760000Y-68529615D01*
X84487850Y-68416887D01*
X84487850Y-67100000D01*
X84429020Y-66804243D01*
X84261487Y-66553513D01*
X84010757Y-66385980D01*
X83715000Y-66327150D01*
X81215000Y-66327150D01*
X80919243Y-66385980D01*
X80668513Y-66553513D01*
X80500980Y-66804243D01*
X80442150Y-67100000D01*
X80442150Y-68421651D01*
X80427560Y-68495000D01*
X80442150Y-68568349D01*
X80442150Y-69400000D01*
X80462000Y-69499794D01*
X80462001Y-70615818D01*
X79943318Y-70423043D01*
X79684000Y-70591505D01*
X79684000Y-72056000D01*
X79704000Y-72056000D01*
X79704000Y-72064000D01*
X79684000Y-72064000D01*
X79684000Y-73528495D01*
X79943318Y-73696957D01*
X80549710Y-73471584D01*
X80857705Y-73185496D01*
X80952554Y-73327447D01*
X81534064Y-73716000D01*
X82220000Y-73852441D01*
X82905937Y-73716000D01*
X83284493Y-73463056D01*
X83313513Y-73506487D01*
X83564243Y-73674020D01*
X83860000Y-73732850D01*
X85660000Y-73732850D01*
X85955757Y-73674020D01*
X86206487Y-73506487D01*
X86374020Y-73255757D01*
X86432850Y-72960000D01*
X86432850Y-71160000D01*
X86374020Y-70864243D01*
X86206487Y-70613513D01*
X86088264Y-70534518D01*
X86434659Y-70678000D01*
X86594423Y-70678000D01*
X86667553Y-70787447D01*
X87249063Y-71176000D01*
X87761853Y-71278000D01*
X87841813Y-71278000D01*
X88229476Y-71665663D01*
X88327554Y-71812447D01*
X88474338Y-71910525D01*
X89989340Y-73425527D01*
X90424062Y-73715999D01*
X91110000Y-73852441D01*
X91795938Y-73715999D01*
X92377447Y-73327447D01*
X92380000Y-73323625D01*
X92382554Y-73327447D01*
X92964064Y-73716000D01*
X93650000Y-73852441D01*
X94335937Y-73716000D01*
X94714493Y-73463056D01*
X94743513Y-73506487D01*
X94994243Y-73674020D01*
X95290000Y-73732850D01*
X97090000Y-73732850D01*
X97385757Y-73674020D01*
X97636487Y-73506487D01*
X97804020Y-73255757D01*
X97862850Y-72960000D01*
X97862850Y-72323318D01*
X102173043Y-72323318D01*
X102196882Y-72443163D01*
X102466303Y-73031310D01*
X102940290Y-73471584D01*
X103546682Y-73696957D01*
X103806000Y-73528495D01*
X103806000Y-72064000D01*
X102341505Y-72064000D01*
X102173043Y-72323318D01*
X97862850Y-72323318D01*
X97862850Y-71796682D01*
X102173043Y-71796682D01*
X102341505Y-72056000D01*
X103806000Y-72056000D01*
X103806000Y-70591505D01*
X103546682Y-70423043D01*
X102940290Y-70648416D01*
X102466303Y-71088690D01*
X102196882Y-71676837D01*
X102173043Y-71796682D01*
X97862850Y-71796682D01*
X97862850Y-71160000D01*
X97804020Y-70864243D01*
X97636487Y-70613513D01*
X97385757Y-70445980D01*
X97090000Y-70387150D01*
X95408000Y-70387150D01*
X95408000Y-70120536D01*
X95440757Y-70114020D01*
X95691487Y-69946487D01*
X95859020Y-69695757D01*
X95917850Y-69400000D01*
X95917850Y-68443500D01*
X100287000Y-68443500D01*
X100287000Y-69550775D01*
X100402398Y-69829372D01*
X100615627Y-70042601D01*
X100894224Y-70158000D01*
X102101500Y-70158000D01*
X102291000Y-69968500D01*
X102291000Y-68254000D01*
X102299000Y-68254000D01*
X102299000Y-69968500D01*
X102488500Y-70158000D01*
X103695776Y-70158000D01*
X103974373Y-70042601D01*
X104187602Y-69829372D01*
X104303000Y-69550775D01*
X104303000Y-68443500D01*
X104113500Y-68254000D01*
X102299000Y-68254000D01*
X102291000Y-68254000D01*
X100476500Y-68254000D01*
X100287000Y-68443500D01*
X95917850Y-68443500D01*
X95917850Y-67100000D01*
X95887859Y-66949225D01*
X100287000Y-66949225D01*
X100287000Y-68056500D01*
X100476500Y-68246000D01*
X102291000Y-68246000D01*
X102291000Y-66531500D01*
X102299000Y-66531500D01*
X102299000Y-68246000D01*
X104113500Y-68246000D01*
X104303000Y-68056500D01*
X104303000Y-66949225D01*
X104187602Y-66670628D01*
X103974373Y-66457399D01*
X103695776Y-66342000D01*
X102488500Y-66342000D01*
X102299000Y-66531500D01*
X102291000Y-66531500D01*
X102101500Y-66342000D01*
X100894224Y-66342000D01*
X100615627Y-66457399D01*
X100402398Y-66670628D01*
X100287000Y-66949225D01*
X95887859Y-66949225D01*
X95859020Y-66804243D01*
X95691487Y-66553513D01*
X95653000Y-66527797D01*
X95653000Y-66198000D01*
X115781813Y-66198000D01*
X116191989Y-66608176D01*
X116060980Y-66804243D01*
X116002150Y-67100000D01*
X116002150Y-68421651D01*
X115987560Y-68495000D01*
X116002150Y-68568349D01*
X116002150Y-69400000D01*
X116022000Y-69499794D01*
X116022001Y-70355814D01*
X115705530Y-70039343D01*
X115705528Y-70039340D01*
X115558012Y-69891824D01*
X115689020Y-69695757D01*
X115747850Y-69400000D01*
X115747850Y-67100000D01*
X115689020Y-66804243D01*
X115521487Y-66553513D01*
X115270757Y-66385980D01*
X114975000Y-66327150D01*
X112475000Y-66327150D01*
X112179243Y-66385980D01*
X111928513Y-66553513D01*
X111760980Y-66804243D01*
X111702150Y-67100000D01*
X111702150Y-67901999D01*
X108617850Y-67901999D01*
X108617850Y-67100000D01*
X108559020Y-66804243D01*
X108391487Y-66553513D01*
X108140757Y-66385980D01*
X107845000Y-66327150D01*
X105345000Y-66327150D01*
X105049243Y-66385980D01*
X104798513Y-66553513D01*
X104630980Y-66804243D01*
X104572150Y-67100000D01*
X104572150Y-68421651D01*
X104557560Y-68495000D01*
X104572150Y-68568349D01*
X104572150Y-69400000D01*
X104592000Y-69499794D01*
X104592000Y-69926854D01*
X104557560Y-70099998D01*
X104592000Y-70273143D01*
X104592001Y-70287440D01*
X104592001Y-70615818D01*
X104073318Y-70423043D01*
X103814000Y-70591505D01*
X103814000Y-72056000D01*
X103834000Y-72056000D01*
X103834000Y-72064000D01*
X103814000Y-72064000D01*
X103814000Y-73528495D01*
X104073318Y-73696957D01*
X104679710Y-73471584D01*
X104987704Y-73185496D01*
X105082553Y-73327447D01*
X105664063Y-73716000D01*
X106350000Y-73852441D01*
X107035937Y-73716000D01*
X107414493Y-73463056D01*
X107443513Y-73506487D01*
X107694243Y-73674020D01*
X107990000Y-73732850D01*
X109790000Y-73732850D01*
X110085757Y-73674020D01*
X110336487Y-73506487D01*
X110504020Y-73255757D01*
X110562850Y-72960000D01*
X110562850Y-71417999D01*
X112111812Y-71417999D01*
X112359477Y-71665664D01*
X112457554Y-71812447D01*
X112604336Y-71910524D01*
X113219340Y-72525528D01*
X113219343Y-72525530D01*
X113482000Y-72788187D01*
X113482001Y-73791853D01*
X113447560Y-73965000D01*
X113584001Y-74650938D01*
X113874473Y-75085660D01*
X113874476Y-75085663D01*
X113972554Y-75232447D01*
X114119338Y-75330525D01*
X114509473Y-75720660D01*
X114607553Y-75867447D01*
X115189063Y-76256000D01*
X115701853Y-76358000D01*
X115701854Y-76358000D01*
X115875000Y-76392441D01*
X116048146Y-76358000D01*
X130290874Y-76358000D01*
X130031385Y-76531385D01*
X129604154Y-77170781D01*
X129454131Y-77925000D01*
X129604154Y-78679219D01*
X130031385Y-79318615D01*
X130670781Y-79745846D01*
X131234619Y-79858000D01*
X132265381Y-79858000D01*
X132829219Y-79745846D01*
X133468615Y-79318615D01*
X133895846Y-78679219D01*
X134045869Y-77925000D01*
X133895846Y-77170781D01*
X133468615Y-76531385D01*
X132829219Y-76104154D01*
X132265381Y-75992000D01*
X132196040Y-75992000D01*
X132314497Y-75912850D01*
X133250000Y-75912850D01*
X133545757Y-75854020D01*
X133796487Y-75686487D01*
X133964020Y-75435757D01*
X134022850Y-75140000D01*
X134022850Y-72790000D01*
X133964020Y-72494243D01*
X133796487Y-72243513D01*
X133545757Y-72075980D01*
X133250000Y-72017150D01*
X130250000Y-72017150D01*
X129954243Y-72075980D01*
X129703513Y-72243513D01*
X129535980Y-72494243D01*
X129477150Y-72790000D01*
X129477150Y-72842000D01*
X124985660Y-72842000D01*
X125111705Y-72715955D01*
X125288000Y-72290341D01*
X125288000Y-71829659D01*
X125111705Y-71404045D01*
X125013000Y-71305340D01*
X125013000Y-69606961D01*
X125030298Y-69519999D01*
X125009225Y-69414060D01*
X124961767Y-69175471D01*
X124766607Y-68883393D01*
X124692884Y-68834133D01*
X123545869Y-67687119D01*
X123496607Y-67613393D01*
X123204529Y-67418233D01*
X122946963Y-67367000D01*
X122946962Y-67367000D01*
X122860000Y-67349702D01*
X122773038Y-67367000D01*
X120047850Y-67367000D01*
X120047850Y-67100000D01*
X119989020Y-66804243D01*
X119821487Y-66553513D01*
X119783000Y-66527797D01*
X119783000Y-66128146D01*
X119817441Y-65955000D01*
X119769833Y-65715657D01*
X119681000Y-65269063D01*
X119292447Y-64687553D01*
X119145660Y-64589473D01*
X117875527Y-63319340D01*
X117777447Y-63172553D01*
X117195937Y-62784000D01*
X116683147Y-62682000D01*
X116683142Y-62682000D01*
X116510000Y-62647560D01*
X116336858Y-62682000D01*
X92553142Y-62682000D01*
X92380000Y-62647560D01*
X92206858Y-62682000D01*
X72868146Y-62682000D01*
X72695000Y-62647559D01*
X72521854Y-62682000D01*
X72521853Y-62682000D01*
X72009063Y-62784000D01*
X71427553Y-63172553D01*
X71329473Y-63319340D01*
X70939338Y-63709475D01*
X70792554Y-63807553D01*
X70694475Y-63954338D01*
X70694473Y-63954340D01*
X70587935Y-64113786D01*
X70513513Y-64163513D01*
X70345980Y-64414243D01*
X70287150Y-64710000D01*
X70287150Y-64976514D01*
X70267560Y-65075000D01*
X68699492Y-65075000D01*
X68586213Y-64770044D01*
X68512463Y-64659669D01*
X68196275Y-64579382D01*
X67065657Y-65710000D01*
X67054343Y-65710000D01*
X65923725Y-64579382D01*
X65607537Y-64659669D01*
X65316155Y-65295454D01*
X65290257Y-65994350D01*
X64833000Y-65994350D01*
X64833000Y-64573725D01*
X65929382Y-64573725D01*
X67060000Y-65704343D01*
X68190618Y-64573725D01*
X68110331Y-64257537D01*
X67474546Y-63966155D01*
X66775650Y-63940257D01*
X66120044Y-64183787D01*
X66009669Y-64257537D01*
X65929382Y-64573725D01*
X64833000Y-64573725D01*
X64833000Y-60014495D01*
X64937740Y-59857740D01*
X65206725Y-59678010D01*
X65548635Y-59610000D01*
X67628680Y-59610000D01*
X67677453Y-59605196D01*
X68251478Y-59491015D01*
X68341598Y-59453686D01*
X68828233Y-59128527D01*
X68866117Y-59097437D01*
X70527437Y-57436117D01*
X70558527Y-57398233D01*
X70883686Y-56911598D01*
X70921015Y-56821478D01*
X71035196Y-56247453D01*
X71040000Y-56198680D01*
X71040000Y-54118635D01*
X71108010Y-53776725D01*
X71287740Y-53507740D01*
X71549257Y-53333000D01*
X80799204Y-53333000D01*
X80411833Y-53591833D01*
X80411833Y-53591833D01*
G37*
X80411833Y-53591833D02*
X79857516Y-54421427D01*
X79662866Y-55400000D01*
X79857516Y-56378573D01*
X80411833Y-57208167D01*
X81241427Y-57762484D01*
X81972986Y-57908000D01*
X82467014Y-57908000D01*
X83198573Y-57762484D01*
X84028167Y-57208167D01*
X84582484Y-56378573D01*
X84777134Y-55400000D01*
X84582484Y-54421427D01*
X84028167Y-53591833D01*
X83640796Y-53333000D01*
X92229204Y-53333000D01*
X91841833Y-53591833D01*
X91287516Y-54421427D01*
X91092866Y-55400000D01*
X91287516Y-56378573D01*
X91841833Y-57208167D01*
X92671427Y-57762484D01*
X93402986Y-57908000D01*
X93897014Y-57908000D01*
X94628573Y-57762484D01*
X95458167Y-57208167D01*
X96012484Y-56378573D01*
X96207134Y-55400000D01*
X96012484Y-54421427D01*
X95458167Y-53591833D01*
X95070796Y-53333000D01*
X104929204Y-53333000D01*
X104541833Y-53591833D01*
X103987516Y-54421427D01*
X103792866Y-55400000D01*
X103987516Y-56378573D01*
X104541833Y-57208167D01*
X105371427Y-57762484D01*
X106102986Y-57908000D01*
X106597014Y-57908000D01*
X107328573Y-57762484D01*
X108158167Y-57208167D01*
X108712484Y-56378573D01*
X108907134Y-55400000D01*
X108712484Y-54421427D01*
X108158167Y-53591833D01*
X107770796Y-53333000D01*
X116359204Y-53333000D01*
X115971833Y-53591833D01*
X115417516Y-54421427D01*
X115222866Y-55400000D01*
X115417516Y-56378573D01*
X115971833Y-57208167D01*
X116801427Y-57762484D01*
X117532986Y-57908000D01*
X118027014Y-57908000D01*
X118758573Y-57762484D01*
X119588167Y-57208167D01*
X120142484Y-56378573D01*
X120337134Y-55400000D01*
X120142484Y-54421427D01*
X119588167Y-53591833D01*
X119200796Y-53333000D01*
X128450743Y-53333000D01*
X128712260Y-53507740D01*
X128891990Y-53776725D01*
X128960000Y-54118635D01*
X128960000Y-56198680D01*
X128964804Y-56247453D01*
X129078985Y-56821478D01*
X129116314Y-56911598D01*
X129441473Y-57398233D01*
X129472563Y-57436117D01*
X131133883Y-59097437D01*
X131171767Y-59128527D01*
X131658402Y-59453686D01*
X131748522Y-59491015D01*
X132322547Y-59605196D01*
X132371320Y-59610000D01*
X134451365Y-59610000D01*
X134793275Y-59678010D01*
X135062260Y-59857740D01*
X135167001Y-60014496D01*
X135167001Y-85375504D01*
X135062260Y-85532260D01*
X134793275Y-85711990D01*
X134451365Y-85780000D01*
X114237291Y-85780000D01*
X114245561Y-85761942D01*
X114268335Y-85142550D01*
X114052344Y-84561591D01*
X113987489Y-84464529D01*
X113692083Y-84408574D01*
X112705657Y-85395000D01*
X112719799Y-85409142D01*
X112714142Y-85414799D01*
X112700000Y-85400657D01*
X112685858Y-85414799D01*
X112680201Y-85409142D01*
X112694343Y-85395000D01*
X111707917Y-84408574D01*
X111412511Y-84464529D01*
X111154439Y-85028058D01*
X111131665Y-85647450D01*
X111180945Y-85780000D01*
X100034605Y-85780000D01*
X100074811Y-85719828D01*
X100097496Y-85605784D01*
X100142000Y-85498341D01*
X100142000Y-85382045D01*
X100164685Y-85267999D01*
X100142000Y-85153953D01*
X100142000Y-85037659D01*
X100097496Y-84930218D01*
X100074811Y-84816170D01*
X100010209Y-84719486D01*
X99965705Y-84612045D01*
X99639955Y-84286295D01*
X99639952Y-84286294D01*
X99375478Y-84021820D01*
X99310871Y-83925129D01*
X98927829Y-83669188D01*
X98590051Y-83602000D01*
X98590046Y-83602000D01*
X98476000Y-83579315D01*
X98361954Y-83602000D01*
X82842046Y-83602000D01*
X82728000Y-83579315D01*
X82613954Y-83602000D01*
X73099659Y-83602000D01*
X72992222Y-83646502D01*
X72878171Y-83669188D01*
X72781484Y-83733792D01*
X72674045Y-83778295D01*
X72591814Y-83860526D01*
X72495129Y-83925129D01*
X72430526Y-84021814D01*
X72348295Y-84104045D01*
X72303792Y-84211484D01*
X72239188Y-84308171D01*
X72216502Y-84422222D01*
X72172000Y-84529659D01*
X72172000Y-84645949D01*
X72149314Y-84760000D01*
X72172000Y-84874051D01*
X72172000Y-84990341D01*
X72216502Y-85097778D01*
X72239188Y-85211829D01*
X72303792Y-85308516D01*
X72348295Y-85415955D01*
X72430526Y-85498186D01*
X72495129Y-85594871D01*
X72591814Y-85659474D01*
X72674045Y-85741705D01*
X72781484Y-85786208D01*
X72878171Y-85850812D01*
X72992222Y-85873498D01*
X73099659Y-85918000D01*
X76898446Y-85918000D01*
X74244972Y-88571474D01*
X73820160Y-88855324D01*
X73319058Y-88955000D01*
X65548635Y-88955000D01*
X65206725Y-88886990D01*
X64937740Y-88707260D01*
X64833000Y-88550505D01*
X64833000Y-87493500D01*
X65347000Y-87493500D01*
X65347000Y-88325776D01*
X65462399Y-88604373D01*
X65675628Y-88817602D01*
X65954225Y-88933000D01*
X66786500Y-88933000D01*
X66976000Y-88743500D01*
X66976000Y-87304000D01*
X66984000Y-87304000D01*
X66984000Y-88743500D01*
X67173500Y-88933000D01*
X68005775Y-88933000D01*
X68284372Y-88817602D01*
X68497601Y-88604373D01*
X68613000Y-88325776D01*
X68613000Y-87493500D01*
X68423500Y-87304000D01*
X66984000Y-87304000D01*
X66976000Y-87304000D01*
X65536500Y-87304000D01*
X65347000Y-87493500D01*
X64833000Y-87493500D01*
X64833000Y-84475176D01*
X65347000Y-84475176D01*
X65347000Y-85124824D01*
X65595610Y-85725020D01*
X65664308Y-85793718D01*
X65462399Y-85995627D01*
X65347000Y-86274224D01*
X65347000Y-87106500D01*
X65536500Y-87296000D01*
X66976000Y-87296000D01*
X66976000Y-87276000D01*
X66984000Y-87276000D01*
X66984000Y-87296000D01*
X68423500Y-87296000D01*
X68613000Y-87106500D01*
X68613000Y-86274224D01*
X68497601Y-85995627D01*
X68295692Y-85793718D01*
X68364390Y-85725020D01*
X68613000Y-85124824D01*
X68613000Y-84475176D01*
X68364390Y-83874980D01*
X67905020Y-83415610D01*
X67304824Y-83167000D01*
X66655176Y-83167000D01*
X66054980Y-83415610D01*
X65595610Y-83874980D01*
X65347000Y-84475176D01*
X64833000Y-84475176D01*
X64833000Y-82545095D01*
X111142000Y-82545095D01*
X111142000Y-83164905D01*
X111379191Y-83737536D01*
X111766286Y-84124631D01*
X111713574Y-84402917D01*
X112700000Y-85389343D01*
X113686426Y-84402917D01*
X113633714Y-84124631D01*
X114020809Y-83737536D01*
X114258000Y-83164905D01*
X114258000Y-82545095D01*
X114020809Y-81972464D01*
X113582536Y-81534191D01*
X113009905Y-81297000D01*
X112390095Y-81297000D01*
X111817464Y-81534191D01*
X111379191Y-81972464D01*
X111142000Y-82545095D01*
X64833000Y-82545095D01*
X64833000Y-77035000D01*
X65977150Y-77035000D01*
X65977150Y-79385000D01*
X66035980Y-79680757D01*
X66203513Y-79931487D01*
X66454243Y-80099020D01*
X66750000Y-80157850D01*
X69750000Y-80157850D01*
X70045757Y-80099020D01*
X70296487Y-79931487D01*
X70464020Y-79680757D01*
X70522850Y-79385000D01*
X70522850Y-77035000D01*
X70464020Y-76739243D01*
X70296487Y-76488513D01*
X70045757Y-76320980D01*
X69750000Y-76262150D01*
X66750000Y-76262150D01*
X66454243Y-76320980D01*
X66203513Y-76488513D01*
X66035980Y-76739243D01*
X65977150Y-77035000D01*
X64833000Y-77035000D01*
X64833000Y-74556338D01*
X66016428Y-74556338D01*
X66137610Y-74986031D01*
X66555334Y-75614008D01*
X67181577Y-76034328D01*
X67921000Y-76183000D01*
X68246000Y-76183000D01*
X68246000Y-74254000D01*
X68254000Y-74254000D01*
X68254000Y-76183000D01*
X68579000Y-76183000D01*
X69318423Y-76034328D01*
X69944666Y-75614008D01*
X70362390Y-74986031D01*
X70483572Y-74556338D01*
X70318495Y-74254000D01*
X68254000Y-74254000D01*
X68246000Y-74254000D01*
X66181505Y-74254000D01*
X66016428Y-74556338D01*
X64833000Y-74556338D01*
X64833000Y-73943662D01*
X66016428Y-73943662D01*
X66181505Y-74246000D01*
X68246000Y-74246000D01*
X68246000Y-72317000D01*
X68254000Y-72317000D01*
X68254000Y-74246000D01*
X70318495Y-74246000D01*
X70483572Y-73943662D01*
X70362390Y-73513969D01*
X69944666Y-72885992D01*
X69318423Y-72465672D01*
X68610423Y-72323318D01*
X78043043Y-72323318D01*
X78066882Y-72443163D01*
X78336303Y-73031310D01*
X78810290Y-73471584D01*
X79416682Y-73696957D01*
X79676000Y-73528495D01*
X79676000Y-72064000D01*
X78211505Y-72064000D01*
X78043043Y-72323318D01*
X68610423Y-72323318D01*
X68579000Y-72317000D01*
X68254000Y-72317000D01*
X68246000Y-72317000D01*
X67921000Y-72317000D01*
X67181577Y-72465672D01*
X66555334Y-72885992D01*
X66137610Y-73513969D01*
X66016428Y-73943662D01*
X64833000Y-73943662D01*
X64833000Y-71796682D01*
X78043043Y-71796682D01*
X78211505Y-72056000D01*
X79676000Y-72056000D01*
X79676000Y-70591505D01*
X79416682Y-70423043D01*
X78810290Y-70648416D01*
X78336303Y-71088690D01*
X78066882Y-71676837D01*
X78043043Y-71796682D01*
X64833000Y-71796682D01*
X64833000Y-68443500D01*
X76157000Y-68443500D01*
X76157000Y-69550775D01*
X76272398Y-69829372D01*
X76485627Y-70042601D01*
X76764224Y-70158000D01*
X77971500Y-70158000D01*
X78161000Y-69968500D01*
X78161000Y-68254000D01*
X78169000Y-68254000D01*
X78169000Y-69968500D01*
X78358500Y-70158000D01*
X79565776Y-70158000D01*
X79844373Y-70042601D01*
X80057602Y-69829372D01*
X80173000Y-69550775D01*
X80173000Y-68443500D01*
X79983500Y-68254000D01*
X78169000Y-68254000D01*
X78161000Y-68254000D01*
X76346500Y-68254000D01*
X76157000Y-68443500D01*
X64833000Y-68443500D01*
X64833000Y-66846275D01*
X65929382Y-66846275D01*
X66009669Y-67162463D01*
X66645454Y-67453845D01*
X67344350Y-67479743D01*
X67999956Y-67236213D01*
X68110331Y-67162463D01*
X68190618Y-66846275D01*
X67060000Y-65715657D01*
X65929382Y-66846275D01*
X64833000Y-66846275D01*
X64833000Y-65994350D01*
X65290257Y-65994350D01*
X65533787Y-66649956D01*
X65607537Y-66760331D01*
X65923725Y-66840618D01*
X67054343Y-65710000D01*
X67065657Y-65710000D01*
X68196275Y-66840618D01*
X68512463Y-66760331D01*
X68803845Y-66124546D01*
X68829743Y-65425650D01*
X68699492Y-65075000D01*
X70267560Y-65075000D01*
X70287150Y-65173486D01*
X70287150Y-66710000D01*
X70345980Y-67005757D01*
X70513513Y-67256487D01*
X70764243Y-67424020D01*
X71060000Y-67482850D01*
X71961509Y-67482850D01*
X72060000Y-67502441D01*
X72158491Y-67482850D01*
X73060000Y-67482850D01*
X73355757Y-67424020D01*
X73606487Y-67256487D01*
X73774020Y-67005757D01*
X73785264Y-66949225D01*
X76157000Y-66949225D01*
X76157000Y-68056500D01*
X76346500Y-68246000D01*
X78161000Y-68246000D01*
X78161000Y-66531500D01*
X78169000Y-66531500D01*
X78169000Y-68246000D01*
X79983500Y-68246000D01*
X80173000Y-68056500D01*
X80173000Y-66949225D01*
X80057602Y-66670628D01*
X79844373Y-66457399D01*
X79565776Y-66342000D01*
X78358500Y-66342000D01*
X78169000Y-66531500D01*
X78161000Y-66531500D01*
X77971500Y-66342000D01*
X76764224Y-66342000D01*
X76485627Y-66457399D01*
X76272398Y-66670628D01*
X76157000Y-66949225D01*
X73785264Y-66949225D01*
X73832850Y-66710000D01*
X73832850Y-66198000D01*
X91651813Y-66198000D01*
X92061989Y-66608176D01*
X91930980Y-66804243D01*
X91872150Y-67100000D01*
X91872150Y-68421651D01*
X91857560Y-68495000D01*
X91872150Y-68568349D01*
X91872150Y-69400000D01*
X91892000Y-69499794D01*
X91892001Y-70355814D01*
X91428011Y-69891824D01*
X91559020Y-69695757D01*
X91617850Y-69400000D01*
X91617850Y-67100000D01*
X91559020Y-66804243D01*
X91391487Y-66553513D01*
X91140757Y-66385980D01*
X90845000Y-66327150D01*
X88345000Y-66327150D01*
X88049243Y-66385980D01*
X87798513Y-66553513D01*
X87630980Y-66804243D01*
X87572150Y-67100000D01*
X87572150Y-67799734D01*
X87249063Y-67864000D01*
X86667553Y-68252553D01*
X86594423Y-68362000D01*
X86434659Y-68362000D01*
X86030000Y-68529615D01*
X85625341Y-68362000D01*
X85164659Y-68362000D01*
X84760000Y-68529615D01*
X84487850Y-68416887D01*
X84487850Y-67100000D01*
X84429020Y-66804243D01*
X84261487Y-66553513D01*
X84010757Y-66385980D01*
X83715000Y-66327150D01*
X81215000Y-66327150D01*
X80919243Y-66385980D01*
X80668513Y-66553513D01*
X80500980Y-66804243D01*
X80442150Y-67100000D01*
X80442150Y-68421651D01*
X80427560Y-68495000D01*
X80442150Y-68568349D01*
X80442150Y-69400000D01*
X80462000Y-69499794D01*
X80462001Y-70615818D01*
X79943318Y-70423043D01*
X79684000Y-70591505D01*
X79684000Y-72056000D01*
X79704000Y-72056000D01*
X79704000Y-72064000D01*
X79684000Y-72064000D01*
X79684000Y-73528495D01*
X79943318Y-73696957D01*
X80549710Y-73471584D01*
X80857705Y-73185496D01*
X80952554Y-73327447D01*
X81534064Y-73716000D01*
X82220000Y-73852441D01*
X82905937Y-73716000D01*
X83284493Y-73463056D01*
X83313513Y-73506487D01*
X83564243Y-73674020D01*
X83860000Y-73732850D01*
X85660000Y-73732850D01*
X85955757Y-73674020D01*
X86206487Y-73506487D01*
X86374020Y-73255757D01*
X86432850Y-72960000D01*
X86432850Y-71160000D01*
X86374020Y-70864243D01*
X86206487Y-70613513D01*
X86088264Y-70534518D01*
X86434659Y-70678000D01*
X86594423Y-70678000D01*
X86667553Y-70787447D01*
X87249063Y-71176000D01*
X87761853Y-71278000D01*
X87841813Y-71278000D01*
X88229476Y-71665663D01*
X88327554Y-71812447D01*
X88474338Y-71910525D01*
X89989340Y-73425527D01*
X90424062Y-73715999D01*
X91110000Y-73852441D01*
X91795938Y-73715999D01*
X92377447Y-73327447D01*
X92380000Y-73323625D01*
X92382554Y-73327447D01*
X92964064Y-73716000D01*
X93650000Y-73852441D01*
X94335937Y-73716000D01*
X94714493Y-73463056D01*
X94743513Y-73506487D01*
X94994243Y-73674020D01*
X95290000Y-73732850D01*
X97090000Y-73732850D01*
X97385757Y-73674020D01*
X97636487Y-73506487D01*
X97804020Y-73255757D01*
X97862850Y-72960000D01*
X97862850Y-72323318D01*
X102173043Y-72323318D01*
X102196882Y-72443163D01*
X102466303Y-73031310D01*
X102940290Y-73471584D01*
X103546682Y-73696957D01*
X103806000Y-73528495D01*
X103806000Y-72064000D01*
X102341505Y-72064000D01*
X102173043Y-72323318D01*
X97862850Y-72323318D01*
X97862850Y-71796682D01*
X102173043Y-71796682D01*
X102341505Y-72056000D01*
X103806000Y-72056000D01*
X103806000Y-70591505D01*
X103546682Y-70423043D01*
X102940290Y-70648416D01*
X102466303Y-71088690D01*
X102196882Y-71676837D01*
X102173043Y-71796682D01*
X97862850Y-71796682D01*
X97862850Y-71160000D01*
X97804020Y-70864243D01*
X97636487Y-70613513D01*
X97385757Y-70445980D01*
X97090000Y-70387150D01*
X95408000Y-70387150D01*
X95408000Y-70120536D01*
X95440757Y-70114020D01*
X95691487Y-69946487D01*
X95859020Y-69695757D01*
X95917850Y-69400000D01*
X95917850Y-68443500D01*
X100287000Y-68443500D01*
X100287000Y-69550775D01*
X100402398Y-69829372D01*
X100615627Y-70042601D01*
X100894224Y-70158000D01*
X102101500Y-70158000D01*
X102291000Y-69968500D01*
X102291000Y-68254000D01*
X102299000Y-68254000D01*
X102299000Y-69968500D01*
X102488500Y-70158000D01*
X103695776Y-70158000D01*
X103974373Y-70042601D01*
X104187602Y-69829372D01*
X104303000Y-69550775D01*
X104303000Y-68443500D01*
X104113500Y-68254000D01*
X102299000Y-68254000D01*
X102291000Y-68254000D01*
X100476500Y-68254000D01*
X100287000Y-68443500D01*
X95917850Y-68443500D01*
X95917850Y-67100000D01*
X95887859Y-66949225D01*
X100287000Y-66949225D01*
X100287000Y-68056500D01*
X100476500Y-68246000D01*
X102291000Y-68246000D01*
X102291000Y-66531500D01*
X102299000Y-66531500D01*
X102299000Y-68246000D01*
X104113500Y-68246000D01*
X104303000Y-68056500D01*
X104303000Y-66949225D01*
X104187602Y-66670628D01*
X103974373Y-66457399D01*
X103695776Y-66342000D01*
X102488500Y-66342000D01*
X102299000Y-66531500D01*
X102291000Y-66531500D01*
X102101500Y-66342000D01*
X100894224Y-66342000D01*
X100615627Y-66457399D01*
X100402398Y-66670628D01*
X100287000Y-66949225D01*
X95887859Y-66949225D01*
X95859020Y-66804243D01*
X95691487Y-66553513D01*
X95653000Y-66527797D01*
X95653000Y-66198000D01*
X115781813Y-66198000D01*
X116191989Y-66608176D01*
X116060980Y-66804243D01*
X116002150Y-67100000D01*
X116002150Y-68421651D01*
X115987560Y-68495000D01*
X116002150Y-68568349D01*
X116002150Y-69400000D01*
X116022000Y-69499794D01*
X116022001Y-70355814D01*
X115705530Y-70039343D01*
X115705528Y-70039340D01*
X115558012Y-69891824D01*
X115689020Y-69695757D01*
X115747850Y-69400000D01*
X115747850Y-67100000D01*
X115689020Y-66804243D01*
X115521487Y-66553513D01*
X115270757Y-66385980D01*
X114975000Y-66327150D01*
X112475000Y-66327150D01*
X112179243Y-66385980D01*
X111928513Y-66553513D01*
X111760980Y-66804243D01*
X111702150Y-67100000D01*
X111702150Y-67901999D01*
X108617850Y-67901999D01*
X108617850Y-67100000D01*
X108559020Y-66804243D01*
X108391487Y-66553513D01*
X108140757Y-66385980D01*
X107845000Y-66327150D01*
X105345000Y-66327150D01*
X105049243Y-66385980D01*
X104798513Y-66553513D01*
X104630980Y-66804243D01*
X104572150Y-67100000D01*
X104572150Y-68421651D01*
X104557560Y-68495000D01*
X104572150Y-68568349D01*
X104572150Y-69400000D01*
X104592000Y-69499794D01*
X104592000Y-69926854D01*
X104557560Y-70099998D01*
X104592000Y-70273143D01*
X104592001Y-70287440D01*
X104592001Y-70615818D01*
X104073318Y-70423043D01*
X103814000Y-70591505D01*
X103814000Y-72056000D01*
X103834000Y-72056000D01*
X103834000Y-72064000D01*
X103814000Y-72064000D01*
X103814000Y-73528495D01*
X104073318Y-73696957D01*
X104679710Y-73471584D01*
X104987704Y-73185496D01*
X105082553Y-73327447D01*
X105664063Y-73716000D01*
X106350000Y-73852441D01*
X107035937Y-73716000D01*
X107414493Y-73463056D01*
X107443513Y-73506487D01*
X107694243Y-73674020D01*
X107990000Y-73732850D01*
X109790000Y-73732850D01*
X110085757Y-73674020D01*
X110336487Y-73506487D01*
X110504020Y-73255757D01*
X110562850Y-72960000D01*
X110562850Y-71417999D01*
X112111812Y-71417999D01*
X112359477Y-71665664D01*
X112457554Y-71812447D01*
X112604336Y-71910524D01*
X113219340Y-72525528D01*
X113219343Y-72525530D01*
X113482000Y-72788187D01*
X113482001Y-73791853D01*
X113447560Y-73965000D01*
X113584001Y-74650938D01*
X113874473Y-75085660D01*
X113874476Y-75085663D01*
X113972554Y-75232447D01*
X114119338Y-75330525D01*
X114509473Y-75720660D01*
X114607553Y-75867447D01*
X115189063Y-76256000D01*
X115701853Y-76358000D01*
X115701854Y-76358000D01*
X115875000Y-76392441D01*
X116048146Y-76358000D01*
X130290874Y-76358000D01*
X130031385Y-76531385D01*
X129604154Y-77170781D01*
X129454131Y-77925000D01*
X129604154Y-78679219D01*
X130031385Y-79318615D01*
X130670781Y-79745846D01*
X131234619Y-79858000D01*
X132265381Y-79858000D01*
X132829219Y-79745846D01*
X133468615Y-79318615D01*
X133895846Y-78679219D01*
X134045869Y-77925000D01*
X133895846Y-77170781D01*
X133468615Y-76531385D01*
X132829219Y-76104154D01*
X132265381Y-75992000D01*
X132196040Y-75992000D01*
X132314497Y-75912850D01*
X133250000Y-75912850D01*
X133545757Y-75854020D01*
X133796487Y-75686487D01*
X133964020Y-75435757D01*
X134022850Y-75140000D01*
X134022850Y-72790000D01*
X133964020Y-72494243D01*
X133796487Y-72243513D01*
X133545757Y-72075980D01*
X133250000Y-72017150D01*
X130250000Y-72017150D01*
X129954243Y-72075980D01*
X129703513Y-72243513D01*
X129535980Y-72494243D01*
X129477150Y-72790000D01*
X129477150Y-72842000D01*
X124985660Y-72842000D01*
X125111705Y-72715955D01*
X125288000Y-72290341D01*
X125288000Y-71829659D01*
X125111705Y-71404045D01*
X125013000Y-71305340D01*
X125013000Y-69606961D01*
X125030298Y-69519999D01*
X125009225Y-69414060D01*
X124961767Y-69175471D01*
X124766607Y-68883393D01*
X124692884Y-68834133D01*
X123545869Y-67687119D01*
X123496607Y-67613393D01*
X123204529Y-67418233D01*
X122946963Y-67367000D01*
X122946962Y-67367000D01*
X122860000Y-67349702D01*
X122773038Y-67367000D01*
X120047850Y-67367000D01*
X120047850Y-67100000D01*
X119989020Y-66804243D01*
X119821487Y-66553513D01*
X119783000Y-66527797D01*
X119783000Y-66128146D01*
X119817441Y-65955000D01*
X119769833Y-65715657D01*
X119681000Y-65269063D01*
X119292447Y-64687553D01*
X119145660Y-64589473D01*
X117875527Y-63319340D01*
X117777447Y-63172553D01*
X117195937Y-62784000D01*
X116683147Y-62682000D01*
X116683142Y-62682000D01*
X116510000Y-62647560D01*
X116336858Y-62682000D01*
X92553142Y-62682000D01*
X92380000Y-62647560D01*
X92206858Y-62682000D01*
X72868146Y-62682000D01*
X72695000Y-62647559D01*
X72521854Y-62682000D01*
X72521853Y-62682000D01*
X72009063Y-62784000D01*
X71427553Y-63172553D01*
X71329473Y-63319340D01*
X70939338Y-63709475D01*
X70792554Y-63807553D01*
X70694475Y-63954338D01*
X70694473Y-63954340D01*
X70587935Y-64113786D01*
X70513513Y-64163513D01*
X70345980Y-64414243D01*
X70287150Y-64710000D01*
X70287150Y-64976514D01*
X70267560Y-65075000D01*
X68699492Y-65075000D01*
X68586213Y-64770044D01*
X68512463Y-64659669D01*
X68196275Y-64579382D01*
X67065657Y-65710000D01*
X67054343Y-65710000D01*
X65923725Y-64579382D01*
X65607537Y-64659669D01*
X65316155Y-65295454D01*
X65290257Y-65994350D01*
X64833000Y-65994350D01*
X64833000Y-64573725D01*
X65929382Y-64573725D01*
X67060000Y-65704343D01*
X68190618Y-64573725D01*
X68110331Y-64257537D01*
X67474546Y-63966155D01*
X66775650Y-63940257D01*
X66120044Y-64183787D01*
X66009669Y-64257537D01*
X65929382Y-64573725D01*
X64833000Y-64573725D01*
X64833000Y-60014495D01*
X64937740Y-59857740D01*
X65206725Y-59678010D01*
X65548635Y-59610000D01*
X67628680Y-59610000D01*
X67677453Y-59605196D01*
X68251478Y-59491015D01*
X68341598Y-59453686D01*
X68828233Y-59128527D01*
X68866117Y-59097437D01*
X70527437Y-57436117D01*
X70558527Y-57398233D01*
X70883686Y-56911598D01*
X70921015Y-56821478D01*
X71035196Y-56247453D01*
X71040000Y-56198680D01*
X71040000Y-54118635D01*
X71108010Y-53776725D01*
X71287740Y-53507740D01*
X71549257Y-53333000D01*
X80799204Y-53333000D01*
X80411833Y-53591833D01*
G04 #@! TO.N,GND*
G36*
X111142000Y-87625095D02*
X111142000Y-88244905D01*
X111379191Y-88817536D01*
X111766286Y-89204631D01*
X111713574Y-89482917D01*
X112700000Y-90469343D01*
X113686426Y-89482917D01*
X113633714Y-89204631D01*
X114020809Y-88817536D01*
X114258000Y-88244905D01*
X114258000Y-87625095D01*
X114226895Y-87550000D01*
X134451365Y-87550000D01*
X134793275Y-87618010D01*
X135062260Y-87797740D01*
X135167001Y-87954495D01*
X135167000Y-140620505D01*
X135062260Y-140777260D01*
X134793275Y-140956990D01*
X134451365Y-141025000D01*
X133908109Y-141025000D01*
X133707730Y-140942000D01*
X132292270Y-140942000D01*
X131856478Y-141122511D01*
X131748522Y-141143985D01*
X131658402Y-141181314D01*
X131566881Y-141242466D01*
X130984555Y-141483674D01*
X129983674Y-142484555D01*
X129442000Y-143792270D01*
X129442000Y-145207730D01*
X129595000Y-145577104D01*
X129595000Y-145881365D01*
X129526990Y-146223275D01*
X129347260Y-146492260D01*
X129085743Y-146667000D01*
X70914257Y-146667000D01*
X70652740Y-146492260D01*
X70473010Y-146223275D01*
X70405000Y-145881365D01*
X70405000Y-145577104D01*
X70558000Y-145207730D01*
X70558000Y-144125176D01*
X78087000Y-144125176D01*
X78087000Y-144774824D01*
X78335610Y-145375020D01*
X78794980Y-145834390D01*
X79395176Y-146083000D01*
X80044824Y-146083000D01*
X80645020Y-145834390D01*
X80713718Y-145765692D01*
X80915627Y-145967601D01*
X81194224Y-146083000D01*
X82026500Y-146083000D01*
X82216000Y-145893500D01*
X82216000Y-144454000D01*
X82224000Y-144454000D01*
X82224000Y-145893500D01*
X82413500Y-146083000D01*
X83245776Y-146083000D01*
X83524373Y-145967601D01*
X83737602Y-145754372D01*
X83853000Y-145475775D01*
X83853000Y-144643500D01*
X83663500Y-144454000D01*
X82224000Y-144454000D01*
X82216000Y-144454000D01*
X82196000Y-144454000D01*
X82196000Y-144446000D01*
X82216000Y-144446000D01*
X82216000Y-143006500D01*
X82224000Y-143006500D01*
X82224000Y-144446000D01*
X83663500Y-144446000D01*
X83853000Y-144256500D01*
X83853000Y-144125176D01*
X95947000Y-144125176D01*
X95947000Y-144774824D01*
X96195610Y-145375020D01*
X96654980Y-145834390D01*
X97255176Y-146083000D01*
X97904824Y-146083000D01*
X98505020Y-145834390D01*
X98830000Y-145509410D01*
X99154980Y-145834390D01*
X99755176Y-146083000D01*
X100404824Y-146083000D01*
X101005020Y-145834390D01*
X101330000Y-145509410D01*
X101654980Y-145834390D01*
X102255176Y-146083000D01*
X102904824Y-146083000D01*
X103505020Y-145834390D01*
X103573718Y-145765692D01*
X103775627Y-145967601D01*
X104054224Y-146083000D01*
X104886500Y-146083000D01*
X105076000Y-145893500D01*
X105076000Y-144454000D01*
X105084000Y-144454000D01*
X105084000Y-145893500D01*
X105273500Y-146083000D01*
X106105776Y-146083000D01*
X106384373Y-145967601D01*
X106597602Y-145754372D01*
X106713000Y-145475775D01*
X106713000Y-144643500D01*
X106523500Y-144454000D01*
X105084000Y-144454000D01*
X105076000Y-144454000D01*
X105056000Y-144454000D01*
X105056000Y-144446000D01*
X105076000Y-144446000D01*
X105076000Y-143006500D01*
X105084000Y-143006500D01*
X105084000Y-144446000D01*
X106523500Y-144446000D01*
X106713000Y-144256500D01*
X106713000Y-144125176D01*
X111267000Y-144125176D01*
X111267000Y-144774824D01*
X111515610Y-145375020D01*
X111974980Y-145834390D01*
X112575176Y-146083000D01*
X113224824Y-146083000D01*
X113825020Y-145834390D01*
X114150000Y-145509410D01*
X114474980Y-145834390D01*
X115075176Y-146083000D01*
X115724824Y-146083000D01*
X116325020Y-145834390D01*
X116650000Y-145509410D01*
X116974980Y-145834390D01*
X117575176Y-146083000D01*
X118224824Y-146083000D01*
X118825020Y-145834390D01*
X119150000Y-145509410D01*
X119474980Y-145834390D01*
X120075176Y-146083000D01*
X120724824Y-146083000D01*
X121325020Y-145834390D01*
X121650000Y-145509410D01*
X121974980Y-145834390D01*
X122575176Y-146083000D01*
X123224824Y-146083000D01*
X123825020Y-145834390D01*
X123893718Y-145765692D01*
X124095627Y-145967601D01*
X124374224Y-146083000D01*
X125206500Y-146083000D01*
X125396000Y-145893500D01*
X125396000Y-144454000D01*
X125404000Y-144454000D01*
X125404000Y-145893500D01*
X125593500Y-146083000D01*
X126425776Y-146083000D01*
X126704373Y-145967601D01*
X126917602Y-145754372D01*
X127033000Y-145475775D01*
X127033000Y-144643500D01*
X126843500Y-144454000D01*
X125404000Y-144454000D01*
X125396000Y-144454000D01*
X125376000Y-144454000D01*
X125376000Y-144446000D01*
X125396000Y-144446000D01*
X125396000Y-143006500D01*
X125404000Y-143006500D01*
X125404000Y-144446000D01*
X126843500Y-144446000D01*
X127033000Y-144256500D01*
X127033000Y-143424225D01*
X126917602Y-143145628D01*
X126704373Y-142932399D01*
X126425776Y-142817000D01*
X125593500Y-142817000D01*
X125404000Y-143006500D01*
X125396000Y-143006500D01*
X125206500Y-142817000D01*
X124374224Y-142817000D01*
X124095627Y-142932399D01*
X123893718Y-143134308D01*
X123825020Y-143065610D01*
X123224824Y-142817000D01*
X122575176Y-142817000D01*
X121974980Y-143065610D01*
X121650000Y-143390590D01*
X121325020Y-143065610D01*
X120724824Y-142817000D01*
X120075176Y-142817000D01*
X119474980Y-143065610D01*
X119150000Y-143390590D01*
X118825020Y-143065610D01*
X118224824Y-142817000D01*
X117575176Y-142817000D01*
X116974980Y-143065610D01*
X116650000Y-143390590D01*
X116325020Y-143065610D01*
X115724824Y-142817000D01*
X115075176Y-142817000D01*
X114474980Y-143065610D01*
X114150000Y-143390590D01*
X113825020Y-143065610D01*
X113224824Y-142817000D01*
X112575176Y-142817000D01*
X111974980Y-143065610D01*
X111515610Y-143524980D01*
X111267000Y-144125176D01*
X106713000Y-144125176D01*
X106713000Y-143424225D01*
X106597602Y-143145628D01*
X106384373Y-142932399D01*
X106105776Y-142817000D01*
X105273500Y-142817000D01*
X105084000Y-143006500D01*
X105076000Y-143006500D01*
X104886500Y-142817000D01*
X104054224Y-142817000D01*
X103775627Y-142932399D01*
X103573718Y-143134308D01*
X103505020Y-143065610D01*
X102904824Y-142817000D01*
X102255176Y-142817000D01*
X101654980Y-143065610D01*
X101330000Y-143390590D01*
X101005020Y-143065610D01*
X100404824Y-142817000D01*
X99755176Y-142817000D01*
X99154980Y-143065610D01*
X98830000Y-143390590D01*
X98505020Y-143065610D01*
X97904824Y-142817000D01*
X97255176Y-142817000D01*
X96654980Y-143065610D01*
X96195610Y-143524980D01*
X95947000Y-144125176D01*
X83853000Y-144125176D01*
X83853000Y-143424225D01*
X83737602Y-143145628D01*
X83524373Y-142932399D01*
X83245776Y-142817000D01*
X82413500Y-142817000D01*
X82224000Y-143006500D01*
X82216000Y-143006500D01*
X82026500Y-142817000D01*
X81194224Y-142817000D01*
X80915627Y-142932399D01*
X80713718Y-143134308D01*
X80645020Y-143065610D01*
X80044824Y-142817000D01*
X79395176Y-142817000D01*
X78794980Y-143065610D01*
X78335610Y-143524980D01*
X78087000Y-144125176D01*
X70558000Y-144125176D01*
X70558000Y-143792270D01*
X70016326Y-142484555D01*
X69015445Y-141483674D01*
X68433119Y-141242466D01*
X68341598Y-141181314D01*
X68251478Y-141143985D01*
X68143522Y-141122511D01*
X67707730Y-140942000D01*
X66292270Y-140942000D01*
X66091891Y-141025000D01*
X65548635Y-141025000D01*
X65206725Y-140956990D01*
X64937740Y-140777260D01*
X64833000Y-140620505D01*
X64833000Y-128979659D01*
X83602000Y-128979659D01*
X83602000Y-129440341D01*
X83778295Y-129865955D01*
X84104045Y-130191705D01*
X84466180Y-130341706D01*
X85501037Y-131376564D01*
X85557273Y-131460727D01*
X85890698Y-131683514D01*
X86184726Y-131742000D01*
X86184730Y-131742000D01*
X86283999Y-131761746D01*
X86383268Y-131742000D01*
X90327473Y-131742000D01*
X90181178Y-131888295D01*
X89819045Y-132038295D01*
X89493295Y-132364045D01*
X89317000Y-132789659D01*
X89317000Y-133250341D01*
X89493295Y-133675955D01*
X89819045Y-134001705D01*
X90244659Y-134178000D01*
X90705341Y-134178000D01*
X91130955Y-134001705D01*
X91456705Y-133675955D01*
X91606705Y-133313822D01*
X91654527Y-133266000D01*
X96374590Y-133266000D01*
X96275610Y-133364980D01*
X96027000Y-133965176D01*
X96027000Y-134614824D01*
X96275610Y-135215020D01*
X96734980Y-135674390D01*
X97335176Y-135923000D01*
X97984824Y-135923000D01*
X98585020Y-135674390D01*
X98910000Y-135349410D01*
X99234980Y-135674390D01*
X99835176Y-135923000D01*
X100484824Y-135923000D01*
X101085020Y-135674390D01*
X101410000Y-135349410D01*
X101734980Y-135674390D01*
X102335176Y-135923000D01*
X102984824Y-135923000D01*
X103585020Y-135674390D01*
X103910000Y-135349410D01*
X104234980Y-135674390D01*
X104835176Y-135923000D01*
X105484824Y-135923000D01*
X106085020Y-135674390D01*
X106410000Y-135349410D01*
X106734980Y-135674390D01*
X107335176Y-135923000D01*
X107984824Y-135923000D01*
X108585020Y-135674390D01*
X108653718Y-135605692D01*
X108855627Y-135807601D01*
X109134224Y-135923000D01*
X109966500Y-135923000D01*
X110156000Y-135733500D01*
X110156000Y-134294000D01*
X110164000Y-134294000D01*
X110164000Y-135733500D01*
X110353500Y-135923000D01*
X111185776Y-135923000D01*
X111464373Y-135807601D01*
X111677602Y-135594372D01*
X111793000Y-135315775D01*
X111793000Y-134483500D01*
X111603500Y-134294000D01*
X110164000Y-134294000D01*
X110156000Y-134294000D01*
X110136000Y-134294000D01*
X110136000Y-134286000D01*
X110156000Y-134286000D01*
X110156000Y-132846500D01*
X110164000Y-132846500D01*
X110164000Y-134286000D01*
X111603500Y-134286000D01*
X111793000Y-134096500D01*
X111793000Y-133264225D01*
X111677602Y-132985628D01*
X111464373Y-132772399D01*
X111185776Y-132657000D01*
X110353500Y-132657000D01*
X110164000Y-132846500D01*
X110156000Y-132846500D01*
X109966500Y-132657000D01*
X109134224Y-132657000D01*
X108855627Y-132772399D01*
X108668000Y-132960026D01*
X108668000Y-132905273D01*
X108687747Y-132805999D01*
X108609514Y-132412698D01*
X108577005Y-132364045D01*
X108386727Y-132079273D01*
X108302562Y-132023036D01*
X108021526Y-131742000D01*
X115394726Y-131742000D01*
X115494000Y-131761747D01*
X115593274Y-131742000D01*
X121172473Y-131742000D01*
X121892001Y-132461528D01*
X121892001Y-132988589D01*
X121650000Y-133230590D01*
X121325020Y-132905610D01*
X120724824Y-132657000D01*
X120075176Y-132657000D01*
X119474980Y-132905610D01*
X119150000Y-133230590D01*
X118825020Y-132905610D01*
X118224824Y-132657000D01*
X117575176Y-132657000D01*
X116974980Y-132905610D01*
X116515610Y-133364980D01*
X116267000Y-133965176D01*
X116267000Y-134614824D01*
X116515610Y-135215020D01*
X116974980Y-135674390D01*
X117575176Y-135923000D01*
X118224824Y-135923000D01*
X118825020Y-135674390D01*
X119150000Y-135349410D01*
X119474980Y-135674390D01*
X120075176Y-135923000D01*
X120724824Y-135923000D01*
X121325020Y-135674390D01*
X121650000Y-135349410D01*
X121974980Y-135674390D01*
X122575176Y-135923000D01*
X123224824Y-135923000D01*
X123825020Y-135674390D01*
X123893718Y-135605692D01*
X124095627Y-135807601D01*
X124374224Y-135923000D01*
X125206500Y-135923000D01*
X125396000Y-135733500D01*
X125396000Y-134294000D01*
X125404000Y-134294000D01*
X125404000Y-135733500D01*
X125593500Y-135923000D01*
X126425776Y-135923000D01*
X126704373Y-135807601D01*
X126917602Y-135594372D01*
X127033000Y-135315775D01*
X127033000Y-134483500D01*
X126843500Y-134294000D01*
X125404000Y-134294000D01*
X125396000Y-134294000D01*
X125376000Y-134294000D01*
X125376000Y-134286000D01*
X125396000Y-134286000D01*
X125396000Y-132846500D01*
X125404000Y-132846500D01*
X125404000Y-134286000D01*
X126843500Y-134286000D01*
X127033000Y-134096500D01*
X127033000Y-133264225D01*
X126917602Y-132985628D01*
X126704373Y-132772399D01*
X126425776Y-132657000D01*
X125593500Y-132657000D01*
X125404000Y-132846500D01*
X125396000Y-132846500D01*
X125206500Y-132657000D01*
X124374224Y-132657000D01*
X124095627Y-132772399D01*
X123908000Y-132960026D01*
X123908000Y-132143274D01*
X123927747Y-132044000D01*
X123849514Y-131650698D01*
X123682961Y-131401433D01*
X123682960Y-131401432D01*
X123626727Y-131317273D01*
X123542567Y-131261039D01*
X122372964Y-130091438D01*
X122316727Y-130007273D01*
X121983302Y-129784486D01*
X121689274Y-129726000D01*
X121590000Y-129706253D01*
X121490726Y-129726000D01*
X117536156Y-129726000D01*
X117537747Y-129718000D01*
X117518000Y-129618726D01*
X117518000Y-127516485D01*
X117668000Y-127154353D01*
X117668000Y-126693671D01*
X117611803Y-126558000D01*
X118010341Y-126558000D01*
X118435955Y-126381705D01*
X118761705Y-126055955D01*
X118938000Y-125630341D01*
X118938000Y-125169659D01*
X118761705Y-124744045D01*
X118435955Y-124418295D01*
X118010341Y-124242000D01*
X117549659Y-124242000D01*
X117187527Y-124392000D01*
X112530483Y-124392000D01*
X112168351Y-124242000D01*
X111707669Y-124242000D01*
X111282055Y-124418295D01*
X110956305Y-124744045D01*
X110780010Y-125169659D01*
X110780010Y-125630341D01*
X110956305Y-126055955D01*
X111282055Y-126381705D01*
X111707669Y-126558000D01*
X112168351Y-126558000D01*
X112530483Y-126408000D01*
X115470329Y-126408000D01*
X115352000Y-126693671D01*
X115352000Y-127154353D01*
X115502001Y-127516487D01*
X115502000Y-128348726D01*
X115502000Y-128348727D01*
X115502001Y-129300473D01*
X115076474Y-129726000D01*
X86701527Y-129726000D01*
X85891706Y-128916180D01*
X85741705Y-128554045D01*
X85415955Y-128228295D01*
X84990341Y-128052000D01*
X84529659Y-128052000D01*
X84104045Y-128228295D01*
X83778295Y-128554045D01*
X83602000Y-128979659D01*
X64833000Y-128979659D01*
X64833000Y-119257599D01*
X95239294Y-119257599D01*
X95239294Y-119718281D01*
X95415589Y-120143895D01*
X95741339Y-120469645D01*
X96071168Y-120606264D01*
X96224295Y-120975947D01*
X96550045Y-121301697D01*
X96975659Y-121477992D01*
X97436341Y-121477992D01*
X97861955Y-121301697D01*
X97960660Y-121202992D01*
X98367008Y-121202992D01*
X98367008Y-121354156D01*
X98328045Y-121370295D01*
X98002295Y-121696045D01*
X97826000Y-122121659D01*
X97826000Y-122582341D01*
X98002295Y-123007955D01*
X98328045Y-123333705D01*
X98753659Y-123510000D01*
X99214341Y-123510000D01*
X99639955Y-123333705D01*
X99738660Y-123235000D01*
X103817340Y-123235000D01*
X103916045Y-123333705D01*
X104341659Y-123510000D01*
X104802341Y-123510000D01*
X105227955Y-123333705D01*
X105553705Y-123007955D01*
X105730000Y-122582341D01*
X105730000Y-122320172D01*
X105735955Y-122317705D01*
X106061705Y-121991955D01*
X106238000Y-121566341D01*
X106238000Y-121202992D01*
X107086242Y-121202992D01*
X107218025Y-121334775D01*
X107643639Y-121511070D01*
X108104321Y-121511070D01*
X108529935Y-121334775D01*
X108855685Y-121009025D01*
X109031980Y-120583411D01*
X109031980Y-120122729D01*
X108855685Y-119697115D01*
X108728255Y-119569685D01*
X108808994Y-119488945D01*
X108945592Y-119159169D01*
X109291945Y-119015705D01*
X109617695Y-118689955D01*
X109793990Y-118264341D01*
X109793990Y-117803659D01*
X109617695Y-117378045D01*
X109291945Y-117052295D01*
X108866331Y-116876000D01*
X108405649Y-116876000D01*
X107980035Y-117052295D01*
X107881330Y-117151000D01*
X101987670Y-117151000D01*
X101888965Y-117052295D01*
X101463351Y-116876000D01*
X101002669Y-116876000D01*
X100577055Y-117052295D01*
X100251305Y-117378045D01*
X100075010Y-117803659D01*
X100075010Y-117913000D01*
X97960684Y-117913000D01*
X97861979Y-117814295D01*
X97436365Y-117638000D01*
X96975683Y-117638000D01*
X96550069Y-117814295D01*
X96224319Y-118140045D01*
X96141252Y-118340586D01*
X95741339Y-118506235D01*
X95415589Y-118831985D01*
X95239294Y-119257599D01*
X64833000Y-119257599D01*
X64833000Y-114247659D01*
X88174000Y-114247659D01*
X88174000Y-114708341D01*
X88289012Y-114986005D01*
X88174004Y-115263659D01*
X88174004Y-115724341D01*
X88289012Y-116001995D01*
X88174000Y-116279659D01*
X88174000Y-116740341D01*
X88350295Y-117165955D01*
X88676045Y-117491705D01*
X89101659Y-117668000D01*
X89562341Y-117668000D01*
X89987955Y-117491705D01*
X90086666Y-117392994D01*
X91117340Y-117392994D01*
X91216045Y-117491699D01*
X91641659Y-117667994D01*
X92102341Y-117667994D01*
X92527955Y-117491699D01*
X92853705Y-117165949D01*
X93030000Y-116740335D01*
X93030000Y-116377000D01*
X93547175Y-116377000D01*
X93662950Y-116400029D01*
X93786985Y-116524064D01*
X94212599Y-116700359D01*
X94673281Y-116700359D01*
X95098895Y-116524064D01*
X95424645Y-116198314D01*
X95600940Y-115772700D01*
X95600940Y-115312018D01*
X95424645Y-114886404D01*
X95098895Y-114560654D01*
X95061994Y-114545369D01*
X95061994Y-114469659D01*
X94885699Y-114044045D01*
X94559949Y-113718295D01*
X94134335Y-113542000D01*
X93673653Y-113542000D01*
X93248039Y-113718295D01*
X93149334Y-113817000D01*
X90308660Y-113817000D01*
X89987955Y-113496295D01*
X89562341Y-113320000D01*
X89101659Y-113320000D01*
X88676045Y-113496295D01*
X88350295Y-113822045D01*
X88174000Y-114247659D01*
X64833000Y-114247659D01*
X64833000Y-108160000D01*
X65345396Y-108160000D01*
X65450793Y-108689865D01*
X65641264Y-108974925D01*
X65583513Y-109013513D01*
X65415980Y-109264243D01*
X65357150Y-109560000D01*
X65357150Y-110760000D01*
X65415980Y-111055757D01*
X65583513Y-111306487D01*
X65834243Y-111474020D01*
X66130000Y-111532850D01*
X67830000Y-111532850D01*
X68125757Y-111474020D01*
X68376487Y-111306487D01*
X68469021Y-111168000D01*
X71213527Y-111168000D01*
X71575659Y-111318000D01*
X72036341Y-111318000D01*
X72461955Y-111141705D01*
X72787705Y-110815955D01*
X72964000Y-110390341D01*
X72964000Y-109929659D01*
X86904000Y-109929659D01*
X86904000Y-110390341D01*
X87080295Y-110815955D01*
X87406045Y-111141705D01*
X87831659Y-111318000D01*
X88292341Y-111318000D01*
X88717955Y-111141705D01*
X89043705Y-110815955D01*
X89108304Y-110660000D01*
X91279527Y-110660000D01*
X91641659Y-110810000D01*
X92102341Y-110810000D01*
X92527955Y-110633705D01*
X92853705Y-110307955D01*
X93030000Y-109882341D01*
X93030000Y-109421659D01*
X92853705Y-108996045D01*
X92527955Y-108670295D01*
X92102341Y-108494000D01*
X91641659Y-108494000D01*
X91279527Y-108644000D01*
X88669268Y-108644000D01*
X88569999Y-108624254D01*
X88470730Y-108644000D01*
X88470726Y-108644000D01*
X88176698Y-108702486D01*
X87843273Y-108925273D01*
X87787036Y-109009438D01*
X87768180Y-109028294D01*
X87406045Y-109178295D01*
X87080295Y-109504045D01*
X86904000Y-109929659D01*
X72964000Y-109929659D01*
X72787705Y-109504045D01*
X72461955Y-109178295D01*
X72036341Y-109002000D01*
X71575659Y-109002000D01*
X71213527Y-109152000D01*
X70581846Y-109152000D01*
X70683955Y-109109705D01*
X71009705Y-108783955D01*
X71186000Y-108358341D01*
X71186000Y-107897659D01*
X71009705Y-107472045D01*
X70683955Y-107146295D01*
X70258341Y-106970000D01*
X69797659Y-106970000D01*
X69372045Y-107146295D01*
X69265382Y-107252958D01*
X68264209Y-107263469D01*
X68209063Y-107180937D01*
X68153670Y-107143924D01*
X68193080Y-107117423D01*
X68486160Y-106675989D01*
X68570649Y-106376388D01*
X68398493Y-106164000D01*
X66984000Y-106164000D01*
X66984000Y-106184000D01*
X66976000Y-106184000D01*
X66976000Y-106164000D01*
X65561507Y-106164000D01*
X65389351Y-106376388D01*
X65473840Y-106675989D01*
X65766920Y-107117423D01*
X65806330Y-107143924D01*
X65750937Y-107180937D01*
X65450793Y-107630135D01*
X65345396Y-108160000D01*
X64833000Y-108160000D01*
X64833000Y-100160000D01*
X65345396Y-100160000D01*
X65450793Y-100689865D01*
X65750937Y-101139063D01*
X65782271Y-101160000D01*
X65750937Y-101180937D01*
X65450793Y-101630135D01*
X65345396Y-102160000D01*
X65450793Y-102689865D01*
X65750937Y-103139063D01*
X65782271Y-103160000D01*
X65750937Y-103180937D01*
X65450793Y-103630135D01*
X65345396Y-104160000D01*
X65450793Y-104689865D01*
X65750937Y-105139063D01*
X65806330Y-105176076D01*
X65766920Y-105202577D01*
X65473840Y-105644011D01*
X65389351Y-105943612D01*
X65561507Y-106156000D01*
X66976000Y-106156000D01*
X66976000Y-106136000D01*
X66984000Y-106136000D01*
X66984000Y-106156000D01*
X68398493Y-106156000D01*
X68570649Y-105943612D01*
X68486160Y-105644011D01*
X68193080Y-105202577D01*
X68153670Y-105176076D01*
X68209063Y-105139063D01*
X68293823Y-105012211D01*
X70306996Y-104964656D01*
X70388045Y-105045705D01*
X70813659Y-105222000D01*
X71274341Y-105222000D01*
X71699955Y-105045705D01*
X72025705Y-104719955D01*
X72202000Y-104294341D01*
X72202000Y-103833659D01*
X72025705Y-103408045D01*
X71699955Y-103082295D01*
X71274341Y-102906000D01*
X70813659Y-102906000D01*
X70388045Y-103082295D01*
X70271334Y-103199006D01*
X68252993Y-103246683D01*
X68209063Y-103180937D01*
X68177729Y-103160000D01*
X68209063Y-103139063D01*
X68509207Y-102689865D01*
X68614604Y-102160000D01*
X68593850Y-102055659D01*
X95794004Y-102055659D01*
X95794004Y-102516341D01*
X95970299Y-102941955D01*
X96296049Y-103267705D01*
X96721663Y-103444000D01*
X96971402Y-103444000D01*
X96810000Y-103833659D01*
X96810000Y-104294341D01*
X96925010Y-104572000D01*
X96810000Y-104849659D01*
X96810000Y-105310341D01*
X96986295Y-105735955D01*
X97312045Y-106061705D01*
X97737659Y-106238000D01*
X98198341Y-106238000D01*
X98623955Y-106061705D01*
X98722660Y-105963000D01*
X99753340Y-105963000D01*
X99852045Y-106061705D01*
X100277659Y-106238000D01*
X100738341Y-106238000D01*
X101163955Y-106061705D01*
X101489705Y-105735955D01*
X101666000Y-105310341D01*
X101666000Y-104849659D01*
X101550990Y-104572000D01*
X101666000Y-104294341D01*
X101666000Y-103833659D01*
X101489705Y-103408045D01*
X101250660Y-103169000D01*
X102428268Y-103169000D01*
X106758271Y-107499004D01*
X106342660Y-107499004D01*
X106243955Y-107400299D01*
X105818341Y-107224004D01*
X105357659Y-107224004D01*
X104932045Y-107400299D01*
X104606295Y-107726049D01*
X104430000Y-108151663D01*
X104430000Y-108612345D01*
X104597611Y-109016995D01*
X104429994Y-109421659D01*
X104429994Y-109882341D01*
X104606289Y-110307955D01*
X104932039Y-110633705D01*
X105357653Y-110810000D01*
X105818335Y-110810000D01*
X106243949Y-110633705D01*
X106342654Y-110535000D01*
X110167340Y-110535000D01*
X110266045Y-110633705D01*
X110691659Y-110810000D01*
X111152341Y-110810000D01*
X111577955Y-110633705D01*
X111903705Y-110307955D01*
X112080000Y-109882341D01*
X112080000Y-109421659D01*
X112058467Y-109369673D01*
X112469659Y-109539994D01*
X112930341Y-109539994D01*
X113355955Y-109363699D01*
X113454660Y-109264994D01*
X114400894Y-109264994D01*
X114336000Y-109421663D01*
X114336000Y-109882345D01*
X114512295Y-110307959D01*
X114838045Y-110633709D01*
X115263659Y-110810004D01*
X115724341Y-110810004D01*
X116149955Y-110633709D01*
X116248660Y-110535004D01*
X116771344Y-110535004D01*
X116870045Y-110633705D01*
X117295659Y-110810000D01*
X117756341Y-110810000D01*
X118181955Y-110633705D01*
X118507705Y-110307955D01*
X118684000Y-109882341D01*
X118684000Y-109421659D01*
X118662470Y-109369680D01*
X119073659Y-109540000D01*
X119534341Y-109540000D01*
X119959955Y-109363705D01*
X120285705Y-109037955D01*
X120462000Y-108612341D01*
X120462000Y-108151659D01*
X120294385Y-107747000D01*
X120462000Y-107342341D01*
X120462000Y-106881659D01*
X120285705Y-106456045D01*
X119959955Y-106130295D01*
X119534341Y-105954000D01*
X119073659Y-105954000D01*
X118683990Y-106115406D01*
X118683990Y-105865659D01*
X118516380Y-105461012D01*
X118684000Y-105056341D01*
X118684000Y-104595659D01*
X118507705Y-104170045D01*
X118401657Y-104063997D01*
X118507699Y-103957955D01*
X118683994Y-103532341D01*
X118683994Y-103071659D01*
X118507699Y-102646045D01*
X118181949Y-102320295D01*
X117756335Y-102144000D01*
X117295653Y-102144000D01*
X116870039Y-102320295D01*
X116771334Y-102419000D01*
X113454660Y-102419000D01*
X113355955Y-102320295D01*
X112930341Y-102144000D01*
X112469659Y-102144000D01*
X112044045Y-102320295D01*
X111718295Y-102646045D01*
X111542000Y-103071659D01*
X111542000Y-103532341D01*
X111718295Y-103957955D01*
X111824340Y-104064000D01*
X111718295Y-104170045D01*
X111542000Y-104595659D01*
X111542000Y-105056341D01*
X111718295Y-105481955D01*
X112044045Y-105807705D01*
X112433446Y-105969000D01*
X112044045Y-106130295D01*
X111718295Y-106456045D01*
X111542000Y-106881659D01*
X111542000Y-107342341D01*
X111709614Y-107746997D01*
X111557005Y-108115428D01*
X111395717Y-107726045D01*
X111069967Y-107400295D01*
X110644353Y-107224000D01*
X110183671Y-107224000D01*
X109758057Y-107400295D01*
X109659348Y-107499004D01*
X109286018Y-107499004D01*
X109286018Y-107389659D01*
X109109723Y-106964045D01*
X108783973Y-106638295D01*
X108358359Y-106462000D01*
X108218769Y-106462000D01*
X103479887Y-101723119D01*
X103430625Y-101649393D01*
X103138547Y-101454233D01*
X102880981Y-101403000D01*
X102880980Y-101403000D01*
X102794018Y-101385702D01*
X102707056Y-101403000D01*
X97706664Y-101403000D01*
X97607959Y-101304295D01*
X97182345Y-101128000D01*
X96721663Y-101128000D01*
X96296049Y-101304295D01*
X95970299Y-101630045D01*
X95794004Y-102055659D01*
X68593850Y-102055659D01*
X68509207Y-101630135D01*
X68209063Y-101180937D01*
X68177729Y-101160000D01*
X68209063Y-101139063D01*
X68273250Y-101043000D01*
X68417326Y-101043000D01*
X68610045Y-101235719D01*
X69035659Y-101412014D01*
X69496341Y-101412014D01*
X69921955Y-101235719D01*
X70247705Y-100909969D01*
X70424000Y-100484355D01*
X70424000Y-100023673D01*
X70247705Y-99598059D01*
X69921955Y-99272309D01*
X69496341Y-99096014D01*
X69035659Y-99096014D01*
X68610045Y-99272309D01*
X68605354Y-99277000D01*
X68273250Y-99277000D01*
X68209063Y-99180937D01*
X67759865Y-98880793D01*
X67363747Y-98802000D01*
X66596253Y-98802000D01*
X66200135Y-98880793D01*
X65750937Y-99180937D01*
X65450793Y-99630135D01*
X65345396Y-100160000D01*
X64833000Y-100160000D01*
X64833000Y-97229659D01*
X95286000Y-97229659D01*
X95286000Y-97690341D01*
X95462295Y-98115955D01*
X95788045Y-98441705D01*
X96213659Y-98618000D01*
X96674341Y-98618000D01*
X97099955Y-98441705D01*
X97198660Y-98343000D01*
X98045336Y-98343000D01*
X98144045Y-98441709D01*
X98569659Y-98618004D01*
X99030341Y-98618004D01*
X99455955Y-98441709D01*
X99781705Y-98115959D01*
X99958000Y-97690345D01*
X99958000Y-97229663D01*
X99781705Y-96804049D01*
X99455955Y-96478299D01*
X99030341Y-96302004D01*
X98569659Y-96302004D01*
X98144045Y-96478299D01*
X98045344Y-96577000D01*
X97198660Y-96577000D01*
X97099955Y-96478295D01*
X96674341Y-96302000D01*
X96213659Y-96302000D01*
X95788045Y-96478295D01*
X95462295Y-96804045D01*
X95286000Y-97229659D01*
X64833000Y-97229659D01*
X64833000Y-91764495D01*
X64937740Y-91607740D01*
X65148248Y-91467083D01*
X111713574Y-91467083D01*
X111769529Y-91762489D01*
X112333058Y-92020561D01*
X112952450Y-92043335D01*
X113533409Y-91827344D01*
X113630471Y-91762489D01*
X113686426Y-91467083D01*
X112700000Y-90480657D01*
X111713574Y-91467083D01*
X65148248Y-91467083D01*
X65206725Y-91428010D01*
X65548635Y-91360000D01*
X73343680Y-91360000D01*
X73392453Y-91355196D01*
X73966478Y-91241015D01*
X74056598Y-91203686D01*
X74543233Y-90878527D01*
X74581117Y-90847437D01*
X74701104Y-90727450D01*
X111131665Y-90727450D01*
X111347656Y-91308409D01*
X111412511Y-91405471D01*
X111707917Y-91461426D01*
X112694343Y-90475000D01*
X112705657Y-90475000D01*
X113692083Y-91461426D01*
X113987489Y-91405471D01*
X114245561Y-90841942D01*
X114268335Y-90222550D01*
X114052344Y-89641591D01*
X113987489Y-89544529D01*
X113692083Y-89488574D01*
X112705657Y-90475000D01*
X112694343Y-90475000D01*
X111707917Y-89488574D01*
X111412511Y-89544529D01*
X111154439Y-90108058D01*
X111131665Y-90727450D01*
X74701104Y-90727450D01*
X77495028Y-87933526D01*
X77919840Y-87649676D01*
X78420942Y-87550000D01*
X111173105Y-87550000D01*
X111142000Y-87625095D01*
X111142000Y-87625095D01*
G37*
X111142000Y-87625095D02*
X111142000Y-88244905D01*
X111379191Y-88817536D01*
X111766286Y-89204631D01*
X111713574Y-89482917D01*
X112700000Y-90469343D01*
X113686426Y-89482917D01*
X113633714Y-89204631D01*
X114020809Y-88817536D01*
X114258000Y-88244905D01*
X114258000Y-87625095D01*
X114226895Y-87550000D01*
X134451365Y-87550000D01*
X134793275Y-87618010D01*
X135062260Y-87797740D01*
X135167001Y-87954495D01*
X135167000Y-140620505D01*
X135062260Y-140777260D01*
X134793275Y-140956990D01*
X134451365Y-141025000D01*
X133908109Y-141025000D01*
X133707730Y-140942000D01*
X132292270Y-140942000D01*
X131856478Y-141122511D01*
X131748522Y-141143985D01*
X131658402Y-141181314D01*
X131566881Y-141242466D01*
X130984555Y-141483674D01*
X129983674Y-142484555D01*
X129442000Y-143792270D01*
X129442000Y-145207730D01*
X129595000Y-145577104D01*
X129595000Y-145881365D01*
X129526990Y-146223275D01*
X129347260Y-146492260D01*
X129085743Y-146667000D01*
X70914257Y-146667000D01*
X70652740Y-146492260D01*
X70473010Y-146223275D01*
X70405000Y-145881365D01*
X70405000Y-145577104D01*
X70558000Y-145207730D01*
X70558000Y-144125176D01*
X78087000Y-144125176D01*
X78087000Y-144774824D01*
X78335610Y-145375020D01*
X78794980Y-145834390D01*
X79395176Y-146083000D01*
X80044824Y-146083000D01*
X80645020Y-145834390D01*
X80713718Y-145765692D01*
X80915627Y-145967601D01*
X81194224Y-146083000D01*
X82026500Y-146083000D01*
X82216000Y-145893500D01*
X82216000Y-144454000D01*
X82224000Y-144454000D01*
X82224000Y-145893500D01*
X82413500Y-146083000D01*
X83245776Y-146083000D01*
X83524373Y-145967601D01*
X83737602Y-145754372D01*
X83853000Y-145475775D01*
X83853000Y-144643500D01*
X83663500Y-144454000D01*
X82224000Y-144454000D01*
X82216000Y-144454000D01*
X82196000Y-144454000D01*
X82196000Y-144446000D01*
X82216000Y-144446000D01*
X82216000Y-143006500D01*
X82224000Y-143006500D01*
X82224000Y-144446000D01*
X83663500Y-144446000D01*
X83853000Y-144256500D01*
X83853000Y-144125176D01*
X95947000Y-144125176D01*
X95947000Y-144774824D01*
X96195610Y-145375020D01*
X96654980Y-145834390D01*
X97255176Y-146083000D01*
X97904824Y-146083000D01*
X98505020Y-145834390D01*
X98830000Y-145509410D01*
X99154980Y-145834390D01*
X99755176Y-146083000D01*
X100404824Y-146083000D01*
X101005020Y-145834390D01*
X101330000Y-145509410D01*
X101654980Y-145834390D01*
X102255176Y-146083000D01*
X102904824Y-146083000D01*
X103505020Y-145834390D01*
X103573718Y-145765692D01*
X103775627Y-145967601D01*
X104054224Y-146083000D01*
X104886500Y-146083000D01*
X105076000Y-145893500D01*
X105076000Y-144454000D01*
X105084000Y-144454000D01*
X105084000Y-145893500D01*
X105273500Y-146083000D01*
X106105776Y-146083000D01*
X106384373Y-145967601D01*
X106597602Y-145754372D01*
X106713000Y-145475775D01*
X106713000Y-144643500D01*
X106523500Y-144454000D01*
X105084000Y-144454000D01*
X105076000Y-144454000D01*
X105056000Y-144454000D01*
X105056000Y-144446000D01*
X105076000Y-144446000D01*
X105076000Y-143006500D01*
X105084000Y-143006500D01*
X105084000Y-144446000D01*
X106523500Y-144446000D01*
X106713000Y-144256500D01*
X106713000Y-144125176D01*
X111267000Y-144125176D01*
X111267000Y-144774824D01*
X111515610Y-145375020D01*
X111974980Y-145834390D01*
X112575176Y-146083000D01*
X113224824Y-146083000D01*
X113825020Y-145834390D01*
X114150000Y-145509410D01*
X114474980Y-145834390D01*
X115075176Y-146083000D01*
X115724824Y-146083000D01*
X116325020Y-145834390D01*
X116650000Y-145509410D01*
X116974980Y-145834390D01*
X117575176Y-146083000D01*
X118224824Y-146083000D01*
X118825020Y-145834390D01*
X119150000Y-145509410D01*
X119474980Y-145834390D01*
X120075176Y-146083000D01*
X120724824Y-146083000D01*
X121325020Y-145834390D01*
X121650000Y-145509410D01*
X121974980Y-145834390D01*
X122575176Y-146083000D01*
X123224824Y-146083000D01*
X123825020Y-145834390D01*
X123893718Y-145765692D01*
X124095627Y-145967601D01*
X124374224Y-146083000D01*
X125206500Y-146083000D01*
X125396000Y-145893500D01*
X125396000Y-144454000D01*
X125404000Y-144454000D01*
X125404000Y-145893500D01*
X125593500Y-146083000D01*
X126425776Y-146083000D01*
X126704373Y-145967601D01*
X126917602Y-145754372D01*
X127033000Y-145475775D01*
X127033000Y-144643500D01*
X126843500Y-144454000D01*
X125404000Y-144454000D01*
X125396000Y-144454000D01*
X125376000Y-144454000D01*
X125376000Y-144446000D01*
X125396000Y-144446000D01*
X125396000Y-143006500D01*
X125404000Y-143006500D01*
X125404000Y-144446000D01*
X126843500Y-144446000D01*
X127033000Y-144256500D01*
X127033000Y-143424225D01*
X126917602Y-143145628D01*
X126704373Y-142932399D01*
X126425776Y-142817000D01*
X125593500Y-142817000D01*
X125404000Y-143006500D01*
X125396000Y-143006500D01*
X125206500Y-142817000D01*
X124374224Y-142817000D01*
X124095627Y-142932399D01*
X123893718Y-143134308D01*
X123825020Y-143065610D01*
X123224824Y-142817000D01*
X122575176Y-142817000D01*
X121974980Y-143065610D01*
X121650000Y-143390590D01*
X121325020Y-143065610D01*
X120724824Y-142817000D01*
X120075176Y-142817000D01*
X119474980Y-143065610D01*
X119150000Y-143390590D01*
X118825020Y-143065610D01*
X118224824Y-142817000D01*
X117575176Y-142817000D01*
X116974980Y-143065610D01*
X116650000Y-143390590D01*
X116325020Y-143065610D01*
X115724824Y-142817000D01*
X115075176Y-142817000D01*
X114474980Y-143065610D01*
X114150000Y-143390590D01*
X113825020Y-143065610D01*
X113224824Y-142817000D01*
X112575176Y-142817000D01*
X111974980Y-143065610D01*
X111515610Y-143524980D01*
X111267000Y-144125176D01*
X106713000Y-144125176D01*
X106713000Y-143424225D01*
X106597602Y-143145628D01*
X106384373Y-142932399D01*
X106105776Y-142817000D01*
X105273500Y-142817000D01*
X105084000Y-143006500D01*
X105076000Y-143006500D01*
X104886500Y-142817000D01*
X104054224Y-142817000D01*
X103775627Y-142932399D01*
X103573718Y-143134308D01*
X103505020Y-143065610D01*
X102904824Y-142817000D01*
X102255176Y-142817000D01*
X101654980Y-143065610D01*
X101330000Y-143390590D01*
X101005020Y-143065610D01*
X100404824Y-142817000D01*
X99755176Y-142817000D01*
X99154980Y-143065610D01*
X98830000Y-143390590D01*
X98505020Y-143065610D01*
X97904824Y-142817000D01*
X97255176Y-142817000D01*
X96654980Y-143065610D01*
X96195610Y-143524980D01*
X95947000Y-144125176D01*
X83853000Y-144125176D01*
X83853000Y-143424225D01*
X83737602Y-143145628D01*
X83524373Y-142932399D01*
X83245776Y-142817000D01*
X82413500Y-142817000D01*
X82224000Y-143006500D01*
X82216000Y-143006500D01*
X82026500Y-142817000D01*
X81194224Y-142817000D01*
X80915627Y-142932399D01*
X80713718Y-143134308D01*
X80645020Y-143065610D01*
X80044824Y-142817000D01*
X79395176Y-142817000D01*
X78794980Y-143065610D01*
X78335610Y-143524980D01*
X78087000Y-144125176D01*
X70558000Y-144125176D01*
X70558000Y-143792270D01*
X70016326Y-142484555D01*
X69015445Y-141483674D01*
X68433119Y-141242466D01*
X68341598Y-141181314D01*
X68251478Y-141143985D01*
X68143522Y-141122511D01*
X67707730Y-140942000D01*
X66292270Y-140942000D01*
X66091891Y-141025000D01*
X65548635Y-141025000D01*
X65206725Y-140956990D01*
X64937740Y-140777260D01*
X64833000Y-140620505D01*
X64833000Y-128979659D01*
X83602000Y-128979659D01*
X83602000Y-129440341D01*
X83778295Y-129865955D01*
X84104045Y-130191705D01*
X84466180Y-130341706D01*
X85501037Y-131376564D01*
X85557273Y-131460727D01*
X85890698Y-131683514D01*
X86184726Y-131742000D01*
X86184730Y-131742000D01*
X86283999Y-131761746D01*
X86383268Y-131742000D01*
X90327473Y-131742000D01*
X90181178Y-131888295D01*
X89819045Y-132038295D01*
X89493295Y-132364045D01*
X89317000Y-132789659D01*
X89317000Y-133250341D01*
X89493295Y-133675955D01*
X89819045Y-134001705D01*
X90244659Y-134178000D01*
X90705341Y-134178000D01*
X91130955Y-134001705D01*
X91456705Y-133675955D01*
X91606705Y-133313822D01*
X91654527Y-133266000D01*
X96374590Y-133266000D01*
X96275610Y-133364980D01*
X96027000Y-133965176D01*
X96027000Y-134614824D01*
X96275610Y-135215020D01*
X96734980Y-135674390D01*
X97335176Y-135923000D01*
X97984824Y-135923000D01*
X98585020Y-135674390D01*
X98910000Y-135349410D01*
X99234980Y-135674390D01*
X99835176Y-135923000D01*
X100484824Y-135923000D01*
X101085020Y-135674390D01*
X101410000Y-135349410D01*
X101734980Y-135674390D01*
X102335176Y-135923000D01*
X102984824Y-135923000D01*
X103585020Y-135674390D01*
X103910000Y-135349410D01*
X104234980Y-135674390D01*
X104835176Y-135923000D01*
X105484824Y-135923000D01*
X106085020Y-135674390D01*
X106410000Y-135349410D01*
X106734980Y-135674390D01*
X107335176Y-135923000D01*
X107984824Y-135923000D01*
X108585020Y-135674390D01*
X108653718Y-135605692D01*
X108855627Y-135807601D01*
X109134224Y-135923000D01*
X109966500Y-135923000D01*
X110156000Y-135733500D01*
X110156000Y-134294000D01*
X110164000Y-134294000D01*
X110164000Y-135733500D01*
X110353500Y-135923000D01*
X111185776Y-135923000D01*
X111464373Y-135807601D01*
X111677602Y-135594372D01*
X111793000Y-135315775D01*
X111793000Y-134483500D01*
X111603500Y-134294000D01*
X110164000Y-134294000D01*
X110156000Y-134294000D01*
X110136000Y-134294000D01*
X110136000Y-134286000D01*
X110156000Y-134286000D01*
X110156000Y-132846500D01*
X110164000Y-132846500D01*
X110164000Y-134286000D01*
X111603500Y-134286000D01*
X111793000Y-134096500D01*
X111793000Y-133264225D01*
X111677602Y-132985628D01*
X111464373Y-132772399D01*
X111185776Y-132657000D01*
X110353500Y-132657000D01*
X110164000Y-132846500D01*
X110156000Y-132846500D01*
X109966500Y-132657000D01*
X109134224Y-132657000D01*
X108855627Y-132772399D01*
X108668000Y-132960026D01*
X108668000Y-132905273D01*
X108687747Y-132805999D01*
X108609514Y-132412698D01*
X108577005Y-132364045D01*
X108386727Y-132079273D01*
X108302562Y-132023036D01*
X108021526Y-131742000D01*
X115394726Y-131742000D01*
X115494000Y-131761747D01*
X115593274Y-131742000D01*
X121172473Y-131742000D01*
X121892001Y-132461528D01*
X121892001Y-132988589D01*
X121650000Y-133230590D01*
X121325020Y-132905610D01*
X120724824Y-132657000D01*
X120075176Y-132657000D01*
X119474980Y-132905610D01*
X119150000Y-133230590D01*
X118825020Y-132905610D01*
X118224824Y-132657000D01*
X117575176Y-132657000D01*
X116974980Y-132905610D01*
X116515610Y-133364980D01*
X116267000Y-133965176D01*
X116267000Y-134614824D01*
X116515610Y-135215020D01*
X116974980Y-135674390D01*
X117575176Y-135923000D01*
X118224824Y-135923000D01*
X118825020Y-135674390D01*
X119150000Y-135349410D01*
X119474980Y-135674390D01*
X120075176Y-135923000D01*
X120724824Y-135923000D01*
X121325020Y-135674390D01*
X121650000Y-135349410D01*
X121974980Y-135674390D01*
X122575176Y-135923000D01*
X123224824Y-135923000D01*
X123825020Y-135674390D01*
X123893718Y-135605692D01*
X124095627Y-135807601D01*
X124374224Y-135923000D01*
X125206500Y-135923000D01*
X125396000Y-135733500D01*
X125396000Y-134294000D01*
X125404000Y-134294000D01*
X125404000Y-135733500D01*
X125593500Y-135923000D01*
X126425776Y-135923000D01*
X126704373Y-135807601D01*
X126917602Y-135594372D01*
X127033000Y-135315775D01*
X127033000Y-134483500D01*
X126843500Y-134294000D01*
X125404000Y-134294000D01*
X125396000Y-134294000D01*
X125376000Y-134294000D01*
X125376000Y-134286000D01*
X125396000Y-134286000D01*
X125396000Y-132846500D01*
X125404000Y-132846500D01*
X125404000Y-134286000D01*
X126843500Y-134286000D01*
X127033000Y-134096500D01*
X127033000Y-133264225D01*
X126917602Y-132985628D01*
X126704373Y-132772399D01*
X126425776Y-132657000D01*
X125593500Y-132657000D01*
X125404000Y-132846500D01*
X125396000Y-132846500D01*
X125206500Y-132657000D01*
X124374224Y-132657000D01*
X124095627Y-132772399D01*
X123908000Y-132960026D01*
X123908000Y-132143274D01*
X123927747Y-132044000D01*
X123849514Y-131650698D01*
X123682961Y-131401433D01*
X123682960Y-131401432D01*
X123626727Y-131317273D01*
X123542567Y-131261039D01*
X122372964Y-130091438D01*
X122316727Y-130007273D01*
X121983302Y-129784486D01*
X121689274Y-129726000D01*
X121590000Y-129706253D01*
X121490726Y-129726000D01*
X117536156Y-129726000D01*
X117537747Y-129718000D01*
X117518000Y-129618726D01*
X117518000Y-127516485D01*
X117668000Y-127154353D01*
X117668000Y-126693671D01*
X117611803Y-126558000D01*
X118010341Y-126558000D01*
X118435955Y-126381705D01*
X118761705Y-126055955D01*
X118938000Y-125630341D01*
X118938000Y-125169659D01*
X118761705Y-124744045D01*
X118435955Y-124418295D01*
X118010341Y-124242000D01*
X117549659Y-124242000D01*
X117187527Y-124392000D01*
X112530483Y-124392000D01*
X112168351Y-124242000D01*
X111707669Y-124242000D01*
X111282055Y-124418295D01*
X110956305Y-124744045D01*
X110780010Y-125169659D01*
X110780010Y-125630341D01*
X110956305Y-126055955D01*
X111282055Y-126381705D01*
X111707669Y-126558000D01*
X112168351Y-126558000D01*
X112530483Y-126408000D01*
X115470329Y-126408000D01*
X115352000Y-126693671D01*
X115352000Y-127154353D01*
X115502001Y-127516487D01*
X115502000Y-128348726D01*
X115502000Y-128348727D01*
X115502001Y-129300473D01*
X115076474Y-129726000D01*
X86701527Y-129726000D01*
X85891706Y-128916180D01*
X85741705Y-128554045D01*
X85415955Y-128228295D01*
X84990341Y-128052000D01*
X84529659Y-128052000D01*
X84104045Y-128228295D01*
X83778295Y-128554045D01*
X83602000Y-128979659D01*
X64833000Y-128979659D01*
X64833000Y-119257599D01*
X95239294Y-119257599D01*
X95239294Y-119718281D01*
X95415589Y-120143895D01*
X95741339Y-120469645D01*
X96071168Y-120606264D01*
X96224295Y-120975947D01*
X96550045Y-121301697D01*
X96975659Y-121477992D01*
X97436341Y-121477992D01*
X97861955Y-121301697D01*
X97960660Y-121202992D01*
X98367008Y-121202992D01*
X98367008Y-121354156D01*
X98328045Y-121370295D01*
X98002295Y-121696045D01*
X97826000Y-122121659D01*
X97826000Y-122582341D01*
X98002295Y-123007955D01*
X98328045Y-123333705D01*
X98753659Y-123510000D01*
X99214341Y-123510000D01*
X99639955Y-123333705D01*
X99738660Y-123235000D01*
X103817340Y-123235000D01*
X103916045Y-123333705D01*
X104341659Y-123510000D01*
X104802341Y-123510000D01*
X105227955Y-123333705D01*
X105553705Y-123007955D01*
X105730000Y-122582341D01*
X105730000Y-122320172D01*
X105735955Y-122317705D01*
X106061705Y-121991955D01*
X106238000Y-121566341D01*
X106238000Y-121202992D01*
X107086242Y-121202992D01*
X107218025Y-121334775D01*
X107643639Y-121511070D01*
X108104321Y-121511070D01*
X108529935Y-121334775D01*
X108855685Y-121009025D01*
X109031980Y-120583411D01*
X109031980Y-120122729D01*
X108855685Y-119697115D01*
X108728255Y-119569685D01*
X108808994Y-119488945D01*
X108945592Y-119159169D01*
X109291945Y-119015705D01*
X109617695Y-118689955D01*
X109793990Y-118264341D01*
X109793990Y-117803659D01*
X109617695Y-117378045D01*
X109291945Y-117052295D01*
X108866331Y-116876000D01*
X108405649Y-116876000D01*
X107980035Y-117052295D01*
X107881330Y-117151000D01*
X101987670Y-117151000D01*
X101888965Y-117052295D01*
X101463351Y-116876000D01*
X101002669Y-116876000D01*
X100577055Y-117052295D01*
X100251305Y-117378045D01*
X100075010Y-117803659D01*
X100075010Y-117913000D01*
X97960684Y-117913000D01*
X97861979Y-117814295D01*
X97436365Y-117638000D01*
X96975683Y-117638000D01*
X96550069Y-117814295D01*
X96224319Y-118140045D01*
X96141252Y-118340586D01*
X95741339Y-118506235D01*
X95415589Y-118831985D01*
X95239294Y-119257599D01*
X64833000Y-119257599D01*
X64833000Y-114247659D01*
X88174000Y-114247659D01*
X88174000Y-114708341D01*
X88289012Y-114986005D01*
X88174004Y-115263659D01*
X88174004Y-115724341D01*
X88289012Y-116001995D01*
X88174000Y-116279659D01*
X88174000Y-116740341D01*
X88350295Y-117165955D01*
X88676045Y-117491705D01*
X89101659Y-117668000D01*
X89562341Y-117668000D01*
X89987955Y-117491705D01*
X90086666Y-117392994D01*
X91117340Y-117392994D01*
X91216045Y-117491699D01*
X91641659Y-117667994D01*
X92102341Y-117667994D01*
X92527955Y-117491699D01*
X92853705Y-117165949D01*
X93030000Y-116740335D01*
X93030000Y-116377000D01*
X93547175Y-116377000D01*
X93662950Y-116400029D01*
X93786985Y-116524064D01*
X94212599Y-116700359D01*
X94673281Y-116700359D01*
X95098895Y-116524064D01*
X95424645Y-116198314D01*
X95600940Y-115772700D01*
X95600940Y-115312018D01*
X95424645Y-114886404D01*
X95098895Y-114560654D01*
X95061994Y-114545369D01*
X95061994Y-114469659D01*
X94885699Y-114044045D01*
X94559949Y-113718295D01*
X94134335Y-113542000D01*
X93673653Y-113542000D01*
X93248039Y-113718295D01*
X93149334Y-113817000D01*
X90308660Y-113817000D01*
X89987955Y-113496295D01*
X89562341Y-113320000D01*
X89101659Y-113320000D01*
X88676045Y-113496295D01*
X88350295Y-113822045D01*
X88174000Y-114247659D01*
X64833000Y-114247659D01*
X64833000Y-108160000D01*
X65345396Y-108160000D01*
X65450793Y-108689865D01*
X65641264Y-108974925D01*
X65583513Y-109013513D01*
X65415980Y-109264243D01*
X65357150Y-109560000D01*
X65357150Y-110760000D01*
X65415980Y-111055757D01*
X65583513Y-111306487D01*
X65834243Y-111474020D01*
X66130000Y-111532850D01*
X67830000Y-111532850D01*
X68125757Y-111474020D01*
X68376487Y-111306487D01*
X68469021Y-111168000D01*
X71213527Y-111168000D01*
X71575659Y-111318000D01*
X72036341Y-111318000D01*
X72461955Y-111141705D01*
X72787705Y-110815955D01*
X72964000Y-110390341D01*
X72964000Y-109929659D01*
X86904000Y-109929659D01*
X86904000Y-110390341D01*
X87080295Y-110815955D01*
X87406045Y-111141705D01*
X87831659Y-111318000D01*
X88292341Y-111318000D01*
X88717955Y-111141705D01*
X89043705Y-110815955D01*
X89108304Y-110660000D01*
X91279527Y-110660000D01*
X91641659Y-110810000D01*
X92102341Y-110810000D01*
X92527955Y-110633705D01*
X92853705Y-110307955D01*
X93030000Y-109882341D01*
X93030000Y-109421659D01*
X92853705Y-108996045D01*
X92527955Y-108670295D01*
X92102341Y-108494000D01*
X91641659Y-108494000D01*
X91279527Y-108644000D01*
X88669268Y-108644000D01*
X88569999Y-108624254D01*
X88470730Y-108644000D01*
X88470726Y-108644000D01*
X88176698Y-108702486D01*
X87843273Y-108925273D01*
X87787036Y-109009438D01*
X87768180Y-109028294D01*
X87406045Y-109178295D01*
X87080295Y-109504045D01*
X86904000Y-109929659D01*
X72964000Y-109929659D01*
X72787705Y-109504045D01*
X72461955Y-109178295D01*
X72036341Y-109002000D01*
X71575659Y-109002000D01*
X71213527Y-109152000D01*
X70581846Y-109152000D01*
X70683955Y-109109705D01*
X71009705Y-108783955D01*
X71186000Y-108358341D01*
X71186000Y-107897659D01*
X71009705Y-107472045D01*
X70683955Y-107146295D01*
X70258341Y-106970000D01*
X69797659Y-106970000D01*
X69372045Y-107146295D01*
X69265382Y-107252958D01*
X68264209Y-107263469D01*
X68209063Y-107180937D01*
X68153670Y-107143924D01*
X68193080Y-107117423D01*
X68486160Y-106675989D01*
X68570649Y-106376388D01*
X68398493Y-106164000D01*
X66984000Y-106164000D01*
X66984000Y-106184000D01*
X66976000Y-106184000D01*
X66976000Y-106164000D01*
X65561507Y-106164000D01*
X65389351Y-106376388D01*
X65473840Y-106675989D01*
X65766920Y-107117423D01*
X65806330Y-107143924D01*
X65750937Y-107180937D01*
X65450793Y-107630135D01*
X65345396Y-108160000D01*
X64833000Y-108160000D01*
X64833000Y-100160000D01*
X65345396Y-100160000D01*
X65450793Y-100689865D01*
X65750937Y-101139063D01*
X65782271Y-101160000D01*
X65750937Y-101180937D01*
X65450793Y-101630135D01*
X65345396Y-102160000D01*
X65450793Y-102689865D01*
X65750937Y-103139063D01*
X65782271Y-103160000D01*
X65750937Y-103180937D01*
X65450793Y-103630135D01*
X65345396Y-104160000D01*
X65450793Y-104689865D01*
X65750937Y-105139063D01*
X65806330Y-105176076D01*
X65766920Y-105202577D01*
X65473840Y-105644011D01*
X65389351Y-105943612D01*
X65561507Y-106156000D01*
X66976000Y-106156000D01*
X66976000Y-106136000D01*
X66984000Y-106136000D01*
X66984000Y-106156000D01*
X68398493Y-106156000D01*
X68570649Y-105943612D01*
X68486160Y-105644011D01*
X68193080Y-105202577D01*
X68153670Y-105176076D01*
X68209063Y-105139063D01*
X68293823Y-105012211D01*
X70306996Y-104964656D01*
X70388045Y-105045705D01*
X70813659Y-105222000D01*
X71274341Y-105222000D01*
X71699955Y-105045705D01*
X72025705Y-104719955D01*
X72202000Y-104294341D01*
X72202000Y-103833659D01*
X72025705Y-103408045D01*
X71699955Y-103082295D01*
X71274341Y-102906000D01*
X70813659Y-102906000D01*
X70388045Y-103082295D01*
X70271334Y-103199006D01*
X68252993Y-103246683D01*
X68209063Y-103180937D01*
X68177729Y-103160000D01*
X68209063Y-103139063D01*
X68509207Y-102689865D01*
X68614604Y-102160000D01*
X68593850Y-102055659D01*
X95794004Y-102055659D01*
X95794004Y-102516341D01*
X95970299Y-102941955D01*
X96296049Y-103267705D01*
X96721663Y-103444000D01*
X96971402Y-103444000D01*
X96810000Y-103833659D01*
X96810000Y-104294341D01*
X96925010Y-104572000D01*
X96810000Y-104849659D01*
X96810000Y-105310341D01*
X96986295Y-105735955D01*
X97312045Y-106061705D01*
X97737659Y-106238000D01*
X98198341Y-106238000D01*
X98623955Y-106061705D01*
X98722660Y-105963000D01*
X99753340Y-105963000D01*
X99852045Y-106061705D01*
X100277659Y-106238000D01*
X100738341Y-106238000D01*
X101163955Y-106061705D01*
X101489705Y-105735955D01*
X101666000Y-105310341D01*
X101666000Y-104849659D01*
X101550990Y-104572000D01*
X101666000Y-104294341D01*
X101666000Y-103833659D01*
X101489705Y-103408045D01*
X101250660Y-103169000D01*
X102428268Y-103169000D01*
X106758271Y-107499004D01*
X106342660Y-107499004D01*
X106243955Y-107400299D01*
X105818341Y-107224004D01*
X105357659Y-107224004D01*
X104932045Y-107400299D01*
X104606295Y-107726049D01*
X104430000Y-108151663D01*
X104430000Y-108612345D01*
X104597611Y-109016995D01*
X104429994Y-109421659D01*
X104429994Y-109882341D01*
X104606289Y-110307955D01*
X104932039Y-110633705D01*
X105357653Y-110810000D01*
X105818335Y-110810000D01*
X106243949Y-110633705D01*
X106342654Y-110535000D01*
X110167340Y-110535000D01*
X110266045Y-110633705D01*
X110691659Y-110810000D01*
X111152341Y-110810000D01*
X111577955Y-110633705D01*
X111903705Y-110307955D01*
X112080000Y-109882341D01*
X112080000Y-109421659D01*
X112058467Y-109369673D01*
X112469659Y-109539994D01*
X112930341Y-109539994D01*
X113355955Y-109363699D01*
X113454660Y-109264994D01*
X114400894Y-109264994D01*
X114336000Y-109421663D01*
X114336000Y-109882345D01*
X114512295Y-110307959D01*
X114838045Y-110633709D01*
X115263659Y-110810004D01*
X115724341Y-110810004D01*
X116149955Y-110633709D01*
X116248660Y-110535004D01*
X116771344Y-110535004D01*
X116870045Y-110633705D01*
X117295659Y-110810000D01*
X117756341Y-110810000D01*
X118181955Y-110633705D01*
X118507705Y-110307955D01*
X118684000Y-109882341D01*
X118684000Y-109421659D01*
X118662470Y-109369680D01*
X119073659Y-109540000D01*
X119534341Y-109540000D01*
X119959955Y-109363705D01*
X120285705Y-109037955D01*
X120462000Y-108612341D01*
X120462000Y-108151659D01*
X120294385Y-107747000D01*
X120462000Y-107342341D01*
X120462000Y-106881659D01*
X120285705Y-106456045D01*
X119959955Y-106130295D01*
X119534341Y-105954000D01*
X119073659Y-105954000D01*
X118683990Y-106115406D01*
X118683990Y-105865659D01*
X118516380Y-105461012D01*
X118684000Y-105056341D01*
X118684000Y-104595659D01*
X118507705Y-104170045D01*
X118401657Y-104063997D01*
X118507699Y-103957955D01*
X118683994Y-103532341D01*
X118683994Y-103071659D01*
X118507699Y-102646045D01*
X118181949Y-102320295D01*
X117756335Y-102144000D01*
X117295653Y-102144000D01*
X116870039Y-102320295D01*
X116771334Y-102419000D01*
X113454660Y-102419000D01*
X113355955Y-102320295D01*
X112930341Y-102144000D01*
X112469659Y-102144000D01*
X112044045Y-102320295D01*
X111718295Y-102646045D01*
X111542000Y-103071659D01*
X111542000Y-103532341D01*
X111718295Y-103957955D01*
X111824340Y-104064000D01*
X111718295Y-104170045D01*
X111542000Y-104595659D01*
X111542000Y-105056341D01*
X111718295Y-105481955D01*
X112044045Y-105807705D01*
X112433446Y-105969000D01*
X112044045Y-106130295D01*
X111718295Y-106456045D01*
X111542000Y-106881659D01*
X111542000Y-107342341D01*
X111709614Y-107746997D01*
X111557005Y-108115428D01*
X111395717Y-107726045D01*
X111069967Y-107400295D01*
X110644353Y-107224000D01*
X110183671Y-107224000D01*
X109758057Y-107400295D01*
X109659348Y-107499004D01*
X109286018Y-107499004D01*
X109286018Y-107389659D01*
X109109723Y-106964045D01*
X108783973Y-106638295D01*
X108358359Y-106462000D01*
X108218769Y-106462000D01*
X103479887Y-101723119D01*
X103430625Y-101649393D01*
X103138547Y-101454233D01*
X102880981Y-101403000D01*
X102880980Y-101403000D01*
X102794018Y-101385702D01*
X102707056Y-101403000D01*
X97706664Y-101403000D01*
X97607959Y-101304295D01*
X97182345Y-101128000D01*
X96721663Y-101128000D01*
X96296049Y-101304295D01*
X95970299Y-101630045D01*
X95794004Y-102055659D01*
X68593850Y-102055659D01*
X68509207Y-101630135D01*
X68209063Y-101180937D01*
X68177729Y-101160000D01*
X68209063Y-101139063D01*
X68273250Y-101043000D01*
X68417326Y-101043000D01*
X68610045Y-101235719D01*
X69035659Y-101412014D01*
X69496341Y-101412014D01*
X69921955Y-101235719D01*
X70247705Y-100909969D01*
X70424000Y-100484355D01*
X70424000Y-100023673D01*
X70247705Y-99598059D01*
X69921955Y-99272309D01*
X69496341Y-99096014D01*
X69035659Y-99096014D01*
X68610045Y-99272309D01*
X68605354Y-99277000D01*
X68273250Y-99277000D01*
X68209063Y-99180937D01*
X67759865Y-98880793D01*
X67363747Y-98802000D01*
X66596253Y-98802000D01*
X66200135Y-98880793D01*
X65750937Y-99180937D01*
X65450793Y-99630135D01*
X65345396Y-100160000D01*
X64833000Y-100160000D01*
X64833000Y-97229659D01*
X95286000Y-97229659D01*
X95286000Y-97690341D01*
X95462295Y-98115955D01*
X95788045Y-98441705D01*
X96213659Y-98618000D01*
X96674341Y-98618000D01*
X97099955Y-98441705D01*
X97198660Y-98343000D01*
X98045336Y-98343000D01*
X98144045Y-98441709D01*
X98569659Y-98618004D01*
X99030341Y-98618004D01*
X99455955Y-98441709D01*
X99781705Y-98115959D01*
X99958000Y-97690345D01*
X99958000Y-97229663D01*
X99781705Y-96804049D01*
X99455955Y-96478299D01*
X99030341Y-96302004D01*
X98569659Y-96302004D01*
X98144045Y-96478299D01*
X98045344Y-96577000D01*
X97198660Y-96577000D01*
X97099955Y-96478295D01*
X96674341Y-96302000D01*
X96213659Y-96302000D01*
X95788045Y-96478295D01*
X95462295Y-96804045D01*
X95286000Y-97229659D01*
X64833000Y-97229659D01*
X64833000Y-91764495D01*
X64937740Y-91607740D01*
X65148248Y-91467083D01*
X111713574Y-91467083D01*
X111769529Y-91762489D01*
X112333058Y-92020561D01*
X112952450Y-92043335D01*
X113533409Y-91827344D01*
X113630471Y-91762489D01*
X113686426Y-91467083D01*
X112700000Y-90480657D01*
X111713574Y-91467083D01*
X65148248Y-91467083D01*
X65206725Y-91428010D01*
X65548635Y-91360000D01*
X73343680Y-91360000D01*
X73392453Y-91355196D01*
X73966478Y-91241015D01*
X74056598Y-91203686D01*
X74543233Y-90878527D01*
X74581117Y-90847437D01*
X74701104Y-90727450D01*
X111131665Y-90727450D01*
X111347656Y-91308409D01*
X111412511Y-91405471D01*
X111707917Y-91461426D01*
X112694343Y-90475000D01*
X112705657Y-90475000D01*
X113692083Y-91461426D01*
X113987489Y-91405471D01*
X114245561Y-90841942D01*
X114268335Y-90222550D01*
X114052344Y-89641591D01*
X113987489Y-89544529D01*
X113692083Y-89488574D01*
X112705657Y-90475000D01*
X112694343Y-90475000D01*
X111707917Y-89488574D01*
X111412511Y-89544529D01*
X111154439Y-90108058D01*
X111131665Y-90727450D01*
X74701104Y-90727450D01*
X77495028Y-87933526D01*
X77919840Y-87649676D01*
X78420942Y-87550000D01*
X111173105Y-87550000D01*
X111142000Y-87625095D01*
G04 #@! TD*
M02*
