M48
;DRILL file {KiCad (5.0.2)-1} date 2019/03/08 16:37:16
;FORMAT={-:-/ absolute / metric / decimal}
FMAT,2
METRIC,TZ
T1C0.400
T2C0.750
T3C0.800
T4C1.000
T5C1.050
T6C1.650
T7C3.200
T8C3.500
%
G90
G05
T1
X66.98Y-61.9
X66.98Y-94.92
X66.98Y-115.24
X66.98Y-120.32
X66.98Y-125.4
X66.98Y-130.48
X66.98Y-140.64
X69.266Y-100.254
X69.52Y-59.36
X69.52Y-82.22
X69.52Y-92.38
X69.52Y-97.46
X69.52Y-127.94
X69.52Y-138.1
X70.028Y-108.128
X71.044Y-104.064
X71.806Y-107.62
X71.806Y-110.16
X72.06Y-56.82
X72.06Y-61.9
X72.06Y-79.68
X72.06Y-94.92
X72.06Y-100.
X72.06Y-105.08
X72.06Y-115.24
X72.06Y-120.32
X72.06Y-130.48
X72.06Y-135.56
X72.06Y-140.64
X72.06Y-145.72
X72.695Y-129.21
X73.33Y-64.44
X73.33Y-84.76
X73.965Y-84.76
X74.346Y-140.64
X74.6Y-54.28
X74.6Y-59.36
X74.6Y-64.44
X74.6Y-82.22
X74.6Y-92.38
X74.6Y-97.46
X74.6Y-102.54
X74.6Y-107.62
X74.6Y-122.86
X74.6Y-127.94
X74.6Y-143.18
X75.87Y-64.44
X77.14Y-56.82
X77.14Y-61.9
X77.14Y-64.44
X77.14Y-74.6
X77.14Y-94.92
X77.14Y-100.
X77.14Y-105.08
X77.14Y-115.24
X77.14Y-120.32
X77.14Y-125.4
X77.14Y-145.72
X77.775Y-90.475
X77.775Y-129.21
X78.156Y-84.76
X78.41Y-64.44
X79.68Y-54.28
X79.68Y-59.36
X79.68Y-64.44
X79.68Y-77.14
X79.68Y-97.46
X79.68Y-102.54
X79.68Y-102.54
X79.68Y-107.62
X79.68Y-117.78
X79.68Y-122.86
X79.68Y-127.94
X81.204Y-80.696
X82.22Y-61.9
X82.22Y-70.1
X82.22Y-100.
X82.22Y-105.08
X82.22Y-115.24
X82.22Y-120.32
X82.22Y-125.4
X82.22Y-138.735
X82.855Y-89.84
X83.49Y-85.522
X84.125Y-69.52
X84.76Y-54.28
X84.76Y-59.36
X84.76Y-77.14
X84.76Y-92.38
X84.76Y-97.46
X84.76Y-102.54
X84.76Y-107.62
X84.76Y-117.78
X84.76Y-122.86
X84.76Y-127.94
X84.76Y-129.21
X84.76Y-143.18
X85.395Y-69.52
X86.665Y-69.52
X87.3Y-56.82
X87.3Y-61.9
X87.3Y-100.
X87.3Y-105.08
X87.3Y-120.32
X87.3Y-125.4
X87.3Y-140.64
X87.3Y-145.72
X87.935Y-69.52
X88.062Y-110.16
X89.332Y-114.478
X89.332Y-116.51
X89.332Y-115.494
X89.84Y-54.28
X89.84Y-59.36
X89.84Y-70.79
X89.84Y-77.14
X89.84Y-102.54
X89.84Y-138.1
X89.84Y-143.18
X90.475Y-89.84
X90.475Y-133.02
X91.872Y-107.62
X91.872Y-109.652
X91.872Y-116.51
X92.38Y-61.9
X92.38Y-79.68
X92.38Y-94.92
X92.38Y-100.
X92.38Y-120.32
X92.38Y-125.4
X92.38Y-135.56
X92.38Y-140.64
X92.38Y-145.72
X93.396Y-84.76
X93.904Y-114.7
X94.443Y-115.542
X94.92Y-59.36
X94.92Y-77.14
X94.92Y-102.54
X94.92Y-127.94
X94.92Y-138.1
X94.92Y-143.18
X96.19Y-108.255
X96.397Y-119.488
X96.444Y-80.696
X96.444Y-97.46
X96.952Y-102.286
X97.206Y-120.32
X97.206Y-118.796
X97.46Y-56.82
X97.46Y-61.9
X97.46Y-112.7
X97.46Y-115.24
X97.46Y-125.4
X97.46Y-140.64
X97.968Y-104.064
X97.968Y-105.08
X98.095Y-89.84
X98.8Y-97.46
X98.984Y-85.268
X98.984Y-122.352
X99.525Y-121.336
X100.Y-54.28
X100.Y-59.36
X100.Y-72.06
X100.Y-77.14
X100.Y-92.38
X100.Y-110.16
X100.Y-115.24
X100.Y-127.94
X100.Y-138.1
X100.508Y-104.064
X100.508Y-105.08
X101.233Y-118.034
X102.54Y-56.82
X102.54Y-61.9
X102.54Y-100.
X102.54Y-110.16
X102.54Y-112.7
X102.54Y-125.4
X102.54Y-140.64
X103.81Y-116.764
X104.572Y-122.352
X105.08Y-59.36
X105.08Y-121.336
X105.08Y-127.94
X105.08Y-138.1
X105.588Y-109.652
X105.588Y-108.382
X105.715Y-89.84
X107.065Y-119.595
X107.62Y-61.9
X107.62Y-79.68
X107.62Y-84.76
X107.62Y-94.92
X107.62Y-100.
X107.62Y-125.4
X107.62Y-140.64
X107.62Y-145.72
X107.827Y-118.833
X107.874Y-120.353
X108.128Y-107.62
X108.636Y-118.034
X110.16Y-54.28
X110.16Y-59.36
X110.16Y-77.14
X110.16Y-82.22
X110.16Y-92.38
X110.16Y-97.46
X110.16Y-122.86
X110.16Y-127.94
X110.16Y-138.1
X110.16Y-143.18
X110.414Y-108.382
X110.922Y-109.652
X111.938Y-125.4
X112.7Y-56.82
X112.7Y-61.9
X112.7Y-79.68
X112.7Y-94.92
X112.7Y-100.
X112.7Y-103.302
X112.7Y-104.826
X112.7Y-107.112
X112.7Y-108.382
X112.7Y-110.16
X112.7Y-115.24
X115.24Y-54.28
X115.24Y-59.36
X115.24Y-77.14
X115.24Y-97.46
X115.494Y-106.096
X115.494Y-109.652
X116.51Y-126.924
X117.526Y-106.096
X117.526Y-103.302
X117.526Y-104.826
X117.526Y-109.652
X117.78Y-61.9
X117.78Y-100.
X117.78Y-115.24
X117.78Y-120.32
X117.78Y-125.4
X117.78Y-140.64
X118.288Y-94.412
X119.05Y-77.14
X119.304Y-107.112
X119.304Y-108.382
X120.057Y-85.279
X120.057Y-88.051
X120.32Y-54.28
X120.32Y-59.36
X120.32Y-64.44
X120.32Y-97.46
X120.32Y-102.54
X120.32Y-112.7
X120.32Y-117.78
X120.32Y-122.86
X120.32Y-138.1
X122.86Y-56.82
X122.86Y-61.9
X122.86Y-66.98
X122.86Y-105.08
X122.86Y-110.16
X122.86Y-115.24
X122.86Y-120.32
X122.86Y-140.64
X123.876Y-88.062
X123.876Y-85.268
X124.13Y-72.06
X125.4Y-54.28
X125.4Y-59.36
X125.4Y-64.44
X125.4Y-79.68
X125.4Y-84.76
X125.4Y-92.38
X125.4Y-97.46
X125.4Y-112.7
X125.4Y-124.892
X127.94Y-56.82
X127.94Y-61.9
X127.94Y-66.98
X127.94Y-88.062
X127.94Y-93.015
X127.94Y-100.
X127.94Y-110.16
X127.94Y-120.32
X127.94Y-125.4
X127.94Y-130.48
X127.94Y-135.56
X127.94Y-140.64
X127.94Y-145.72
X130.48Y-59.36
X130.48Y-64.44
X130.48Y-69.52
X130.48Y-97.46
X130.48Y-112.7
X130.48Y-127.94
X130.48Y-133.02
X130.48Y-138.1
X131.75Y-94.666
X133.02Y-61.9
X133.02Y-66.98
X133.02Y-82.22
X133.02Y-89.84
X133.02Y-94.92
X133.02Y-100.
X133.02Y-110.16
X133.02Y-120.32
X133.02Y-125.4
X133.02Y-135.56
X133.02Y-140.64
T2
X66.98Y-100.16
X66.98Y-102.16
X66.98Y-104.16
X66.98Y-106.16
X66.98Y-108.16
X66.98Y-110.16
T3
X112.7Y-82.855
X112.7Y-85.395
X112.7Y-87.935
X112.7Y-90.475
T4
X97.66Y-134.29
X100.16Y-134.29
X102.66Y-134.29
X105.16Y-134.29
X107.66Y-134.29
X110.16Y-134.29
X117.9Y-134.29
X120.4Y-134.29
X122.9Y-134.29
X125.4Y-134.29
X67.06Y-65.71
X72.06Y-65.71
X112.9Y-144.45
X115.4Y-144.45
X117.9Y-144.45
X120.4Y-144.45
X122.9Y-144.45
X125.4Y-144.45
X115.24Y-72.06
X117.78Y-72.06
X120.32Y-72.06
X91.11Y-72.06
X93.65Y-72.06
X96.19Y-72.06
X97.58Y-144.45
X100.08Y-144.45
X102.58Y-144.45
X105.08Y-144.45
X79.68Y-72.06
X82.22Y-72.06
X84.76Y-72.06
X103.81Y-72.06
X106.35Y-72.06
X108.89Y-72.06
T5
X79.72Y-144.45
X82.22Y-144.45
X66.98Y-84.8
X66.98Y-87.3
T6
X131.75Y-73.965
X131.75Y-77.925
X68.25Y-74.25
X68.25Y-78.21
T7
X67.Y-144.5
X67.Y-55.5
X133.Y-55.5
X133.Y-144.5
T8
X117.78Y-55.4
X93.65Y-55.4
X82.22Y-55.4
X106.35Y-55.4
T0
M30
