G04 #@! TF.GenerationSoftware,KiCad,Pcbnew,(5.0.2)-1*
G04 #@! TF.CreationDate,2019-03-08T18:58:42+09:00*
G04 #@! TF.ProjectId,spindleMD_v2,7370696e-646c-4654-9d44-5f76322e6b69,rev?*
G04 #@! TF.SameCoordinates,Original*
G04 #@! TF.FileFunction,Legend,Bot*
G04 #@! TF.FilePolarity,Positive*
%FSLAX46Y46*%
G04 Gerber Fmt 4.6, Leading zero omitted, Abs format (unit mm)*
G04 Created by KiCad (PCBNEW (5.0.2)-1) date 2019/03/08 18:58:42*
%MOMM*%
%LPD*%
G01*
G04 APERTURE LIST*
%ADD10C,0.120000*%
%ADD11C,0.010000*%
%ADD12C,0.150000*%
G04 APERTURE END LIST*
D10*
G04 #@! TO.C,D8*
X119425000Y-66100000D02*
X113725000Y-66100000D01*
X119425000Y-70400000D02*
X113725000Y-70400000D01*
X119425000Y-66100000D02*
X119425000Y-70400000D01*
G04 #@! TO.C,D9*
X107995000Y-66100000D02*
X107995000Y-70400000D01*
X107995000Y-70400000D02*
X102295000Y-70400000D01*
X107995000Y-66100000D02*
X102295000Y-66100000D01*
G04 #@! TO.C,D10*
X95295000Y-66100000D02*
X95295000Y-70400000D01*
X95295000Y-70400000D02*
X89595000Y-70400000D01*
X95295000Y-66100000D02*
X89595000Y-66100000D01*
G04 #@! TO.C,D11*
X83865000Y-66100000D02*
X78165000Y-66100000D01*
X83865000Y-70400000D02*
X78165000Y-70400000D01*
X83865000Y-66100000D02*
X83865000Y-70400000D01*
D11*
G04 #@! TO.C,G\002A\002A\002A*
G36*
X88485334Y-116848667D02*
X88027210Y-116848667D01*
X87350660Y-116927093D01*
X86700311Y-117150041D01*
X86111240Y-117499016D01*
X85618523Y-117955522D01*
X85413667Y-118226777D01*
X85308160Y-118421023D01*
X85159272Y-118740146D01*
X84980861Y-119149656D01*
X84786783Y-119615065D01*
X84590893Y-120101882D01*
X84407048Y-120575618D01*
X84249103Y-121001783D01*
X84130916Y-121345888D01*
X84066342Y-121573443D01*
X84063585Y-121587290D01*
X84076895Y-121626397D01*
X84145272Y-121657267D01*
X84286885Y-121681184D01*
X84519903Y-121699437D01*
X84862495Y-121713311D01*
X85332829Y-121724092D01*
X85949075Y-121733067D01*
X86157000Y-121735508D01*
X86742743Y-121742081D01*
X87274794Y-121747960D01*
X87728947Y-121752885D01*
X88081000Y-121756595D01*
X88306749Y-121758831D01*
X88379500Y-121759385D01*
X88410635Y-121795448D01*
X88435466Y-121913150D01*
X88454572Y-122126706D01*
X88468530Y-122450331D01*
X88477918Y-122898242D01*
X88483314Y-123484654D01*
X88485295Y-124223782D01*
X88485334Y-124363372D01*
X88485334Y-126967410D01*
X85987667Y-129464000D01*
X85453108Y-129999815D01*
X84957705Y-130499251D01*
X84513925Y-130949526D01*
X84134234Y-131337860D01*
X83831099Y-131651473D01*
X83616986Y-131877582D01*
X83504361Y-132003408D01*
X83490000Y-132024629D01*
X83573181Y-132031570D01*
X83816783Y-132038073D01*
X84211891Y-132044109D01*
X84749595Y-132049648D01*
X85420981Y-132054661D01*
X86217136Y-132059118D01*
X87129148Y-132062990D01*
X88148105Y-132066248D01*
X89265093Y-132068861D01*
X90471200Y-132070801D01*
X91757514Y-132072038D01*
X93115121Y-132072543D01*
X94535109Y-132072286D01*
X96008565Y-132071238D01*
X97184834Y-132069858D01*
X98658886Y-132067555D01*
X100065599Y-132064805D01*
X101397694Y-132061649D01*
X102647892Y-132058126D01*
X103808913Y-132054275D01*
X104873478Y-132050136D01*
X105834306Y-132045748D01*
X106684120Y-132041150D01*
X107415639Y-132036383D01*
X108021583Y-132031484D01*
X108494674Y-132026495D01*
X108827632Y-132021454D01*
X109013178Y-132016400D01*
X109044031Y-132011374D01*
X108912913Y-132006414D01*
X108910472Y-132006358D01*
X106941276Y-131961667D01*
X109439638Y-129464538D01*
X111896722Y-127008667D01*
X108743654Y-127008667D01*
X103683000Y-131995663D01*
X101312334Y-131997961D01*
X98941667Y-132000259D01*
X101058334Y-129902905D01*
X101630482Y-129337345D01*
X102098944Y-128878475D01*
X102479249Y-128512730D01*
X102786929Y-128226547D01*
X103037513Y-128006360D01*
X103246530Y-127838605D01*
X103429511Y-127709718D01*
X103601987Y-127606133D01*
X103779487Y-127514286D01*
X103810000Y-127499479D01*
X104151229Y-127344169D01*
X104469456Y-127224934D01*
X104794932Y-127137179D01*
X105157906Y-127076314D01*
X105588628Y-127037746D01*
X106117347Y-127016883D01*
X106774313Y-127009132D01*
X107042994Y-127008667D01*
X108743654Y-127008667D01*
X111896722Y-127008667D01*
X111938000Y-126967410D01*
X111938000Y-109144000D01*
X110088790Y-109144000D01*
X109319871Y-109140318D01*
X108689379Y-109120464D01*
X108169839Y-109071225D01*
X107733778Y-108979387D01*
X107353724Y-108831740D01*
X107002203Y-108615069D01*
X106651742Y-108316162D01*
X106274868Y-107921806D01*
X105844107Y-107418789D01*
X105415530Y-106896482D01*
X105066640Y-106471057D01*
X104752656Y-106093554D01*
X104489436Y-105782603D01*
X104292841Y-105556838D01*
X104178732Y-105434888D01*
X104157532Y-105418667D01*
X104114777Y-105494460D01*
X104017206Y-105710044D01*
X103872229Y-106047723D01*
X103687255Y-106489802D01*
X103469695Y-107018585D01*
X103226958Y-107616376D01*
X102987213Y-108213486D01*
X101870916Y-111008305D01*
X102406516Y-112129319D01*
X102534165Y-112395367D01*
X102728182Y-112798201D01*
X102981037Y-113322250D01*
X103285201Y-113951942D01*
X103633145Y-114671704D01*
X104017339Y-115465967D01*
X104430255Y-116319156D01*
X104864364Y-117215701D01*
X105312136Y-118140030D01*
X105588998Y-118711334D01*
X106038695Y-119639459D01*
X106477230Y-120545153D01*
X106897343Y-121413386D01*
X107291774Y-122229128D01*
X107653265Y-122977350D01*
X107974555Y-123643020D01*
X108248385Y-124211108D01*
X108467497Y-124666586D01*
X108624629Y-124994421D01*
X108689624Y-125130960D01*
X109143368Y-126089587D01*
X107386851Y-126062293D01*
X106797789Y-126052500D01*
X106351786Y-126041856D01*
X106022585Y-126027265D01*
X105783926Y-126005631D01*
X105609552Y-125973857D01*
X105473203Y-125928846D01*
X105348622Y-125867502D01*
X105249334Y-125810224D01*
X104987034Y-125637664D01*
X104759268Y-125458175D01*
X104685224Y-125386891D01*
X104605091Y-125264314D01*
X104462480Y-125008426D01*
X104267505Y-124638895D01*
X104030282Y-124175394D01*
X103760924Y-123637594D01*
X103469547Y-123045165D01*
X103277100Y-122648334D01*
X102935713Y-121940614D01*
X102575222Y-121193519D01*
X102213437Y-120443937D01*
X101868163Y-119728761D01*
X101557210Y-119084880D01*
X101298386Y-118549184D01*
X101253989Y-118457334D01*
X100982856Y-117895832D01*
X100660967Y-117228225D01*
X100310760Y-116501108D01*
X99954670Y-115761075D01*
X99615133Y-115054720D01*
X99450589Y-114712080D01*
X99186959Y-114165777D01*
X98947231Y-113674541D01*
X98741003Y-113257594D01*
X98577873Y-112934159D01*
X98467440Y-112723458D01*
X98419302Y-112644716D01*
X98418355Y-112644757D01*
X98403548Y-112732095D01*
X98373034Y-112969238D01*
X98328955Y-113337602D01*
X98273451Y-113818600D01*
X98208665Y-114393648D01*
X98136735Y-115044160D01*
X98059805Y-115751552D01*
X98050307Y-115839677D01*
X97971188Y-116573563D01*
X97895828Y-117270893D01*
X97826608Y-117909763D01*
X97765907Y-118468269D01*
X97716106Y-118924508D01*
X97679587Y-119256577D01*
X97658729Y-119442571D01*
X97658516Y-119444409D01*
X97525944Y-119985430D01*
X97267860Y-120415415D01*
X96886503Y-120730705D01*
X96864775Y-120743093D01*
X96486334Y-120955000D01*
X90792502Y-120955000D01*
X89827624Y-120954429D01*
X88914199Y-120952781D01*
X88066047Y-120950150D01*
X87296992Y-120946633D01*
X86620857Y-120942326D01*
X86051463Y-120937324D01*
X85602633Y-120931723D01*
X85288190Y-120925619D01*
X85121956Y-120919108D01*
X85098669Y-120915537D01*
X85127656Y-120826137D01*
X85206846Y-120610252D01*
X85324582Y-120299027D01*
X85469207Y-119923607D01*
X85488968Y-119872758D01*
X85736810Y-119276766D01*
X85969642Y-118817443D01*
X86207954Y-118465890D01*
X86472240Y-118193207D01*
X86782991Y-117970494D01*
X86876667Y-117915660D01*
X87342334Y-117653000D01*
X90871204Y-117628355D01*
X94400074Y-117603709D01*
X94443218Y-117374355D01*
X94473349Y-117168096D01*
X94507760Y-116865547D01*
X94533438Y-116594667D01*
X94552136Y-116384799D01*
X94584687Y-116029119D01*
X94628970Y-115550391D01*
X94682866Y-114971381D01*
X94744256Y-114314856D01*
X94811021Y-113603580D01*
X94881042Y-112860319D01*
X94882380Y-112846134D01*
X95184247Y-109647934D01*
X96406791Y-106591190D01*
X96677370Y-105913826D01*
X96927175Y-105286870D01*
X97149433Y-104727438D01*
X97337374Y-104252645D01*
X97484224Y-103879609D01*
X97583214Y-103625445D01*
X97627570Y-103507269D01*
X97629334Y-103501062D01*
X97548990Y-103491859D01*
X97325188Y-103485985D01*
X96983774Y-103483604D01*
X96550596Y-103484882D01*
X96051498Y-103489984D01*
X96001701Y-103490672D01*
X94374069Y-103513667D01*
X93398201Y-105383849D01*
X93121066Y-105912416D01*
X92861756Y-106402224D01*
X92633003Y-106829594D01*
X92447542Y-107170848D01*
X92318106Y-107402307D01*
X92267026Y-107487268D01*
X92094750Y-107662636D01*
X91840897Y-107833530D01*
X91724835Y-107891643D01*
X91265217Y-108014492D01*
X90821806Y-107988882D01*
X90422025Y-107832132D01*
X90093296Y-107561561D01*
X89863043Y-107194490D01*
X89758687Y-106748238D01*
X89755334Y-106647749D01*
X89762907Y-106521305D01*
X89790902Y-106378535D01*
X89847232Y-106201872D01*
X89939812Y-105973750D01*
X90076553Y-105676601D01*
X90265371Y-105292861D01*
X90514178Y-104804962D01*
X90830887Y-104195337D01*
X91040528Y-103794851D01*
X91448595Y-103023095D01*
X91794657Y-102387507D01*
X92091025Y-101872101D01*
X92350012Y-101460892D01*
X92583928Y-101137894D01*
X92805088Y-100887121D01*
X93025802Y-100692590D01*
X93258383Y-100538312D01*
X93515143Y-100408305D01*
X93713783Y-100324013D01*
X93829025Y-100278902D01*
X93941611Y-100241196D01*
X94067391Y-100210119D01*
X94222213Y-100184897D01*
X94421925Y-100164752D01*
X94682377Y-100148911D01*
X95019417Y-100136598D01*
X95448893Y-100127038D01*
X95986655Y-100119454D01*
X96648549Y-100113072D01*
X97450426Y-100107116D01*
X98255734Y-100101798D01*
X99300559Y-100096068D01*
X100191682Y-100094198D01*
X100944710Y-100097270D01*
X101575250Y-100106364D01*
X102098911Y-100122559D01*
X102531300Y-100146936D01*
X102888024Y-100180576D01*
X103184692Y-100224559D01*
X103436911Y-100279964D01*
X103660290Y-100347873D01*
X103870434Y-100429366D01*
X104032113Y-100501616D01*
X104342967Y-100662243D01*
X104631396Y-100851182D01*
X104920063Y-101089555D01*
X105231633Y-101398489D01*
X105588769Y-101799107D01*
X106014137Y-102312533D01*
X106132319Y-102459153D01*
X106501447Y-102919168D01*
X106930739Y-103454487D01*
X107374568Y-104008195D01*
X107787304Y-104523376D01*
X107914049Y-104681653D01*
X108843098Y-105842000D01*
X111938000Y-105842000D01*
X111938000Y-96867334D01*
X107154334Y-96867334D01*
X107148237Y-97271841D01*
X107123113Y-97563596D01*
X107068709Y-97798955D01*
X106974776Y-98034270D01*
X106921940Y-98144874D01*
X106536821Y-98749102D01*
X106044356Y-99231430D01*
X105463147Y-99583144D01*
X104811799Y-99795524D01*
X104108913Y-99859857D01*
X103431132Y-99780448D01*
X102917086Y-99596507D01*
X102406333Y-99285190D01*
X101944624Y-98883047D01*
X101577710Y-98426626D01*
X101446903Y-98195303D01*
X101222605Y-97550605D01*
X101143179Y-96869267D01*
X101208504Y-96191254D01*
X101418456Y-95556532D01*
X101455205Y-95481557D01*
X101748253Y-95039029D01*
X102149044Y-94611956D01*
X102600805Y-94255907D01*
X102861655Y-94104901D01*
X103108345Y-93992127D01*
X103329154Y-93921318D01*
X103577481Y-93882803D01*
X103906728Y-93866909D01*
X104191000Y-93864123D01*
X104607432Y-93868599D01*
X104905831Y-93890420D01*
X105137257Y-93937887D01*
X105352769Y-94019304D01*
X105461000Y-94070630D01*
X105946367Y-94384141D01*
X106401690Y-94812177D01*
X106775034Y-95301350D01*
X106926735Y-95577370D01*
X107038742Y-95839876D01*
X107107128Y-96080359D01*
X107142088Y-96356607D01*
X107153820Y-96726406D01*
X107154334Y-96867334D01*
X111938000Y-96867334D01*
X111938000Y-92126000D01*
X88485334Y-92126000D01*
X88485334Y-116848667D01*
X88485334Y-116848667D01*
G37*
X88485334Y-116848667D02*
X88027210Y-116848667D01*
X87350660Y-116927093D01*
X86700311Y-117150041D01*
X86111240Y-117499016D01*
X85618523Y-117955522D01*
X85413667Y-118226777D01*
X85308160Y-118421023D01*
X85159272Y-118740146D01*
X84980861Y-119149656D01*
X84786783Y-119615065D01*
X84590893Y-120101882D01*
X84407048Y-120575618D01*
X84249103Y-121001783D01*
X84130916Y-121345888D01*
X84066342Y-121573443D01*
X84063585Y-121587290D01*
X84076895Y-121626397D01*
X84145272Y-121657267D01*
X84286885Y-121681184D01*
X84519903Y-121699437D01*
X84862495Y-121713311D01*
X85332829Y-121724092D01*
X85949075Y-121733067D01*
X86157000Y-121735508D01*
X86742743Y-121742081D01*
X87274794Y-121747960D01*
X87728947Y-121752885D01*
X88081000Y-121756595D01*
X88306749Y-121758831D01*
X88379500Y-121759385D01*
X88410635Y-121795448D01*
X88435466Y-121913150D01*
X88454572Y-122126706D01*
X88468530Y-122450331D01*
X88477918Y-122898242D01*
X88483314Y-123484654D01*
X88485295Y-124223782D01*
X88485334Y-124363372D01*
X88485334Y-126967410D01*
X85987667Y-129464000D01*
X85453108Y-129999815D01*
X84957705Y-130499251D01*
X84513925Y-130949526D01*
X84134234Y-131337860D01*
X83831099Y-131651473D01*
X83616986Y-131877582D01*
X83504361Y-132003408D01*
X83490000Y-132024629D01*
X83573181Y-132031570D01*
X83816783Y-132038073D01*
X84211891Y-132044109D01*
X84749595Y-132049648D01*
X85420981Y-132054661D01*
X86217136Y-132059118D01*
X87129148Y-132062990D01*
X88148105Y-132066248D01*
X89265093Y-132068861D01*
X90471200Y-132070801D01*
X91757514Y-132072038D01*
X93115121Y-132072543D01*
X94535109Y-132072286D01*
X96008565Y-132071238D01*
X97184834Y-132069858D01*
X98658886Y-132067555D01*
X100065599Y-132064805D01*
X101397694Y-132061649D01*
X102647892Y-132058126D01*
X103808913Y-132054275D01*
X104873478Y-132050136D01*
X105834306Y-132045748D01*
X106684120Y-132041150D01*
X107415639Y-132036383D01*
X108021583Y-132031484D01*
X108494674Y-132026495D01*
X108827632Y-132021454D01*
X109013178Y-132016400D01*
X109044031Y-132011374D01*
X108912913Y-132006414D01*
X108910472Y-132006358D01*
X106941276Y-131961667D01*
X109439638Y-129464538D01*
X111896722Y-127008667D01*
X108743654Y-127008667D01*
X103683000Y-131995663D01*
X101312334Y-131997961D01*
X98941667Y-132000259D01*
X101058334Y-129902905D01*
X101630482Y-129337345D01*
X102098944Y-128878475D01*
X102479249Y-128512730D01*
X102786929Y-128226547D01*
X103037513Y-128006360D01*
X103246530Y-127838605D01*
X103429511Y-127709718D01*
X103601987Y-127606133D01*
X103779487Y-127514286D01*
X103810000Y-127499479D01*
X104151229Y-127344169D01*
X104469456Y-127224934D01*
X104794932Y-127137179D01*
X105157906Y-127076314D01*
X105588628Y-127037746D01*
X106117347Y-127016883D01*
X106774313Y-127009132D01*
X107042994Y-127008667D01*
X108743654Y-127008667D01*
X111896722Y-127008667D01*
X111938000Y-126967410D01*
X111938000Y-109144000D01*
X110088790Y-109144000D01*
X109319871Y-109140318D01*
X108689379Y-109120464D01*
X108169839Y-109071225D01*
X107733778Y-108979387D01*
X107353724Y-108831740D01*
X107002203Y-108615069D01*
X106651742Y-108316162D01*
X106274868Y-107921806D01*
X105844107Y-107418789D01*
X105415530Y-106896482D01*
X105066640Y-106471057D01*
X104752656Y-106093554D01*
X104489436Y-105782603D01*
X104292841Y-105556838D01*
X104178732Y-105434888D01*
X104157532Y-105418667D01*
X104114777Y-105494460D01*
X104017206Y-105710044D01*
X103872229Y-106047723D01*
X103687255Y-106489802D01*
X103469695Y-107018585D01*
X103226958Y-107616376D01*
X102987213Y-108213486D01*
X101870916Y-111008305D01*
X102406516Y-112129319D01*
X102534165Y-112395367D01*
X102728182Y-112798201D01*
X102981037Y-113322250D01*
X103285201Y-113951942D01*
X103633145Y-114671704D01*
X104017339Y-115465967D01*
X104430255Y-116319156D01*
X104864364Y-117215701D01*
X105312136Y-118140030D01*
X105588998Y-118711334D01*
X106038695Y-119639459D01*
X106477230Y-120545153D01*
X106897343Y-121413386D01*
X107291774Y-122229128D01*
X107653265Y-122977350D01*
X107974555Y-123643020D01*
X108248385Y-124211108D01*
X108467497Y-124666586D01*
X108624629Y-124994421D01*
X108689624Y-125130960D01*
X109143368Y-126089587D01*
X107386851Y-126062293D01*
X106797789Y-126052500D01*
X106351786Y-126041856D01*
X106022585Y-126027265D01*
X105783926Y-126005631D01*
X105609552Y-125973857D01*
X105473203Y-125928846D01*
X105348622Y-125867502D01*
X105249334Y-125810224D01*
X104987034Y-125637664D01*
X104759268Y-125458175D01*
X104685224Y-125386891D01*
X104605091Y-125264314D01*
X104462480Y-125008426D01*
X104267505Y-124638895D01*
X104030282Y-124175394D01*
X103760924Y-123637594D01*
X103469547Y-123045165D01*
X103277100Y-122648334D01*
X102935713Y-121940614D01*
X102575222Y-121193519D01*
X102213437Y-120443937D01*
X101868163Y-119728761D01*
X101557210Y-119084880D01*
X101298386Y-118549184D01*
X101253989Y-118457334D01*
X100982856Y-117895832D01*
X100660967Y-117228225D01*
X100310760Y-116501108D01*
X99954670Y-115761075D01*
X99615133Y-115054720D01*
X99450589Y-114712080D01*
X99186959Y-114165777D01*
X98947231Y-113674541D01*
X98741003Y-113257594D01*
X98577873Y-112934159D01*
X98467440Y-112723458D01*
X98419302Y-112644716D01*
X98418355Y-112644757D01*
X98403548Y-112732095D01*
X98373034Y-112969238D01*
X98328955Y-113337602D01*
X98273451Y-113818600D01*
X98208665Y-114393648D01*
X98136735Y-115044160D01*
X98059805Y-115751552D01*
X98050307Y-115839677D01*
X97971188Y-116573563D01*
X97895828Y-117270893D01*
X97826608Y-117909763D01*
X97765907Y-118468269D01*
X97716106Y-118924508D01*
X97679587Y-119256577D01*
X97658729Y-119442571D01*
X97658516Y-119444409D01*
X97525944Y-119985430D01*
X97267860Y-120415415D01*
X96886503Y-120730705D01*
X96864775Y-120743093D01*
X96486334Y-120955000D01*
X90792502Y-120955000D01*
X89827624Y-120954429D01*
X88914199Y-120952781D01*
X88066047Y-120950150D01*
X87296992Y-120946633D01*
X86620857Y-120942326D01*
X86051463Y-120937324D01*
X85602633Y-120931723D01*
X85288190Y-120925619D01*
X85121956Y-120919108D01*
X85098669Y-120915537D01*
X85127656Y-120826137D01*
X85206846Y-120610252D01*
X85324582Y-120299027D01*
X85469207Y-119923607D01*
X85488968Y-119872758D01*
X85736810Y-119276766D01*
X85969642Y-118817443D01*
X86207954Y-118465890D01*
X86472240Y-118193207D01*
X86782991Y-117970494D01*
X86876667Y-117915660D01*
X87342334Y-117653000D01*
X90871204Y-117628355D01*
X94400074Y-117603709D01*
X94443218Y-117374355D01*
X94473349Y-117168096D01*
X94507760Y-116865547D01*
X94533438Y-116594667D01*
X94552136Y-116384799D01*
X94584687Y-116029119D01*
X94628970Y-115550391D01*
X94682866Y-114971381D01*
X94744256Y-114314856D01*
X94811021Y-113603580D01*
X94881042Y-112860319D01*
X94882380Y-112846134D01*
X95184247Y-109647934D01*
X96406791Y-106591190D01*
X96677370Y-105913826D01*
X96927175Y-105286870D01*
X97149433Y-104727438D01*
X97337374Y-104252645D01*
X97484224Y-103879609D01*
X97583214Y-103625445D01*
X97627570Y-103507269D01*
X97629334Y-103501062D01*
X97548990Y-103491859D01*
X97325188Y-103485985D01*
X96983774Y-103483604D01*
X96550596Y-103484882D01*
X96051498Y-103489984D01*
X96001701Y-103490672D01*
X94374069Y-103513667D01*
X93398201Y-105383849D01*
X93121066Y-105912416D01*
X92861756Y-106402224D01*
X92633003Y-106829594D01*
X92447542Y-107170848D01*
X92318106Y-107402307D01*
X92267026Y-107487268D01*
X92094750Y-107662636D01*
X91840897Y-107833530D01*
X91724835Y-107891643D01*
X91265217Y-108014492D01*
X90821806Y-107988882D01*
X90422025Y-107832132D01*
X90093296Y-107561561D01*
X89863043Y-107194490D01*
X89758687Y-106748238D01*
X89755334Y-106647749D01*
X89762907Y-106521305D01*
X89790902Y-106378535D01*
X89847232Y-106201872D01*
X89939812Y-105973750D01*
X90076553Y-105676601D01*
X90265371Y-105292861D01*
X90514178Y-104804962D01*
X90830887Y-104195337D01*
X91040528Y-103794851D01*
X91448595Y-103023095D01*
X91794657Y-102387507D01*
X92091025Y-101872101D01*
X92350012Y-101460892D01*
X92583928Y-101137894D01*
X92805088Y-100887121D01*
X93025802Y-100692590D01*
X93258383Y-100538312D01*
X93515143Y-100408305D01*
X93713783Y-100324013D01*
X93829025Y-100278902D01*
X93941611Y-100241196D01*
X94067391Y-100210119D01*
X94222213Y-100184897D01*
X94421925Y-100164752D01*
X94682377Y-100148911D01*
X95019417Y-100136598D01*
X95448893Y-100127038D01*
X95986655Y-100119454D01*
X96648549Y-100113072D01*
X97450426Y-100107116D01*
X98255734Y-100101798D01*
X99300559Y-100096068D01*
X100191682Y-100094198D01*
X100944710Y-100097270D01*
X101575250Y-100106364D01*
X102098911Y-100122559D01*
X102531300Y-100146936D01*
X102888024Y-100180576D01*
X103184692Y-100224559D01*
X103436911Y-100279964D01*
X103660290Y-100347873D01*
X103870434Y-100429366D01*
X104032113Y-100501616D01*
X104342967Y-100662243D01*
X104631396Y-100851182D01*
X104920063Y-101089555D01*
X105231633Y-101398489D01*
X105588769Y-101799107D01*
X106014137Y-102312533D01*
X106132319Y-102459153D01*
X106501447Y-102919168D01*
X106930739Y-103454487D01*
X107374568Y-104008195D01*
X107787304Y-104523376D01*
X107914049Y-104681653D01*
X108843098Y-105842000D01*
X111938000Y-105842000D01*
X111938000Y-96867334D01*
X107154334Y-96867334D01*
X107148237Y-97271841D01*
X107123113Y-97563596D01*
X107068709Y-97798955D01*
X106974776Y-98034270D01*
X106921940Y-98144874D01*
X106536821Y-98749102D01*
X106044356Y-99231430D01*
X105463147Y-99583144D01*
X104811799Y-99795524D01*
X104108913Y-99859857D01*
X103431132Y-99780448D01*
X102917086Y-99596507D01*
X102406333Y-99285190D01*
X101944624Y-98883047D01*
X101577710Y-98426626D01*
X101446903Y-98195303D01*
X101222605Y-97550605D01*
X101143179Y-96869267D01*
X101208504Y-96191254D01*
X101418456Y-95556532D01*
X101455205Y-95481557D01*
X101748253Y-95039029D01*
X102149044Y-94611956D01*
X102600805Y-94255907D01*
X102861655Y-94104901D01*
X103108345Y-93992127D01*
X103329154Y-93921318D01*
X103577481Y-93882803D01*
X103906728Y-93866909D01*
X104191000Y-93864123D01*
X104607432Y-93868599D01*
X104905831Y-93890420D01*
X105137257Y-93937887D01*
X105352769Y-94019304D01*
X105461000Y-94070630D01*
X105946367Y-94384141D01*
X106401690Y-94812177D01*
X106775034Y-95301350D01*
X106926735Y-95577370D01*
X107038742Y-95839876D01*
X107107128Y-96080359D01*
X107142088Y-96356607D01*
X107153820Y-96726406D01*
X107154334Y-96867334D01*
X111938000Y-96867334D01*
X111938000Y-92126000D01*
X88485334Y-92126000D01*
X88485334Y-116848667D01*
G36*
X78684180Y-132030494D02*
X78664388Y-132053380D01*
X78785975Y-132066222D01*
X78875667Y-132067315D01*
X79039631Y-132058979D01*
X79064507Y-132039857D01*
X79022847Y-132028785D01*
X78802237Y-132015154D01*
X78684180Y-132030494D01*
X78684180Y-132030494D01*
G37*
X78684180Y-132030494D02*
X78664388Y-132053380D01*
X78785975Y-132066222D01*
X78875667Y-132067315D01*
X79039631Y-132058979D01*
X79064507Y-132039857D01*
X79022847Y-132028785D01*
X78802237Y-132015154D01*
X78684180Y-132030494D01*
G04 #@! TO.C,D8*
D12*
X116613095Y-65702380D02*
X116613095Y-64702380D01*
X116375000Y-64702380D01*
X116232142Y-64750000D01*
X116136904Y-64845238D01*
X116089285Y-64940476D01*
X116041666Y-65130952D01*
X116041666Y-65273809D01*
X116089285Y-65464285D01*
X116136904Y-65559523D01*
X116232142Y-65654761D01*
X116375000Y-65702380D01*
X116613095Y-65702380D01*
X115470238Y-65130952D02*
X115565476Y-65083333D01*
X115613095Y-65035714D01*
X115660714Y-64940476D01*
X115660714Y-64892857D01*
X115613095Y-64797619D01*
X115565476Y-64750000D01*
X115470238Y-64702380D01*
X115279761Y-64702380D01*
X115184523Y-64750000D01*
X115136904Y-64797619D01*
X115089285Y-64892857D01*
X115089285Y-64940476D01*
X115136904Y-65035714D01*
X115184523Y-65083333D01*
X115279761Y-65130952D01*
X115470238Y-65130952D01*
X115565476Y-65178571D01*
X115613095Y-65226190D01*
X115660714Y-65321428D01*
X115660714Y-65511904D01*
X115613095Y-65607142D01*
X115565476Y-65654761D01*
X115470238Y-65702380D01*
X115279761Y-65702380D01*
X115184523Y-65654761D01*
X115136904Y-65607142D01*
X115089285Y-65511904D01*
X115089285Y-65321428D01*
X115136904Y-65226190D01*
X115184523Y-65178571D01*
X115279761Y-65130952D01*
G04 #@! TO.C,D9*
X105183095Y-65702380D02*
X105183095Y-64702380D01*
X104945000Y-64702380D01*
X104802142Y-64750000D01*
X104706904Y-64845238D01*
X104659285Y-64940476D01*
X104611666Y-65130952D01*
X104611666Y-65273809D01*
X104659285Y-65464285D01*
X104706904Y-65559523D01*
X104802142Y-65654761D01*
X104945000Y-65702380D01*
X105183095Y-65702380D01*
X104135476Y-65702380D02*
X103945000Y-65702380D01*
X103849761Y-65654761D01*
X103802142Y-65607142D01*
X103706904Y-65464285D01*
X103659285Y-65273809D01*
X103659285Y-64892857D01*
X103706904Y-64797619D01*
X103754523Y-64750000D01*
X103849761Y-64702380D01*
X104040238Y-64702380D01*
X104135476Y-64750000D01*
X104183095Y-64797619D01*
X104230714Y-64892857D01*
X104230714Y-65130952D01*
X104183095Y-65226190D01*
X104135476Y-65273809D01*
X104040238Y-65321428D01*
X103849761Y-65321428D01*
X103754523Y-65273809D01*
X103706904Y-65226190D01*
X103659285Y-65130952D01*
G04 #@! TO.C,D10*
X92959285Y-65702380D02*
X92959285Y-64702380D01*
X92721190Y-64702380D01*
X92578333Y-64750000D01*
X92483095Y-64845238D01*
X92435476Y-64940476D01*
X92387857Y-65130952D01*
X92387857Y-65273809D01*
X92435476Y-65464285D01*
X92483095Y-65559523D01*
X92578333Y-65654761D01*
X92721190Y-65702380D01*
X92959285Y-65702380D01*
X91435476Y-65702380D02*
X92006904Y-65702380D01*
X91721190Y-65702380D02*
X91721190Y-64702380D01*
X91816428Y-64845238D01*
X91911666Y-64940476D01*
X92006904Y-64988095D01*
X90816428Y-64702380D02*
X90721190Y-64702380D01*
X90625952Y-64750000D01*
X90578333Y-64797619D01*
X90530714Y-64892857D01*
X90483095Y-65083333D01*
X90483095Y-65321428D01*
X90530714Y-65511904D01*
X90578333Y-65607142D01*
X90625952Y-65654761D01*
X90721190Y-65702380D01*
X90816428Y-65702380D01*
X90911666Y-65654761D01*
X90959285Y-65607142D01*
X91006904Y-65511904D01*
X91054523Y-65321428D01*
X91054523Y-65083333D01*
X91006904Y-64892857D01*
X90959285Y-64797619D01*
X90911666Y-64750000D01*
X90816428Y-64702380D01*
G04 #@! TO.C,D11*
X81529285Y-65702380D02*
X81529285Y-64702380D01*
X81291190Y-64702380D01*
X81148333Y-64750000D01*
X81053095Y-64845238D01*
X81005476Y-64940476D01*
X80957857Y-65130952D01*
X80957857Y-65273809D01*
X81005476Y-65464285D01*
X81053095Y-65559523D01*
X81148333Y-65654761D01*
X81291190Y-65702380D01*
X81529285Y-65702380D01*
X80005476Y-65702380D02*
X80576904Y-65702380D01*
X80291190Y-65702380D02*
X80291190Y-64702380D01*
X80386428Y-64845238D01*
X80481666Y-64940476D01*
X80576904Y-64988095D01*
X79053095Y-65702380D02*
X79624523Y-65702380D01*
X79338809Y-65702380D02*
X79338809Y-64702380D01*
X79434047Y-64845238D01*
X79529285Y-64940476D01*
X79624523Y-64988095D01*
G04 #@! TD*
M02*
