G04 #@! TF.GenerationSoftware,KiCad,Pcbnew,(5.0.2)-1*
G04 #@! TF.CreationDate,2019-03-08T16:37:09+09:00*
G04 #@! TF.ProjectId,spindleMD_v2,7370696e-646c-4654-9d44-5f76322e6b69,rev?*
G04 #@! TF.SameCoordinates,Original*
G04 #@! TF.FileFunction,Legend,Bot*
G04 #@! TF.FilePolarity,Positive*
%FSLAX46Y46*%
G04 Gerber Fmt 4.6, Leading zero omitted, Abs format (unit mm)*
G04 Created by KiCad (PCBNEW (5.0.2)-1) date 2019/03/08 16:37:09*
%MOMM*%
%LPD*%
G01*
G04 APERTURE LIST*
%ADD10C,0.120000*%
%ADD11C,0.150000*%
G04 APERTURE END LIST*
D10*
G04 #@! TO.C,D8*
X119425000Y-66100000D02*
X113725000Y-66100000D01*
X119425000Y-70400000D02*
X113725000Y-70400000D01*
X119425000Y-66100000D02*
X119425000Y-70400000D01*
G04 #@! TO.C,D9*
X107995000Y-66100000D02*
X107995000Y-70400000D01*
X107995000Y-70400000D02*
X102295000Y-70400000D01*
X107995000Y-66100000D02*
X102295000Y-66100000D01*
G04 #@! TO.C,D10*
X95295000Y-66100000D02*
X95295000Y-70400000D01*
X95295000Y-70400000D02*
X89595000Y-70400000D01*
X95295000Y-66100000D02*
X89595000Y-66100000D01*
G04 #@! TO.C,D11*
X83865000Y-66100000D02*
X78165000Y-66100000D01*
X83865000Y-70400000D02*
X78165000Y-70400000D01*
X83865000Y-66100000D02*
X83865000Y-70400000D01*
G04 #@! TO.C,D8*
D11*
X116613095Y-65702380D02*
X116613095Y-64702380D01*
X116375000Y-64702380D01*
X116232142Y-64750000D01*
X116136904Y-64845238D01*
X116089285Y-64940476D01*
X116041666Y-65130952D01*
X116041666Y-65273809D01*
X116089285Y-65464285D01*
X116136904Y-65559523D01*
X116232142Y-65654761D01*
X116375000Y-65702380D01*
X116613095Y-65702380D01*
X115470238Y-65130952D02*
X115565476Y-65083333D01*
X115613095Y-65035714D01*
X115660714Y-64940476D01*
X115660714Y-64892857D01*
X115613095Y-64797619D01*
X115565476Y-64750000D01*
X115470238Y-64702380D01*
X115279761Y-64702380D01*
X115184523Y-64750000D01*
X115136904Y-64797619D01*
X115089285Y-64892857D01*
X115089285Y-64940476D01*
X115136904Y-65035714D01*
X115184523Y-65083333D01*
X115279761Y-65130952D01*
X115470238Y-65130952D01*
X115565476Y-65178571D01*
X115613095Y-65226190D01*
X115660714Y-65321428D01*
X115660714Y-65511904D01*
X115613095Y-65607142D01*
X115565476Y-65654761D01*
X115470238Y-65702380D01*
X115279761Y-65702380D01*
X115184523Y-65654761D01*
X115136904Y-65607142D01*
X115089285Y-65511904D01*
X115089285Y-65321428D01*
X115136904Y-65226190D01*
X115184523Y-65178571D01*
X115279761Y-65130952D01*
G04 #@! TO.C,D9*
X105183095Y-65702380D02*
X105183095Y-64702380D01*
X104945000Y-64702380D01*
X104802142Y-64750000D01*
X104706904Y-64845238D01*
X104659285Y-64940476D01*
X104611666Y-65130952D01*
X104611666Y-65273809D01*
X104659285Y-65464285D01*
X104706904Y-65559523D01*
X104802142Y-65654761D01*
X104945000Y-65702380D01*
X105183095Y-65702380D01*
X104135476Y-65702380D02*
X103945000Y-65702380D01*
X103849761Y-65654761D01*
X103802142Y-65607142D01*
X103706904Y-65464285D01*
X103659285Y-65273809D01*
X103659285Y-64892857D01*
X103706904Y-64797619D01*
X103754523Y-64750000D01*
X103849761Y-64702380D01*
X104040238Y-64702380D01*
X104135476Y-64750000D01*
X104183095Y-64797619D01*
X104230714Y-64892857D01*
X104230714Y-65130952D01*
X104183095Y-65226190D01*
X104135476Y-65273809D01*
X104040238Y-65321428D01*
X103849761Y-65321428D01*
X103754523Y-65273809D01*
X103706904Y-65226190D01*
X103659285Y-65130952D01*
G04 #@! TO.C,D10*
X92959285Y-65702380D02*
X92959285Y-64702380D01*
X92721190Y-64702380D01*
X92578333Y-64750000D01*
X92483095Y-64845238D01*
X92435476Y-64940476D01*
X92387857Y-65130952D01*
X92387857Y-65273809D01*
X92435476Y-65464285D01*
X92483095Y-65559523D01*
X92578333Y-65654761D01*
X92721190Y-65702380D01*
X92959285Y-65702380D01*
X91435476Y-65702380D02*
X92006904Y-65702380D01*
X91721190Y-65702380D02*
X91721190Y-64702380D01*
X91816428Y-64845238D01*
X91911666Y-64940476D01*
X92006904Y-64988095D01*
X90816428Y-64702380D02*
X90721190Y-64702380D01*
X90625952Y-64750000D01*
X90578333Y-64797619D01*
X90530714Y-64892857D01*
X90483095Y-65083333D01*
X90483095Y-65321428D01*
X90530714Y-65511904D01*
X90578333Y-65607142D01*
X90625952Y-65654761D01*
X90721190Y-65702380D01*
X90816428Y-65702380D01*
X90911666Y-65654761D01*
X90959285Y-65607142D01*
X91006904Y-65511904D01*
X91054523Y-65321428D01*
X91054523Y-65083333D01*
X91006904Y-64892857D01*
X90959285Y-64797619D01*
X90911666Y-64750000D01*
X90816428Y-64702380D01*
G04 #@! TO.C,D11*
X81529285Y-65702380D02*
X81529285Y-64702380D01*
X81291190Y-64702380D01*
X81148333Y-64750000D01*
X81053095Y-64845238D01*
X81005476Y-64940476D01*
X80957857Y-65130952D01*
X80957857Y-65273809D01*
X81005476Y-65464285D01*
X81053095Y-65559523D01*
X81148333Y-65654761D01*
X81291190Y-65702380D01*
X81529285Y-65702380D01*
X80005476Y-65702380D02*
X80576904Y-65702380D01*
X80291190Y-65702380D02*
X80291190Y-64702380D01*
X80386428Y-64845238D01*
X80481666Y-64940476D01*
X80576904Y-64988095D01*
X79053095Y-65702380D02*
X79624523Y-65702380D01*
X79338809Y-65702380D02*
X79338809Y-64702380D01*
X79434047Y-64845238D01*
X79529285Y-64940476D01*
X79624523Y-64988095D01*
G04 #@! TD*
M02*
