G04 #@! TF.GenerationSoftware,KiCad,Pcbnew,(5.0.2)-1*
G04 #@! TF.CreationDate,2019-03-08T16:37:09+09:00*
G04 #@! TF.ProjectId,spindleMD_v2,7370696e-646c-4654-9d44-5f76322e6b69,rev?*
G04 #@! TF.SameCoordinates,Original*
G04 #@! TF.FileFunction,Legend,Top*
G04 #@! TF.FilePolarity,Positive*
%FSLAX46Y46*%
G04 Gerber Fmt 4.6, Leading zero omitted, Abs format (unit mm)*
G04 Created by KiCad (PCBNEW (5.0.2)-1) date 2019/03/08 16:37:09*
%MOMM*%
%LPD*%
G01*
G04 APERTURE LIST*
%ADD10C,0.200000*%
%ADD11C,0.120000*%
%ADD12C,0.150000*%
G04 APERTURE END LIST*
D10*
X118542000Y-78156000D02*
X119812000Y-79172000D01*
X97460000Y-92634000D02*
X98222000Y-93142000D01*
X121590000Y-78918000D02*
X120828000Y-78156000D01*
X105080000Y-81458000D02*
X105588000Y-82474000D01*
X89840000Y-81458000D02*
X90602000Y-82728000D01*
X105334000Y-115494000D02*
X105842000Y-115494000D01*
X105588000Y-115748000D02*
X105334000Y-115494000D01*
X105588000Y-115240000D02*
X105588000Y-115748000D01*
X105842000Y-115494000D02*
G75*
G03X105842000Y-115494000I-254000J0D01*
G01*
D11*
G04 #@! TO.C,U1*
X73700000Y-137340000D02*
X73700000Y-137690000D01*
X73700000Y-137690000D02*
X72200000Y-137690000D01*
X73700000Y-132690000D02*
X73700000Y-135890000D01*
X72200000Y-130890000D02*
X73700000Y-130890000D01*
X73700000Y-130890000D02*
X73700000Y-131290000D01*
G04 #@! TO.C,C10*
X74010000Y-66460000D02*
X74010000Y-64960000D01*
X74760000Y-65710000D02*
X73260000Y-65710000D01*
X64479000Y-65989000D02*
X64479000Y-65431000D01*
X64519000Y-66382000D02*
X64519000Y-65038000D01*
X64559000Y-66623000D02*
X64559000Y-64797000D01*
X64599000Y-66814000D02*
X64599000Y-64606000D01*
X64639000Y-66975000D02*
X64639000Y-64445000D01*
X64679000Y-67117000D02*
X64679000Y-64303000D01*
X64719000Y-67246000D02*
X64719000Y-64174000D01*
X64759000Y-67364000D02*
X64759000Y-64056000D01*
X64799000Y-67473000D02*
X64799000Y-63947000D01*
X64839000Y-67576000D02*
X64839000Y-63844000D01*
X64879000Y-67672000D02*
X64879000Y-63748000D01*
X64919000Y-67763000D02*
X64919000Y-63657000D01*
X64959000Y-67850000D02*
X64959000Y-63570000D01*
X64999000Y-67932000D02*
X64999000Y-63488000D01*
X65039000Y-68011000D02*
X65039000Y-63409000D01*
X65079000Y-68087000D02*
X65079000Y-63333000D01*
X65119000Y-68159000D02*
X65119000Y-63261000D01*
X65159000Y-68229000D02*
X65159000Y-63191000D01*
X65199000Y-68297000D02*
X65199000Y-63123000D01*
X65239000Y-68362000D02*
X65239000Y-63058000D01*
X65279000Y-68425000D02*
X65279000Y-62995000D01*
X65319000Y-68487000D02*
X65319000Y-62933000D01*
X65359000Y-68546000D02*
X65359000Y-62874000D01*
X65399000Y-68604000D02*
X65399000Y-62816000D01*
X65439000Y-68659000D02*
X65439000Y-62761000D01*
X65479000Y-68714000D02*
X65479000Y-62706000D01*
X65519000Y-68767000D02*
X65519000Y-62653000D01*
X65559000Y-68818000D02*
X65559000Y-62602000D01*
X65599000Y-68868000D02*
X65599000Y-62552000D01*
X65639000Y-68917000D02*
X65639000Y-62503000D01*
X65679000Y-68965000D02*
X65679000Y-62455000D01*
X65719000Y-69012000D02*
X65719000Y-62408000D01*
X65759000Y-69057000D02*
X65759000Y-62363000D01*
X65799000Y-69101000D02*
X65799000Y-62319000D01*
X65839000Y-69145000D02*
X65839000Y-62275000D01*
X65879000Y-69187000D02*
X65879000Y-62233000D01*
X65919000Y-64529000D02*
X65919000Y-62192000D01*
X65919000Y-69228000D02*
X65919000Y-66891000D01*
X65959000Y-64529000D02*
X65959000Y-62151000D01*
X65959000Y-69269000D02*
X65959000Y-66891000D01*
X65999000Y-64529000D02*
X65999000Y-62112000D01*
X65999000Y-69308000D02*
X65999000Y-66891000D01*
X66039000Y-64529000D02*
X66039000Y-62073000D01*
X66039000Y-69347000D02*
X66039000Y-66891000D01*
X66079000Y-64529000D02*
X66079000Y-62035000D01*
X66079000Y-69385000D02*
X66079000Y-66891000D01*
X66119000Y-64529000D02*
X66119000Y-61998000D01*
X66119000Y-69422000D02*
X66119000Y-66891000D01*
X66159000Y-64529000D02*
X66159000Y-61962000D01*
X66159000Y-69458000D02*
X66159000Y-66891000D01*
X66199000Y-64529000D02*
X66199000Y-61926000D01*
X66199000Y-69494000D02*
X66199000Y-66891000D01*
X66239000Y-64529000D02*
X66239000Y-61891000D01*
X66239000Y-69529000D02*
X66239000Y-66891000D01*
X66279000Y-64529000D02*
X66279000Y-61857000D01*
X66279000Y-69563000D02*
X66279000Y-66891000D01*
X66319000Y-64529000D02*
X66319000Y-61824000D01*
X66319000Y-69596000D02*
X66319000Y-66891000D01*
X66359000Y-64529000D02*
X66359000Y-61791000D01*
X66359000Y-69629000D02*
X66359000Y-66891000D01*
X66399000Y-64529000D02*
X66399000Y-61759000D01*
X66399000Y-69661000D02*
X66399000Y-66891000D01*
X66439000Y-64529000D02*
X66439000Y-61728000D01*
X66439000Y-69692000D02*
X66439000Y-66891000D01*
X66479000Y-64529000D02*
X66479000Y-61697000D01*
X66479000Y-69723000D02*
X66479000Y-66891000D01*
X66519000Y-64529000D02*
X66519000Y-61667000D01*
X66519000Y-69753000D02*
X66519000Y-66891000D01*
X66559000Y-64529000D02*
X66559000Y-61638000D01*
X66559000Y-69782000D02*
X66559000Y-66891000D01*
X66599000Y-64529000D02*
X66599000Y-61609000D01*
X66599000Y-69811000D02*
X66599000Y-66891000D01*
X66639000Y-64529000D02*
X66639000Y-61580000D01*
X66639000Y-69840000D02*
X66639000Y-66891000D01*
X66679000Y-64529000D02*
X66679000Y-61553000D01*
X66679000Y-69867000D02*
X66679000Y-66891000D01*
X66719000Y-64529000D02*
X66719000Y-61525000D01*
X66719000Y-69895000D02*
X66719000Y-66891000D01*
X66759000Y-64529000D02*
X66759000Y-61499000D01*
X66759000Y-69921000D02*
X66759000Y-66891000D01*
X66799000Y-64529000D02*
X66799000Y-61473000D01*
X66799000Y-69947000D02*
X66799000Y-66891000D01*
X66839000Y-64529000D02*
X66839000Y-61447000D01*
X66839000Y-69973000D02*
X66839000Y-66891000D01*
X66879000Y-64529000D02*
X66879000Y-61422000D01*
X66879000Y-69998000D02*
X66879000Y-66891000D01*
X66919000Y-64529000D02*
X66919000Y-61398000D01*
X66919000Y-70022000D02*
X66919000Y-66891000D01*
X66959000Y-64529000D02*
X66959000Y-61374000D01*
X66959000Y-70046000D02*
X66959000Y-66891000D01*
X66999000Y-64529000D02*
X66999000Y-61350000D01*
X66999000Y-70070000D02*
X66999000Y-66891000D01*
X67039000Y-64529000D02*
X67039000Y-61327000D01*
X67039000Y-70093000D02*
X67039000Y-66891000D01*
X67079000Y-64529000D02*
X67079000Y-61305000D01*
X67079000Y-70115000D02*
X67079000Y-66891000D01*
X67119000Y-64529000D02*
X67119000Y-61282000D01*
X67119000Y-70138000D02*
X67119000Y-66891000D01*
X67159000Y-64529000D02*
X67159000Y-61261000D01*
X67159000Y-70159000D02*
X67159000Y-66891000D01*
X67199000Y-64529000D02*
X67199000Y-61240000D01*
X67199000Y-70180000D02*
X67199000Y-66891000D01*
X67239000Y-64529000D02*
X67239000Y-61219000D01*
X67239000Y-70201000D02*
X67239000Y-66891000D01*
X67279000Y-64529000D02*
X67279000Y-61199000D01*
X67279000Y-70221000D02*
X67279000Y-66891000D01*
X67319000Y-64529000D02*
X67319000Y-61179000D01*
X67319000Y-70241000D02*
X67319000Y-66891000D01*
X67359000Y-64529000D02*
X67359000Y-61160000D01*
X67359000Y-70260000D02*
X67359000Y-66891000D01*
X67399000Y-64529000D02*
X67399000Y-61141000D01*
X67399000Y-70279000D02*
X67399000Y-66891000D01*
X67439000Y-64529000D02*
X67439000Y-61122000D01*
X67439000Y-70298000D02*
X67439000Y-66891000D01*
X67479000Y-64529000D02*
X67479000Y-61104000D01*
X67479000Y-70316000D02*
X67479000Y-66891000D01*
X67519000Y-64529000D02*
X67519000Y-61086000D01*
X67519000Y-70334000D02*
X67519000Y-66891000D01*
X67559000Y-64529000D02*
X67559000Y-61069000D01*
X67559000Y-70351000D02*
X67559000Y-66891000D01*
X67599000Y-64529000D02*
X67599000Y-61052000D01*
X67599000Y-70368000D02*
X67599000Y-66891000D01*
X67639000Y-64529000D02*
X67639000Y-61036000D01*
X67639000Y-70384000D02*
X67639000Y-66891000D01*
X67679000Y-64529000D02*
X67679000Y-61019000D01*
X67679000Y-70401000D02*
X67679000Y-66891000D01*
X67719000Y-64529000D02*
X67719000Y-61004000D01*
X67719000Y-70416000D02*
X67719000Y-66891000D01*
X67759000Y-64529000D02*
X67759000Y-60988000D01*
X67759000Y-70432000D02*
X67759000Y-66891000D01*
X67799000Y-64529000D02*
X67799000Y-60973000D01*
X67799000Y-70447000D02*
X67799000Y-66891000D01*
X67839000Y-64529000D02*
X67839000Y-60959000D01*
X67839000Y-70461000D02*
X67839000Y-66891000D01*
X67879000Y-64529000D02*
X67879000Y-60945000D01*
X67879000Y-70475000D02*
X67879000Y-66891000D01*
X67919000Y-64529000D02*
X67919000Y-60931000D01*
X67919000Y-70489000D02*
X67919000Y-66891000D01*
X67959000Y-64529000D02*
X67959000Y-60918000D01*
X67959000Y-70502000D02*
X67959000Y-66891000D01*
X67999000Y-64529000D02*
X67999000Y-60904000D01*
X67999000Y-70516000D02*
X67999000Y-66891000D01*
X68039000Y-64529000D02*
X68039000Y-60892000D01*
X68039000Y-70528000D02*
X68039000Y-66891000D01*
X68079000Y-64529000D02*
X68079000Y-60879000D01*
X68079000Y-70541000D02*
X68079000Y-66891000D01*
X68119000Y-64529000D02*
X68119000Y-60867000D01*
X68119000Y-70553000D02*
X68119000Y-66891000D01*
X68159000Y-64529000D02*
X68159000Y-60856000D01*
X68159000Y-70564000D02*
X68159000Y-66891000D01*
X68199000Y-64529000D02*
X68199000Y-60845000D01*
X68199000Y-70575000D02*
X68199000Y-66891000D01*
X68239000Y-64529000D02*
X68239000Y-60834000D01*
X68239000Y-70586000D02*
X68239000Y-66891000D01*
X68279000Y-70597000D02*
X68279000Y-60823000D01*
X68319000Y-70607000D02*
X68319000Y-60813000D01*
X68359000Y-70617000D02*
X68359000Y-60803000D01*
X68399000Y-70627000D02*
X68399000Y-60793000D01*
X68439000Y-70636000D02*
X68439000Y-60784000D01*
X68479000Y-70645000D02*
X68479000Y-60775000D01*
X68519000Y-70653000D02*
X68519000Y-60767000D01*
X68559000Y-70661000D02*
X68559000Y-60759000D01*
X68599000Y-70669000D02*
X68599000Y-60751000D01*
X68639000Y-70677000D02*
X68639000Y-60743000D01*
X68679000Y-70684000D02*
X68679000Y-60736000D01*
X68719000Y-70691000D02*
X68719000Y-60729000D01*
X68759000Y-70697000D02*
X68759000Y-60723000D01*
X68799000Y-70703000D02*
X68799000Y-60717000D01*
X68839000Y-70709000D02*
X68839000Y-60711000D01*
X68880000Y-70715000D02*
X68880000Y-60705000D01*
X68920000Y-70720000D02*
X68920000Y-60700000D01*
X68960000Y-70725000D02*
X68960000Y-60695000D01*
X69000000Y-70730000D02*
X69000000Y-60690000D01*
X69040000Y-70734000D02*
X69040000Y-60686000D01*
X69080000Y-70738000D02*
X69080000Y-60682000D01*
X69120000Y-70741000D02*
X69120000Y-60679000D01*
X69160000Y-70745000D02*
X69160000Y-60675000D01*
X69200000Y-70748000D02*
X69200000Y-60672000D01*
X69240000Y-70750000D02*
X69240000Y-60670000D01*
X69280000Y-70753000D02*
X69280000Y-60667000D01*
X69320000Y-70755000D02*
X69320000Y-60665000D01*
X69360000Y-70757000D02*
X69360000Y-60663000D01*
X69400000Y-70758000D02*
X69400000Y-60662000D01*
X69440000Y-70759000D02*
X69440000Y-60661000D01*
X69480000Y-70760000D02*
X69480000Y-60660000D01*
X69520000Y-70760000D02*
X69520000Y-60660000D01*
X69560000Y-70760000D02*
X69560000Y-60660000D01*
X64661563Y-64326736D02*
G75*
G03X64660643Y-67090000I4898437J-1383264D01*
G01*
X64661563Y-64326736D02*
G75*
G02X74459357Y-64330000I4898437J-1383264D01*
G01*
X64661563Y-67093264D02*
G75*
G03X74459357Y-67090000I4898437J1383264D01*
G01*
G04 #@! TO.C,C11*
X71460000Y-86380000D02*
X71460000Y-85680000D01*
X72660000Y-85680000D02*
X72660000Y-86380000D01*
G04 #@! TO.C,C12*
X93050000Y-108605000D02*
X93050000Y-107905000D01*
X94250000Y-107905000D02*
X94250000Y-108605000D01*
G04 #@! TO.C,C13*
X102825000Y-80985000D02*
X103525000Y-80985000D01*
X103525000Y-82185000D02*
X102825000Y-82185000D01*
G04 #@! TO.C,C14*
X95905000Y-82185000D02*
X95205000Y-82185000D01*
X95205000Y-80985000D02*
X95905000Y-80985000D01*
G04 #@! TO.C,C15*
X88285000Y-82185000D02*
X87585000Y-82185000D01*
X87585000Y-80985000D02*
X88285000Y-80985000D01*
G04 #@! TO.C,C16*
X79965000Y-80985000D02*
X80665000Y-80985000D01*
X80665000Y-82185000D02*
X79965000Y-82185000D01*
G04 #@! TO.C,C17*
X102825000Y-79080000D02*
X103525000Y-79080000D01*
X103525000Y-80280000D02*
X102825000Y-80280000D01*
G04 #@! TO.C,C18*
X88285000Y-80280000D02*
X87585000Y-80280000D01*
X87585000Y-79080000D02*
X88285000Y-79080000D01*
G04 #@! TO.C,C19*
X129810000Y-92030000D02*
X129810000Y-92730000D01*
X128610000Y-92730000D02*
X128610000Y-92030000D01*
G04 #@! TO.C,C20*
X120920000Y-92030000D02*
X120920000Y-92730000D01*
X119720000Y-92730000D02*
X119720000Y-92030000D01*
G04 #@! TO.C,C21*
X119015000Y-92030000D02*
X119015000Y-92730000D01*
X117815000Y-92730000D02*
X117815000Y-92030000D01*
G04 #@! TO.C,C22*
X119015000Y-80600000D02*
X119015000Y-81300000D01*
X117815000Y-81300000D02*
X117815000Y-80600000D01*
G04 #@! TO.C,C23*
X120920000Y-80600000D02*
X120920000Y-81300000D01*
X119720000Y-81300000D02*
X119720000Y-80600000D01*
G04 #@! TO.C,D1*
X78245000Y-136090000D02*
X78245000Y-133040000D01*
X79845000Y-136090000D02*
X78245000Y-136090000D01*
X79845000Y-133040000D02*
X79845000Y-136090000D01*
G04 #@! TO.C,D2*
X129105000Y-108170000D02*
X126505000Y-108170000D01*
X129105000Y-107070000D02*
X126505000Y-107070000D01*
X129105000Y-108170000D02*
X129105000Y-107070000D01*
G04 #@! TO.C,D3*
X129105000Y-105630000D02*
X126505000Y-105630000D01*
X129105000Y-104530000D02*
X126505000Y-104530000D01*
X129105000Y-105630000D02*
X129105000Y-104530000D01*
G04 #@! TO.C,D4*
X129105000Y-103090000D02*
X129105000Y-101990000D01*
X129105000Y-101990000D02*
X126505000Y-101990000D01*
X129105000Y-103090000D02*
X126505000Y-103090000D01*
G04 #@! TO.C,D5*
X86645000Y-131280000D02*
X83595000Y-131280000D01*
X83595000Y-131280000D02*
X83595000Y-129680000D01*
X83595000Y-129680000D02*
X86645000Y-129680000D01*
G04 #@! TO.C,D6*
X99200000Y-85375000D02*
X99200000Y-82325000D01*
X99200000Y-82325000D02*
X100800000Y-82325000D01*
X100800000Y-82325000D02*
X100800000Y-85375000D01*
G04 #@! TO.C,D7*
X83960000Y-85375000D02*
X83960000Y-82325000D01*
X83960000Y-82325000D02*
X85560000Y-82325000D01*
X85560000Y-82325000D02*
X85560000Y-85375000D01*
G04 #@! TO.C,D12*
X78515000Y-128660000D02*
X78515000Y-129760000D01*
X78515000Y-129760000D02*
X81115000Y-129760000D01*
X78515000Y-128660000D02*
X81115000Y-128660000D01*
G04 #@! TO.C,D13*
X77690000Y-75975000D02*
X77690000Y-78575000D01*
X76590000Y-75975000D02*
X76590000Y-78575000D01*
X77690000Y-75975000D02*
X76590000Y-75975000D01*
G04 #@! TO.C,J1*
X84770000Y-146900000D02*
X84770000Y-140950000D01*
X84770000Y-140950000D02*
X77170000Y-140950000D01*
X77170000Y-140950000D02*
X77170000Y-146900000D01*
X77170000Y-146900000D02*
X84770000Y-146900000D01*
X81470000Y-146900000D02*
X81470000Y-146150000D01*
X81470000Y-146150000D02*
X80470000Y-146150000D01*
X80470000Y-146150000D02*
X80470000Y-146900000D01*
X80470000Y-146900000D02*
X81470000Y-146900000D01*
X84770000Y-146900000D02*
X84770000Y-146150000D01*
X84770000Y-146150000D02*
X82970000Y-146150000D01*
X82970000Y-146150000D02*
X82970000Y-146900000D01*
X82970000Y-146900000D02*
X84770000Y-146900000D01*
X78970000Y-146900000D02*
X78970000Y-146150000D01*
X78970000Y-146150000D02*
X77170000Y-146150000D01*
X77170000Y-146150000D02*
X77170000Y-146900000D01*
X77170000Y-146900000D02*
X78970000Y-146900000D01*
X84770000Y-144650000D02*
X84020000Y-144650000D01*
X84020000Y-144650000D02*
X84020000Y-141700000D01*
X84020000Y-141700000D02*
X80970000Y-141700000D01*
X77170000Y-144650000D02*
X77920000Y-144650000D01*
X77920000Y-144650000D02*
X77920000Y-141700000D01*
X77920000Y-141700000D02*
X80970000Y-141700000D01*
X82570000Y-147200000D02*
X85070000Y-147200000D01*
X85070000Y-147200000D02*
X85070000Y-144700000D01*
G04 #@! TO.C,J3*
X107930000Y-147200000D02*
X107930000Y-144700000D01*
X105430000Y-147200000D02*
X107930000Y-147200000D01*
X95780000Y-141700000D02*
X101330000Y-141700000D01*
X95780000Y-144650000D02*
X95780000Y-141700000D01*
X95030000Y-144650000D02*
X95780000Y-144650000D01*
X106880000Y-141700000D02*
X101330000Y-141700000D01*
X106880000Y-144650000D02*
X106880000Y-141700000D01*
X107630000Y-144650000D02*
X106880000Y-144650000D01*
X95030000Y-146900000D02*
X96830000Y-146900000D01*
X95030000Y-146150000D02*
X95030000Y-146900000D01*
X96830000Y-146150000D02*
X95030000Y-146150000D01*
X96830000Y-146900000D02*
X96830000Y-146150000D01*
X105830000Y-146900000D02*
X107630000Y-146900000D01*
X105830000Y-146150000D02*
X105830000Y-146900000D01*
X107630000Y-146150000D02*
X105830000Y-146150000D01*
X107630000Y-146900000D02*
X107630000Y-146150000D01*
X98330000Y-146900000D02*
X104330000Y-146900000D01*
X98330000Y-146150000D02*
X98330000Y-146900000D01*
X104330000Y-146150000D02*
X98330000Y-146150000D01*
X104330000Y-146900000D02*
X104330000Y-146150000D01*
X95030000Y-146900000D02*
X107630000Y-146900000D01*
X95030000Y-140950000D02*
X95030000Y-146900000D01*
X107630000Y-140950000D02*
X95030000Y-140950000D01*
X107630000Y-146900000D02*
X107630000Y-140950000D01*
G04 #@! TO.C,J4*
X127950000Y-146900000D02*
X127950000Y-140950000D01*
X127950000Y-140950000D02*
X110350000Y-140950000D01*
X110350000Y-140950000D02*
X110350000Y-146900000D01*
X110350000Y-146900000D02*
X127950000Y-146900000D01*
X124650000Y-146900000D02*
X124650000Y-146150000D01*
X124650000Y-146150000D02*
X113650000Y-146150000D01*
X113650000Y-146150000D02*
X113650000Y-146900000D01*
X113650000Y-146900000D02*
X124650000Y-146900000D01*
X127950000Y-146900000D02*
X127950000Y-146150000D01*
X127950000Y-146150000D02*
X126150000Y-146150000D01*
X126150000Y-146150000D02*
X126150000Y-146900000D01*
X126150000Y-146900000D02*
X127950000Y-146900000D01*
X112150000Y-146900000D02*
X112150000Y-146150000D01*
X112150000Y-146150000D02*
X110350000Y-146150000D01*
X110350000Y-146150000D02*
X110350000Y-146900000D01*
X110350000Y-146900000D02*
X112150000Y-146900000D01*
X127950000Y-144650000D02*
X127200000Y-144650000D01*
X127200000Y-144650000D02*
X127200000Y-141700000D01*
X127200000Y-141700000D02*
X119150000Y-141700000D01*
X110350000Y-144650000D02*
X111100000Y-144650000D01*
X111100000Y-144650000D02*
X111100000Y-141700000D01*
X111100000Y-141700000D02*
X119150000Y-141700000D01*
X125750000Y-147200000D02*
X128250000Y-147200000D01*
X128250000Y-147200000D02*
X128250000Y-144700000D01*
G04 #@! TO.C,J5*
X127950000Y-136740000D02*
X127950000Y-130790000D01*
X127950000Y-130790000D02*
X115350000Y-130790000D01*
X115350000Y-130790000D02*
X115350000Y-136740000D01*
X115350000Y-136740000D02*
X127950000Y-136740000D01*
X124650000Y-136740000D02*
X124650000Y-135990000D01*
X124650000Y-135990000D02*
X118650000Y-135990000D01*
X118650000Y-135990000D02*
X118650000Y-136740000D01*
X118650000Y-136740000D02*
X124650000Y-136740000D01*
X127950000Y-136740000D02*
X127950000Y-135990000D01*
X127950000Y-135990000D02*
X126150000Y-135990000D01*
X126150000Y-135990000D02*
X126150000Y-136740000D01*
X126150000Y-136740000D02*
X127950000Y-136740000D01*
X117150000Y-136740000D02*
X117150000Y-135990000D01*
X117150000Y-135990000D02*
X115350000Y-135990000D01*
X115350000Y-135990000D02*
X115350000Y-136740000D01*
X115350000Y-136740000D02*
X117150000Y-136740000D01*
X127950000Y-134490000D02*
X127200000Y-134490000D01*
X127200000Y-134490000D02*
X127200000Y-131540000D01*
X127200000Y-131540000D02*
X121650000Y-131540000D01*
X115350000Y-134490000D02*
X116100000Y-134490000D01*
X116100000Y-134490000D02*
X116100000Y-131540000D01*
X116100000Y-131540000D02*
X121650000Y-131540000D01*
X125750000Y-137040000D02*
X128250000Y-137040000D01*
X128250000Y-137040000D02*
X128250000Y-134540000D01*
G04 #@! TO.C,J6*
X112710000Y-136740000D02*
X112710000Y-130790000D01*
X112710000Y-130790000D02*
X95110000Y-130790000D01*
X95110000Y-130790000D02*
X95110000Y-136740000D01*
X95110000Y-136740000D02*
X112710000Y-136740000D01*
X109410000Y-136740000D02*
X109410000Y-135990000D01*
X109410000Y-135990000D02*
X98410000Y-135990000D01*
X98410000Y-135990000D02*
X98410000Y-136740000D01*
X98410000Y-136740000D02*
X109410000Y-136740000D01*
X112710000Y-136740000D02*
X112710000Y-135990000D01*
X112710000Y-135990000D02*
X110910000Y-135990000D01*
X110910000Y-135990000D02*
X110910000Y-136740000D01*
X110910000Y-136740000D02*
X112710000Y-136740000D01*
X96910000Y-136740000D02*
X96910000Y-135990000D01*
X96910000Y-135990000D02*
X95110000Y-135990000D01*
X95110000Y-135990000D02*
X95110000Y-136740000D01*
X95110000Y-136740000D02*
X96910000Y-136740000D01*
X112710000Y-134490000D02*
X111960000Y-134490000D01*
X111960000Y-134490000D02*
X111960000Y-131540000D01*
X111960000Y-131540000D02*
X103910000Y-131540000D01*
X95110000Y-134490000D02*
X95860000Y-134490000D01*
X95860000Y-134490000D02*
X95860000Y-131540000D01*
X95860000Y-131540000D02*
X103910000Y-131540000D01*
X110510000Y-137040000D02*
X113010000Y-137040000D01*
X113010000Y-137040000D02*
X113010000Y-134540000D01*
G04 #@! TO.C,J7*
X67950000Y-81080000D02*
X68250000Y-80480000D01*
X68550000Y-81080000D02*
X67950000Y-81080000D01*
X68250000Y-80480000D02*
X68550000Y-81080000D01*
X73170000Y-72180000D02*
X73170000Y-80280000D01*
X66130000Y-72180000D02*
X73170000Y-72180000D01*
X66130000Y-73380000D02*
X66130000Y-72180000D01*
X64430000Y-73380000D02*
X66130000Y-73380000D01*
X64430000Y-79080000D02*
X64430000Y-73380000D01*
X66130000Y-79080000D02*
X64430000Y-79080000D01*
X66130000Y-80280000D02*
X66130000Y-79080000D01*
X73170000Y-80280000D02*
X66130000Y-80280000D01*
G04 #@! TO.C,J8*
X64230000Y-90150000D02*
X66730000Y-90150000D01*
X64230000Y-87650000D02*
X64230000Y-90150000D01*
X69730000Y-83000000D02*
X69730000Y-86050000D01*
X66780000Y-83000000D02*
X69730000Y-83000000D01*
X66780000Y-82250000D02*
X66780000Y-83000000D01*
X69730000Y-89100000D02*
X69730000Y-86050000D01*
X66780000Y-89100000D02*
X69730000Y-89100000D01*
X66780000Y-89850000D02*
X66780000Y-89100000D01*
X64530000Y-82250000D02*
X64530000Y-84050000D01*
X65280000Y-82250000D02*
X64530000Y-82250000D01*
X65280000Y-84050000D02*
X65280000Y-82250000D01*
X64530000Y-84050000D02*
X65280000Y-84050000D01*
X64530000Y-88050000D02*
X64530000Y-89850000D01*
X65280000Y-88050000D02*
X64530000Y-88050000D01*
X65280000Y-89850000D02*
X65280000Y-88050000D01*
X64530000Y-89850000D02*
X65280000Y-89850000D01*
X64530000Y-85550000D02*
X64530000Y-86550000D01*
X65280000Y-85550000D02*
X64530000Y-85550000D01*
X65280000Y-86550000D02*
X65280000Y-85550000D01*
X64530000Y-86550000D02*
X65280000Y-86550000D01*
X64530000Y-82250000D02*
X64530000Y-89850000D01*
X70480000Y-82250000D02*
X64530000Y-82250000D01*
X70480000Y-89850000D02*
X70480000Y-82250000D01*
X64530000Y-89850000D02*
X70480000Y-89850000D01*
G04 #@! TO.C,J9*
X132050000Y-71095000D02*
X131750000Y-71695000D01*
X131450000Y-71095000D02*
X132050000Y-71095000D01*
X131750000Y-71695000D02*
X131450000Y-71095000D01*
X126830000Y-79995000D02*
X126830000Y-71895000D01*
X133870000Y-79995000D02*
X126830000Y-79995000D01*
X133870000Y-78795000D02*
X133870000Y-79995000D01*
X135570000Y-78795000D02*
X133870000Y-78795000D01*
X135570000Y-73095000D02*
X135570000Y-78795000D01*
X133870000Y-73095000D02*
X135570000Y-73095000D01*
X133870000Y-71895000D02*
X133870000Y-73095000D01*
X126830000Y-71895000D02*
X133870000Y-71895000D01*
G04 #@! TO.C,Q1*
X122900000Y-68370000D02*
X112660000Y-68370000D01*
X122900000Y-58880000D02*
X112660000Y-58880000D01*
X122900000Y-68370000D02*
X122900000Y-58880000D01*
X112660000Y-68370000D02*
X112660000Y-58880000D01*
X122900000Y-52480000D02*
X121700000Y-52480000D01*
X120501000Y-52480000D02*
X119300000Y-52480000D01*
X118100000Y-52480000D02*
X116900000Y-52480000D01*
X115700000Y-52480000D02*
X114500000Y-52480000D01*
X113300000Y-52480000D02*
X112660000Y-52480000D01*
X122900000Y-58640000D02*
X122900000Y-57440000D01*
X122900000Y-56240000D02*
X122900000Y-55040000D01*
X122900000Y-53840000D02*
X122900000Y-52640000D01*
X112660000Y-58640000D02*
X112660000Y-57440000D01*
X112660000Y-56240000D02*
X112660000Y-55040000D01*
X112660000Y-53840000D02*
X112660000Y-52640000D01*
X120320000Y-71010000D02*
X120320000Y-68370000D01*
X117780000Y-70994000D02*
X117780000Y-68370000D01*
X115240000Y-70994000D02*
X115240000Y-68370000D01*
G04 #@! TO.C,Q2*
X103810000Y-70994000D02*
X103810000Y-68370000D01*
X106350000Y-70994000D02*
X106350000Y-68370000D01*
X108890000Y-71010000D02*
X108890000Y-68370000D01*
X101230000Y-53840000D02*
X101230000Y-52640000D01*
X101230000Y-56240000D02*
X101230000Y-55040000D01*
X101230000Y-58640000D02*
X101230000Y-57440000D01*
X111470000Y-53840000D02*
X111470000Y-52640000D01*
X111470000Y-56240000D02*
X111470000Y-55040000D01*
X111470000Y-58640000D02*
X111470000Y-57440000D01*
X101870000Y-52480000D02*
X101230000Y-52480000D01*
X104270000Y-52480000D02*
X103070000Y-52480000D01*
X106670000Y-52480000D02*
X105470000Y-52480000D01*
X109071000Y-52480000D02*
X107870000Y-52480000D01*
X111470000Y-52480000D02*
X110270000Y-52480000D01*
X101230000Y-68370000D02*
X101230000Y-58880000D01*
X111470000Y-68370000D02*
X111470000Y-58880000D01*
X111470000Y-58880000D02*
X101230000Y-58880000D01*
X111470000Y-68370000D02*
X101230000Y-68370000D01*
G04 #@! TO.C,Q3*
X91110000Y-70994000D02*
X91110000Y-68370000D01*
X93650000Y-70994000D02*
X93650000Y-68370000D01*
X96190000Y-71010000D02*
X96190000Y-68370000D01*
X88530000Y-53840000D02*
X88530000Y-52640000D01*
X88530000Y-56240000D02*
X88530000Y-55040000D01*
X88530000Y-58640000D02*
X88530000Y-57440000D01*
X98770000Y-53840000D02*
X98770000Y-52640000D01*
X98770000Y-56240000D02*
X98770000Y-55040000D01*
X98770000Y-58640000D02*
X98770000Y-57440000D01*
X89170000Y-52480000D02*
X88530000Y-52480000D01*
X91570000Y-52480000D02*
X90370000Y-52480000D01*
X93970000Y-52480000D02*
X92770000Y-52480000D01*
X96371000Y-52480000D02*
X95170000Y-52480000D01*
X98770000Y-52480000D02*
X97570000Y-52480000D01*
X88530000Y-68370000D02*
X88530000Y-58880000D01*
X98770000Y-68370000D02*
X98770000Y-58880000D01*
X98770000Y-58880000D02*
X88530000Y-58880000D01*
X98770000Y-68370000D02*
X88530000Y-68370000D01*
G04 #@! TO.C,Q4*
X87340000Y-68370000D02*
X77100000Y-68370000D01*
X87340000Y-58880000D02*
X77100000Y-58880000D01*
X87340000Y-68370000D02*
X87340000Y-58880000D01*
X77100000Y-68370000D02*
X77100000Y-58880000D01*
X87340000Y-52480000D02*
X86140000Y-52480000D01*
X84941000Y-52480000D02*
X83740000Y-52480000D01*
X82540000Y-52480000D02*
X81340000Y-52480000D01*
X80140000Y-52480000D02*
X78940000Y-52480000D01*
X77740000Y-52480000D02*
X77100000Y-52480000D01*
X87340000Y-58640000D02*
X87340000Y-57440000D01*
X87340000Y-56240000D02*
X87340000Y-55040000D01*
X87340000Y-53840000D02*
X87340000Y-52640000D01*
X77100000Y-58640000D02*
X77100000Y-57440000D01*
X77100000Y-56240000D02*
X77100000Y-55040000D01*
X77100000Y-53840000D02*
X77100000Y-52640000D01*
X84760000Y-71010000D02*
X84760000Y-68370000D01*
X82220000Y-70994000D02*
X82220000Y-68370000D01*
X79680000Y-70994000D02*
X79680000Y-68370000D01*
G04 #@! TO.C,R1*
X131250000Y-114560000D02*
X132250000Y-114560000D01*
X132250000Y-115920000D02*
X131250000Y-115920000D01*
G04 #@! TO.C,R2*
X123360000Y-123540000D02*
X122360000Y-123540000D01*
X122360000Y-122180000D02*
X123360000Y-122180000D01*
G04 #@! TO.C,R3*
X123360000Y-118460000D02*
X122360000Y-118460000D01*
X122360000Y-117100000D02*
X123360000Y-117100000D01*
G04 #@! TO.C,R4*
X131250000Y-106940000D02*
X132250000Y-106940000D01*
X132250000Y-108300000D02*
X131250000Y-108300000D01*
G04 #@! TO.C,R5*
X131250000Y-104400000D02*
X132250000Y-104400000D01*
X132250000Y-105760000D02*
X131250000Y-105760000D01*
G04 #@! TO.C,R6*
X131250000Y-101860000D02*
X132250000Y-101860000D01*
X132250000Y-103220000D02*
X131250000Y-103220000D01*
G04 #@! TO.C,R9*
X117100000Y-128440000D02*
X117100000Y-127440000D01*
X118460000Y-127440000D02*
X118460000Y-128440000D01*
G04 #@! TO.C,R10*
X119640000Y-128440000D02*
X119640000Y-127440000D01*
X121000000Y-127440000D02*
X121000000Y-128440000D01*
G04 #@! TO.C,R11*
X102585000Y-119820000D02*
X102585000Y-120820000D01*
X101225000Y-120820000D02*
X101225000Y-119820000D01*
G04 #@! TO.C,R12*
X108300000Y-112200000D02*
X108300000Y-113200000D01*
X106940000Y-113200000D02*
X106940000Y-112200000D01*
G04 #@! TO.C,R13*
X103675000Y-94965000D02*
X102675000Y-94965000D01*
X102675000Y-93605000D02*
X103675000Y-93605000D01*
G04 #@! TO.C,R14*
X95055000Y-93605000D02*
X96055000Y-93605000D01*
X96055000Y-94965000D02*
X95055000Y-94965000D01*
G04 #@! TO.C,R15*
X88435000Y-94965000D02*
X87435000Y-94965000D01*
X87435000Y-93605000D02*
X88435000Y-93605000D01*
G04 #@! TO.C,R16*
X79815000Y-93605000D02*
X80815000Y-93605000D01*
X80815000Y-94965000D02*
X79815000Y-94965000D01*
G04 #@! TO.C,R17*
X103675000Y-93060000D02*
X102675000Y-93060000D01*
X102675000Y-91700000D02*
X103675000Y-91700000D01*
G04 #@! TO.C,R18*
X96055000Y-93060000D02*
X95055000Y-93060000D01*
X95055000Y-91700000D02*
X96055000Y-91700000D01*
G04 #@! TO.C,R19*
X88435000Y-93060000D02*
X87435000Y-93060000D01*
X87435000Y-91700000D02*
X88435000Y-91700000D01*
G04 #@! TO.C,R20*
X80815000Y-93060000D02*
X79815000Y-93060000D01*
X79815000Y-91700000D02*
X80815000Y-91700000D01*
G04 #@! TO.C,R21*
X105470000Y-80280000D02*
X105470000Y-79080000D01*
X107230000Y-79080000D02*
X107230000Y-80280000D01*
G04 #@! TO.C,R22*
X97850000Y-80280000D02*
X97850000Y-79080000D01*
X99610000Y-79080000D02*
X99610000Y-80280000D01*
G04 #@! TO.C,R23*
X90230000Y-80280000D02*
X90230000Y-79080000D01*
X91990000Y-79080000D02*
X91990000Y-80280000D01*
G04 #@! TO.C,R24*
X82610000Y-80280000D02*
X82610000Y-79080000D01*
X84370000Y-79080000D02*
X84370000Y-80280000D01*
G04 #@! TO.C,R25*
X118280000Y-74645000D02*
X117280000Y-74645000D01*
X117280000Y-73285000D02*
X118280000Y-73285000D01*
G04 #@! TO.C,R26*
X105850000Y-73285000D02*
X106850000Y-73285000D01*
X106850000Y-74645000D02*
X105850000Y-74645000D01*
G04 #@! TO.C,R27*
X94150000Y-74645000D02*
X93150000Y-74645000D01*
X93150000Y-73285000D02*
X94150000Y-73285000D01*
G04 #@! TO.C,R28*
X82720000Y-74645000D02*
X81720000Y-74645000D01*
X81720000Y-73285000D02*
X82720000Y-73285000D01*
G04 #@! TO.C,R29*
X121545000Y-92880000D02*
X121545000Y-91880000D01*
X122905000Y-91880000D02*
X122905000Y-92880000D01*
G04 #@! TO.C,R30*
X124810000Y-80450000D02*
X124810000Y-81450000D01*
X123450000Y-81450000D02*
X123450000Y-80450000D01*
G04 #@! TO.C,R31*
X121545000Y-81450000D02*
X121545000Y-80450000D01*
X122905000Y-80450000D02*
X122905000Y-81450000D01*
G04 #@! TO.C,R32*
X122905000Y-76005000D02*
X122905000Y-77005000D01*
X121545000Y-77005000D02*
X121545000Y-76005000D01*
G04 #@! TO.C,R33*
X123450000Y-77005000D02*
X123450000Y-76005000D01*
X124810000Y-76005000D02*
X124810000Y-77005000D01*
G04 #@! TO.C,R34*
X80815000Y-131795000D02*
X79815000Y-131795000D01*
X79815000Y-130435000D02*
X80815000Y-130435000D01*
G04 #@! TO.C,R35*
X74555000Y-78275000D02*
X74555000Y-77275000D01*
X75915000Y-77275000D02*
X75915000Y-78275000D01*
D12*
G04 #@! TO.C,SW1*
X126924000Y-121590000D02*
X126924000Y-119050000D01*
X131496000Y-121590000D02*
X131496000Y-119050000D01*
X129972000Y-122860000D02*
X128448000Y-122860000D01*
X129972000Y-117780000D02*
X128448000Y-117780000D01*
X130988000Y-121082000D02*
G75*
G03X130988000Y-121082000I-254000J0D01*
G01*
X130861000Y-121082000D02*
G75*
G03X130861000Y-121082000I-127000J0D01*
G01*
X130734000Y-121209000D02*
X130734000Y-120955000D01*
G04 #@! TO.C,SW2*
X68504000Y-121590000D02*
X68504000Y-119050000D01*
X73076000Y-121590000D02*
X73076000Y-119050000D01*
X71552000Y-122860000D02*
X70028000Y-122860000D01*
X71552000Y-117780000D02*
X70028000Y-117780000D01*
X72568000Y-121082000D02*
G75*
G03X72568000Y-121082000I-254000J0D01*
G01*
X72441000Y-121082000D02*
G75*
G03X72441000Y-121082000I-127000J0D01*
G01*
X72314000Y-121209000D02*
X72314000Y-120955000D01*
D11*
G04 #@! TO.C,U2*
X84195000Y-136705000D02*
X82995000Y-136705000D01*
X82995000Y-136705000D02*
X82995000Y-134005000D01*
X87795000Y-132705000D02*
X87795000Y-136705000D01*
X87795000Y-136705000D02*
X86595000Y-136705000D01*
D12*
G04 #@! TO.C,U3*
X108300000Y-92505000D02*
X114300000Y-92505000D01*
X108300000Y-80825000D02*
X108300000Y-92505000D01*
X114300000Y-80825000D02*
X108300000Y-80825000D01*
X114300000Y-92505000D02*
X114300000Y-80825000D01*
G04 #@! TO.C,U4*
X103625000Y-116325000D02*
X103625000Y-116100000D01*
X96375000Y-116325000D02*
X96375000Y-116025000D01*
X96375000Y-109075000D02*
X96375000Y-109375000D01*
X103625000Y-109075000D02*
X103625000Y-109375000D01*
X103625000Y-116325000D02*
X103325000Y-116325000D01*
X103625000Y-109075000D02*
X103325000Y-109075000D01*
X96375000Y-109075000D02*
X96675000Y-109075000D01*
X96375000Y-116325000D02*
X96675000Y-116325000D01*
X103625000Y-116100000D02*
X104850000Y-116100000D01*
D11*
G04 #@! TO.C,U5*
X101175000Y-84265000D02*
X101475000Y-84265000D01*
X101175000Y-89065000D02*
X101175000Y-84265000D01*
X101475000Y-89065000D02*
X101175000Y-89065000D01*
X105175000Y-89065000D02*
X104875000Y-89065000D01*
X105175000Y-84265000D02*
X105175000Y-89065000D01*
X104875000Y-84265000D02*
X105175000Y-84265000D01*
X103975000Y-89065000D02*
X102375000Y-89065000D01*
X101475000Y-89065000D02*
X101475000Y-90765000D01*
G04 #@! TO.C,U6*
X93855000Y-89065000D02*
X93855000Y-90765000D01*
X96355000Y-89065000D02*
X94755000Y-89065000D01*
X97255000Y-84265000D02*
X97555000Y-84265000D01*
X97555000Y-84265000D02*
X97555000Y-89065000D01*
X97555000Y-89065000D02*
X97255000Y-89065000D01*
X93855000Y-89065000D02*
X93555000Y-89065000D01*
X93555000Y-89065000D02*
X93555000Y-84265000D01*
X93555000Y-84265000D02*
X93855000Y-84265000D01*
G04 #@! TO.C,U7*
X85935000Y-84265000D02*
X86235000Y-84265000D01*
X85935000Y-89065000D02*
X85935000Y-84265000D01*
X86235000Y-89065000D02*
X85935000Y-89065000D01*
X89935000Y-89065000D02*
X89635000Y-89065000D01*
X89935000Y-84265000D02*
X89935000Y-89065000D01*
X89635000Y-84265000D02*
X89935000Y-84265000D01*
X88735000Y-89065000D02*
X87135000Y-89065000D01*
X86235000Y-89065000D02*
X86235000Y-90765000D01*
G04 #@! TO.C,U8*
X78615000Y-89065000D02*
X78615000Y-90765000D01*
X81115000Y-89065000D02*
X79515000Y-89065000D01*
X82015000Y-84265000D02*
X82315000Y-84265000D01*
X82315000Y-84265000D02*
X82315000Y-89065000D01*
X82315000Y-89065000D02*
X82015000Y-89065000D01*
X78615000Y-89065000D02*
X78315000Y-89065000D01*
X78315000Y-89065000D02*
X78315000Y-84265000D01*
X78315000Y-84265000D02*
X78615000Y-84265000D01*
D12*
G04 #@! TO.C,U9*
X132420000Y-84590000D02*
X132370000Y-84590000D01*
X132420000Y-88740000D02*
X132275000Y-88740000D01*
X127270000Y-88740000D02*
X127415000Y-88740000D01*
X127270000Y-84590000D02*
X127415000Y-84590000D01*
X132420000Y-84590000D02*
X132420000Y-88740000D01*
X127270000Y-84590000D02*
X127270000Y-88740000D01*
X132370000Y-84590000D02*
X132370000Y-83190000D01*
G04 #@! TO.C,U10*
X124265000Y-88519300D02*
X124265000Y-84810700D01*
X118865000Y-90190000D02*
X118865000Y-84806400D01*
D11*
G04 #@! TO.C,J2*
X64880000Y-112510000D02*
X66130000Y-112510000D01*
X64880000Y-111260000D02*
X64880000Y-112510000D01*
X69280000Y-101160000D02*
X68780000Y-101160000D01*
X68780000Y-101060000D02*
X69280000Y-101060000D01*
X68780000Y-101260000D02*
X68780000Y-101060000D01*
X69280000Y-101260000D02*
X68780000Y-101260000D01*
X69280000Y-103160000D02*
X68780000Y-103160000D01*
X68780000Y-103060000D02*
X69280000Y-103060000D01*
X68780000Y-103260000D02*
X68780000Y-103060000D01*
X69280000Y-103260000D02*
X68780000Y-103260000D01*
X69280000Y-105160000D02*
X68780000Y-105160000D01*
X68780000Y-105060000D02*
X69280000Y-105060000D01*
X68780000Y-105260000D02*
X68780000Y-105060000D01*
X69280000Y-105260000D02*
X68780000Y-105260000D01*
X69280000Y-107160000D02*
X68780000Y-107160000D01*
X68780000Y-107060000D02*
X69280000Y-107060000D01*
X68780000Y-107260000D02*
X68780000Y-107060000D01*
X69280000Y-107260000D02*
X68780000Y-107260000D01*
X69280000Y-109160000D02*
X68780000Y-109160000D01*
X68780000Y-109060000D02*
X69280000Y-109060000D01*
X68780000Y-109260000D02*
X68780000Y-109060000D01*
X69280000Y-109260000D02*
X68780000Y-109260000D01*
X65080000Y-110460000D02*
X65080000Y-110760000D01*
X64980000Y-110760000D02*
X65180000Y-110760000D01*
X64980000Y-110460000D02*
X64980000Y-110760000D01*
X65180000Y-110460000D02*
X64980000Y-110460000D01*
X67780000Y-98110000D02*
X67780000Y-98710000D01*
X66480000Y-98110000D02*
X66480000Y-98710000D01*
X67780000Y-112210000D02*
X67780000Y-111610000D01*
X66480000Y-112210000D02*
X66480000Y-111610000D01*
X65780000Y-100660000D02*
X65180000Y-100660000D01*
X65780000Y-98710000D02*
X65780000Y-100660000D01*
X69280000Y-98710000D02*
X65780000Y-98710000D01*
X69280000Y-111610000D02*
X69280000Y-98710000D01*
X65780000Y-111610000D02*
X69280000Y-111610000D01*
X65780000Y-109660000D02*
X65780000Y-111610000D01*
X65180000Y-109660000D02*
X65780000Y-109660000D01*
X65180000Y-98110000D02*
X65180000Y-112210000D01*
X69880000Y-98110000D02*
X65180000Y-98110000D01*
X69880000Y-112210000D02*
X69880000Y-98110000D01*
X65180000Y-112210000D02*
X69880000Y-112210000D01*
G04 #@! TO.C,C1*
X126320000Y-114640000D02*
X127020000Y-114640000D01*
X127020000Y-115840000D02*
X126320000Y-115840000D01*
G04 #@! TO.C,C2*
X71140000Y-126000000D02*
X70440000Y-126000000D01*
X70440000Y-124800000D02*
X71140000Y-124800000D01*
G04 #@! TO.C,C3*
X75585000Y-139970000D02*
X74885000Y-139970000D01*
X74885000Y-138770000D02*
X75585000Y-138770000D01*
G04 #@! TO.C,C4*
X74885000Y-128610000D02*
X75585000Y-128610000D01*
X75585000Y-129810000D02*
X74885000Y-129810000D01*
G04 #@! TO.C,C5*
X82185000Y-133940000D02*
X82185000Y-134640000D01*
X80985000Y-134640000D02*
X80985000Y-133940000D01*
G04 #@! TO.C,C6*
X88605000Y-134640000D02*
X88605000Y-133940000D01*
X89805000Y-133940000D02*
X89805000Y-134640000D01*
G04 #@! TO.C,C7*
X123780000Y-128610000D02*
X124480000Y-128610000D01*
X124480000Y-129810000D02*
X123780000Y-129810000D01*
G04 #@! TO.C,C8*
X114640000Y-89555000D02*
X114640000Y-88855000D01*
X115840000Y-88855000D02*
X115840000Y-89555000D01*
G04 #@! TO.C,C9*
X115840000Y-83775000D02*
X115840000Y-84475000D01*
X114640000Y-84475000D02*
X114640000Y-83775000D01*
G04 #@! TO.C,C24*
X132350000Y-92030000D02*
X132350000Y-92730000D01*
X131150000Y-92730000D02*
X131150000Y-92030000D01*
G04 #@! TO.C,U1*
D12*
X70536095Y-138292380D02*
X70536095Y-139101904D01*
X70583714Y-139197142D01*
X70631333Y-139244761D01*
X70726571Y-139292380D01*
X70917047Y-139292380D01*
X71012285Y-139244761D01*
X71059904Y-139197142D01*
X71107523Y-139101904D01*
X71107523Y-138292380D01*
X72107523Y-139292380D02*
X71536095Y-139292380D01*
X71821809Y-139292380D02*
X71821809Y-138292380D01*
X71726571Y-138435238D01*
X71631333Y-138530476D01*
X71536095Y-138578095D01*
G04 #@! TO.C,C10*
X71671142Y-59971142D02*
X71623523Y-60018761D01*
X71480666Y-60066380D01*
X71385428Y-60066380D01*
X71242571Y-60018761D01*
X71147333Y-59923523D01*
X71099714Y-59828285D01*
X71052095Y-59637809D01*
X71052095Y-59494952D01*
X71099714Y-59304476D01*
X71147333Y-59209238D01*
X71242571Y-59114000D01*
X71385428Y-59066380D01*
X71480666Y-59066380D01*
X71623523Y-59114000D01*
X71671142Y-59161619D01*
X72623523Y-60066380D02*
X72052095Y-60066380D01*
X72337809Y-60066380D02*
X72337809Y-59066380D01*
X72242571Y-59209238D01*
X72147333Y-59304476D01*
X72052095Y-59352095D01*
X73242571Y-59066380D02*
X73337809Y-59066380D01*
X73433047Y-59114000D01*
X73480666Y-59161619D01*
X73528285Y-59256857D01*
X73575904Y-59447333D01*
X73575904Y-59685428D01*
X73528285Y-59875904D01*
X73480666Y-59971142D01*
X73433047Y-60018761D01*
X73337809Y-60066380D01*
X73242571Y-60066380D01*
X73147333Y-60018761D01*
X73099714Y-59971142D01*
X73052095Y-59875904D01*
X73004476Y-59685428D01*
X73004476Y-59447333D01*
X73052095Y-59256857D01*
X73099714Y-59161619D01*
X73147333Y-59114000D01*
X73242571Y-59066380D01*
G04 #@! TO.C,C11*
X73941142Y-86672857D02*
X73988761Y-86720476D01*
X74036380Y-86863333D01*
X74036380Y-86958571D01*
X73988761Y-87101428D01*
X73893523Y-87196666D01*
X73798285Y-87244285D01*
X73607809Y-87291904D01*
X73464952Y-87291904D01*
X73274476Y-87244285D01*
X73179238Y-87196666D01*
X73084000Y-87101428D01*
X73036380Y-86958571D01*
X73036380Y-86863333D01*
X73084000Y-86720476D01*
X73131619Y-86672857D01*
X74036380Y-85720476D02*
X74036380Y-86291904D01*
X74036380Y-86006190D02*
X73036380Y-86006190D01*
X73179238Y-86101428D01*
X73274476Y-86196666D01*
X73322095Y-86291904D01*
X74036380Y-84768095D02*
X74036380Y-85339523D01*
X74036380Y-85053809D02*
X73036380Y-85053809D01*
X73179238Y-85149047D01*
X73274476Y-85244285D01*
X73322095Y-85339523D01*
G04 #@! TO.C,C12*
X95531142Y-108516857D02*
X95578761Y-108564476D01*
X95626380Y-108707333D01*
X95626380Y-108802571D01*
X95578761Y-108945428D01*
X95483523Y-109040666D01*
X95388285Y-109088285D01*
X95197809Y-109135904D01*
X95054952Y-109135904D01*
X94864476Y-109088285D01*
X94769238Y-109040666D01*
X94674000Y-108945428D01*
X94626380Y-108802571D01*
X94626380Y-108707333D01*
X94674000Y-108564476D01*
X94721619Y-108516857D01*
X95626380Y-107564476D02*
X95626380Y-108135904D01*
X95626380Y-107850190D02*
X94626380Y-107850190D01*
X94769238Y-107945428D01*
X94864476Y-108040666D01*
X94912095Y-108135904D01*
X94721619Y-107183523D02*
X94674000Y-107135904D01*
X94626380Y-107040666D01*
X94626380Y-106802571D01*
X94674000Y-106707333D01*
X94721619Y-106659714D01*
X94816857Y-106612095D01*
X94912095Y-106612095D01*
X95054952Y-106659714D01*
X95626380Y-107231142D01*
X95626380Y-106612095D01*
G04 #@! TO.C,C13*
X105961142Y-83593142D02*
X105913523Y-83640761D01*
X105770666Y-83688380D01*
X105675428Y-83688380D01*
X105532571Y-83640761D01*
X105437333Y-83545523D01*
X105389714Y-83450285D01*
X105342095Y-83259809D01*
X105342095Y-83116952D01*
X105389714Y-82926476D01*
X105437333Y-82831238D01*
X105532571Y-82736000D01*
X105675428Y-82688380D01*
X105770666Y-82688380D01*
X105913523Y-82736000D01*
X105961142Y-82783619D01*
X106913523Y-83688380D02*
X106342095Y-83688380D01*
X106627809Y-83688380D02*
X106627809Y-82688380D01*
X106532571Y-82831238D01*
X106437333Y-82926476D01*
X106342095Y-82974095D01*
X107246857Y-82688380D02*
X107865904Y-82688380D01*
X107532571Y-83069333D01*
X107675428Y-83069333D01*
X107770666Y-83116952D01*
X107818285Y-83164571D01*
X107865904Y-83259809D01*
X107865904Y-83497904D01*
X107818285Y-83593142D01*
X107770666Y-83640761D01*
X107675428Y-83688380D01*
X107389714Y-83688380D01*
X107294476Y-83640761D01*
X107246857Y-83593142D01*
G04 #@! TO.C,C14*
X94912142Y-80692142D02*
X94864523Y-80739761D01*
X94721666Y-80787380D01*
X94626428Y-80787380D01*
X94483571Y-80739761D01*
X94388333Y-80644523D01*
X94340714Y-80549285D01*
X94293095Y-80358809D01*
X94293095Y-80215952D01*
X94340714Y-80025476D01*
X94388333Y-79930238D01*
X94483571Y-79835000D01*
X94626428Y-79787380D01*
X94721666Y-79787380D01*
X94864523Y-79835000D01*
X94912142Y-79882619D01*
X95864523Y-80787380D02*
X95293095Y-80787380D01*
X95578809Y-80787380D02*
X95578809Y-79787380D01*
X95483571Y-79930238D01*
X95388333Y-80025476D01*
X95293095Y-80073095D01*
X96721666Y-80120714D02*
X96721666Y-80787380D01*
X96483571Y-79739761D02*
X96245476Y-80454047D01*
X96864523Y-80454047D01*
G04 #@! TO.C,C15*
X91229142Y-83847142D02*
X91181523Y-83894761D01*
X91038666Y-83942380D01*
X90943428Y-83942380D01*
X90800571Y-83894761D01*
X90705333Y-83799523D01*
X90657714Y-83704285D01*
X90610095Y-83513809D01*
X90610095Y-83370952D01*
X90657714Y-83180476D01*
X90705333Y-83085238D01*
X90800571Y-82990000D01*
X90943428Y-82942380D01*
X91038666Y-82942380D01*
X91181523Y-82990000D01*
X91229142Y-83037619D01*
X92181523Y-83942380D02*
X91610095Y-83942380D01*
X91895809Y-83942380D02*
X91895809Y-82942380D01*
X91800571Y-83085238D01*
X91705333Y-83180476D01*
X91610095Y-83228095D01*
X93086285Y-82942380D02*
X92610095Y-82942380D01*
X92562476Y-83418571D01*
X92610095Y-83370952D01*
X92705333Y-83323333D01*
X92943428Y-83323333D01*
X93038666Y-83370952D01*
X93086285Y-83418571D01*
X93133904Y-83513809D01*
X93133904Y-83751904D01*
X93086285Y-83847142D01*
X93038666Y-83894761D01*
X92943428Y-83942380D01*
X92705333Y-83942380D01*
X92610095Y-83894761D01*
X92562476Y-83847142D01*
G04 #@! TO.C,C16*
X79672142Y-80545142D02*
X79624523Y-80592761D01*
X79481666Y-80640380D01*
X79386428Y-80640380D01*
X79243571Y-80592761D01*
X79148333Y-80497523D01*
X79100714Y-80402285D01*
X79053095Y-80211809D01*
X79053095Y-80068952D01*
X79100714Y-79878476D01*
X79148333Y-79783238D01*
X79243571Y-79688000D01*
X79386428Y-79640380D01*
X79481666Y-79640380D01*
X79624523Y-79688000D01*
X79672142Y-79735619D01*
X80624523Y-80640380D02*
X80053095Y-80640380D01*
X80338809Y-80640380D02*
X80338809Y-79640380D01*
X80243571Y-79783238D01*
X80148333Y-79878476D01*
X80053095Y-79926095D01*
X81481666Y-79640380D02*
X81291190Y-79640380D01*
X81195952Y-79688000D01*
X81148333Y-79735619D01*
X81053095Y-79878476D01*
X81005476Y-80068952D01*
X81005476Y-80449904D01*
X81053095Y-80545142D01*
X81100714Y-80592761D01*
X81195952Y-80640380D01*
X81386428Y-80640380D01*
X81481666Y-80592761D01*
X81529285Y-80545142D01*
X81576904Y-80449904D01*
X81576904Y-80211809D01*
X81529285Y-80116571D01*
X81481666Y-80068952D01*
X81386428Y-80021333D01*
X81195952Y-80021333D01*
X81100714Y-80068952D01*
X81053095Y-80116571D01*
X81005476Y-80211809D01*
G04 #@! TO.C,C17*
X102532142Y-78513142D02*
X102484523Y-78560761D01*
X102341666Y-78608380D01*
X102246428Y-78608380D01*
X102103571Y-78560761D01*
X102008333Y-78465523D01*
X101960714Y-78370285D01*
X101913095Y-78179809D01*
X101913095Y-78036952D01*
X101960714Y-77846476D01*
X102008333Y-77751238D01*
X102103571Y-77656000D01*
X102246428Y-77608380D01*
X102341666Y-77608380D01*
X102484523Y-77656000D01*
X102532142Y-77703619D01*
X103484523Y-78608380D02*
X102913095Y-78608380D01*
X103198809Y-78608380D02*
X103198809Y-77608380D01*
X103103571Y-77751238D01*
X103008333Y-77846476D01*
X102913095Y-77894095D01*
X103817857Y-77608380D02*
X104484523Y-77608380D01*
X104055952Y-78608380D01*
G04 #@! TO.C,C18*
X87292142Y-78513142D02*
X87244523Y-78560761D01*
X87101666Y-78608380D01*
X87006428Y-78608380D01*
X86863571Y-78560761D01*
X86768333Y-78465523D01*
X86720714Y-78370285D01*
X86673095Y-78179809D01*
X86673095Y-78036952D01*
X86720714Y-77846476D01*
X86768333Y-77751238D01*
X86863571Y-77656000D01*
X87006428Y-77608380D01*
X87101666Y-77608380D01*
X87244523Y-77656000D01*
X87292142Y-77703619D01*
X88244523Y-78608380D02*
X87673095Y-78608380D01*
X87958809Y-78608380D02*
X87958809Y-77608380D01*
X87863571Y-77751238D01*
X87768333Y-77846476D01*
X87673095Y-77894095D01*
X88815952Y-78036952D02*
X88720714Y-77989333D01*
X88673095Y-77941714D01*
X88625476Y-77846476D01*
X88625476Y-77798857D01*
X88673095Y-77703619D01*
X88720714Y-77656000D01*
X88815952Y-77608380D01*
X89006428Y-77608380D01*
X89101666Y-77656000D01*
X89149285Y-77703619D01*
X89196904Y-77798857D01*
X89196904Y-77846476D01*
X89149285Y-77941714D01*
X89101666Y-77989333D01*
X89006428Y-78036952D01*
X88815952Y-78036952D01*
X88720714Y-78084571D01*
X88673095Y-78132190D01*
X88625476Y-78227428D01*
X88625476Y-78417904D01*
X88673095Y-78513142D01*
X88720714Y-78560761D01*
X88815952Y-78608380D01*
X89006428Y-78608380D01*
X89101666Y-78560761D01*
X89149285Y-78513142D01*
X89196904Y-78417904D01*
X89196904Y-78227428D01*
X89149285Y-78132190D01*
X89101666Y-78084571D01*
X89006428Y-78036952D01*
G04 #@! TO.C,C19*
X128551142Y-96324857D02*
X128598761Y-96372476D01*
X128646380Y-96515333D01*
X128646380Y-96610571D01*
X128598761Y-96753428D01*
X128503523Y-96848666D01*
X128408285Y-96896285D01*
X128217809Y-96943904D01*
X128074952Y-96943904D01*
X127884476Y-96896285D01*
X127789238Y-96848666D01*
X127694000Y-96753428D01*
X127646380Y-96610571D01*
X127646380Y-96515333D01*
X127694000Y-96372476D01*
X127741619Y-96324857D01*
X128646380Y-95372476D02*
X128646380Y-95943904D01*
X128646380Y-95658190D02*
X127646380Y-95658190D01*
X127789238Y-95753428D01*
X127884476Y-95848666D01*
X127932095Y-95943904D01*
X128646380Y-94896285D02*
X128646380Y-94705809D01*
X128598761Y-94610571D01*
X128551142Y-94562952D01*
X128408285Y-94467714D01*
X128217809Y-94420095D01*
X127836857Y-94420095D01*
X127741619Y-94467714D01*
X127694000Y-94515333D01*
X127646380Y-94610571D01*
X127646380Y-94801047D01*
X127694000Y-94896285D01*
X127741619Y-94943904D01*
X127836857Y-94991523D01*
X128074952Y-94991523D01*
X128170190Y-94943904D01*
X128217809Y-94896285D01*
X128265428Y-94801047D01*
X128265428Y-94610571D01*
X128217809Y-94515333D01*
X128170190Y-94467714D01*
X128074952Y-94420095D01*
G04 #@! TO.C,C20*
X120677142Y-96324857D02*
X120724761Y-96372476D01*
X120772380Y-96515333D01*
X120772380Y-96610571D01*
X120724761Y-96753428D01*
X120629523Y-96848666D01*
X120534285Y-96896285D01*
X120343809Y-96943904D01*
X120200952Y-96943904D01*
X120010476Y-96896285D01*
X119915238Y-96848666D01*
X119820000Y-96753428D01*
X119772380Y-96610571D01*
X119772380Y-96515333D01*
X119820000Y-96372476D01*
X119867619Y-96324857D01*
X119867619Y-95943904D02*
X119820000Y-95896285D01*
X119772380Y-95801047D01*
X119772380Y-95562952D01*
X119820000Y-95467714D01*
X119867619Y-95420095D01*
X119962857Y-95372476D01*
X120058095Y-95372476D01*
X120200952Y-95420095D01*
X120772380Y-95991523D01*
X120772380Y-95372476D01*
X119772380Y-94753428D02*
X119772380Y-94658190D01*
X119820000Y-94562952D01*
X119867619Y-94515333D01*
X119962857Y-94467714D01*
X120153333Y-94420095D01*
X120391428Y-94420095D01*
X120581904Y-94467714D01*
X120677142Y-94515333D01*
X120724761Y-94562952D01*
X120772380Y-94658190D01*
X120772380Y-94753428D01*
X120724761Y-94848666D01*
X120677142Y-94896285D01*
X120581904Y-94943904D01*
X120391428Y-94991523D01*
X120153333Y-94991523D01*
X119962857Y-94943904D01*
X119867619Y-94896285D01*
X119820000Y-94848666D01*
X119772380Y-94753428D01*
G04 #@! TO.C,C21*
X117375142Y-93022857D02*
X117422761Y-93070476D01*
X117470380Y-93213333D01*
X117470380Y-93308571D01*
X117422761Y-93451428D01*
X117327523Y-93546666D01*
X117232285Y-93594285D01*
X117041809Y-93641904D01*
X116898952Y-93641904D01*
X116708476Y-93594285D01*
X116613238Y-93546666D01*
X116518000Y-93451428D01*
X116470380Y-93308571D01*
X116470380Y-93213333D01*
X116518000Y-93070476D01*
X116565619Y-93022857D01*
X116565619Y-92641904D02*
X116518000Y-92594285D01*
X116470380Y-92499047D01*
X116470380Y-92260952D01*
X116518000Y-92165714D01*
X116565619Y-92118095D01*
X116660857Y-92070476D01*
X116756095Y-92070476D01*
X116898952Y-92118095D01*
X117470380Y-92689523D01*
X117470380Y-92070476D01*
X117470380Y-91118095D02*
X117470380Y-91689523D01*
X117470380Y-91403809D02*
X116470380Y-91403809D01*
X116613238Y-91499047D01*
X116708476Y-91594285D01*
X116756095Y-91689523D01*
G04 #@! TO.C,C22*
X117375142Y-81592857D02*
X117422761Y-81640476D01*
X117470380Y-81783333D01*
X117470380Y-81878571D01*
X117422761Y-82021428D01*
X117327523Y-82116666D01*
X117232285Y-82164285D01*
X117041809Y-82211904D01*
X116898952Y-82211904D01*
X116708476Y-82164285D01*
X116613238Y-82116666D01*
X116518000Y-82021428D01*
X116470380Y-81878571D01*
X116470380Y-81783333D01*
X116518000Y-81640476D01*
X116565619Y-81592857D01*
X116565619Y-81211904D02*
X116518000Y-81164285D01*
X116470380Y-81069047D01*
X116470380Y-80830952D01*
X116518000Y-80735714D01*
X116565619Y-80688095D01*
X116660857Y-80640476D01*
X116756095Y-80640476D01*
X116898952Y-80688095D01*
X117470380Y-81259523D01*
X117470380Y-80640476D01*
X116565619Y-80259523D02*
X116518000Y-80211904D01*
X116470380Y-80116666D01*
X116470380Y-79878571D01*
X116518000Y-79783333D01*
X116565619Y-79735714D01*
X116660857Y-79688095D01*
X116756095Y-79688095D01*
X116898952Y-79735714D01*
X117470380Y-80307142D01*
X117470380Y-79688095D01*
G04 #@! TO.C,C23*
X118137142Y-77528857D02*
X118184761Y-77576476D01*
X118232380Y-77719333D01*
X118232380Y-77814571D01*
X118184761Y-77957428D01*
X118089523Y-78052666D01*
X117994285Y-78100285D01*
X117803809Y-78147904D01*
X117660952Y-78147904D01*
X117470476Y-78100285D01*
X117375238Y-78052666D01*
X117280000Y-77957428D01*
X117232380Y-77814571D01*
X117232380Y-77719333D01*
X117280000Y-77576476D01*
X117327619Y-77528857D01*
X117327619Y-77147904D02*
X117280000Y-77100285D01*
X117232380Y-77005047D01*
X117232380Y-76766952D01*
X117280000Y-76671714D01*
X117327619Y-76624095D01*
X117422857Y-76576476D01*
X117518095Y-76576476D01*
X117660952Y-76624095D01*
X118232380Y-77195523D01*
X118232380Y-76576476D01*
X117232380Y-76243142D02*
X117232380Y-75624095D01*
X117613333Y-75957428D01*
X117613333Y-75814571D01*
X117660952Y-75719333D01*
X117708571Y-75671714D01*
X117803809Y-75624095D01*
X118041904Y-75624095D01*
X118137142Y-75671714D01*
X118184761Y-75719333D01*
X118232380Y-75814571D01*
X118232380Y-76100285D01*
X118184761Y-76195523D01*
X118137142Y-76243142D01*
G04 #@! TO.C,D1*
X79878380Y-137822095D02*
X78878380Y-137822095D01*
X78878380Y-137584000D01*
X78926000Y-137441142D01*
X79021238Y-137345904D01*
X79116476Y-137298285D01*
X79306952Y-137250666D01*
X79449809Y-137250666D01*
X79640285Y-137298285D01*
X79735523Y-137345904D01*
X79830761Y-137441142D01*
X79878380Y-137584000D01*
X79878380Y-137822095D01*
X79878380Y-136298285D02*
X79878380Y-136869714D01*
X79878380Y-136584000D02*
X78878380Y-136584000D01*
X79021238Y-136679238D01*
X79116476Y-136774476D01*
X79164095Y-136869714D01*
G04 #@! TO.C,D2*
X123391904Y-108072380D02*
X123391904Y-107072380D01*
X123630000Y-107072380D01*
X123772857Y-107120000D01*
X123868095Y-107215238D01*
X123915714Y-107310476D01*
X123963333Y-107500952D01*
X123963333Y-107643809D01*
X123915714Y-107834285D01*
X123868095Y-107929523D01*
X123772857Y-108024761D01*
X123630000Y-108072380D01*
X123391904Y-108072380D01*
X124344285Y-107167619D02*
X124391904Y-107120000D01*
X124487142Y-107072380D01*
X124725238Y-107072380D01*
X124820476Y-107120000D01*
X124868095Y-107167619D01*
X124915714Y-107262857D01*
X124915714Y-107358095D01*
X124868095Y-107500952D01*
X124296666Y-108072380D01*
X124915714Y-108072380D01*
G04 #@! TO.C,D3*
X123391904Y-105532380D02*
X123391904Y-104532380D01*
X123630000Y-104532380D01*
X123772857Y-104580000D01*
X123868095Y-104675238D01*
X123915714Y-104770476D01*
X123963333Y-104960952D01*
X123963333Y-105103809D01*
X123915714Y-105294285D01*
X123868095Y-105389523D01*
X123772857Y-105484761D01*
X123630000Y-105532380D01*
X123391904Y-105532380D01*
X124296666Y-104532380D02*
X124915714Y-104532380D01*
X124582380Y-104913333D01*
X124725238Y-104913333D01*
X124820476Y-104960952D01*
X124868095Y-105008571D01*
X124915714Y-105103809D01*
X124915714Y-105341904D01*
X124868095Y-105437142D01*
X124820476Y-105484761D01*
X124725238Y-105532380D01*
X124439523Y-105532380D01*
X124344285Y-105484761D01*
X124296666Y-105437142D01*
G04 #@! TO.C,D4*
X123391904Y-102992380D02*
X123391904Y-101992380D01*
X123630000Y-101992380D01*
X123772857Y-102040000D01*
X123868095Y-102135238D01*
X123915714Y-102230476D01*
X123963333Y-102420952D01*
X123963333Y-102563809D01*
X123915714Y-102754285D01*
X123868095Y-102849523D01*
X123772857Y-102944761D01*
X123630000Y-102992380D01*
X123391904Y-102992380D01*
X124820476Y-102325714D02*
X124820476Y-102992380D01*
X124582380Y-101944761D02*
X124344285Y-102659047D01*
X124963333Y-102659047D01*
G04 #@! TO.C,D5*
X87577904Y-130932380D02*
X87577904Y-129932380D01*
X87816000Y-129932380D01*
X87958857Y-129980000D01*
X88054095Y-130075238D01*
X88101714Y-130170476D01*
X88149333Y-130360952D01*
X88149333Y-130503809D01*
X88101714Y-130694285D01*
X88054095Y-130789523D01*
X87958857Y-130884761D01*
X87816000Y-130932380D01*
X87577904Y-130932380D01*
X89054095Y-129932380D02*
X88577904Y-129932380D01*
X88530285Y-130408571D01*
X88577904Y-130360952D01*
X88673142Y-130313333D01*
X88911238Y-130313333D01*
X89006476Y-130360952D01*
X89054095Y-130408571D01*
X89101714Y-130503809D01*
X89101714Y-130741904D01*
X89054095Y-130837142D01*
X89006476Y-130884761D01*
X88911238Y-130932380D01*
X88673142Y-130932380D01*
X88577904Y-130884761D01*
X88530285Y-130837142D01*
G04 #@! TO.C,D6*
X98928380Y-84482095D02*
X97928380Y-84482095D01*
X97928380Y-84244000D01*
X97976000Y-84101142D01*
X98071238Y-84005904D01*
X98166476Y-83958285D01*
X98356952Y-83910666D01*
X98499809Y-83910666D01*
X98690285Y-83958285D01*
X98785523Y-84005904D01*
X98880761Y-84101142D01*
X98928380Y-84244000D01*
X98928380Y-84482095D01*
X97928380Y-83053523D02*
X97928380Y-83244000D01*
X97976000Y-83339238D01*
X98023619Y-83386857D01*
X98166476Y-83482095D01*
X98356952Y-83529714D01*
X98737904Y-83529714D01*
X98833142Y-83482095D01*
X98880761Y-83434476D01*
X98928380Y-83339238D01*
X98928380Y-83148761D01*
X98880761Y-83053523D01*
X98833142Y-83005904D01*
X98737904Y-82958285D01*
X98499809Y-82958285D01*
X98404571Y-83005904D01*
X98356952Y-83053523D01*
X98309333Y-83148761D01*
X98309333Y-83339238D01*
X98356952Y-83434476D01*
X98404571Y-83482095D01*
X98499809Y-83529714D01*
G04 #@! TO.C,D7*
X83942380Y-84482095D02*
X82942380Y-84482095D01*
X82942380Y-84244000D01*
X82990000Y-84101142D01*
X83085238Y-84005904D01*
X83180476Y-83958285D01*
X83370952Y-83910666D01*
X83513809Y-83910666D01*
X83704285Y-83958285D01*
X83799523Y-84005904D01*
X83894761Y-84101142D01*
X83942380Y-84244000D01*
X83942380Y-84482095D01*
X82942380Y-83577333D02*
X82942380Y-82910666D01*
X83942380Y-83339238D01*
G04 #@! TO.C,D12*
X80497714Y-128392380D02*
X80497714Y-127392380D01*
X80735809Y-127392380D01*
X80878666Y-127440000D01*
X80973904Y-127535238D01*
X81021523Y-127630476D01*
X81069142Y-127820952D01*
X81069142Y-127963809D01*
X81021523Y-128154285D01*
X80973904Y-128249523D01*
X80878666Y-128344761D01*
X80735809Y-128392380D01*
X80497714Y-128392380D01*
X82021523Y-128392380D02*
X81450095Y-128392380D01*
X81735809Y-128392380D02*
X81735809Y-127392380D01*
X81640571Y-127535238D01*
X81545333Y-127630476D01*
X81450095Y-127678095D01*
X82402476Y-127487619D02*
X82450095Y-127440000D01*
X82545333Y-127392380D01*
X82783428Y-127392380D01*
X82878666Y-127440000D01*
X82926285Y-127487619D01*
X82973904Y-127582857D01*
X82973904Y-127678095D01*
X82926285Y-127820952D01*
X82354857Y-128392380D01*
X82973904Y-128392380D01*
G04 #@! TO.C,D13*
X77846380Y-82418285D02*
X76846380Y-82418285D01*
X76846380Y-82180190D01*
X76894000Y-82037333D01*
X76989238Y-81942095D01*
X77084476Y-81894476D01*
X77274952Y-81846857D01*
X77417809Y-81846857D01*
X77608285Y-81894476D01*
X77703523Y-81942095D01*
X77798761Y-82037333D01*
X77846380Y-82180190D01*
X77846380Y-82418285D01*
X77846380Y-80894476D02*
X77846380Y-81465904D01*
X77846380Y-81180190D02*
X76846380Y-81180190D01*
X76989238Y-81275428D01*
X77084476Y-81370666D01*
X77132095Y-81465904D01*
X76846380Y-80561142D02*
X76846380Y-79942095D01*
X77227333Y-80275428D01*
X77227333Y-80132571D01*
X77274952Y-80037333D01*
X77322571Y-79989714D01*
X77417809Y-79942095D01*
X77655904Y-79942095D01*
X77751142Y-79989714D01*
X77798761Y-80037333D01*
X77846380Y-80132571D01*
X77846380Y-80418285D01*
X77798761Y-80513523D01*
X77751142Y-80561142D01*
G04 #@! TO.C,J1*
X81124666Y-139330380D02*
X81124666Y-140044666D01*
X81077047Y-140187523D01*
X80981809Y-140282761D01*
X80838952Y-140330380D01*
X80743714Y-140330380D01*
X82124666Y-140330380D02*
X81553238Y-140330380D01*
X81838952Y-140330380D02*
X81838952Y-139330380D01*
X81743714Y-139473238D01*
X81648476Y-139568476D01*
X81553238Y-139616095D01*
G04 #@! TO.C,J3*
X100936666Y-139457380D02*
X100936666Y-140171666D01*
X100889047Y-140314523D01*
X100793809Y-140409761D01*
X100650952Y-140457380D01*
X100555714Y-140457380D01*
X101317619Y-139457380D02*
X101936666Y-139457380D01*
X101603333Y-139838333D01*
X101746190Y-139838333D01*
X101841428Y-139885952D01*
X101889047Y-139933571D01*
X101936666Y-140028809D01*
X101936666Y-140266904D01*
X101889047Y-140362142D01*
X101841428Y-140409761D01*
X101746190Y-140457380D01*
X101460476Y-140457380D01*
X101365238Y-140409761D01*
X101317619Y-140362142D01*
G04 #@! TO.C,J4*
X119351666Y-139457380D02*
X119351666Y-140171666D01*
X119304047Y-140314523D01*
X119208809Y-140409761D01*
X119065952Y-140457380D01*
X118970714Y-140457380D01*
X120256428Y-139790714D02*
X120256428Y-140457380D01*
X120018333Y-139409761D02*
X119780238Y-140124047D01*
X120399285Y-140124047D01*
G04 #@! TO.C,J5*
X121256666Y-129297380D02*
X121256666Y-130011666D01*
X121209047Y-130154523D01*
X121113809Y-130249761D01*
X120970952Y-130297380D01*
X120875714Y-130297380D01*
X122209047Y-129297380D02*
X121732857Y-129297380D01*
X121685238Y-129773571D01*
X121732857Y-129725952D01*
X121828095Y-129678333D01*
X122066190Y-129678333D01*
X122161428Y-129725952D01*
X122209047Y-129773571D01*
X122256666Y-129868809D01*
X122256666Y-130106904D01*
X122209047Y-130202142D01*
X122161428Y-130249761D01*
X122066190Y-130297380D01*
X121828095Y-130297380D01*
X121732857Y-130249761D01*
X121685238Y-130202142D01*
G04 #@! TO.C,J6*
X104111666Y-129297380D02*
X104111666Y-130011666D01*
X104064047Y-130154523D01*
X103968809Y-130249761D01*
X103825952Y-130297380D01*
X103730714Y-130297380D01*
X105016428Y-129297380D02*
X104825952Y-129297380D01*
X104730714Y-129345000D01*
X104683095Y-129392619D01*
X104587857Y-129535476D01*
X104540238Y-129725952D01*
X104540238Y-130106904D01*
X104587857Y-130202142D01*
X104635476Y-130249761D01*
X104730714Y-130297380D01*
X104921190Y-130297380D01*
X105016428Y-130249761D01*
X105064047Y-130202142D01*
X105111666Y-130106904D01*
X105111666Y-129868809D01*
X105064047Y-129773571D01*
X105016428Y-129725952D01*
X104921190Y-129678333D01*
X104730714Y-129678333D01*
X104635476Y-129725952D01*
X104587857Y-129773571D01*
X104540238Y-129868809D01*
G04 #@! TO.C,J7*
X72488666Y-80910380D02*
X72488666Y-81624666D01*
X72441047Y-81767523D01*
X72345809Y-81862761D01*
X72202952Y-81910380D01*
X72107714Y-81910380D01*
X72869619Y-80910380D02*
X73536285Y-80910380D01*
X73107714Y-81910380D01*
G04 #@! TO.C,J8*
X66646666Y-90816380D02*
X66646666Y-91530666D01*
X66599047Y-91673523D01*
X66503809Y-91768761D01*
X66360952Y-91816380D01*
X66265714Y-91816380D01*
X67265714Y-91244952D02*
X67170476Y-91197333D01*
X67122857Y-91149714D01*
X67075238Y-91054476D01*
X67075238Y-91006857D01*
X67122857Y-90911619D01*
X67170476Y-90864000D01*
X67265714Y-90816380D01*
X67456190Y-90816380D01*
X67551428Y-90864000D01*
X67599047Y-90911619D01*
X67646666Y-91006857D01*
X67646666Y-91054476D01*
X67599047Y-91149714D01*
X67551428Y-91197333D01*
X67456190Y-91244952D01*
X67265714Y-91244952D01*
X67170476Y-91292571D01*
X67122857Y-91340190D01*
X67075238Y-91435428D01*
X67075238Y-91625904D01*
X67122857Y-91721142D01*
X67170476Y-91768761D01*
X67265714Y-91816380D01*
X67456190Y-91816380D01*
X67551428Y-91768761D01*
X67599047Y-91721142D01*
X67646666Y-91625904D01*
X67646666Y-91435428D01*
X67599047Y-91340190D01*
X67551428Y-91292571D01*
X67456190Y-91244952D01*
G04 #@! TO.C,J9*
X130654666Y-80783380D02*
X130654666Y-81497666D01*
X130607047Y-81640523D01*
X130511809Y-81735761D01*
X130368952Y-81783380D01*
X130273714Y-81783380D01*
X131178476Y-81783380D02*
X131368952Y-81783380D01*
X131464190Y-81735761D01*
X131511809Y-81688142D01*
X131607047Y-81545285D01*
X131654666Y-81354809D01*
X131654666Y-80973857D01*
X131607047Y-80878619D01*
X131559428Y-80831000D01*
X131464190Y-80783380D01*
X131273714Y-80783380D01*
X131178476Y-80831000D01*
X131130857Y-80878619D01*
X131083238Y-80973857D01*
X131083238Y-81211952D01*
X131130857Y-81307190D01*
X131178476Y-81354809D01*
X131273714Y-81402428D01*
X131464190Y-81402428D01*
X131559428Y-81354809D01*
X131607047Y-81307190D01*
X131654666Y-81211952D01*
G04 #@! TO.C,Q1*
X113874761Y-70067619D02*
X113779523Y-70020000D01*
X113684285Y-69924761D01*
X113541428Y-69781904D01*
X113446190Y-69734285D01*
X113350952Y-69734285D01*
X113398571Y-69972380D02*
X113303333Y-69924761D01*
X113208095Y-69829523D01*
X113160476Y-69639047D01*
X113160476Y-69305714D01*
X113208095Y-69115238D01*
X113303333Y-69020000D01*
X113398571Y-68972380D01*
X113589047Y-68972380D01*
X113684285Y-69020000D01*
X113779523Y-69115238D01*
X113827142Y-69305714D01*
X113827142Y-69639047D01*
X113779523Y-69829523D01*
X113684285Y-69924761D01*
X113589047Y-69972380D01*
X113398571Y-69972380D01*
X114779523Y-69972380D02*
X114208095Y-69972380D01*
X114493809Y-69972380D02*
X114493809Y-68972380D01*
X114398571Y-69115238D01*
X114303333Y-69210476D01*
X114208095Y-69258095D01*
G04 #@! TO.C,Q2*
X102190761Y-70067619D02*
X102095523Y-70020000D01*
X102000285Y-69924761D01*
X101857428Y-69781904D01*
X101762190Y-69734285D01*
X101666952Y-69734285D01*
X101714571Y-69972380D02*
X101619333Y-69924761D01*
X101524095Y-69829523D01*
X101476476Y-69639047D01*
X101476476Y-69305714D01*
X101524095Y-69115238D01*
X101619333Y-69020000D01*
X101714571Y-68972380D01*
X101905047Y-68972380D01*
X102000285Y-69020000D01*
X102095523Y-69115238D01*
X102143142Y-69305714D01*
X102143142Y-69639047D01*
X102095523Y-69829523D01*
X102000285Y-69924761D01*
X101905047Y-69972380D01*
X101714571Y-69972380D01*
X102524095Y-69067619D02*
X102571714Y-69020000D01*
X102666952Y-68972380D01*
X102905047Y-68972380D01*
X103000285Y-69020000D01*
X103047904Y-69067619D01*
X103095523Y-69162857D01*
X103095523Y-69258095D01*
X103047904Y-69400952D01*
X102476476Y-69972380D01*
X103095523Y-69972380D01*
G04 #@! TO.C,Q3*
X89744761Y-70067619D02*
X89649523Y-70020000D01*
X89554285Y-69924761D01*
X89411428Y-69781904D01*
X89316190Y-69734285D01*
X89220952Y-69734285D01*
X89268571Y-69972380D02*
X89173333Y-69924761D01*
X89078095Y-69829523D01*
X89030476Y-69639047D01*
X89030476Y-69305714D01*
X89078095Y-69115238D01*
X89173333Y-69020000D01*
X89268571Y-68972380D01*
X89459047Y-68972380D01*
X89554285Y-69020000D01*
X89649523Y-69115238D01*
X89697142Y-69305714D01*
X89697142Y-69639047D01*
X89649523Y-69829523D01*
X89554285Y-69924761D01*
X89459047Y-69972380D01*
X89268571Y-69972380D01*
X90030476Y-68972380D02*
X90649523Y-68972380D01*
X90316190Y-69353333D01*
X90459047Y-69353333D01*
X90554285Y-69400952D01*
X90601904Y-69448571D01*
X90649523Y-69543809D01*
X90649523Y-69781904D01*
X90601904Y-69877142D01*
X90554285Y-69924761D01*
X90459047Y-69972380D01*
X90173333Y-69972380D01*
X90078095Y-69924761D01*
X90030476Y-69877142D01*
G04 #@! TO.C,Q4*
X78314761Y-70067619D02*
X78219523Y-70020000D01*
X78124285Y-69924761D01*
X77981428Y-69781904D01*
X77886190Y-69734285D01*
X77790952Y-69734285D01*
X77838571Y-69972380D02*
X77743333Y-69924761D01*
X77648095Y-69829523D01*
X77600476Y-69639047D01*
X77600476Y-69305714D01*
X77648095Y-69115238D01*
X77743333Y-69020000D01*
X77838571Y-68972380D01*
X78029047Y-68972380D01*
X78124285Y-69020000D01*
X78219523Y-69115238D01*
X78267142Y-69305714D01*
X78267142Y-69639047D01*
X78219523Y-69829523D01*
X78124285Y-69924761D01*
X78029047Y-69972380D01*
X77838571Y-69972380D01*
X79124285Y-69305714D02*
X79124285Y-69972380D01*
X78886190Y-68924761D02*
X78648095Y-69639047D01*
X79267142Y-69639047D01*
G04 #@! TO.C,R1*
X131583333Y-114168380D02*
X131250000Y-113692190D01*
X131011904Y-114168380D02*
X131011904Y-113168380D01*
X131392857Y-113168380D01*
X131488095Y-113216000D01*
X131535714Y-113263619D01*
X131583333Y-113358857D01*
X131583333Y-113501714D01*
X131535714Y-113596952D01*
X131488095Y-113644571D01*
X131392857Y-113692190D01*
X131011904Y-113692190D01*
X132535714Y-114168380D02*
X131964285Y-114168380D01*
X132250000Y-114168380D02*
X132250000Y-113168380D01*
X132154761Y-113311238D01*
X132059523Y-113406476D01*
X131964285Y-113454095D01*
G04 #@! TO.C,R2*
X122693333Y-124836380D02*
X122360000Y-124360190D01*
X122121904Y-124836380D02*
X122121904Y-123836380D01*
X122502857Y-123836380D01*
X122598095Y-123884000D01*
X122645714Y-123931619D01*
X122693333Y-124026857D01*
X122693333Y-124169714D01*
X122645714Y-124264952D01*
X122598095Y-124312571D01*
X122502857Y-124360190D01*
X122121904Y-124360190D01*
X123074285Y-123931619D02*
X123121904Y-123884000D01*
X123217142Y-123836380D01*
X123455238Y-123836380D01*
X123550476Y-123884000D01*
X123598095Y-123931619D01*
X123645714Y-124026857D01*
X123645714Y-124122095D01*
X123598095Y-124264952D01*
X123026666Y-124836380D01*
X123645714Y-124836380D01*
G04 #@! TO.C,R3*
X122693333Y-119756380D02*
X122360000Y-119280190D01*
X122121904Y-119756380D02*
X122121904Y-118756380D01*
X122502857Y-118756380D01*
X122598095Y-118804000D01*
X122645714Y-118851619D01*
X122693333Y-118946857D01*
X122693333Y-119089714D01*
X122645714Y-119184952D01*
X122598095Y-119232571D01*
X122502857Y-119280190D01*
X122121904Y-119280190D01*
X123026666Y-118756380D02*
X123645714Y-118756380D01*
X123312380Y-119137333D01*
X123455238Y-119137333D01*
X123550476Y-119184952D01*
X123598095Y-119232571D01*
X123645714Y-119327809D01*
X123645714Y-119565904D01*
X123598095Y-119661142D01*
X123550476Y-119708761D01*
X123455238Y-119756380D01*
X123169523Y-119756380D01*
X123074285Y-119708761D01*
X123026666Y-119661142D01*
G04 #@! TO.C,R4*
X134377333Y-108072380D02*
X134044000Y-107596190D01*
X133805904Y-108072380D02*
X133805904Y-107072380D01*
X134186857Y-107072380D01*
X134282095Y-107120000D01*
X134329714Y-107167619D01*
X134377333Y-107262857D01*
X134377333Y-107405714D01*
X134329714Y-107500952D01*
X134282095Y-107548571D01*
X134186857Y-107596190D01*
X133805904Y-107596190D01*
X135234476Y-107405714D02*
X135234476Y-108072380D01*
X134996380Y-107024761D02*
X134758285Y-107739047D01*
X135377333Y-107739047D01*
G04 #@! TO.C,R5*
X134377333Y-105532380D02*
X134044000Y-105056190D01*
X133805904Y-105532380D02*
X133805904Y-104532380D01*
X134186857Y-104532380D01*
X134282095Y-104580000D01*
X134329714Y-104627619D01*
X134377333Y-104722857D01*
X134377333Y-104865714D01*
X134329714Y-104960952D01*
X134282095Y-105008571D01*
X134186857Y-105056190D01*
X133805904Y-105056190D01*
X135282095Y-104532380D02*
X134805904Y-104532380D01*
X134758285Y-105008571D01*
X134805904Y-104960952D01*
X134901142Y-104913333D01*
X135139238Y-104913333D01*
X135234476Y-104960952D01*
X135282095Y-105008571D01*
X135329714Y-105103809D01*
X135329714Y-105341904D01*
X135282095Y-105437142D01*
X135234476Y-105484761D01*
X135139238Y-105532380D01*
X134901142Y-105532380D01*
X134805904Y-105484761D01*
X134758285Y-105437142D01*
G04 #@! TO.C,R6*
X134377333Y-102992380D02*
X134044000Y-102516190D01*
X133805904Y-102992380D02*
X133805904Y-101992380D01*
X134186857Y-101992380D01*
X134282095Y-102040000D01*
X134329714Y-102087619D01*
X134377333Y-102182857D01*
X134377333Y-102325714D01*
X134329714Y-102420952D01*
X134282095Y-102468571D01*
X134186857Y-102516190D01*
X133805904Y-102516190D01*
X135234476Y-101992380D02*
X135044000Y-101992380D01*
X134948761Y-102040000D01*
X134901142Y-102087619D01*
X134805904Y-102230476D01*
X134758285Y-102420952D01*
X134758285Y-102801904D01*
X134805904Y-102897142D01*
X134853523Y-102944761D01*
X134948761Y-102992380D01*
X135139238Y-102992380D01*
X135234476Y-102944761D01*
X135282095Y-102897142D01*
X135329714Y-102801904D01*
X135329714Y-102563809D01*
X135282095Y-102468571D01*
X135234476Y-102420952D01*
X135139238Y-102373333D01*
X134948761Y-102373333D01*
X134853523Y-102420952D01*
X134805904Y-102468571D01*
X134758285Y-102563809D01*
G04 #@! TO.C,R9*
X116962380Y-125566666D02*
X116486190Y-125900000D01*
X116962380Y-126138095D02*
X115962380Y-126138095D01*
X115962380Y-125757142D01*
X116010000Y-125661904D01*
X116057619Y-125614285D01*
X116152857Y-125566666D01*
X116295714Y-125566666D01*
X116390952Y-125614285D01*
X116438571Y-125661904D01*
X116486190Y-125757142D01*
X116486190Y-126138095D01*
X116962380Y-125090476D02*
X116962380Y-124900000D01*
X116914761Y-124804761D01*
X116867142Y-124757142D01*
X116724285Y-124661904D01*
X116533809Y-124614285D01*
X116152857Y-124614285D01*
X116057619Y-124661904D01*
X116010000Y-124709523D01*
X115962380Y-124804761D01*
X115962380Y-124995238D01*
X116010000Y-125090476D01*
X116057619Y-125138095D01*
X116152857Y-125185714D01*
X116390952Y-125185714D01*
X116486190Y-125138095D01*
X116533809Y-125090476D01*
X116581428Y-124995238D01*
X116581428Y-124804761D01*
X116533809Y-124709523D01*
X116486190Y-124661904D01*
X116390952Y-124614285D01*
G04 #@! TO.C,R10*
X119502380Y-125407857D02*
X119026190Y-125741190D01*
X119502380Y-125979285D02*
X118502380Y-125979285D01*
X118502380Y-125598333D01*
X118550000Y-125503095D01*
X118597619Y-125455476D01*
X118692857Y-125407857D01*
X118835714Y-125407857D01*
X118930952Y-125455476D01*
X118978571Y-125503095D01*
X119026190Y-125598333D01*
X119026190Y-125979285D01*
X119502380Y-124455476D02*
X119502380Y-125026904D01*
X119502380Y-124741190D02*
X118502380Y-124741190D01*
X118645238Y-124836428D01*
X118740476Y-124931666D01*
X118788095Y-125026904D01*
X118502380Y-123836428D02*
X118502380Y-123741190D01*
X118550000Y-123645952D01*
X118597619Y-123598333D01*
X118692857Y-123550714D01*
X118883333Y-123503095D01*
X119121428Y-123503095D01*
X119311904Y-123550714D01*
X119407142Y-123598333D01*
X119454761Y-123645952D01*
X119502380Y-123741190D01*
X119502380Y-123836428D01*
X119454761Y-123931666D01*
X119407142Y-123979285D01*
X119311904Y-124026904D01*
X119121428Y-124074523D01*
X118883333Y-124074523D01*
X118692857Y-124026904D01*
X118597619Y-123979285D01*
X118550000Y-123931666D01*
X118502380Y-123836428D01*
G04 #@! TO.C,R11*
X104008380Y-120962857D02*
X103532190Y-121296190D01*
X104008380Y-121534285D02*
X103008380Y-121534285D01*
X103008380Y-121153333D01*
X103056000Y-121058095D01*
X103103619Y-121010476D01*
X103198857Y-120962857D01*
X103341714Y-120962857D01*
X103436952Y-121010476D01*
X103484571Y-121058095D01*
X103532190Y-121153333D01*
X103532190Y-121534285D01*
X104008380Y-120010476D02*
X104008380Y-120581904D01*
X104008380Y-120296190D02*
X103008380Y-120296190D01*
X103151238Y-120391428D01*
X103246476Y-120486666D01*
X103294095Y-120581904D01*
X104008380Y-119058095D02*
X104008380Y-119629523D01*
X104008380Y-119343809D02*
X103008380Y-119343809D01*
X103151238Y-119439047D01*
X103246476Y-119534285D01*
X103294095Y-119629523D01*
G04 #@! TO.C,R12*
X109522380Y-113342857D02*
X109046190Y-113676190D01*
X109522380Y-113914285D02*
X108522380Y-113914285D01*
X108522380Y-113533333D01*
X108570000Y-113438095D01*
X108617619Y-113390476D01*
X108712857Y-113342857D01*
X108855714Y-113342857D01*
X108950952Y-113390476D01*
X108998571Y-113438095D01*
X109046190Y-113533333D01*
X109046190Y-113914285D01*
X109522380Y-112390476D02*
X109522380Y-112961904D01*
X109522380Y-112676190D02*
X108522380Y-112676190D01*
X108665238Y-112771428D01*
X108760476Y-112866666D01*
X108808095Y-112961904D01*
X108617619Y-112009523D02*
X108570000Y-111961904D01*
X108522380Y-111866666D01*
X108522380Y-111628571D01*
X108570000Y-111533333D01*
X108617619Y-111485714D01*
X108712857Y-111438095D01*
X108808095Y-111438095D01*
X108950952Y-111485714D01*
X109522380Y-112057142D01*
X109522380Y-111438095D01*
G04 #@! TO.C,R13*
X102913142Y-96388380D02*
X102579809Y-95912190D01*
X102341714Y-96388380D02*
X102341714Y-95388380D01*
X102722666Y-95388380D01*
X102817904Y-95436000D01*
X102865523Y-95483619D01*
X102913142Y-95578857D01*
X102913142Y-95721714D01*
X102865523Y-95816952D01*
X102817904Y-95864571D01*
X102722666Y-95912190D01*
X102341714Y-95912190D01*
X103865523Y-96388380D02*
X103294095Y-96388380D01*
X103579809Y-96388380D02*
X103579809Y-95388380D01*
X103484571Y-95531238D01*
X103389333Y-95626476D01*
X103294095Y-95674095D01*
X104198857Y-95388380D02*
X104817904Y-95388380D01*
X104484571Y-95769333D01*
X104627428Y-95769333D01*
X104722666Y-95816952D01*
X104770285Y-95864571D01*
X104817904Y-95959809D01*
X104817904Y-96197904D01*
X104770285Y-96293142D01*
X104722666Y-96340761D01*
X104627428Y-96388380D01*
X104341714Y-96388380D01*
X104246476Y-96340761D01*
X104198857Y-96293142D01*
G04 #@! TO.C,R14*
X94912142Y-96388380D02*
X94578809Y-95912190D01*
X94340714Y-96388380D02*
X94340714Y-95388380D01*
X94721666Y-95388380D01*
X94816904Y-95436000D01*
X94864523Y-95483619D01*
X94912142Y-95578857D01*
X94912142Y-95721714D01*
X94864523Y-95816952D01*
X94816904Y-95864571D01*
X94721666Y-95912190D01*
X94340714Y-95912190D01*
X95864523Y-96388380D02*
X95293095Y-96388380D01*
X95578809Y-96388380D02*
X95578809Y-95388380D01*
X95483571Y-95531238D01*
X95388333Y-95626476D01*
X95293095Y-95674095D01*
X96721666Y-95721714D02*
X96721666Y-96388380D01*
X96483571Y-95340761D02*
X96245476Y-96055047D01*
X96864523Y-96055047D01*
G04 #@! TO.C,R15*
X87419142Y-96388380D02*
X87085809Y-95912190D01*
X86847714Y-96388380D02*
X86847714Y-95388380D01*
X87228666Y-95388380D01*
X87323904Y-95436000D01*
X87371523Y-95483619D01*
X87419142Y-95578857D01*
X87419142Y-95721714D01*
X87371523Y-95816952D01*
X87323904Y-95864571D01*
X87228666Y-95912190D01*
X86847714Y-95912190D01*
X88371523Y-96388380D02*
X87800095Y-96388380D01*
X88085809Y-96388380D02*
X88085809Y-95388380D01*
X87990571Y-95531238D01*
X87895333Y-95626476D01*
X87800095Y-95674095D01*
X89276285Y-95388380D02*
X88800095Y-95388380D01*
X88752476Y-95864571D01*
X88800095Y-95816952D01*
X88895333Y-95769333D01*
X89133428Y-95769333D01*
X89228666Y-95816952D01*
X89276285Y-95864571D01*
X89323904Y-95959809D01*
X89323904Y-96197904D01*
X89276285Y-96293142D01*
X89228666Y-96340761D01*
X89133428Y-96388380D01*
X88895333Y-96388380D01*
X88800095Y-96340761D01*
X88752476Y-96293142D01*
G04 #@! TO.C,R16*
X79545142Y-96388380D02*
X79211809Y-95912190D01*
X78973714Y-96388380D02*
X78973714Y-95388380D01*
X79354666Y-95388380D01*
X79449904Y-95436000D01*
X79497523Y-95483619D01*
X79545142Y-95578857D01*
X79545142Y-95721714D01*
X79497523Y-95816952D01*
X79449904Y-95864571D01*
X79354666Y-95912190D01*
X78973714Y-95912190D01*
X80497523Y-96388380D02*
X79926095Y-96388380D01*
X80211809Y-96388380D02*
X80211809Y-95388380D01*
X80116571Y-95531238D01*
X80021333Y-95626476D01*
X79926095Y-95674095D01*
X81354666Y-95388380D02*
X81164190Y-95388380D01*
X81068952Y-95436000D01*
X81021333Y-95483619D01*
X80926095Y-95626476D01*
X80878476Y-95816952D01*
X80878476Y-96197904D01*
X80926095Y-96293142D01*
X80973714Y-96340761D01*
X81068952Y-96388380D01*
X81259428Y-96388380D01*
X81354666Y-96340761D01*
X81402285Y-96293142D01*
X81449904Y-96197904D01*
X81449904Y-95959809D01*
X81402285Y-95864571D01*
X81354666Y-95816952D01*
X81259428Y-95769333D01*
X81068952Y-95769333D01*
X80973714Y-95816952D01*
X80926095Y-95864571D01*
X80878476Y-95959809D01*
G04 #@! TO.C,R17*
X105961142Y-93086380D02*
X105627809Y-92610190D01*
X105389714Y-93086380D02*
X105389714Y-92086380D01*
X105770666Y-92086380D01*
X105865904Y-92134000D01*
X105913523Y-92181619D01*
X105961142Y-92276857D01*
X105961142Y-92419714D01*
X105913523Y-92514952D01*
X105865904Y-92562571D01*
X105770666Y-92610190D01*
X105389714Y-92610190D01*
X106913523Y-93086380D02*
X106342095Y-93086380D01*
X106627809Y-93086380D02*
X106627809Y-92086380D01*
X106532571Y-92229238D01*
X106437333Y-92324476D01*
X106342095Y-92372095D01*
X107246857Y-92086380D02*
X107913523Y-92086380D01*
X107484952Y-93086380D01*
G04 #@! TO.C,R18*
X98595142Y-94610380D02*
X98261809Y-94134190D01*
X98023714Y-94610380D02*
X98023714Y-93610380D01*
X98404666Y-93610380D01*
X98499904Y-93658000D01*
X98547523Y-93705619D01*
X98595142Y-93800857D01*
X98595142Y-93943714D01*
X98547523Y-94038952D01*
X98499904Y-94086571D01*
X98404666Y-94134190D01*
X98023714Y-94134190D01*
X99547523Y-94610380D02*
X98976095Y-94610380D01*
X99261809Y-94610380D02*
X99261809Y-93610380D01*
X99166571Y-93753238D01*
X99071333Y-93848476D01*
X98976095Y-93896095D01*
X100118952Y-94038952D02*
X100023714Y-93991333D01*
X99976095Y-93943714D01*
X99928476Y-93848476D01*
X99928476Y-93800857D01*
X99976095Y-93705619D01*
X100023714Y-93658000D01*
X100118952Y-93610380D01*
X100309428Y-93610380D01*
X100404666Y-93658000D01*
X100452285Y-93705619D01*
X100499904Y-93800857D01*
X100499904Y-93848476D01*
X100452285Y-93943714D01*
X100404666Y-93991333D01*
X100309428Y-94038952D01*
X100118952Y-94038952D01*
X100023714Y-94086571D01*
X99976095Y-94134190D01*
X99928476Y-94229428D01*
X99928476Y-94419904D01*
X99976095Y-94515142D01*
X100023714Y-94562761D01*
X100118952Y-94610380D01*
X100309428Y-94610380D01*
X100404666Y-94562761D01*
X100452285Y-94515142D01*
X100499904Y-94419904D01*
X100499904Y-94229428D01*
X100452285Y-94134190D01*
X100404666Y-94086571D01*
X100309428Y-94038952D01*
G04 #@! TO.C,R19*
X90721142Y-92832380D02*
X90387809Y-92356190D01*
X90149714Y-92832380D02*
X90149714Y-91832380D01*
X90530666Y-91832380D01*
X90625904Y-91880000D01*
X90673523Y-91927619D01*
X90721142Y-92022857D01*
X90721142Y-92165714D01*
X90673523Y-92260952D01*
X90625904Y-92308571D01*
X90530666Y-92356190D01*
X90149714Y-92356190D01*
X91673523Y-92832380D02*
X91102095Y-92832380D01*
X91387809Y-92832380D02*
X91387809Y-91832380D01*
X91292571Y-91975238D01*
X91197333Y-92070476D01*
X91102095Y-92118095D01*
X92149714Y-92832380D02*
X92340190Y-92832380D01*
X92435428Y-92784761D01*
X92483047Y-92737142D01*
X92578285Y-92594285D01*
X92625904Y-92403809D01*
X92625904Y-92022857D01*
X92578285Y-91927619D01*
X92530666Y-91880000D01*
X92435428Y-91832380D01*
X92244952Y-91832380D01*
X92149714Y-91880000D01*
X92102095Y-91927619D01*
X92054476Y-92022857D01*
X92054476Y-92260952D01*
X92102095Y-92356190D01*
X92149714Y-92403809D01*
X92244952Y-92451428D01*
X92435428Y-92451428D01*
X92530666Y-92403809D01*
X92578285Y-92356190D01*
X92625904Y-92260952D01*
G04 #@! TO.C,R20*
X76243142Y-92832380D02*
X75909809Y-92356190D01*
X75671714Y-92832380D02*
X75671714Y-91832380D01*
X76052666Y-91832380D01*
X76147904Y-91880000D01*
X76195523Y-91927619D01*
X76243142Y-92022857D01*
X76243142Y-92165714D01*
X76195523Y-92260952D01*
X76147904Y-92308571D01*
X76052666Y-92356190D01*
X75671714Y-92356190D01*
X76624095Y-91927619D02*
X76671714Y-91880000D01*
X76766952Y-91832380D01*
X77005047Y-91832380D01*
X77100285Y-91880000D01*
X77147904Y-91927619D01*
X77195523Y-92022857D01*
X77195523Y-92118095D01*
X77147904Y-92260952D01*
X76576476Y-92832380D01*
X77195523Y-92832380D01*
X77814571Y-91832380D02*
X77909809Y-91832380D01*
X78005047Y-91880000D01*
X78052666Y-91927619D01*
X78100285Y-92022857D01*
X78147904Y-92213333D01*
X78147904Y-92451428D01*
X78100285Y-92641904D01*
X78052666Y-92737142D01*
X78005047Y-92784761D01*
X77909809Y-92832380D01*
X77814571Y-92832380D01*
X77719333Y-92784761D01*
X77671714Y-92737142D01*
X77624095Y-92641904D01*
X77576476Y-92451428D01*
X77576476Y-92213333D01*
X77624095Y-92022857D01*
X77671714Y-91927619D01*
X77719333Y-91880000D01*
X77814571Y-91832380D01*
G04 #@! TO.C,R21*
X108502380Y-80322857D02*
X108026190Y-80656190D01*
X108502380Y-80894285D02*
X107502380Y-80894285D01*
X107502380Y-80513333D01*
X107550000Y-80418095D01*
X107597619Y-80370476D01*
X107692857Y-80322857D01*
X107835714Y-80322857D01*
X107930952Y-80370476D01*
X107978571Y-80418095D01*
X108026190Y-80513333D01*
X108026190Y-80894285D01*
X107597619Y-79941904D02*
X107550000Y-79894285D01*
X107502380Y-79799047D01*
X107502380Y-79560952D01*
X107550000Y-79465714D01*
X107597619Y-79418095D01*
X107692857Y-79370476D01*
X107788095Y-79370476D01*
X107930952Y-79418095D01*
X108502380Y-79989523D01*
X108502380Y-79370476D01*
X108502380Y-78418095D02*
X108502380Y-78989523D01*
X108502380Y-78703809D02*
X107502380Y-78703809D01*
X107645238Y-78799047D01*
X107740476Y-78894285D01*
X107788095Y-78989523D01*
G04 #@! TO.C,R22*
X100882380Y-80322857D02*
X100406190Y-80656190D01*
X100882380Y-80894285D02*
X99882380Y-80894285D01*
X99882380Y-80513333D01*
X99930000Y-80418095D01*
X99977619Y-80370476D01*
X100072857Y-80322857D01*
X100215714Y-80322857D01*
X100310952Y-80370476D01*
X100358571Y-80418095D01*
X100406190Y-80513333D01*
X100406190Y-80894285D01*
X99977619Y-79941904D02*
X99930000Y-79894285D01*
X99882380Y-79799047D01*
X99882380Y-79560952D01*
X99930000Y-79465714D01*
X99977619Y-79418095D01*
X100072857Y-79370476D01*
X100168095Y-79370476D01*
X100310952Y-79418095D01*
X100882380Y-79989523D01*
X100882380Y-79370476D01*
X99977619Y-78989523D02*
X99930000Y-78941904D01*
X99882380Y-78846666D01*
X99882380Y-78608571D01*
X99930000Y-78513333D01*
X99977619Y-78465714D01*
X100072857Y-78418095D01*
X100168095Y-78418095D01*
X100310952Y-78465714D01*
X100882380Y-79037142D01*
X100882380Y-78418095D01*
G04 #@! TO.C,R23*
X93262380Y-78290857D02*
X92786190Y-78624190D01*
X93262380Y-78862285D02*
X92262380Y-78862285D01*
X92262380Y-78481333D01*
X92310000Y-78386095D01*
X92357619Y-78338476D01*
X92452857Y-78290857D01*
X92595714Y-78290857D01*
X92690952Y-78338476D01*
X92738571Y-78386095D01*
X92786190Y-78481333D01*
X92786190Y-78862285D01*
X92357619Y-77909904D02*
X92310000Y-77862285D01*
X92262380Y-77767047D01*
X92262380Y-77528952D01*
X92310000Y-77433714D01*
X92357619Y-77386095D01*
X92452857Y-77338476D01*
X92548095Y-77338476D01*
X92690952Y-77386095D01*
X93262380Y-77957523D01*
X93262380Y-77338476D01*
X92262380Y-77005142D02*
X92262380Y-76386095D01*
X92643333Y-76719428D01*
X92643333Y-76576571D01*
X92690952Y-76481333D01*
X92738571Y-76433714D01*
X92833809Y-76386095D01*
X93071904Y-76386095D01*
X93167142Y-76433714D01*
X93214761Y-76481333D01*
X93262380Y-76576571D01*
X93262380Y-76862285D01*
X93214761Y-76957523D01*
X93167142Y-77005142D01*
G04 #@! TO.C,R24*
X85642380Y-80322857D02*
X85166190Y-80656190D01*
X85642380Y-80894285D02*
X84642380Y-80894285D01*
X84642380Y-80513333D01*
X84690000Y-80418095D01*
X84737619Y-80370476D01*
X84832857Y-80322857D01*
X84975714Y-80322857D01*
X85070952Y-80370476D01*
X85118571Y-80418095D01*
X85166190Y-80513333D01*
X85166190Y-80894285D01*
X84737619Y-79941904D02*
X84690000Y-79894285D01*
X84642380Y-79799047D01*
X84642380Y-79560952D01*
X84690000Y-79465714D01*
X84737619Y-79418095D01*
X84832857Y-79370476D01*
X84928095Y-79370476D01*
X85070952Y-79418095D01*
X85642380Y-79989523D01*
X85642380Y-79370476D01*
X84975714Y-78513333D02*
X85642380Y-78513333D01*
X84594761Y-78751428D02*
X85309047Y-78989523D01*
X85309047Y-78370476D01*
G04 #@! TO.C,R25*
X113581142Y-74544380D02*
X113247809Y-74068190D01*
X113009714Y-74544380D02*
X113009714Y-73544380D01*
X113390666Y-73544380D01*
X113485904Y-73592000D01*
X113533523Y-73639619D01*
X113581142Y-73734857D01*
X113581142Y-73877714D01*
X113533523Y-73972952D01*
X113485904Y-74020571D01*
X113390666Y-74068190D01*
X113009714Y-74068190D01*
X113962095Y-73639619D02*
X114009714Y-73592000D01*
X114104952Y-73544380D01*
X114343047Y-73544380D01*
X114438285Y-73592000D01*
X114485904Y-73639619D01*
X114533523Y-73734857D01*
X114533523Y-73830095D01*
X114485904Y-73972952D01*
X113914476Y-74544380D01*
X114533523Y-74544380D01*
X115438285Y-73544380D02*
X114962095Y-73544380D01*
X114914476Y-74020571D01*
X114962095Y-73972952D01*
X115057333Y-73925333D01*
X115295428Y-73925333D01*
X115390666Y-73972952D01*
X115438285Y-74020571D01*
X115485904Y-74115809D01*
X115485904Y-74353904D01*
X115438285Y-74449142D01*
X115390666Y-74496761D01*
X115295428Y-74544380D01*
X115057333Y-74544380D01*
X114962095Y-74496761D01*
X114914476Y-74449142D01*
G04 #@! TO.C,R26*
X105707142Y-76068380D02*
X105373809Y-75592190D01*
X105135714Y-76068380D02*
X105135714Y-75068380D01*
X105516666Y-75068380D01*
X105611904Y-75116000D01*
X105659523Y-75163619D01*
X105707142Y-75258857D01*
X105707142Y-75401714D01*
X105659523Y-75496952D01*
X105611904Y-75544571D01*
X105516666Y-75592190D01*
X105135714Y-75592190D01*
X106088095Y-75163619D02*
X106135714Y-75116000D01*
X106230952Y-75068380D01*
X106469047Y-75068380D01*
X106564285Y-75116000D01*
X106611904Y-75163619D01*
X106659523Y-75258857D01*
X106659523Y-75354095D01*
X106611904Y-75496952D01*
X106040476Y-76068380D01*
X106659523Y-76068380D01*
X107516666Y-75068380D02*
X107326190Y-75068380D01*
X107230952Y-75116000D01*
X107183333Y-75163619D01*
X107088095Y-75306476D01*
X107040476Y-75496952D01*
X107040476Y-75877904D01*
X107088095Y-75973142D01*
X107135714Y-76020761D01*
X107230952Y-76068380D01*
X107421428Y-76068380D01*
X107516666Y-76020761D01*
X107564285Y-75973142D01*
X107611904Y-75877904D01*
X107611904Y-75639809D01*
X107564285Y-75544571D01*
X107516666Y-75496952D01*
X107421428Y-75449333D01*
X107230952Y-75449333D01*
X107135714Y-75496952D01*
X107088095Y-75544571D01*
X107040476Y-75639809D01*
G04 #@! TO.C,R27*
X93007142Y-76068380D02*
X92673809Y-75592190D01*
X92435714Y-76068380D02*
X92435714Y-75068380D01*
X92816666Y-75068380D01*
X92911904Y-75116000D01*
X92959523Y-75163619D01*
X93007142Y-75258857D01*
X93007142Y-75401714D01*
X92959523Y-75496952D01*
X92911904Y-75544571D01*
X92816666Y-75592190D01*
X92435714Y-75592190D01*
X93388095Y-75163619D02*
X93435714Y-75116000D01*
X93530952Y-75068380D01*
X93769047Y-75068380D01*
X93864285Y-75116000D01*
X93911904Y-75163619D01*
X93959523Y-75258857D01*
X93959523Y-75354095D01*
X93911904Y-75496952D01*
X93340476Y-76068380D01*
X93959523Y-76068380D01*
X94292857Y-75068380D02*
X94959523Y-75068380D01*
X94530952Y-76068380D01*
G04 #@! TO.C,R28*
X81577142Y-75867380D02*
X81243809Y-75391190D01*
X81005714Y-75867380D02*
X81005714Y-74867380D01*
X81386666Y-74867380D01*
X81481904Y-74915000D01*
X81529523Y-74962619D01*
X81577142Y-75057857D01*
X81577142Y-75200714D01*
X81529523Y-75295952D01*
X81481904Y-75343571D01*
X81386666Y-75391190D01*
X81005714Y-75391190D01*
X81958095Y-74962619D02*
X82005714Y-74915000D01*
X82100952Y-74867380D01*
X82339047Y-74867380D01*
X82434285Y-74915000D01*
X82481904Y-74962619D01*
X82529523Y-75057857D01*
X82529523Y-75153095D01*
X82481904Y-75295952D01*
X81910476Y-75867380D01*
X82529523Y-75867380D01*
X83100952Y-75295952D02*
X83005714Y-75248333D01*
X82958095Y-75200714D01*
X82910476Y-75105476D01*
X82910476Y-75057857D01*
X82958095Y-74962619D01*
X83005714Y-74915000D01*
X83100952Y-74867380D01*
X83291428Y-74867380D01*
X83386666Y-74915000D01*
X83434285Y-74962619D01*
X83481904Y-75057857D01*
X83481904Y-75105476D01*
X83434285Y-75200714D01*
X83386666Y-75248333D01*
X83291428Y-75295952D01*
X83100952Y-75295952D01*
X83005714Y-75343571D01*
X82958095Y-75391190D01*
X82910476Y-75486428D01*
X82910476Y-75676904D01*
X82958095Y-75772142D01*
X83005714Y-75819761D01*
X83100952Y-75867380D01*
X83291428Y-75867380D01*
X83386666Y-75819761D01*
X83434285Y-75772142D01*
X83481904Y-75676904D01*
X83481904Y-75486428D01*
X83434285Y-75391190D01*
X83386666Y-75343571D01*
X83291428Y-75295952D01*
G04 #@! TO.C,R29*
X124328380Y-93022857D02*
X123852190Y-93356190D01*
X124328380Y-93594285D02*
X123328380Y-93594285D01*
X123328380Y-93213333D01*
X123376000Y-93118095D01*
X123423619Y-93070476D01*
X123518857Y-93022857D01*
X123661714Y-93022857D01*
X123756952Y-93070476D01*
X123804571Y-93118095D01*
X123852190Y-93213333D01*
X123852190Y-93594285D01*
X123423619Y-92641904D02*
X123376000Y-92594285D01*
X123328380Y-92499047D01*
X123328380Y-92260952D01*
X123376000Y-92165714D01*
X123423619Y-92118095D01*
X123518857Y-92070476D01*
X123614095Y-92070476D01*
X123756952Y-92118095D01*
X124328380Y-92689523D01*
X124328380Y-92070476D01*
X124328380Y-91594285D02*
X124328380Y-91403809D01*
X124280761Y-91308571D01*
X124233142Y-91260952D01*
X124090285Y-91165714D01*
X123899809Y-91118095D01*
X123518857Y-91118095D01*
X123423619Y-91165714D01*
X123376000Y-91213333D01*
X123328380Y-91308571D01*
X123328380Y-91499047D01*
X123376000Y-91594285D01*
X123423619Y-91641904D01*
X123518857Y-91689523D01*
X123756952Y-91689523D01*
X123852190Y-91641904D01*
X123899809Y-91594285D01*
X123947428Y-91499047D01*
X123947428Y-91308571D01*
X123899809Y-91213333D01*
X123852190Y-91165714D01*
X123756952Y-91118095D01*
G04 #@! TO.C,R30*
X126106380Y-82100857D02*
X125630190Y-82434190D01*
X126106380Y-82672285D02*
X125106380Y-82672285D01*
X125106380Y-82291333D01*
X125154000Y-82196095D01*
X125201619Y-82148476D01*
X125296857Y-82100857D01*
X125439714Y-82100857D01*
X125534952Y-82148476D01*
X125582571Y-82196095D01*
X125630190Y-82291333D01*
X125630190Y-82672285D01*
X125106380Y-81767523D02*
X125106380Y-81148476D01*
X125487333Y-81481809D01*
X125487333Y-81338952D01*
X125534952Y-81243714D01*
X125582571Y-81196095D01*
X125677809Y-81148476D01*
X125915904Y-81148476D01*
X126011142Y-81196095D01*
X126058761Y-81243714D01*
X126106380Y-81338952D01*
X126106380Y-81624666D01*
X126058761Y-81719904D01*
X126011142Y-81767523D01*
X125106380Y-80529428D02*
X125106380Y-80434190D01*
X125154000Y-80338952D01*
X125201619Y-80291333D01*
X125296857Y-80243714D01*
X125487333Y-80196095D01*
X125725428Y-80196095D01*
X125915904Y-80243714D01*
X126011142Y-80291333D01*
X126058761Y-80338952D01*
X126106380Y-80434190D01*
X126106380Y-80529428D01*
X126058761Y-80624666D01*
X126011142Y-80672285D01*
X125915904Y-80719904D01*
X125725428Y-80767523D01*
X125487333Y-80767523D01*
X125296857Y-80719904D01*
X125201619Y-80672285D01*
X125154000Y-80624666D01*
X125106380Y-80529428D01*
G04 #@! TO.C,R31*
X120772380Y-77274857D02*
X120296190Y-77608190D01*
X120772380Y-77846285D02*
X119772380Y-77846285D01*
X119772380Y-77465333D01*
X119820000Y-77370095D01*
X119867619Y-77322476D01*
X119962857Y-77274857D01*
X120105714Y-77274857D01*
X120200952Y-77322476D01*
X120248571Y-77370095D01*
X120296190Y-77465333D01*
X120296190Y-77846285D01*
X119772380Y-76941523D02*
X119772380Y-76322476D01*
X120153333Y-76655809D01*
X120153333Y-76512952D01*
X120200952Y-76417714D01*
X120248571Y-76370095D01*
X120343809Y-76322476D01*
X120581904Y-76322476D01*
X120677142Y-76370095D01*
X120724761Y-76417714D01*
X120772380Y-76512952D01*
X120772380Y-76798666D01*
X120724761Y-76893904D01*
X120677142Y-76941523D01*
X120772380Y-75370095D02*
X120772380Y-75941523D01*
X120772380Y-75655809D02*
X119772380Y-75655809D01*
X119915238Y-75751047D01*
X120010476Y-75846285D01*
X120058095Y-75941523D01*
G04 #@! TO.C,R32*
X123058380Y-73718857D02*
X122582190Y-74052190D01*
X123058380Y-74290285D02*
X122058380Y-74290285D01*
X122058380Y-73909333D01*
X122106000Y-73814095D01*
X122153619Y-73766476D01*
X122248857Y-73718857D01*
X122391714Y-73718857D01*
X122486952Y-73766476D01*
X122534571Y-73814095D01*
X122582190Y-73909333D01*
X122582190Y-74290285D01*
X122058380Y-73385523D02*
X122058380Y-72766476D01*
X122439333Y-73099809D01*
X122439333Y-72956952D01*
X122486952Y-72861714D01*
X122534571Y-72814095D01*
X122629809Y-72766476D01*
X122867904Y-72766476D01*
X122963142Y-72814095D01*
X123010761Y-72861714D01*
X123058380Y-72956952D01*
X123058380Y-73242666D01*
X123010761Y-73337904D01*
X122963142Y-73385523D01*
X122153619Y-72385523D02*
X122106000Y-72337904D01*
X122058380Y-72242666D01*
X122058380Y-72004571D01*
X122106000Y-71909333D01*
X122153619Y-71861714D01*
X122248857Y-71814095D01*
X122344095Y-71814095D01*
X122486952Y-71861714D01*
X123058380Y-72433142D01*
X123058380Y-71814095D01*
G04 #@! TO.C,R33*
X126106380Y-77147857D02*
X125630190Y-77481190D01*
X126106380Y-77719285D02*
X125106380Y-77719285D01*
X125106380Y-77338333D01*
X125154000Y-77243095D01*
X125201619Y-77195476D01*
X125296857Y-77147857D01*
X125439714Y-77147857D01*
X125534952Y-77195476D01*
X125582571Y-77243095D01*
X125630190Y-77338333D01*
X125630190Y-77719285D01*
X125106380Y-76814523D02*
X125106380Y-76195476D01*
X125487333Y-76528809D01*
X125487333Y-76385952D01*
X125534952Y-76290714D01*
X125582571Y-76243095D01*
X125677809Y-76195476D01*
X125915904Y-76195476D01*
X126011142Y-76243095D01*
X126058761Y-76290714D01*
X126106380Y-76385952D01*
X126106380Y-76671666D01*
X126058761Y-76766904D01*
X126011142Y-76814523D01*
X125106380Y-75862142D02*
X125106380Y-75243095D01*
X125487333Y-75576428D01*
X125487333Y-75433571D01*
X125534952Y-75338333D01*
X125582571Y-75290714D01*
X125677809Y-75243095D01*
X125915904Y-75243095D01*
X126011142Y-75290714D01*
X126058761Y-75338333D01*
X126106380Y-75433571D01*
X126106380Y-75719285D01*
X126058761Y-75814523D01*
X126011142Y-75862142D01*
G04 #@! TO.C,R34*
X81069142Y-132710380D02*
X80735809Y-132234190D01*
X80497714Y-132710380D02*
X80497714Y-131710380D01*
X80878666Y-131710380D01*
X80973904Y-131758000D01*
X81021523Y-131805619D01*
X81069142Y-131900857D01*
X81069142Y-132043714D01*
X81021523Y-132138952D01*
X80973904Y-132186571D01*
X80878666Y-132234190D01*
X80497714Y-132234190D01*
X81402476Y-131710380D02*
X82021523Y-131710380D01*
X81688190Y-132091333D01*
X81831047Y-132091333D01*
X81926285Y-132138952D01*
X81973904Y-132186571D01*
X82021523Y-132281809D01*
X82021523Y-132519904D01*
X81973904Y-132615142D01*
X81926285Y-132662761D01*
X81831047Y-132710380D01*
X81545333Y-132710380D01*
X81450095Y-132662761D01*
X81402476Y-132615142D01*
X82878666Y-132043714D02*
X82878666Y-132710380D01*
X82640571Y-131662761D02*
X82402476Y-132377047D01*
X83021523Y-132377047D01*
G04 #@! TO.C,R35*
X76322380Y-81846857D02*
X75846190Y-82180190D01*
X76322380Y-82418285D02*
X75322380Y-82418285D01*
X75322380Y-82037333D01*
X75370000Y-81942095D01*
X75417619Y-81894476D01*
X75512857Y-81846857D01*
X75655714Y-81846857D01*
X75750952Y-81894476D01*
X75798571Y-81942095D01*
X75846190Y-82037333D01*
X75846190Y-82418285D01*
X75322380Y-81513523D02*
X75322380Y-80894476D01*
X75703333Y-81227809D01*
X75703333Y-81084952D01*
X75750952Y-80989714D01*
X75798571Y-80942095D01*
X75893809Y-80894476D01*
X76131904Y-80894476D01*
X76227142Y-80942095D01*
X76274761Y-80989714D01*
X76322380Y-81084952D01*
X76322380Y-81370666D01*
X76274761Y-81465904D01*
X76227142Y-81513523D01*
X75322380Y-79989714D02*
X75322380Y-80465904D01*
X75798571Y-80513523D01*
X75750952Y-80465904D01*
X75703333Y-80370666D01*
X75703333Y-80132571D01*
X75750952Y-80037333D01*
X75798571Y-79989714D01*
X75893809Y-79942095D01*
X76131904Y-79942095D01*
X76227142Y-79989714D01*
X76274761Y-80037333D01*
X76322380Y-80132571D01*
X76322380Y-80370666D01*
X76274761Y-80465904D01*
X76227142Y-80513523D01*
G04 #@! TO.C,SW1*
X127876666Y-124788761D02*
X128019523Y-124836380D01*
X128257619Y-124836380D01*
X128352857Y-124788761D01*
X128400476Y-124741142D01*
X128448095Y-124645904D01*
X128448095Y-124550666D01*
X128400476Y-124455428D01*
X128352857Y-124407809D01*
X128257619Y-124360190D01*
X128067142Y-124312571D01*
X127971904Y-124264952D01*
X127924285Y-124217333D01*
X127876666Y-124122095D01*
X127876666Y-124026857D01*
X127924285Y-123931619D01*
X127971904Y-123884000D01*
X128067142Y-123836380D01*
X128305238Y-123836380D01*
X128448095Y-123884000D01*
X128781428Y-123836380D02*
X129019523Y-124836380D01*
X129210000Y-124122095D01*
X129400476Y-124836380D01*
X129638571Y-123836380D01*
X130543333Y-124836380D02*
X129971904Y-124836380D01*
X130257619Y-124836380D02*
X130257619Y-123836380D01*
X130162380Y-123979238D01*
X130067142Y-124074476D01*
X129971904Y-124122095D01*
G04 #@! TO.C,SW2*
X69456666Y-116660761D02*
X69599523Y-116708380D01*
X69837619Y-116708380D01*
X69932857Y-116660761D01*
X69980476Y-116613142D01*
X70028095Y-116517904D01*
X70028095Y-116422666D01*
X69980476Y-116327428D01*
X69932857Y-116279809D01*
X69837619Y-116232190D01*
X69647142Y-116184571D01*
X69551904Y-116136952D01*
X69504285Y-116089333D01*
X69456666Y-115994095D01*
X69456666Y-115898857D01*
X69504285Y-115803619D01*
X69551904Y-115756000D01*
X69647142Y-115708380D01*
X69885238Y-115708380D01*
X70028095Y-115756000D01*
X70361428Y-115708380D02*
X70599523Y-116708380D01*
X70790000Y-115994095D01*
X70980476Y-116708380D01*
X71218571Y-115708380D01*
X71551904Y-115803619D02*
X71599523Y-115756000D01*
X71694761Y-115708380D01*
X71932857Y-115708380D01*
X72028095Y-115756000D01*
X72075714Y-115803619D01*
X72123333Y-115898857D01*
X72123333Y-115994095D01*
X72075714Y-116136952D01*
X71504285Y-116708380D01*
X72123333Y-116708380D01*
G04 #@! TO.C,U2*
X88147380Y-138607904D02*
X88956904Y-138607904D01*
X89052142Y-138560285D01*
X89099761Y-138512666D01*
X89147380Y-138417428D01*
X89147380Y-138226952D01*
X89099761Y-138131714D01*
X89052142Y-138084095D01*
X88956904Y-138036476D01*
X88147380Y-138036476D01*
X88242619Y-137607904D02*
X88195000Y-137560285D01*
X88147380Y-137465047D01*
X88147380Y-137226952D01*
X88195000Y-137131714D01*
X88242619Y-137084095D01*
X88337857Y-137036476D01*
X88433095Y-137036476D01*
X88575952Y-137084095D01*
X89147380Y-137655523D01*
X89147380Y-137036476D01*
G04 #@! TO.C,U3*
X124852380Y-87426904D02*
X125661904Y-87426904D01*
X125757142Y-87379285D01*
X125804761Y-87331666D01*
X125852380Y-87236428D01*
X125852380Y-87045952D01*
X125804761Y-86950714D01*
X125757142Y-86903095D01*
X125661904Y-86855476D01*
X124852380Y-86855476D01*
X124852380Y-86474523D02*
X124852380Y-85855476D01*
X125233333Y-86188809D01*
X125233333Y-86045952D01*
X125280952Y-85950714D01*
X125328571Y-85903095D01*
X125423809Y-85855476D01*
X125661904Y-85855476D01*
X125757142Y-85903095D01*
X125804761Y-85950714D01*
X125852380Y-86045952D01*
X125852380Y-86331666D01*
X125804761Y-86426904D01*
X125757142Y-86474523D01*
X108898095Y-82926428D02*
X109660000Y-82926428D01*
X109279047Y-83307380D02*
X109279047Y-82545476D01*
X109993333Y-82307380D02*
X110326666Y-83307380D01*
X110660000Y-82307380D01*
X111136190Y-83307380D02*
X111040952Y-83259761D01*
X110993333Y-83212142D01*
X110945714Y-83116904D01*
X110945714Y-82831190D01*
X110993333Y-82735952D01*
X111040952Y-82688333D01*
X111136190Y-82640714D01*
X111279047Y-82640714D01*
X111374285Y-82688333D01*
X111421904Y-82735952D01*
X111469523Y-82831190D01*
X111469523Y-83116904D01*
X111421904Y-83212142D01*
X111374285Y-83259761D01*
X111279047Y-83307380D01*
X111136190Y-83307380D01*
X108898095Y-85466428D02*
X109660000Y-85466428D01*
X109993333Y-84847380D02*
X110326666Y-85847380D01*
X110660000Y-84847380D01*
X111136190Y-85847380D02*
X111040952Y-85799761D01*
X110993333Y-85752142D01*
X110945714Y-85656904D01*
X110945714Y-85371190D01*
X110993333Y-85275952D01*
X111040952Y-85228333D01*
X111136190Y-85180714D01*
X111279047Y-85180714D01*
X111374285Y-85228333D01*
X111421904Y-85275952D01*
X111469523Y-85371190D01*
X111469523Y-85656904D01*
X111421904Y-85752142D01*
X111374285Y-85799761D01*
X111279047Y-85847380D01*
X111136190Y-85847380D01*
X109112380Y-88006428D02*
X109874285Y-88006428D01*
X109493333Y-88387380D02*
X109493333Y-87625476D01*
X110207619Y-87387380D02*
X110540952Y-88387380D01*
X110874285Y-87387380D01*
X111207619Y-88387380D02*
X111207619Y-87720714D01*
X111207619Y-87387380D02*
X111160000Y-87435000D01*
X111207619Y-87482619D01*
X111255238Y-87435000D01*
X111207619Y-87387380D01*
X111207619Y-87482619D01*
X109112380Y-90546428D02*
X109874285Y-90546428D01*
X110207619Y-89927380D02*
X110540952Y-90927380D01*
X110874285Y-89927380D01*
X111207619Y-90927380D02*
X111207619Y-90260714D01*
X111207619Y-89927380D02*
X111160000Y-89975000D01*
X111207619Y-90022619D01*
X111255238Y-89975000D01*
X111207619Y-89927380D01*
X111207619Y-90022619D01*
G04 #@! TO.C,U4*
X94412095Y-116724380D02*
X94412095Y-117533904D01*
X94459714Y-117629142D01*
X94507333Y-117676761D01*
X94602571Y-117724380D01*
X94793047Y-117724380D01*
X94888285Y-117676761D01*
X94935904Y-117629142D01*
X94983523Y-117533904D01*
X94983523Y-116724380D01*
X95888285Y-117057714D02*
X95888285Y-117724380D01*
X95650190Y-116676761D02*
X95412095Y-117391047D01*
X96031142Y-117391047D01*
G04 #@! TO.C,U5*
X105548380Y-87807904D02*
X106357904Y-87807904D01*
X106453142Y-87760285D01*
X106500761Y-87712666D01*
X106548380Y-87617428D01*
X106548380Y-87426952D01*
X106500761Y-87331714D01*
X106453142Y-87284095D01*
X106357904Y-87236476D01*
X105548380Y-87236476D01*
X105548380Y-86284095D02*
X105548380Y-86760285D01*
X106024571Y-86807904D01*
X105976952Y-86760285D01*
X105929333Y-86665047D01*
X105929333Y-86426952D01*
X105976952Y-86331714D01*
X106024571Y-86284095D01*
X106119809Y-86236476D01*
X106357904Y-86236476D01*
X106453142Y-86284095D01*
X106500761Y-86331714D01*
X106548380Y-86426952D01*
X106548380Y-86665047D01*
X106500761Y-86760285D01*
X106453142Y-86807904D01*
G04 #@! TO.C,U6*
X97928380Y-87807904D02*
X98737904Y-87807904D01*
X98833142Y-87760285D01*
X98880761Y-87712666D01*
X98928380Y-87617428D01*
X98928380Y-87426952D01*
X98880761Y-87331714D01*
X98833142Y-87284095D01*
X98737904Y-87236476D01*
X97928380Y-87236476D01*
X97928380Y-86331714D02*
X97928380Y-86522190D01*
X97976000Y-86617428D01*
X98023619Y-86665047D01*
X98166476Y-86760285D01*
X98356952Y-86807904D01*
X98737904Y-86807904D01*
X98833142Y-86760285D01*
X98880761Y-86712666D01*
X98928380Y-86617428D01*
X98928380Y-86426952D01*
X98880761Y-86331714D01*
X98833142Y-86284095D01*
X98737904Y-86236476D01*
X98499809Y-86236476D01*
X98404571Y-86284095D01*
X98356952Y-86331714D01*
X98309333Y-86426952D01*
X98309333Y-86617428D01*
X98356952Y-86712666D01*
X98404571Y-86760285D01*
X98499809Y-86807904D01*
G04 #@! TO.C,U7*
X90308380Y-87807904D02*
X91117904Y-87807904D01*
X91213142Y-87760285D01*
X91260761Y-87712666D01*
X91308380Y-87617428D01*
X91308380Y-87426952D01*
X91260761Y-87331714D01*
X91213142Y-87284095D01*
X91117904Y-87236476D01*
X90308380Y-87236476D01*
X90308380Y-86855523D02*
X90308380Y-86188857D01*
X91308380Y-86617428D01*
G04 #@! TO.C,U8*
X82688380Y-87807904D02*
X83497904Y-87807904D01*
X83593142Y-87760285D01*
X83640761Y-87712666D01*
X83688380Y-87617428D01*
X83688380Y-87426952D01*
X83640761Y-87331714D01*
X83593142Y-87284095D01*
X83497904Y-87236476D01*
X82688380Y-87236476D01*
X83116952Y-86617428D02*
X83069333Y-86712666D01*
X83021714Y-86760285D01*
X82926476Y-86807904D01*
X82878857Y-86807904D01*
X82783619Y-86760285D01*
X82736000Y-86712666D01*
X82688380Y-86617428D01*
X82688380Y-86426952D01*
X82736000Y-86331714D01*
X82783619Y-86284095D01*
X82878857Y-86236476D01*
X82926476Y-86236476D01*
X83021714Y-86284095D01*
X83069333Y-86331714D01*
X83116952Y-86426952D01*
X83116952Y-86617428D01*
X83164571Y-86712666D01*
X83212190Y-86760285D01*
X83307428Y-86807904D01*
X83497904Y-86807904D01*
X83593142Y-86760285D01*
X83640761Y-86712666D01*
X83688380Y-86617428D01*
X83688380Y-86426952D01*
X83640761Y-86331714D01*
X83593142Y-86284095D01*
X83497904Y-86236476D01*
X83307428Y-86236476D01*
X83212190Y-86284095D01*
X83164571Y-86331714D01*
X83116952Y-86426952D01*
G04 #@! TO.C,U9*
X132980380Y-87426904D02*
X133789904Y-87426904D01*
X133885142Y-87379285D01*
X133932761Y-87331666D01*
X133980380Y-87236428D01*
X133980380Y-87045952D01*
X133932761Y-86950714D01*
X133885142Y-86903095D01*
X133789904Y-86855476D01*
X132980380Y-86855476D01*
X133980380Y-86331666D02*
X133980380Y-86141190D01*
X133932761Y-86045952D01*
X133885142Y-85998333D01*
X133742285Y-85903095D01*
X133551809Y-85855476D01*
X133170857Y-85855476D01*
X133075619Y-85903095D01*
X133028000Y-85950714D01*
X132980380Y-86045952D01*
X132980380Y-86236428D01*
X133028000Y-86331666D01*
X133075619Y-86379285D01*
X133170857Y-86426904D01*
X133408952Y-86426904D01*
X133504190Y-86379285D01*
X133551809Y-86331666D01*
X133599428Y-86236428D01*
X133599428Y-86045952D01*
X133551809Y-85950714D01*
X133504190Y-85903095D01*
X133408952Y-85855476D01*
G04 #@! TO.C,U10*
X117542380Y-87903095D02*
X118351904Y-87903095D01*
X118447142Y-87855476D01*
X118494761Y-87807857D01*
X118542380Y-87712619D01*
X118542380Y-87522142D01*
X118494761Y-87426904D01*
X118447142Y-87379285D01*
X118351904Y-87331666D01*
X117542380Y-87331666D01*
X118542380Y-86331666D02*
X118542380Y-86903095D01*
X118542380Y-86617380D02*
X117542380Y-86617380D01*
X117685238Y-86712619D01*
X117780476Y-86807857D01*
X117828095Y-86903095D01*
X117542380Y-85712619D02*
X117542380Y-85617380D01*
X117590000Y-85522142D01*
X117637619Y-85474523D01*
X117732857Y-85426904D01*
X117923333Y-85379285D01*
X118161428Y-85379285D01*
X118351904Y-85426904D01*
X118447142Y-85474523D01*
X118494761Y-85522142D01*
X118542380Y-85617380D01*
X118542380Y-85712619D01*
X118494761Y-85807857D01*
X118447142Y-85855476D01*
X118351904Y-85903095D01*
X118161428Y-85950714D01*
X117923333Y-85950714D01*
X117732857Y-85903095D01*
X117637619Y-85855476D01*
X117590000Y-85807857D01*
X117542380Y-85712619D01*
G04 #@! TO.C,J2*
X66646666Y-112914380D02*
X66646666Y-113628666D01*
X66599047Y-113771523D01*
X66503809Y-113866761D01*
X66360952Y-113914380D01*
X66265714Y-113914380D01*
X67075238Y-113009619D02*
X67122857Y-112962000D01*
X67218095Y-112914380D01*
X67456190Y-112914380D01*
X67551428Y-112962000D01*
X67599047Y-113009619D01*
X67646666Y-113104857D01*
X67646666Y-113200095D01*
X67599047Y-113342952D01*
X67027619Y-113914380D01*
X67646666Y-113914380D01*
G04 #@! TO.C,C1*
X126503333Y-114073142D02*
X126455714Y-114120761D01*
X126312857Y-114168380D01*
X126217619Y-114168380D01*
X126074761Y-114120761D01*
X125979523Y-114025523D01*
X125931904Y-113930285D01*
X125884285Y-113739809D01*
X125884285Y-113596952D01*
X125931904Y-113406476D01*
X125979523Y-113311238D01*
X126074761Y-113216000D01*
X126217619Y-113168380D01*
X126312857Y-113168380D01*
X126455714Y-113216000D01*
X126503333Y-113263619D01*
X127455714Y-114168380D02*
X126884285Y-114168380D01*
X127170000Y-114168380D02*
X127170000Y-113168380D01*
X127074761Y-113311238D01*
X126979523Y-113406476D01*
X126884285Y-113454095D01*
G04 #@! TO.C,C2*
X70623333Y-127281142D02*
X70575714Y-127328761D01*
X70432857Y-127376380D01*
X70337619Y-127376380D01*
X70194761Y-127328761D01*
X70099523Y-127233523D01*
X70051904Y-127138285D01*
X70004285Y-126947809D01*
X70004285Y-126804952D01*
X70051904Y-126614476D01*
X70099523Y-126519238D01*
X70194761Y-126424000D01*
X70337619Y-126376380D01*
X70432857Y-126376380D01*
X70575714Y-126424000D01*
X70623333Y-126471619D01*
X71004285Y-126471619D02*
X71051904Y-126424000D01*
X71147142Y-126376380D01*
X71385238Y-126376380D01*
X71480476Y-126424000D01*
X71528095Y-126471619D01*
X71575714Y-126566857D01*
X71575714Y-126662095D01*
X71528095Y-126804952D01*
X70956666Y-127376380D01*
X71575714Y-127376380D01*
G04 #@! TO.C,C3*
X75703333Y-141251142D02*
X75655714Y-141298761D01*
X75512857Y-141346380D01*
X75417619Y-141346380D01*
X75274761Y-141298761D01*
X75179523Y-141203523D01*
X75131904Y-141108285D01*
X75084285Y-140917809D01*
X75084285Y-140774952D01*
X75131904Y-140584476D01*
X75179523Y-140489238D01*
X75274761Y-140394000D01*
X75417619Y-140346380D01*
X75512857Y-140346380D01*
X75655714Y-140394000D01*
X75703333Y-140441619D01*
X76036666Y-140346380D02*
X76655714Y-140346380D01*
X76322380Y-140727333D01*
X76465238Y-140727333D01*
X76560476Y-140774952D01*
X76608095Y-140822571D01*
X76655714Y-140917809D01*
X76655714Y-141155904D01*
X76608095Y-141251142D01*
X76560476Y-141298761D01*
X76465238Y-141346380D01*
X76179523Y-141346380D01*
X76084285Y-141298761D01*
X76036666Y-141251142D01*
G04 #@! TO.C,C4*
X75957333Y-128043142D02*
X75909714Y-128090761D01*
X75766857Y-128138380D01*
X75671619Y-128138380D01*
X75528761Y-128090761D01*
X75433523Y-127995523D01*
X75385904Y-127900285D01*
X75338285Y-127709809D01*
X75338285Y-127566952D01*
X75385904Y-127376476D01*
X75433523Y-127281238D01*
X75528761Y-127186000D01*
X75671619Y-127138380D01*
X75766857Y-127138380D01*
X75909714Y-127186000D01*
X75957333Y-127233619D01*
X76814476Y-127471714D02*
X76814476Y-128138380D01*
X76576380Y-127090761D02*
X76338285Y-127805047D01*
X76957333Y-127805047D01*
G04 #@! TO.C,C5*
X82069142Y-137504666D02*
X82116761Y-137552285D01*
X82164380Y-137695142D01*
X82164380Y-137790380D01*
X82116761Y-137933238D01*
X82021523Y-138028476D01*
X81926285Y-138076095D01*
X81735809Y-138123714D01*
X81592952Y-138123714D01*
X81402476Y-138076095D01*
X81307238Y-138028476D01*
X81212000Y-137933238D01*
X81164380Y-137790380D01*
X81164380Y-137695142D01*
X81212000Y-137552285D01*
X81259619Y-137504666D01*
X81164380Y-136599904D02*
X81164380Y-137076095D01*
X81640571Y-137123714D01*
X81592952Y-137076095D01*
X81545333Y-136980857D01*
X81545333Y-136742761D01*
X81592952Y-136647523D01*
X81640571Y-136599904D01*
X81735809Y-136552285D01*
X81973904Y-136552285D01*
X82069142Y-136599904D01*
X82116761Y-136647523D01*
X82164380Y-136742761D01*
X82164380Y-136980857D01*
X82116761Y-137076095D01*
X82069142Y-137123714D01*
G04 #@! TO.C,C6*
X90959142Y-134710666D02*
X91006761Y-134758285D01*
X91054380Y-134901142D01*
X91054380Y-134996380D01*
X91006761Y-135139238D01*
X90911523Y-135234476D01*
X90816285Y-135282095D01*
X90625809Y-135329714D01*
X90482952Y-135329714D01*
X90292476Y-135282095D01*
X90197238Y-135234476D01*
X90102000Y-135139238D01*
X90054380Y-134996380D01*
X90054380Y-134901142D01*
X90102000Y-134758285D01*
X90149619Y-134710666D01*
X90054380Y-133853523D02*
X90054380Y-134044000D01*
X90102000Y-134139238D01*
X90149619Y-134186857D01*
X90292476Y-134282095D01*
X90482952Y-134329714D01*
X90863904Y-134329714D01*
X90959142Y-134282095D01*
X91006761Y-134234476D01*
X91054380Y-134139238D01*
X91054380Y-133948761D01*
X91006761Y-133853523D01*
X90959142Y-133805904D01*
X90863904Y-133758285D01*
X90625809Y-133758285D01*
X90530571Y-133805904D01*
X90482952Y-133853523D01*
X90435333Y-133948761D01*
X90435333Y-134139238D01*
X90482952Y-134234476D01*
X90530571Y-134282095D01*
X90625809Y-134329714D01*
G04 #@! TO.C,C7*
X123963333Y-128317142D02*
X123915714Y-128364761D01*
X123772857Y-128412380D01*
X123677619Y-128412380D01*
X123534761Y-128364761D01*
X123439523Y-128269523D01*
X123391904Y-128174285D01*
X123344285Y-127983809D01*
X123344285Y-127840952D01*
X123391904Y-127650476D01*
X123439523Y-127555238D01*
X123534761Y-127460000D01*
X123677619Y-127412380D01*
X123772857Y-127412380D01*
X123915714Y-127460000D01*
X123963333Y-127507619D01*
X124296666Y-127412380D02*
X124963333Y-127412380D01*
X124534761Y-128412380D01*
G04 #@! TO.C,C8*
X117121142Y-89498666D02*
X117168761Y-89546285D01*
X117216380Y-89689142D01*
X117216380Y-89784380D01*
X117168761Y-89927238D01*
X117073523Y-90022476D01*
X116978285Y-90070095D01*
X116787809Y-90117714D01*
X116644952Y-90117714D01*
X116454476Y-90070095D01*
X116359238Y-90022476D01*
X116264000Y-89927238D01*
X116216380Y-89784380D01*
X116216380Y-89689142D01*
X116264000Y-89546285D01*
X116311619Y-89498666D01*
X116644952Y-88927238D02*
X116597333Y-89022476D01*
X116549714Y-89070095D01*
X116454476Y-89117714D01*
X116406857Y-89117714D01*
X116311619Y-89070095D01*
X116264000Y-89022476D01*
X116216380Y-88927238D01*
X116216380Y-88736761D01*
X116264000Y-88641523D01*
X116311619Y-88593904D01*
X116406857Y-88546285D01*
X116454476Y-88546285D01*
X116549714Y-88593904D01*
X116597333Y-88641523D01*
X116644952Y-88736761D01*
X116644952Y-88927238D01*
X116692571Y-89022476D01*
X116740190Y-89070095D01*
X116835428Y-89117714D01*
X117025904Y-89117714D01*
X117121142Y-89070095D01*
X117168761Y-89022476D01*
X117216380Y-88927238D01*
X117216380Y-88736761D01*
X117168761Y-88641523D01*
X117121142Y-88593904D01*
X117025904Y-88546285D01*
X116835428Y-88546285D01*
X116740190Y-88593904D01*
X116692571Y-88641523D01*
X116644952Y-88736761D01*
G04 #@! TO.C,C9*
X117121142Y-84291666D02*
X117168761Y-84339285D01*
X117216380Y-84482142D01*
X117216380Y-84577380D01*
X117168761Y-84720238D01*
X117073523Y-84815476D01*
X116978285Y-84863095D01*
X116787809Y-84910714D01*
X116644952Y-84910714D01*
X116454476Y-84863095D01*
X116359238Y-84815476D01*
X116264000Y-84720238D01*
X116216380Y-84577380D01*
X116216380Y-84482142D01*
X116264000Y-84339285D01*
X116311619Y-84291666D01*
X117216380Y-83815476D02*
X117216380Y-83625000D01*
X117168761Y-83529761D01*
X117121142Y-83482142D01*
X116978285Y-83386904D01*
X116787809Y-83339285D01*
X116406857Y-83339285D01*
X116311619Y-83386904D01*
X116264000Y-83434523D01*
X116216380Y-83529761D01*
X116216380Y-83720238D01*
X116264000Y-83815476D01*
X116311619Y-83863095D01*
X116406857Y-83910714D01*
X116644952Y-83910714D01*
X116740190Y-83863095D01*
X116787809Y-83815476D01*
X116835428Y-83720238D01*
X116835428Y-83529761D01*
X116787809Y-83434523D01*
X116740190Y-83386904D01*
X116644952Y-83339285D01*
G04 #@! TO.C,C24*
X131091142Y-96324857D02*
X131138761Y-96372476D01*
X131186380Y-96515333D01*
X131186380Y-96610571D01*
X131138761Y-96753428D01*
X131043523Y-96848666D01*
X130948285Y-96896285D01*
X130757809Y-96943904D01*
X130614952Y-96943904D01*
X130424476Y-96896285D01*
X130329238Y-96848666D01*
X130234000Y-96753428D01*
X130186380Y-96610571D01*
X130186380Y-96515333D01*
X130234000Y-96372476D01*
X130281619Y-96324857D01*
X130281619Y-95943904D02*
X130234000Y-95896285D01*
X130186380Y-95801047D01*
X130186380Y-95562952D01*
X130234000Y-95467714D01*
X130281619Y-95420095D01*
X130376857Y-95372476D01*
X130472095Y-95372476D01*
X130614952Y-95420095D01*
X131186380Y-95991523D01*
X131186380Y-95372476D01*
X130519714Y-94515333D02*
X131186380Y-94515333D01*
X130138761Y-94753428D02*
X130853047Y-94991523D01*
X130853047Y-94372476D01*
G04 #@! TD*
M02*
