G04 #@! TF.GenerationSoftware,KiCad,Pcbnew,(5.0.2)-1*
G04 #@! TF.CreationDate,2019-03-08T16:37:09+09:00*
G04 #@! TF.ProjectId,spindleMD_v2,7370696e-646c-4654-9d44-5f76322e6b69,rev?*
G04 #@! TF.SameCoordinates,Original*
G04 #@! TF.FileFunction,Soldermask,Bot*
G04 #@! TF.FilePolarity,Negative*
%FSLAX46Y46*%
G04 Gerber Fmt 4.6, Leading zero omitted, Abs format (unit mm)*
G04 Created by KiCad (PCBNEW (5.0.2)-1) date 2019/03/08 16:37:09*
%MOMM*%
%LPD*%
G01*
G04 APERTURE LIST*
%ADD10C,0.100000*%
G04 APERTURE END LIST*
D10*
G36*
X133831606Y-141758562D02*
X134350455Y-141973476D01*
X134814259Y-142283380D01*
X134817410Y-142285486D01*
X135214514Y-142682590D01*
X135214516Y-142682593D01*
X135526524Y-143149545D01*
X135741438Y-143668394D01*
X135851000Y-144219201D01*
X135851000Y-144780799D01*
X135741438Y-145331606D01*
X135526524Y-145850455D01*
X135216620Y-146314259D01*
X135214514Y-146317410D01*
X134817410Y-146714514D01*
X134817407Y-146714516D01*
X134350455Y-147026524D01*
X133831606Y-147241438D01*
X133556202Y-147296219D01*
X133280800Y-147351000D01*
X132719200Y-147351000D01*
X132443798Y-147296219D01*
X132168394Y-147241438D01*
X131649545Y-147026524D01*
X131182593Y-146714516D01*
X131182590Y-146714514D01*
X130785486Y-146317410D01*
X130783380Y-146314259D01*
X130473476Y-145850455D01*
X130258562Y-145331606D01*
X130149000Y-144780799D01*
X130149000Y-144219201D01*
X130258562Y-143668394D01*
X130473476Y-143149545D01*
X130785484Y-142682593D01*
X130785486Y-142682590D01*
X131182590Y-142285486D01*
X131185741Y-142283380D01*
X131649545Y-141973476D01*
X132168394Y-141758562D01*
X132719200Y-141649000D01*
X133280800Y-141649000D01*
X133831606Y-141758562D01*
X133831606Y-141758562D01*
G37*
G36*
X67831606Y-141758562D02*
X68350455Y-141973476D01*
X68814259Y-142283380D01*
X68817410Y-142285486D01*
X69214514Y-142682590D01*
X69214516Y-142682593D01*
X69526524Y-143149545D01*
X69741438Y-143668394D01*
X69851000Y-144219201D01*
X69851000Y-144780799D01*
X69741438Y-145331606D01*
X69526524Y-145850455D01*
X69216620Y-146314259D01*
X69214514Y-146317410D01*
X68817410Y-146714514D01*
X68817407Y-146714516D01*
X68350455Y-147026524D01*
X67831606Y-147241438D01*
X67556202Y-147296219D01*
X67280800Y-147351000D01*
X66719200Y-147351000D01*
X66443798Y-147296219D01*
X66168394Y-147241438D01*
X65649545Y-147026524D01*
X65182593Y-146714516D01*
X65182590Y-146714514D01*
X64785486Y-146317410D01*
X64783380Y-146314259D01*
X64473476Y-145850455D01*
X64258562Y-145331606D01*
X64149000Y-144780799D01*
X64149000Y-144219201D01*
X64258562Y-143668394D01*
X64473476Y-143149545D01*
X64785484Y-142682593D01*
X64785486Y-142682590D01*
X65182590Y-142285486D01*
X65185741Y-142283380D01*
X65649545Y-141973476D01*
X66168394Y-141758562D01*
X66719200Y-141649000D01*
X67280800Y-141649000D01*
X67831606Y-141758562D01*
X67831606Y-141758562D01*
G37*
G36*
X123170104Y-143559585D02*
X123338626Y-143629389D01*
X123490291Y-143730728D01*
X123619272Y-143859709D01*
X123720611Y-144011374D01*
X123790415Y-144179896D01*
X123826000Y-144358797D01*
X123826000Y-144541203D01*
X123790415Y-144720104D01*
X123720611Y-144888626D01*
X123619272Y-145040291D01*
X123490291Y-145169272D01*
X123338626Y-145270611D01*
X123170104Y-145340415D01*
X122991203Y-145376000D01*
X122808797Y-145376000D01*
X122629896Y-145340415D01*
X122461374Y-145270611D01*
X122309709Y-145169272D01*
X122180728Y-145040291D01*
X122079389Y-144888626D01*
X122009585Y-144720104D01*
X121974000Y-144541203D01*
X121974000Y-144358797D01*
X122009585Y-144179896D01*
X122079389Y-144011374D01*
X122180728Y-143859709D01*
X122309709Y-143730728D01*
X122461374Y-143629389D01*
X122629896Y-143559585D01*
X122808797Y-143524000D01*
X122991203Y-143524000D01*
X123170104Y-143559585D01*
X123170104Y-143559585D01*
G37*
G36*
X120670104Y-143559585D02*
X120838626Y-143629389D01*
X120990291Y-143730728D01*
X121119272Y-143859709D01*
X121220611Y-144011374D01*
X121290415Y-144179896D01*
X121326000Y-144358797D01*
X121326000Y-144541203D01*
X121290415Y-144720104D01*
X121220611Y-144888626D01*
X121119272Y-145040291D01*
X120990291Y-145169272D01*
X120838626Y-145270611D01*
X120670104Y-145340415D01*
X120491203Y-145376000D01*
X120308797Y-145376000D01*
X120129896Y-145340415D01*
X119961374Y-145270611D01*
X119809709Y-145169272D01*
X119680728Y-145040291D01*
X119579389Y-144888626D01*
X119509585Y-144720104D01*
X119474000Y-144541203D01*
X119474000Y-144358797D01*
X119509585Y-144179896D01*
X119579389Y-144011374D01*
X119680728Y-143859709D01*
X119809709Y-143730728D01*
X119961374Y-143629389D01*
X120129896Y-143559585D01*
X120308797Y-143524000D01*
X120491203Y-143524000D01*
X120670104Y-143559585D01*
X120670104Y-143559585D01*
G37*
G36*
X113170104Y-143559585D02*
X113338626Y-143629389D01*
X113490291Y-143730728D01*
X113619272Y-143859709D01*
X113720611Y-144011374D01*
X113790415Y-144179896D01*
X113826000Y-144358797D01*
X113826000Y-144541203D01*
X113790415Y-144720104D01*
X113720611Y-144888626D01*
X113619272Y-145040291D01*
X113490291Y-145169272D01*
X113338626Y-145270611D01*
X113170104Y-145340415D01*
X112991203Y-145376000D01*
X112808797Y-145376000D01*
X112629896Y-145340415D01*
X112461374Y-145270611D01*
X112309709Y-145169272D01*
X112180728Y-145040291D01*
X112079389Y-144888626D01*
X112009585Y-144720104D01*
X111974000Y-144541203D01*
X111974000Y-144358797D01*
X112009585Y-144179896D01*
X112079389Y-144011374D01*
X112180728Y-143859709D01*
X112309709Y-143730728D01*
X112461374Y-143629389D01*
X112629896Y-143559585D01*
X112808797Y-143524000D01*
X112991203Y-143524000D01*
X113170104Y-143559585D01*
X113170104Y-143559585D01*
G37*
G36*
X115670104Y-143559585D02*
X115838626Y-143629389D01*
X115990291Y-143730728D01*
X116119272Y-143859709D01*
X116220611Y-144011374D01*
X116290415Y-144179896D01*
X116326000Y-144358797D01*
X116326000Y-144541203D01*
X116290415Y-144720104D01*
X116220611Y-144888626D01*
X116119272Y-145040291D01*
X115990291Y-145169272D01*
X115838626Y-145270611D01*
X115670104Y-145340415D01*
X115491203Y-145376000D01*
X115308797Y-145376000D01*
X115129896Y-145340415D01*
X114961374Y-145270611D01*
X114809709Y-145169272D01*
X114680728Y-145040291D01*
X114579389Y-144888626D01*
X114509585Y-144720104D01*
X114474000Y-144541203D01*
X114474000Y-144358797D01*
X114509585Y-144179896D01*
X114579389Y-144011374D01*
X114680728Y-143859709D01*
X114809709Y-143730728D01*
X114961374Y-143629389D01*
X115129896Y-143559585D01*
X115308797Y-143524000D01*
X115491203Y-143524000D01*
X115670104Y-143559585D01*
X115670104Y-143559585D01*
G37*
G36*
X118170104Y-143559585D02*
X118338626Y-143629389D01*
X118490291Y-143730728D01*
X118619272Y-143859709D01*
X118720611Y-144011374D01*
X118790415Y-144179896D01*
X118826000Y-144358797D01*
X118826000Y-144541203D01*
X118790415Y-144720104D01*
X118720611Y-144888626D01*
X118619272Y-145040291D01*
X118490291Y-145169272D01*
X118338626Y-145270611D01*
X118170104Y-145340415D01*
X117991203Y-145376000D01*
X117808797Y-145376000D01*
X117629896Y-145340415D01*
X117461374Y-145270611D01*
X117309709Y-145169272D01*
X117180728Y-145040291D01*
X117079389Y-144888626D01*
X117009585Y-144720104D01*
X116974000Y-144541203D01*
X116974000Y-144358797D01*
X117009585Y-144179896D01*
X117079389Y-144011374D01*
X117180728Y-143859709D01*
X117309709Y-143730728D01*
X117461374Y-143629389D01*
X117629896Y-143559585D01*
X117808797Y-143524000D01*
X117991203Y-143524000D01*
X118170104Y-143559585D01*
X118170104Y-143559585D01*
G37*
G36*
X106006000Y-145376000D02*
X104154000Y-145376000D01*
X104154000Y-143524000D01*
X106006000Y-143524000D01*
X106006000Y-145376000D01*
X106006000Y-145376000D01*
G37*
G36*
X102850104Y-143559585D02*
X103018626Y-143629389D01*
X103170291Y-143730728D01*
X103299272Y-143859709D01*
X103400611Y-144011374D01*
X103470415Y-144179896D01*
X103506000Y-144358797D01*
X103506000Y-144541203D01*
X103470415Y-144720104D01*
X103400611Y-144888626D01*
X103299272Y-145040291D01*
X103170291Y-145169272D01*
X103018626Y-145270611D01*
X102850104Y-145340415D01*
X102671203Y-145376000D01*
X102488797Y-145376000D01*
X102309896Y-145340415D01*
X102141374Y-145270611D01*
X101989709Y-145169272D01*
X101860728Y-145040291D01*
X101759389Y-144888626D01*
X101689585Y-144720104D01*
X101654000Y-144541203D01*
X101654000Y-144358797D01*
X101689585Y-144179896D01*
X101759389Y-144011374D01*
X101860728Y-143859709D01*
X101989709Y-143730728D01*
X102141374Y-143629389D01*
X102309896Y-143559585D01*
X102488797Y-143524000D01*
X102671203Y-143524000D01*
X102850104Y-143559585D01*
X102850104Y-143559585D01*
G37*
G36*
X100350104Y-143559585D02*
X100518626Y-143629389D01*
X100670291Y-143730728D01*
X100799272Y-143859709D01*
X100900611Y-144011374D01*
X100970415Y-144179896D01*
X101006000Y-144358797D01*
X101006000Y-144541203D01*
X100970415Y-144720104D01*
X100900611Y-144888626D01*
X100799272Y-145040291D01*
X100670291Y-145169272D01*
X100518626Y-145270611D01*
X100350104Y-145340415D01*
X100171203Y-145376000D01*
X99988797Y-145376000D01*
X99809896Y-145340415D01*
X99641374Y-145270611D01*
X99489709Y-145169272D01*
X99360728Y-145040291D01*
X99259389Y-144888626D01*
X99189585Y-144720104D01*
X99154000Y-144541203D01*
X99154000Y-144358797D01*
X99189585Y-144179896D01*
X99259389Y-144011374D01*
X99360728Y-143859709D01*
X99489709Y-143730728D01*
X99641374Y-143629389D01*
X99809896Y-143559585D01*
X99988797Y-143524000D01*
X100171203Y-143524000D01*
X100350104Y-143559585D01*
X100350104Y-143559585D01*
G37*
G36*
X97850104Y-143559585D02*
X98018626Y-143629389D01*
X98170291Y-143730728D01*
X98299272Y-143859709D01*
X98400611Y-144011374D01*
X98470415Y-144179896D01*
X98506000Y-144358797D01*
X98506000Y-144541203D01*
X98470415Y-144720104D01*
X98400611Y-144888626D01*
X98299272Y-145040291D01*
X98170291Y-145169272D01*
X98018626Y-145270611D01*
X97850104Y-145340415D01*
X97671203Y-145376000D01*
X97488797Y-145376000D01*
X97309896Y-145340415D01*
X97141374Y-145270611D01*
X96989709Y-145169272D01*
X96860728Y-145040291D01*
X96759389Y-144888626D01*
X96689585Y-144720104D01*
X96654000Y-144541203D01*
X96654000Y-144358797D01*
X96689585Y-144179896D01*
X96759389Y-144011374D01*
X96860728Y-143859709D01*
X96989709Y-143730728D01*
X97141374Y-143629389D01*
X97309896Y-143559585D01*
X97488797Y-143524000D01*
X97671203Y-143524000D01*
X97850104Y-143559585D01*
X97850104Y-143559585D01*
G37*
G36*
X79990104Y-143559585D02*
X80158626Y-143629389D01*
X80310291Y-143730728D01*
X80439272Y-143859709D01*
X80540611Y-144011374D01*
X80610415Y-144179896D01*
X80646000Y-144358797D01*
X80646000Y-144541203D01*
X80610415Y-144720104D01*
X80540611Y-144888626D01*
X80439272Y-145040291D01*
X80310291Y-145169272D01*
X80158626Y-145270611D01*
X79990104Y-145340415D01*
X79811203Y-145376000D01*
X79628797Y-145376000D01*
X79449896Y-145340415D01*
X79281374Y-145270611D01*
X79129709Y-145169272D01*
X79000728Y-145040291D01*
X78899389Y-144888626D01*
X78829585Y-144720104D01*
X78794000Y-144541203D01*
X78794000Y-144358797D01*
X78829585Y-144179896D01*
X78899389Y-144011374D01*
X79000728Y-143859709D01*
X79129709Y-143730728D01*
X79281374Y-143629389D01*
X79449896Y-143559585D01*
X79628797Y-143524000D01*
X79811203Y-143524000D01*
X79990104Y-143559585D01*
X79990104Y-143559585D01*
G37*
G36*
X83146000Y-145376000D02*
X81294000Y-145376000D01*
X81294000Y-143524000D01*
X83146000Y-143524000D01*
X83146000Y-145376000D01*
X83146000Y-145376000D01*
G37*
G36*
X126326000Y-145376000D02*
X124474000Y-145376000D01*
X124474000Y-143524000D01*
X126326000Y-143524000D01*
X126326000Y-145376000D01*
X126326000Y-145376000D01*
G37*
G36*
X118170104Y-133399585D02*
X118338626Y-133469389D01*
X118490291Y-133570728D01*
X118619272Y-133699709D01*
X118720611Y-133851374D01*
X118790415Y-134019896D01*
X118826000Y-134198797D01*
X118826000Y-134381203D01*
X118790415Y-134560104D01*
X118720611Y-134728626D01*
X118619272Y-134880291D01*
X118490291Y-135009272D01*
X118338626Y-135110611D01*
X118170104Y-135180415D01*
X117991203Y-135216000D01*
X117808797Y-135216000D01*
X117629896Y-135180415D01*
X117461374Y-135110611D01*
X117309709Y-135009272D01*
X117180728Y-134880291D01*
X117079389Y-134728626D01*
X117009585Y-134560104D01*
X116974000Y-134381203D01*
X116974000Y-134198797D01*
X117009585Y-134019896D01*
X117079389Y-133851374D01*
X117180728Y-133699709D01*
X117309709Y-133570728D01*
X117461374Y-133469389D01*
X117629896Y-133399585D01*
X117808797Y-133364000D01*
X117991203Y-133364000D01*
X118170104Y-133399585D01*
X118170104Y-133399585D01*
G37*
G36*
X97930104Y-133399585D02*
X98098626Y-133469389D01*
X98250291Y-133570728D01*
X98379272Y-133699709D01*
X98480611Y-133851374D01*
X98550415Y-134019896D01*
X98586000Y-134198797D01*
X98586000Y-134381203D01*
X98550415Y-134560104D01*
X98480611Y-134728626D01*
X98379272Y-134880291D01*
X98250291Y-135009272D01*
X98098626Y-135110611D01*
X97930104Y-135180415D01*
X97751203Y-135216000D01*
X97568797Y-135216000D01*
X97389896Y-135180415D01*
X97221374Y-135110611D01*
X97069709Y-135009272D01*
X96940728Y-134880291D01*
X96839389Y-134728626D01*
X96769585Y-134560104D01*
X96734000Y-134381203D01*
X96734000Y-134198797D01*
X96769585Y-134019896D01*
X96839389Y-133851374D01*
X96940728Y-133699709D01*
X97069709Y-133570728D01*
X97221374Y-133469389D01*
X97389896Y-133399585D01*
X97568797Y-133364000D01*
X97751203Y-133364000D01*
X97930104Y-133399585D01*
X97930104Y-133399585D01*
G37*
G36*
X100430104Y-133399585D02*
X100598626Y-133469389D01*
X100750291Y-133570728D01*
X100879272Y-133699709D01*
X100980611Y-133851374D01*
X101050415Y-134019896D01*
X101086000Y-134198797D01*
X101086000Y-134381203D01*
X101050415Y-134560104D01*
X100980611Y-134728626D01*
X100879272Y-134880291D01*
X100750291Y-135009272D01*
X100598626Y-135110611D01*
X100430104Y-135180415D01*
X100251203Y-135216000D01*
X100068797Y-135216000D01*
X99889896Y-135180415D01*
X99721374Y-135110611D01*
X99569709Y-135009272D01*
X99440728Y-134880291D01*
X99339389Y-134728626D01*
X99269585Y-134560104D01*
X99234000Y-134381203D01*
X99234000Y-134198797D01*
X99269585Y-134019896D01*
X99339389Y-133851374D01*
X99440728Y-133699709D01*
X99569709Y-133570728D01*
X99721374Y-133469389D01*
X99889896Y-133399585D01*
X100068797Y-133364000D01*
X100251203Y-133364000D01*
X100430104Y-133399585D01*
X100430104Y-133399585D01*
G37*
G36*
X102930104Y-133399585D02*
X103098626Y-133469389D01*
X103250291Y-133570728D01*
X103379272Y-133699709D01*
X103480611Y-133851374D01*
X103550415Y-134019896D01*
X103586000Y-134198797D01*
X103586000Y-134381203D01*
X103550415Y-134560104D01*
X103480611Y-134728626D01*
X103379272Y-134880291D01*
X103250291Y-135009272D01*
X103098626Y-135110611D01*
X102930104Y-135180415D01*
X102751203Y-135216000D01*
X102568797Y-135216000D01*
X102389896Y-135180415D01*
X102221374Y-135110611D01*
X102069709Y-135009272D01*
X101940728Y-134880291D01*
X101839389Y-134728626D01*
X101769585Y-134560104D01*
X101734000Y-134381203D01*
X101734000Y-134198797D01*
X101769585Y-134019896D01*
X101839389Y-133851374D01*
X101940728Y-133699709D01*
X102069709Y-133570728D01*
X102221374Y-133469389D01*
X102389896Y-133399585D01*
X102568797Y-133364000D01*
X102751203Y-133364000D01*
X102930104Y-133399585D01*
X102930104Y-133399585D01*
G37*
G36*
X107930104Y-133399585D02*
X108098626Y-133469389D01*
X108250291Y-133570728D01*
X108379272Y-133699709D01*
X108480611Y-133851374D01*
X108550415Y-134019896D01*
X108586000Y-134198797D01*
X108586000Y-134381203D01*
X108550415Y-134560104D01*
X108480611Y-134728626D01*
X108379272Y-134880291D01*
X108250291Y-135009272D01*
X108098626Y-135110611D01*
X107930104Y-135180415D01*
X107751203Y-135216000D01*
X107568797Y-135216000D01*
X107389896Y-135180415D01*
X107221374Y-135110611D01*
X107069709Y-135009272D01*
X106940728Y-134880291D01*
X106839389Y-134728626D01*
X106769585Y-134560104D01*
X106734000Y-134381203D01*
X106734000Y-134198797D01*
X106769585Y-134019896D01*
X106839389Y-133851374D01*
X106940728Y-133699709D01*
X107069709Y-133570728D01*
X107221374Y-133469389D01*
X107389896Y-133399585D01*
X107568797Y-133364000D01*
X107751203Y-133364000D01*
X107930104Y-133399585D01*
X107930104Y-133399585D01*
G37*
G36*
X111086000Y-135216000D02*
X109234000Y-135216000D01*
X109234000Y-133364000D01*
X111086000Y-133364000D01*
X111086000Y-135216000D01*
X111086000Y-135216000D01*
G37*
G36*
X120670104Y-133399585D02*
X120838626Y-133469389D01*
X120990291Y-133570728D01*
X121119272Y-133699709D01*
X121220611Y-133851374D01*
X121290415Y-134019896D01*
X121326000Y-134198797D01*
X121326000Y-134381203D01*
X121290415Y-134560104D01*
X121220611Y-134728626D01*
X121119272Y-134880291D01*
X120990291Y-135009272D01*
X120838626Y-135110611D01*
X120670104Y-135180415D01*
X120491203Y-135216000D01*
X120308797Y-135216000D01*
X120129896Y-135180415D01*
X119961374Y-135110611D01*
X119809709Y-135009272D01*
X119680728Y-134880291D01*
X119579389Y-134728626D01*
X119509585Y-134560104D01*
X119474000Y-134381203D01*
X119474000Y-134198797D01*
X119509585Y-134019896D01*
X119579389Y-133851374D01*
X119680728Y-133699709D01*
X119809709Y-133570728D01*
X119961374Y-133469389D01*
X120129896Y-133399585D01*
X120308797Y-133364000D01*
X120491203Y-133364000D01*
X120670104Y-133399585D01*
X120670104Y-133399585D01*
G37*
G36*
X123170104Y-133399585D02*
X123338626Y-133469389D01*
X123490291Y-133570728D01*
X123619272Y-133699709D01*
X123720611Y-133851374D01*
X123790415Y-134019896D01*
X123826000Y-134198797D01*
X123826000Y-134381203D01*
X123790415Y-134560104D01*
X123720611Y-134728626D01*
X123619272Y-134880291D01*
X123490291Y-135009272D01*
X123338626Y-135110611D01*
X123170104Y-135180415D01*
X122991203Y-135216000D01*
X122808797Y-135216000D01*
X122629896Y-135180415D01*
X122461374Y-135110611D01*
X122309709Y-135009272D01*
X122180728Y-134880291D01*
X122079389Y-134728626D01*
X122009585Y-134560104D01*
X121974000Y-134381203D01*
X121974000Y-134198797D01*
X122009585Y-134019896D01*
X122079389Y-133851374D01*
X122180728Y-133699709D01*
X122309709Y-133570728D01*
X122461374Y-133469389D01*
X122629896Y-133399585D01*
X122808797Y-133364000D01*
X122991203Y-133364000D01*
X123170104Y-133399585D01*
X123170104Y-133399585D01*
G37*
G36*
X126326000Y-135216000D02*
X124474000Y-135216000D01*
X124474000Y-133364000D01*
X126326000Y-133364000D01*
X126326000Y-135216000D01*
X126326000Y-135216000D01*
G37*
G36*
X105430104Y-133399585D02*
X105598626Y-133469389D01*
X105750291Y-133570728D01*
X105879272Y-133699709D01*
X105980611Y-133851374D01*
X106050415Y-134019896D01*
X106086000Y-134198797D01*
X106086000Y-134381203D01*
X106050415Y-134560104D01*
X105980611Y-134728626D01*
X105879272Y-134880291D01*
X105750291Y-135009272D01*
X105598626Y-135110611D01*
X105430104Y-135180415D01*
X105251203Y-135216000D01*
X105068797Y-135216000D01*
X104889896Y-135180415D01*
X104721374Y-135110611D01*
X104569709Y-135009272D01*
X104440728Y-134880291D01*
X104339389Y-134728626D01*
X104269585Y-134560104D01*
X104234000Y-134381203D01*
X104234000Y-134198797D01*
X104269585Y-134019896D01*
X104339389Y-133851374D01*
X104440728Y-133699709D01*
X104569709Y-133570728D01*
X104721374Y-133469389D01*
X104889896Y-133399585D01*
X105068797Y-133364000D01*
X105251203Y-133364000D01*
X105430104Y-133399585D01*
X105430104Y-133399585D01*
G37*
G36*
X67881000Y-110811000D02*
X66079000Y-110811000D01*
X66079000Y-109509000D01*
X67881000Y-109509000D01*
X67881000Y-110811000D01*
X67881000Y-110811000D01*
G37*
G36*
X67293855Y-107512140D02*
X67357618Y-107518420D01*
X67439427Y-107543237D01*
X67480333Y-107555645D01*
X67580491Y-107609181D01*
X67593426Y-107616095D01*
X67692553Y-107697447D01*
X67773905Y-107796574D01*
X67773906Y-107796576D01*
X67834355Y-107909667D01*
X67834355Y-107909668D01*
X67871580Y-108032382D01*
X67884149Y-108160000D01*
X67871580Y-108287618D01*
X67846763Y-108369427D01*
X67834355Y-108410333D01*
X67780819Y-108510491D01*
X67773905Y-108523426D01*
X67692553Y-108622553D01*
X67593426Y-108703905D01*
X67593424Y-108703906D01*
X67480333Y-108764355D01*
X67439427Y-108776763D01*
X67357618Y-108801580D01*
X67293855Y-108807860D01*
X67261974Y-108811000D01*
X66698026Y-108811000D01*
X66666145Y-108807860D01*
X66602382Y-108801580D01*
X66520573Y-108776763D01*
X66479667Y-108764355D01*
X66366576Y-108703906D01*
X66366574Y-108703905D01*
X66267447Y-108622553D01*
X66186095Y-108523426D01*
X66179181Y-108510491D01*
X66125645Y-108410333D01*
X66113237Y-108369427D01*
X66088420Y-108287618D01*
X66075851Y-108160000D01*
X66088420Y-108032382D01*
X66125645Y-107909668D01*
X66125645Y-107909667D01*
X66186094Y-107796576D01*
X66186095Y-107796574D01*
X66267447Y-107697447D01*
X66366574Y-107616095D01*
X66379509Y-107609181D01*
X66479667Y-107555645D01*
X66520573Y-107543237D01*
X66602382Y-107518420D01*
X66666145Y-107512140D01*
X66698026Y-107509000D01*
X67261974Y-107509000D01*
X67293855Y-107512140D01*
X67293855Y-107512140D01*
G37*
G36*
X67293855Y-105512140D02*
X67357618Y-105518420D01*
X67439427Y-105543237D01*
X67480333Y-105555645D01*
X67580491Y-105609181D01*
X67593426Y-105616095D01*
X67692553Y-105697447D01*
X67773905Y-105796574D01*
X67773906Y-105796576D01*
X67834355Y-105909667D01*
X67834355Y-105909668D01*
X67871580Y-106032382D01*
X67884149Y-106160000D01*
X67871580Y-106287618D01*
X67846763Y-106369427D01*
X67834355Y-106410333D01*
X67780819Y-106510491D01*
X67773905Y-106523426D01*
X67692553Y-106622553D01*
X67593426Y-106703905D01*
X67593424Y-106703906D01*
X67480333Y-106764355D01*
X67439427Y-106776763D01*
X67357618Y-106801580D01*
X67293855Y-106807860D01*
X67261974Y-106811000D01*
X66698026Y-106811000D01*
X66666145Y-106807860D01*
X66602382Y-106801580D01*
X66520573Y-106776763D01*
X66479667Y-106764355D01*
X66366576Y-106703906D01*
X66366574Y-106703905D01*
X66267447Y-106622553D01*
X66186095Y-106523426D01*
X66179181Y-106510491D01*
X66125645Y-106410333D01*
X66113237Y-106369427D01*
X66088420Y-106287618D01*
X66075851Y-106160000D01*
X66088420Y-106032382D01*
X66125645Y-105909668D01*
X66125645Y-105909667D01*
X66186094Y-105796576D01*
X66186095Y-105796574D01*
X66267447Y-105697447D01*
X66366574Y-105616095D01*
X66379509Y-105609181D01*
X66479667Y-105555645D01*
X66520573Y-105543237D01*
X66602382Y-105518420D01*
X66666145Y-105512140D01*
X66698026Y-105509000D01*
X67261974Y-105509000D01*
X67293855Y-105512140D01*
X67293855Y-105512140D01*
G37*
G36*
X67293855Y-103512140D02*
X67357618Y-103518420D01*
X67439427Y-103543237D01*
X67480333Y-103555645D01*
X67580491Y-103609181D01*
X67593426Y-103616095D01*
X67692553Y-103697447D01*
X67773905Y-103796574D01*
X67773906Y-103796576D01*
X67834355Y-103909667D01*
X67834355Y-103909668D01*
X67871580Y-104032382D01*
X67884149Y-104160000D01*
X67871580Y-104287618D01*
X67846763Y-104369427D01*
X67834355Y-104410333D01*
X67780819Y-104510491D01*
X67773905Y-104523426D01*
X67692553Y-104622553D01*
X67593426Y-104703905D01*
X67593424Y-104703906D01*
X67480333Y-104764355D01*
X67439427Y-104776763D01*
X67357618Y-104801580D01*
X67293855Y-104807860D01*
X67261974Y-104811000D01*
X66698026Y-104811000D01*
X66666145Y-104807860D01*
X66602382Y-104801580D01*
X66520573Y-104776763D01*
X66479667Y-104764355D01*
X66366576Y-104703906D01*
X66366574Y-104703905D01*
X66267447Y-104622553D01*
X66186095Y-104523426D01*
X66179181Y-104510491D01*
X66125645Y-104410333D01*
X66113237Y-104369427D01*
X66088420Y-104287618D01*
X66075851Y-104160000D01*
X66088420Y-104032382D01*
X66125645Y-103909668D01*
X66125645Y-103909667D01*
X66186094Y-103796576D01*
X66186095Y-103796574D01*
X66267447Y-103697447D01*
X66366574Y-103616095D01*
X66379509Y-103609181D01*
X66479667Y-103555645D01*
X66520573Y-103543237D01*
X66602382Y-103518420D01*
X66666145Y-103512140D01*
X66698026Y-103509000D01*
X67261974Y-103509000D01*
X67293855Y-103512140D01*
X67293855Y-103512140D01*
G37*
G36*
X67293855Y-101512140D02*
X67357618Y-101518420D01*
X67439427Y-101543237D01*
X67480333Y-101555645D01*
X67580491Y-101609181D01*
X67593426Y-101616095D01*
X67692553Y-101697447D01*
X67773905Y-101796574D01*
X67773906Y-101796576D01*
X67834355Y-101909667D01*
X67834355Y-101909668D01*
X67871580Y-102032382D01*
X67884149Y-102160000D01*
X67871580Y-102287618D01*
X67846763Y-102369427D01*
X67834355Y-102410333D01*
X67780819Y-102510491D01*
X67773905Y-102523426D01*
X67692553Y-102622553D01*
X67593426Y-102703905D01*
X67593424Y-102703906D01*
X67480333Y-102764355D01*
X67439427Y-102776763D01*
X67357618Y-102801580D01*
X67293855Y-102807860D01*
X67261974Y-102811000D01*
X66698026Y-102811000D01*
X66666145Y-102807860D01*
X66602382Y-102801580D01*
X66520573Y-102776763D01*
X66479667Y-102764355D01*
X66366576Y-102703906D01*
X66366574Y-102703905D01*
X66267447Y-102622553D01*
X66186095Y-102523426D01*
X66179181Y-102510491D01*
X66125645Y-102410333D01*
X66113237Y-102369427D01*
X66088420Y-102287618D01*
X66075851Y-102160000D01*
X66088420Y-102032382D01*
X66125645Y-101909668D01*
X66125645Y-101909667D01*
X66186094Y-101796576D01*
X66186095Y-101796574D01*
X66267447Y-101697447D01*
X66366574Y-101616095D01*
X66379509Y-101609181D01*
X66479667Y-101555645D01*
X66520573Y-101543237D01*
X66602382Y-101518420D01*
X66666145Y-101512140D01*
X66698026Y-101509000D01*
X67261974Y-101509000D01*
X67293855Y-101512140D01*
X67293855Y-101512140D01*
G37*
G36*
X67293855Y-99512140D02*
X67357618Y-99518420D01*
X67439427Y-99543237D01*
X67480333Y-99555645D01*
X67580491Y-99609181D01*
X67593426Y-99616095D01*
X67692553Y-99697447D01*
X67773905Y-99796574D01*
X67773906Y-99796576D01*
X67834355Y-99909667D01*
X67834355Y-99909668D01*
X67871580Y-100032382D01*
X67884149Y-100160000D01*
X67871580Y-100287618D01*
X67846763Y-100369427D01*
X67834355Y-100410333D01*
X67780819Y-100510491D01*
X67773905Y-100523426D01*
X67692553Y-100622553D01*
X67593426Y-100703905D01*
X67593424Y-100703906D01*
X67480333Y-100764355D01*
X67439427Y-100776763D01*
X67357618Y-100801580D01*
X67293855Y-100807860D01*
X67261974Y-100811000D01*
X66698026Y-100811000D01*
X66666145Y-100807860D01*
X66602382Y-100801580D01*
X66520573Y-100776763D01*
X66479667Y-100764355D01*
X66366576Y-100703906D01*
X66366574Y-100703905D01*
X66267447Y-100622553D01*
X66186095Y-100523426D01*
X66179181Y-100510491D01*
X66125645Y-100410333D01*
X66113237Y-100369427D01*
X66088420Y-100287618D01*
X66075851Y-100160000D01*
X66088420Y-100032382D01*
X66125645Y-99909668D01*
X66125645Y-99909667D01*
X66186094Y-99796576D01*
X66186095Y-99796574D01*
X66267447Y-99697447D01*
X66366574Y-99616095D01*
X66379509Y-99609181D01*
X66479667Y-99555645D01*
X66520573Y-99543237D01*
X66602382Y-99518420D01*
X66666145Y-99512140D01*
X66698026Y-99509000D01*
X67261974Y-99509000D01*
X67293855Y-99512140D01*
X67293855Y-99512140D01*
G37*
G36*
X112948228Y-89656703D02*
X113103100Y-89720853D01*
X113242481Y-89813985D01*
X113361015Y-89932519D01*
X113454147Y-90071900D01*
X113518297Y-90226772D01*
X113551000Y-90391184D01*
X113551000Y-90558816D01*
X113518297Y-90723228D01*
X113454147Y-90878100D01*
X113361015Y-91017481D01*
X113242481Y-91136015D01*
X113103100Y-91229147D01*
X112948228Y-91293297D01*
X112783816Y-91326000D01*
X112616184Y-91326000D01*
X112451772Y-91293297D01*
X112296900Y-91229147D01*
X112157519Y-91136015D01*
X112038985Y-91017481D01*
X111945853Y-90878100D01*
X111881703Y-90723228D01*
X111849000Y-90558816D01*
X111849000Y-90391184D01*
X111881703Y-90226772D01*
X111945853Y-90071900D01*
X112038985Y-89932519D01*
X112157519Y-89813985D01*
X112296900Y-89720853D01*
X112451772Y-89656703D01*
X112616184Y-89624000D01*
X112783816Y-89624000D01*
X112948228Y-89656703D01*
X112948228Y-89656703D01*
G37*
G36*
X112948228Y-87116703D02*
X113103100Y-87180853D01*
X113242481Y-87273985D01*
X113361015Y-87392519D01*
X113454147Y-87531900D01*
X113518297Y-87686772D01*
X113551000Y-87851184D01*
X113551000Y-88018816D01*
X113518297Y-88183228D01*
X113454147Y-88338100D01*
X113361015Y-88477481D01*
X113242481Y-88596015D01*
X113103100Y-88689147D01*
X112948228Y-88753297D01*
X112783816Y-88786000D01*
X112616184Y-88786000D01*
X112451772Y-88753297D01*
X112296900Y-88689147D01*
X112157519Y-88596015D01*
X112038985Y-88477481D01*
X111945853Y-88338100D01*
X111881703Y-88183228D01*
X111849000Y-88018816D01*
X111849000Y-87851184D01*
X111881703Y-87686772D01*
X111945853Y-87531900D01*
X112038985Y-87392519D01*
X112157519Y-87273985D01*
X112296900Y-87180853D01*
X112451772Y-87116703D01*
X112616184Y-87084000D01*
X112783816Y-87084000D01*
X112948228Y-87116703D01*
X112948228Y-87116703D01*
G37*
G36*
X67906000Y-88226000D02*
X66054000Y-88226000D01*
X66054000Y-86374000D01*
X67906000Y-86374000D01*
X67906000Y-88226000D01*
X67906000Y-88226000D01*
G37*
G36*
X112948228Y-84576703D02*
X113103100Y-84640853D01*
X113242481Y-84733985D01*
X113361015Y-84852519D01*
X113454147Y-84991900D01*
X113518297Y-85146772D01*
X113551000Y-85311184D01*
X113551000Y-85478816D01*
X113518297Y-85643228D01*
X113454147Y-85798100D01*
X113361015Y-85937481D01*
X113242481Y-86056015D01*
X113103100Y-86149147D01*
X112948228Y-86213297D01*
X112783816Y-86246000D01*
X112616184Y-86246000D01*
X112451772Y-86213297D01*
X112296900Y-86149147D01*
X112157519Y-86056015D01*
X112038985Y-85937481D01*
X111945853Y-85798100D01*
X111881703Y-85643228D01*
X111849000Y-85478816D01*
X111849000Y-85311184D01*
X111881703Y-85146772D01*
X111945853Y-84991900D01*
X112038985Y-84852519D01*
X112157519Y-84733985D01*
X112296900Y-84640853D01*
X112451772Y-84576703D01*
X112616184Y-84544000D01*
X112783816Y-84544000D01*
X112948228Y-84576703D01*
X112948228Y-84576703D01*
G37*
G36*
X67250104Y-83909585D02*
X67418626Y-83979389D01*
X67570291Y-84080728D01*
X67699272Y-84209709D01*
X67800611Y-84361374D01*
X67870415Y-84529896D01*
X67906000Y-84708797D01*
X67906000Y-84891203D01*
X67870415Y-85070104D01*
X67800611Y-85238626D01*
X67699272Y-85390291D01*
X67570291Y-85519272D01*
X67418626Y-85620611D01*
X67250104Y-85690415D01*
X67071203Y-85726000D01*
X66888797Y-85726000D01*
X66709896Y-85690415D01*
X66541374Y-85620611D01*
X66389709Y-85519272D01*
X66260728Y-85390291D01*
X66159389Y-85238626D01*
X66089585Y-85070104D01*
X66054000Y-84891203D01*
X66054000Y-84708797D01*
X66089585Y-84529896D01*
X66159389Y-84361374D01*
X66260728Y-84209709D01*
X66389709Y-84080728D01*
X66541374Y-83979389D01*
X66709896Y-83909585D01*
X66888797Y-83874000D01*
X67071203Y-83874000D01*
X67250104Y-83909585D01*
X67250104Y-83909585D01*
G37*
G36*
X112948228Y-82036703D02*
X113103100Y-82100853D01*
X113242481Y-82193985D01*
X113361015Y-82312519D01*
X113454147Y-82451900D01*
X113518297Y-82606772D01*
X113551000Y-82771184D01*
X113551000Y-82938816D01*
X113518297Y-83103228D01*
X113454147Y-83258100D01*
X113361015Y-83397481D01*
X113242481Y-83516015D01*
X113103100Y-83609147D01*
X112948228Y-83673297D01*
X112783816Y-83706000D01*
X112616184Y-83706000D01*
X112451772Y-83673297D01*
X112296900Y-83609147D01*
X112157519Y-83516015D01*
X112038985Y-83397481D01*
X111945853Y-83258100D01*
X111881703Y-83103228D01*
X111849000Y-82938816D01*
X111849000Y-82771184D01*
X111881703Y-82606772D01*
X111945853Y-82451900D01*
X112038985Y-82312519D01*
X112157519Y-82193985D01*
X112296900Y-82100853D01*
X112451772Y-82036703D01*
X112616184Y-82004000D01*
X112783816Y-82004000D01*
X112948228Y-82036703D01*
X112948228Y-82036703D01*
G37*
G36*
X69801000Y-79436000D02*
X66699000Y-79436000D01*
X66699000Y-76984000D01*
X69801000Y-76984000D01*
X69801000Y-79436000D01*
X69801000Y-79436000D01*
G37*
G36*
X132315338Y-76716739D02*
X132546440Y-76786843D01*
X132759425Y-76900686D01*
X132946107Y-77053893D01*
X133099314Y-77240575D01*
X133213157Y-77453560D01*
X133283261Y-77684662D01*
X133306932Y-77925000D01*
X133283261Y-78165338D01*
X133213157Y-78396440D01*
X133099314Y-78609425D01*
X132946107Y-78796107D01*
X132759425Y-78949314D01*
X132546440Y-79063157D01*
X132315338Y-79133261D01*
X132135229Y-79151000D01*
X131364771Y-79151000D01*
X131184662Y-79133261D01*
X130953560Y-79063157D01*
X130740575Y-78949314D01*
X130553893Y-78796107D01*
X130400686Y-78609425D01*
X130286843Y-78396440D01*
X130216739Y-78165338D01*
X130193068Y-77925000D01*
X130216739Y-77684662D01*
X130286843Y-77453560D01*
X130400686Y-77240575D01*
X130553893Y-77053893D01*
X130740575Y-76900686D01*
X130953560Y-76786843D01*
X131184662Y-76716739D01*
X131364771Y-76699000D01*
X132135229Y-76699000D01*
X132315338Y-76716739D01*
X132315338Y-76716739D01*
G37*
G36*
X68815338Y-73041739D02*
X69046440Y-73111843D01*
X69259425Y-73225686D01*
X69446107Y-73378893D01*
X69599314Y-73565575D01*
X69713157Y-73778560D01*
X69783261Y-74009662D01*
X69806932Y-74250000D01*
X69783261Y-74490338D01*
X69713157Y-74721440D01*
X69599314Y-74934425D01*
X69446107Y-75121107D01*
X69259425Y-75274314D01*
X69046440Y-75388157D01*
X68815338Y-75458261D01*
X68635229Y-75476000D01*
X67864771Y-75476000D01*
X67684662Y-75458261D01*
X67453560Y-75388157D01*
X67240575Y-75274314D01*
X67053893Y-75121107D01*
X66900686Y-74934425D01*
X66786843Y-74721440D01*
X66716739Y-74490338D01*
X66693068Y-74250000D01*
X66716739Y-74009662D01*
X66786843Y-73778560D01*
X66900686Y-73565575D01*
X67053893Y-73378893D01*
X67240575Y-73225686D01*
X67453560Y-73111843D01*
X67684662Y-73041739D01*
X67864771Y-73024000D01*
X68635229Y-73024000D01*
X68815338Y-73041739D01*
X68815338Y-73041739D01*
G37*
G36*
X133301000Y-75191000D02*
X130199000Y-75191000D01*
X130199000Y-72739000D01*
X133301000Y-72739000D01*
X133301000Y-75191000D01*
X133301000Y-75191000D01*
G37*
G36*
X103996425Y-71122760D02*
X103996428Y-71122761D01*
X103996429Y-71122761D01*
X104175693Y-71177140D01*
X104175695Y-71177141D01*
X104340905Y-71265448D01*
X104485712Y-71384288D01*
X104604552Y-71529095D01*
X104692859Y-71694305D01*
X104747240Y-71873575D01*
X104765601Y-72060000D01*
X104747240Y-72246425D01*
X104692859Y-72425695D01*
X104604552Y-72590905D01*
X104485712Y-72735712D01*
X104340905Y-72854552D01*
X104340903Y-72854553D01*
X104175693Y-72942860D01*
X103996429Y-72997239D01*
X103996428Y-72997239D01*
X103996425Y-72997240D01*
X103856718Y-73011000D01*
X103763282Y-73011000D01*
X103623575Y-72997240D01*
X103623572Y-72997239D01*
X103623571Y-72997239D01*
X103444307Y-72942860D01*
X103279097Y-72854553D01*
X103279095Y-72854552D01*
X103134288Y-72735712D01*
X103015448Y-72590905D01*
X102927141Y-72425695D01*
X102872760Y-72246425D01*
X102854399Y-72060000D01*
X102872760Y-71873575D01*
X102927141Y-71694305D01*
X103015448Y-71529095D01*
X103134288Y-71384288D01*
X103279095Y-71265448D01*
X103444305Y-71177141D01*
X103444307Y-71177140D01*
X103623571Y-71122761D01*
X103623572Y-71122761D01*
X103623575Y-71122760D01*
X103763282Y-71109000D01*
X103856718Y-71109000D01*
X103996425Y-71122760D01*
X103996425Y-71122760D01*
G37*
G36*
X115426425Y-71122760D02*
X115426428Y-71122761D01*
X115426429Y-71122761D01*
X115605693Y-71177140D01*
X115605695Y-71177141D01*
X115770905Y-71265448D01*
X115915712Y-71384288D01*
X116034552Y-71529095D01*
X116122859Y-71694305D01*
X116177240Y-71873575D01*
X116195601Y-72060000D01*
X116177240Y-72246425D01*
X116122859Y-72425695D01*
X116034552Y-72590905D01*
X115915712Y-72735712D01*
X115770905Y-72854552D01*
X115770903Y-72854553D01*
X115605693Y-72942860D01*
X115426429Y-72997239D01*
X115426428Y-72997239D01*
X115426425Y-72997240D01*
X115286718Y-73011000D01*
X115193282Y-73011000D01*
X115053575Y-72997240D01*
X115053572Y-72997239D01*
X115053571Y-72997239D01*
X114874307Y-72942860D01*
X114709097Y-72854553D01*
X114709095Y-72854552D01*
X114564288Y-72735712D01*
X114445448Y-72590905D01*
X114357141Y-72425695D01*
X114302760Y-72246425D01*
X114284399Y-72060000D01*
X114302760Y-71873575D01*
X114357141Y-71694305D01*
X114445448Y-71529095D01*
X114564288Y-71384288D01*
X114709095Y-71265448D01*
X114874305Y-71177141D01*
X114874307Y-71177140D01*
X115053571Y-71122761D01*
X115053572Y-71122761D01*
X115053575Y-71122760D01*
X115193282Y-71109000D01*
X115286718Y-71109000D01*
X115426425Y-71122760D01*
X115426425Y-71122760D01*
G37*
G36*
X117966425Y-71122760D02*
X117966428Y-71122761D01*
X117966429Y-71122761D01*
X118145693Y-71177140D01*
X118145695Y-71177141D01*
X118310905Y-71265448D01*
X118455712Y-71384288D01*
X118574552Y-71529095D01*
X118662859Y-71694305D01*
X118717240Y-71873575D01*
X118735601Y-72060000D01*
X118717240Y-72246425D01*
X118662859Y-72425695D01*
X118574552Y-72590905D01*
X118455712Y-72735712D01*
X118310905Y-72854552D01*
X118310903Y-72854553D01*
X118145693Y-72942860D01*
X117966429Y-72997239D01*
X117966428Y-72997239D01*
X117966425Y-72997240D01*
X117826718Y-73011000D01*
X117733282Y-73011000D01*
X117593575Y-72997240D01*
X117593572Y-72997239D01*
X117593571Y-72997239D01*
X117414307Y-72942860D01*
X117249097Y-72854553D01*
X117249095Y-72854552D01*
X117104288Y-72735712D01*
X116985448Y-72590905D01*
X116897141Y-72425695D01*
X116842760Y-72246425D01*
X116824399Y-72060000D01*
X116842760Y-71873575D01*
X116897141Y-71694305D01*
X116985448Y-71529095D01*
X117104288Y-71384288D01*
X117249095Y-71265448D01*
X117414305Y-71177141D01*
X117414307Y-71177140D01*
X117593571Y-71122761D01*
X117593572Y-71122761D01*
X117593575Y-71122760D01*
X117733282Y-71109000D01*
X117826718Y-71109000D01*
X117966425Y-71122760D01*
X117966425Y-71122760D01*
G37*
G36*
X121271000Y-73011000D02*
X119369000Y-73011000D01*
X119369000Y-71109000D01*
X121271000Y-71109000D01*
X121271000Y-73011000D01*
X121271000Y-73011000D01*
G37*
G36*
X106536425Y-71122760D02*
X106536428Y-71122761D01*
X106536429Y-71122761D01*
X106715693Y-71177140D01*
X106715695Y-71177141D01*
X106880905Y-71265448D01*
X107025712Y-71384288D01*
X107144552Y-71529095D01*
X107232859Y-71694305D01*
X107287240Y-71873575D01*
X107305601Y-72060000D01*
X107287240Y-72246425D01*
X107232859Y-72425695D01*
X107144552Y-72590905D01*
X107025712Y-72735712D01*
X106880905Y-72854552D01*
X106880903Y-72854553D01*
X106715693Y-72942860D01*
X106536429Y-72997239D01*
X106536428Y-72997239D01*
X106536425Y-72997240D01*
X106396718Y-73011000D01*
X106303282Y-73011000D01*
X106163575Y-72997240D01*
X106163572Y-72997239D01*
X106163571Y-72997239D01*
X105984307Y-72942860D01*
X105819097Y-72854553D01*
X105819095Y-72854552D01*
X105674288Y-72735712D01*
X105555448Y-72590905D01*
X105467141Y-72425695D01*
X105412760Y-72246425D01*
X105394399Y-72060000D01*
X105412760Y-71873575D01*
X105467141Y-71694305D01*
X105555448Y-71529095D01*
X105674288Y-71384288D01*
X105819095Y-71265448D01*
X105984305Y-71177141D01*
X105984307Y-71177140D01*
X106163571Y-71122761D01*
X106163572Y-71122761D01*
X106163575Y-71122760D01*
X106303282Y-71109000D01*
X106396718Y-71109000D01*
X106536425Y-71122760D01*
X106536425Y-71122760D01*
G37*
G36*
X109841000Y-73011000D02*
X107939000Y-73011000D01*
X107939000Y-71109000D01*
X109841000Y-71109000D01*
X109841000Y-73011000D01*
X109841000Y-73011000D01*
G37*
G36*
X97141000Y-73011000D02*
X95239000Y-73011000D01*
X95239000Y-71109000D01*
X97141000Y-71109000D01*
X97141000Y-73011000D01*
X97141000Y-73011000D01*
G37*
G36*
X82406425Y-71122760D02*
X82406428Y-71122761D01*
X82406429Y-71122761D01*
X82585693Y-71177140D01*
X82585695Y-71177141D01*
X82750905Y-71265448D01*
X82895712Y-71384288D01*
X83014552Y-71529095D01*
X83102859Y-71694305D01*
X83157240Y-71873575D01*
X83175601Y-72060000D01*
X83157240Y-72246425D01*
X83102859Y-72425695D01*
X83014552Y-72590905D01*
X82895712Y-72735712D01*
X82750905Y-72854552D01*
X82750903Y-72854553D01*
X82585693Y-72942860D01*
X82406429Y-72997239D01*
X82406428Y-72997239D01*
X82406425Y-72997240D01*
X82266718Y-73011000D01*
X82173282Y-73011000D01*
X82033575Y-72997240D01*
X82033572Y-72997239D01*
X82033571Y-72997239D01*
X81854307Y-72942860D01*
X81689097Y-72854553D01*
X81689095Y-72854552D01*
X81544288Y-72735712D01*
X81425448Y-72590905D01*
X81337141Y-72425695D01*
X81282760Y-72246425D01*
X81264399Y-72060000D01*
X81282760Y-71873575D01*
X81337141Y-71694305D01*
X81425448Y-71529095D01*
X81544288Y-71384288D01*
X81689095Y-71265448D01*
X81854305Y-71177141D01*
X81854307Y-71177140D01*
X82033571Y-71122761D01*
X82033572Y-71122761D01*
X82033575Y-71122760D01*
X82173282Y-71109000D01*
X82266718Y-71109000D01*
X82406425Y-71122760D01*
X82406425Y-71122760D01*
G37*
G36*
X79866425Y-71122760D02*
X79866428Y-71122761D01*
X79866429Y-71122761D01*
X80045693Y-71177140D01*
X80045695Y-71177141D01*
X80210905Y-71265448D01*
X80355712Y-71384288D01*
X80474552Y-71529095D01*
X80562859Y-71694305D01*
X80617240Y-71873575D01*
X80635601Y-72060000D01*
X80617240Y-72246425D01*
X80562859Y-72425695D01*
X80474552Y-72590905D01*
X80355712Y-72735712D01*
X80210905Y-72854552D01*
X80210903Y-72854553D01*
X80045693Y-72942860D01*
X79866429Y-72997239D01*
X79866428Y-72997239D01*
X79866425Y-72997240D01*
X79726718Y-73011000D01*
X79633282Y-73011000D01*
X79493575Y-72997240D01*
X79493572Y-72997239D01*
X79493571Y-72997239D01*
X79314307Y-72942860D01*
X79149097Y-72854553D01*
X79149095Y-72854552D01*
X79004288Y-72735712D01*
X78885448Y-72590905D01*
X78797141Y-72425695D01*
X78742760Y-72246425D01*
X78724399Y-72060000D01*
X78742760Y-71873575D01*
X78797141Y-71694305D01*
X78885448Y-71529095D01*
X79004288Y-71384288D01*
X79149095Y-71265448D01*
X79314305Y-71177141D01*
X79314307Y-71177140D01*
X79493571Y-71122761D01*
X79493572Y-71122761D01*
X79493575Y-71122760D01*
X79633282Y-71109000D01*
X79726718Y-71109000D01*
X79866425Y-71122760D01*
X79866425Y-71122760D01*
G37*
G36*
X85711000Y-73011000D02*
X83809000Y-73011000D01*
X83809000Y-71109000D01*
X85711000Y-71109000D01*
X85711000Y-73011000D01*
X85711000Y-73011000D01*
G37*
G36*
X91296425Y-71122760D02*
X91296428Y-71122761D01*
X91296429Y-71122761D01*
X91475693Y-71177140D01*
X91475695Y-71177141D01*
X91640905Y-71265448D01*
X91785712Y-71384288D01*
X91904552Y-71529095D01*
X91992859Y-71694305D01*
X92047240Y-71873575D01*
X92065601Y-72060000D01*
X92047240Y-72246425D01*
X91992859Y-72425695D01*
X91904552Y-72590905D01*
X91785712Y-72735712D01*
X91640905Y-72854552D01*
X91640903Y-72854553D01*
X91475693Y-72942860D01*
X91296429Y-72997239D01*
X91296428Y-72997239D01*
X91296425Y-72997240D01*
X91156718Y-73011000D01*
X91063282Y-73011000D01*
X90923575Y-72997240D01*
X90923572Y-72997239D01*
X90923571Y-72997239D01*
X90744307Y-72942860D01*
X90579097Y-72854553D01*
X90579095Y-72854552D01*
X90434288Y-72735712D01*
X90315448Y-72590905D01*
X90227141Y-72425695D01*
X90172760Y-72246425D01*
X90154399Y-72060000D01*
X90172760Y-71873575D01*
X90227141Y-71694305D01*
X90315448Y-71529095D01*
X90434288Y-71384288D01*
X90579095Y-71265448D01*
X90744305Y-71177141D01*
X90744307Y-71177140D01*
X90923571Y-71122761D01*
X90923572Y-71122761D01*
X90923575Y-71122760D01*
X91063282Y-71109000D01*
X91156718Y-71109000D01*
X91296425Y-71122760D01*
X91296425Y-71122760D01*
G37*
G36*
X93836425Y-71122760D02*
X93836428Y-71122761D01*
X93836429Y-71122761D01*
X94015693Y-71177140D01*
X94015695Y-71177141D01*
X94180905Y-71265448D01*
X94325712Y-71384288D01*
X94444552Y-71529095D01*
X94532859Y-71694305D01*
X94587240Y-71873575D01*
X94605601Y-72060000D01*
X94587240Y-72246425D01*
X94532859Y-72425695D01*
X94444552Y-72590905D01*
X94325712Y-72735712D01*
X94180905Y-72854552D01*
X94180903Y-72854553D01*
X94015693Y-72942860D01*
X93836429Y-72997239D01*
X93836428Y-72997239D01*
X93836425Y-72997240D01*
X93696718Y-73011000D01*
X93603282Y-73011000D01*
X93463575Y-72997240D01*
X93463572Y-72997239D01*
X93463571Y-72997239D01*
X93284307Y-72942860D01*
X93119097Y-72854553D01*
X93119095Y-72854552D01*
X92974288Y-72735712D01*
X92855448Y-72590905D01*
X92767141Y-72425695D01*
X92712760Y-72246425D01*
X92694399Y-72060000D01*
X92712760Y-71873575D01*
X92767141Y-71694305D01*
X92855448Y-71529095D01*
X92974288Y-71384288D01*
X93119095Y-71265448D01*
X93284305Y-71177141D01*
X93284307Y-71177140D01*
X93463571Y-71122761D01*
X93463572Y-71122761D01*
X93463575Y-71122760D01*
X93603282Y-71109000D01*
X93696718Y-71109000D01*
X93836425Y-71122760D01*
X93836425Y-71122760D01*
G37*
G36*
X115026000Y-69451000D02*
X112424000Y-69451000D01*
X112424000Y-67049000D01*
X115026000Y-67049000D01*
X115026000Y-69451000D01*
X115026000Y-69451000D01*
G37*
G36*
X79466000Y-69451000D02*
X76864000Y-69451000D01*
X76864000Y-67049000D01*
X79466000Y-67049000D01*
X79466000Y-69451000D01*
X79466000Y-69451000D01*
G37*
G36*
X90896000Y-69451000D02*
X88294000Y-69451000D01*
X88294000Y-67049000D01*
X90896000Y-67049000D01*
X90896000Y-69451000D01*
X90896000Y-69451000D01*
G37*
G36*
X107896000Y-69451000D02*
X105294000Y-69451000D01*
X105294000Y-67049000D01*
X107896000Y-67049000D01*
X107896000Y-69451000D01*
X107896000Y-69451000D01*
G37*
G36*
X103596000Y-69451000D02*
X100994000Y-69451000D01*
X100994000Y-67049000D01*
X103596000Y-67049000D01*
X103596000Y-69451000D01*
X103596000Y-69451000D01*
G37*
G36*
X95196000Y-69451000D02*
X92594000Y-69451000D01*
X92594000Y-67049000D01*
X95196000Y-67049000D01*
X95196000Y-69451000D01*
X95196000Y-69451000D01*
G37*
G36*
X119326000Y-69451000D02*
X116724000Y-69451000D01*
X116724000Y-67049000D01*
X119326000Y-67049000D01*
X119326000Y-69451000D01*
X119326000Y-69451000D01*
G37*
G36*
X83766000Y-69451000D02*
X81164000Y-69451000D01*
X81164000Y-67049000D01*
X83766000Y-67049000D01*
X83766000Y-69451000D01*
X83766000Y-69451000D01*
G37*
G36*
X73111000Y-66761000D02*
X71009000Y-66761000D01*
X71009000Y-64659000D01*
X73111000Y-64659000D01*
X73111000Y-66761000D01*
X73111000Y-66761000D01*
G37*
G36*
X67366565Y-64699389D02*
X67557834Y-64778615D01*
X67729976Y-64893637D01*
X67876363Y-65040024D01*
X67991385Y-65212166D01*
X68070611Y-65403435D01*
X68111000Y-65606484D01*
X68111000Y-65813516D01*
X68070611Y-66016565D01*
X67991385Y-66207834D01*
X67876363Y-66379976D01*
X67729976Y-66526363D01*
X67557834Y-66641385D01*
X67366565Y-66720611D01*
X67163516Y-66761000D01*
X66956484Y-66761000D01*
X66753435Y-66720611D01*
X66562166Y-66641385D01*
X66390024Y-66526363D01*
X66243637Y-66379976D01*
X66128615Y-66207834D01*
X66049389Y-66016565D01*
X66009000Y-65813516D01*
X66009000Y-65606484D01*
X66049389Y-65403435D01*
X66128615Y-65212166D01*
X66243637Y-65040024D01*
X66390024Y-64893637D01*
X66562166Y-64778615D01*
X66753435Y-64699389D01*
X66956484Y-64659000D01*
X67163516Y-64659000D01*
X67366565Y-64699389D01*
X67366565Y-64699389D01*
G37*
G36*
X133831606Y-52758562D02*
X134350455Y-52973476D01*
X134814259Y-53283380D01*
X134817410Y-53285486D01*
X135214514Y-53682590D01*
X135214516Y-53682593D01*
X135526524Y-54149545D01*
X135741438Y-54668394D01*
X135851000Y-55219201D01*
X135851000Y-55780799D01*
X135741438Y-56331606D01*
X135526524Y-56850455D01*
X135378520Y-57071958D01*
X135214514Y-57317410D01*
X134817410Y-57714514D01*
X134817407Y-57714516D01*
X134350455Y-58026524D01*
X133831606Y-58241438D01*
X133280800Y-58351000D01*
X132719200Y-58351000D01*
X132168394Y-58241438D01*
X131649545Y-58026524D01*
X131182593Y-57714516D01*
X131182590Y-57714514D01*
X130785486Y-57317410D01*
X130621480Y-57071958D01*
X130473476Y-56850455D01*
X130258562Y-56331606D01*
X130149000Y-55780799D01*
X130149000Y-55219201D01*
X130258562Y-54668394D01*
X130473476Y-54149545D01*
X130785484Y-53682593D01*
X130785486Y-53682590D01*
X131182590Y-53285486D01*
X131185741Y-53283380D01*
X131649545Y-52973476D01*
X132168394Y-52758562D01*
X132719200Y-52649000D01*
X133280800Y-52649000D01*
X133831606Y-52758562D01*
X133831606Y-52758562D01*
G37*
G36*
X67831606Y-52758562D02*
X68350455Y-52973476D01*
X68814259Y-53283380D01*
X68817410Y-53285486D01*
X69214514Y-53682590D01*
X69214516Y-53682593D01*
X69526524Y-54149545D01*
X69741438Y-54668394D01*
X69851000Y-55219201D01*
X69851000Y-55780799D01*
X69741438Y-56331606D01*
X69526524Y-56850455D01*
X69378520Y-57071958D01*
X69214514Y-57317410D01*
X68817410Y-57714514D01*
X68817407Y-57714516D01*
X68350455Y-58026524D01*
X67831606Y-58241438D01*
X67280800Y-58351000D01*
X66719200Y-58351000D01*
X66168394Y-58241438D01*
X65649545Y-58026524D01*
X65182593Y-57714516D01*
X65182590Y-57714514D01*
X64785486Y-57317410D01*
X64621480Y-57071958D01*
X64473476Y-56850455D01*
X64258562Y-56331606D01*
X64149000Y-55780799D01*
X64149000Y-55219201D01*
X64258562Y-54668394D01*
X64473476Y-54149545D01*
X64785484Y-53682593D01*
X64785486Y-53682590D01*
X65182590Y-53285486D01*
X65185741Y-53283380D01*
X65649545Y-52973476D01*
X66168394Y-52758562D01*
X66719200Y-52649000D01*
X67280800Y-52649000D01*
X67831606Y-52758562D01*
X67831606Y-52758562D01*
G37*
G36*
X82396669Y-53607686D02*
X82573058Y-53625059D01*
X82762722Y-53682593D01*
X82912549Y-53728042D01*
X83225425Y-53895279D01*
X83499661Y-54120339D01*
X83724721Y-54394575D01*
X83891958Y-54707451D01*
X83891958Y-54707452D01*
X83994941Y-55046942D01*
X84029714Y-55400000D01*
X83994941Y-55753058D01*
X83926286Y-55979385D01*
X83891958Y-56092549D01*
X83724721Y-56405425D01*
X83499661Y-56679661D01*
X83225425Y-56904721D01*
X82912549Y-57071958D01*
X82799385Y-57106286D01*
X82573058Y-57174941D01*
X82396669Y-57192314D01*
X82308476Y-57201000D01*
X82131524Y-57201000D01*
X82043331Y-57192314D01*
X81866942Y-57174941D01*
X81640615Y-57106286D01*
X81527451Y-57071958D01*
X81214575Y-56904721D01*
X80940339Y-56679661D01*
X80715279Y-56405425D01*
X80548042Y-56092549D01*
X80513714Y-55979385D01*
X80445059Y-55753058D01*
X80410286Y-55400000D01*
X80445059Y-55046942D01*
X80548042Y-54707452D01*
X80548042Y-54707451D01*
X80715279Y-54394575D01*
X80940339Y-54120339D01*
X81214575Y-53895279D01*
X81527451Y-53728042D01*
X81677278Y-53682593D01*
X81866942Y-53625059D01*
X82043331Y-53607686D01*
X82131524Y-53599000D01*
X82308476Y-53599000D01*
X82396669Y-53607686D01*
X82396669Y-53607686D01*
G37*
G36*
X117956669Y-53607686D02*
X118133058Y-53625059D01*
X118322722Y-53682593D01*
X118472549Y-53728042D01*
X118785425Y-53895279D01*
X119059661Y-54120339D01*
X119284721Y-54394575D01*
X119451958Y-54707451D01*
X119451958Y-54707452D01*
X119554941Y-55046942D01*
X119589714Y-55400000D01*
X119554941Y-55753058D01*
X119486286Y-55979385D01*
X119451958Y-56092549D01*
X119284721Y-56405425D01*
X119059661Y-56679661D01*
X118785425Y-56904721D01*
X118472549Y-57071958D01*
X118359385Y-57106286D01*
X118133058Y-57174941D01*
X117956669Y-57192314D01*
X117868476Y-57201000D01*
X117691524Y-57201000D01*
X117603331Y-57192314D01*
X117426942Y-57174941D01*
X117200615Y-57106286D01*
X117087451Y-57071958D01*
X116774575Y-56904721D01*
X116500339Y-56679661D01*
X116275279Y-56405425D01*
X116108042Y-56092549D01*
X116073714Y-55979385D01*
X116005059Y-55753058D01*
X115970286Y-55400000D01*
X116005059Y-55046942D01*
X116108042Y-54707452D01*
X116108042Y-54707451D01*
X116275279Y-54394575D01*
X116500339Y-54120339D01*
X116774575Y-53895279D01*
X117087451Y-53728042D01*
X117237278Y-53682593D01*
X117426942Y-53625059D01*
X117603331Y-53607686D01*
X117691524Y-53599000D01*
X117868476Y-53599000D01*
X117956669Y-53607686D01*
X117956669Y-53607686D01*
G37*
G36*
X93826669Y-53607686D02*
X94003058Y-53625059D01*
X94192722Y-53682593D01*
X94342549Y-53728042D01*
X94655425Y-53895279D01*
X94929661Y-54120339D01*
X95154721Y-54394575D01*
X95321958Y-54707451D01*
X95321958Y-54707452D01*
X95424941Y-55046942D01*
X95459714Y-55400000D01*
X95424941Y-55753058D01*
X95356286Y-55979385D01*
X95321958Y-56092549D01*
X95154721Y-56405425D01*
X94929661Y-56679661D01*
X94655425Y-56904721D01*
X94342549Y-57071958D01*
X94229385Y-57106286D01*
X94003058Y-57174941D01*
X93826669Y-57192314D01*
X93738476Y-57201000D01*
X93561524Y-57201000D01*
X93473331Y-57192314D01*
X93296942Y-57174941D01*
X93070615Y-57106286D01*
X92957451Y-57071958D01*
X92644575Y-56904721D01*
X92370339Y-56679661D01*
X92145279Y-56405425D01*
X91978042Y-56092549D01*
X91943714Y-55979385D01*
X91875059Y-55753058D01*
X91840286Y-55400000D01*
X91875059Y-55046942D01*
X91978042Y-54707452D01*
X91978042Y-54707451D01*
X92145279Y-54394575D01*
X92370339Y-54120339D01*
X92644575Y-53895279D01*
X92957451Y-53728042D01*
X93107278Y-53682593D01*
X93296942Y-53625059D01*
X93473331Y-53607686D01*
X93561524Y-53599000D01*
X93738476Y-53599000D01*
X93826669Y-53607686D01*
X93826669Y-53607686D01*
G37*
G36*
X106526669Y-53607686D02*
X106703058Y-53625059D01*
X106892722Y-53682593D01*
X107042549Y-53728042D01*
X107355425Y-53895279D01*
X107629661Y-54120339D01*
X107854721Y-54394575D01*
X108021958Y-54707451D01*
X108021958Y-54707452D01*
X108124941Y-55046942D01*
X108159714Y-55400000D01*
X108124941Y-55753058D01*
X108056286Y-55979385D01*
X108021958Y-56092549D01*
X107854721Y-56405425D01*
X107629661Y-56679661D01*
X107355425Y-56904721D01*
X107042549Y-57071958D01*
X106929385Y-57106286D01*
X106703058Y-57174941D01*
X106526669Y-57192314D01*
X106438476Y-57201000D01*
X106261524Y-57201000D01*
X106173331Y-57192314D01*
X105996942Y-57174941D01*
X105770615Y-57106286D01*
X105657451Y-57071958D01*
X105344575Y-56904721D01*
X105070339Y-56679661D01*
X104845279Y-56405425D01*
X104678042Y-56092549D01*
X104643714Y-55979385D01*
X104575059Y-55753058D01*
X104540286Y-55400000D01*
X104575059Y-55046942D01*
X104678042Y-54707452D01*
X104678042Y-54707451D01*
X104845279Y-54394575D01*
X105070339Y-54120339D01*
X105344575Y-53895279D01*
X105657451Y-53728042D01*
X105807278Y-53682593D01*
X105996942Y-53625059D01*
X106173331Y-53607686D01*
X106261524Y-53599000D01*
X106438476Y-53599000D01*
X106526669Y-53607686D01*
X106526669Y-53607686D01*
G37*
M02*
